<?xml version="1.0" encoding="utf-8"?>
<svg version="1.0" xmlns="http://www.w3.org/2000/svg" xmlns:xlink="http://www.w3.org/1999/xlink" x="0px" y="0px" viewBox="-326.9 294.1 135.2 25" xml:space="preserve">
  <g>
    <path fill="#ffffff" d="M-306.6,298.7c-2.2-2.2-5-3.2-7.8-3.2s-5.7,1-7.8,3.2c-4.3,4.3-4.3,11.3,0,15.6s11.3,4.3,15.6,0S-302.3,303-306.6,298.7z M-309.4,311.4c-1.4,1.4-3.1,2-4.9,2s-3.6-0.7-4.9-2s-2-3.1-2-4.9s0.7-3.6,2-4.9c2.7-2.7,7.1-2.7,9.8,0c1.3,1.3,2,3.1,2,4.9S-308.2,310.1-309.4,311.4z"/>
    <g fill="#76C698">
      <path d="M-306.1,298.2c-0.8-0.8-1.6-1.4-2.5-1.9l-4.2,4.2c1,0.3,2,0.8,2.8,1.6s1.3,1.8,1.6,2.8l4.2-4.2C-304.7,299.8-305.3,298.9-306.1,298.2z"/>
      <path d="M-320.3,308.1l-4.2,4.2c0.5,0.9,1.1,1.7,1.9,2.5s1.6,1.4,2.5,1.9l4.2-4.2c-1-0.3-2-0.8-2.8-1.6S-320,309.1-320.3,308.1z"/>
      <path d="M-309.9,310.9c-0.8,0.8-1.8,1.3-2.8,1.6l4.2,4.2c0.9-0.5,1.7-1.1,2.5-1.9s1.4-1.6,1.9-2.5l-4.2-4.2C-308.7,309.1-309.2,310.1-309.9,310.9z"/>
      <path d="M-320.2,296.3c-0.8,0.5-1.7,1.1-2.4,1.9c-0.8,0.7-1.4,1.6-1.9,2.4l4.2,4.2c0.3-1,0.8-2,1.6-2.8s1.8-1.3,2.8-1.6L-320.2,296.3z"/>
    </g>
    <path fill="#173962" d="M-319.2,301.6c-1.3,1.3-2,3.1-2,4.9c0,1.9,0.7,3.6,2,4.9c1.4,1.4,3.1,2,4.9,2s3.6-0.7,4.9-2s2-3.1,2-4.9c0-1.9-0.7-3.6-2-4.9C-312.1,298.9-316.5,298.9-319.2,301.6z M-310.5,310.3c-2.1,2.1-5.6,2.1-7.7,0c-1-1-1.6-2.4-1.6-3.8s0.6-2.8,1.6-3.8c1.1-1.1,2.4-1.6,3.8-1.6s2.8,0.5,3.8,1.6c1,1,1.6,2.4,1.6,3.8S-309.4,309.3-310.5,310.3z M-305.6,297.7c-4.9-4.9-12.8-4.9-17.6,0s-4.9,12.8,0,17.6c2.4,2.4,5.6,3.7,8.8,3.7s6.4-1.2,8.8-3.7C-300.7,310.5-300.7,302.5-305.6,297.7z M-306.6,314.3c-4.3,4.3-11.3,4.3-15.6,0s-4.3-11.3,0-15.6c2.2-2.2,5-3.2,7.8-3.2s5.7,1.1,7.8,3.2C-302.3,303-302.3,310-306.6,314.3z"/>
  </g>
  <g fill="#003764">
    <path d="M-294.3,310.4c1.2,1.1,2.9,1.8,4.3,1.8c1.6,0,2.5-0.6,2.5-1.7s-1-1.5-2.5-2.1l-2.3-1c-1.8-0.7-3.6-2.2-3.6-4.8c0-2.9,2.6-5.2,6.3-5.2c2,0,4.2,0.8,5.7,2.3l-2,2.5c-1.2-0.9-2.3-1.4-3.7-1.4c-1.3,0-2.2,0.6-2.2,1.6c0,1.1,1.2,1.5,2.7,2.1l2.2,0.9c2.1,0.9,3.5,2.3,3.5,4.8c0,2.9-2.4,5.4-6.6,5.4c-2.3,0-4.7-0.9-6.5-2.5L-294.3,310.4z"/>
    <path d="M-281.9,297.7h4v9.8c0,3.5,1.1,4.6,3,4.6c2,0,3.1-1.2,3.1-4.6v-9.8h3.9v9.4c0,5.9-2.4,8.5-7,8.5s-7-2.6-7-8.5V297.7z"/>
    <path d="M-265.4,297.7h6.4c3.8,0,6.9,1.4,6.9,5.7c0,4.1-3.2,6-6.9,6h-2.4v6h-4V297.7z M-259.2,306.2c2.2,0,3.2-1,3.2-2.8s-1.1-2.5-3.2-2.5h-2.2v5.3H-259.2z"/>
    <path d="M-250.4,297.7h6.4c3.8,0,6.9,1.4,6.9,5.7c0,4.1-3.2,6-6.9,6h-2.4v6h-4V297.7z M-244.2,306.2c2.2,0,3.2-1,3.2-2.8s-1.1-2.5-3.2-2.5h-2.2v5.3H-244.2z"/>
    <path d="M-236.4,306.4c0-5.7,3.3-9,8-9s8,3.3,8,9s-3.2,9.2-8,9.2C-233.1,315.6-236.4,312.2-236.4,306.4zM-224.5,306.4c0-3.5-1.5-5.6-3.9-5.6s-3.9,2.1-3.9,5.6s1.5,5.8,3.9,5.8S-224.5,310-224.5,306.4z"/>
    <path d="M-209.1,315.3l-3.4-6.3h-2.2v6.3h-4v-17.5h6.3c3.7,0,6.8,1.3,6.8,5.5c0,2.6-1.3,4.2-3.1,5.1l4,7H-209.1zM-214.5,305.8h2c2.1,0,3.2-0.9,3.2-2.6s-1.1-2.3-3.2-2.3h-2V305.8z"/>
    <path d="M-200.4,301.1h-4.9v-3.4h13.6v3.3h-4.8v14.2h-4L-200.4,301.1L-200.4,301.1z"/>
  </g>
</svg>
