<?xml version="1.0" encoding="utf-8"?>
<svg version="1.1" xmlns="http://www.w3.org/2000/svg" xmlns:xlink="http://www.w3.org/1999/xlink" x="0px" y="0px" viewBox="0 0 962.991 107.965" enable-background="new 0 0 962.991 107.965" xml:space="preserve">
  <g>
    <polygon fill="#FFFFFF" points="64.693,36.135 45.926,27.776 27.162,36.129 45.926,46.97 45.926,68.639 62.548,56.561"/>
    <polygon fill="#68C28D" points="13.527,28.256 27.162,36.129 45.926,27.776 64.693,36.135 62.548,56.561 45.926,68.639 45.926,84.383 74.626,63.532 78.332,28.257 45.926,13.83"/>
    <path fill="#003764" d="M45.925,0L0,20.448l5.256,50.003L45.924,100l40.674-29.549l5.255-50L45.925,0z M74.624,63.534 L45.926,84.383V46.97L13.527,28.256L45.926,13.83l32.406,14.427L74.624,63.534z"/>
  </g>
  <g fill="#003764">
    <g>
      <path d="M125.006,27.611h-19.48V14.192h54.757v13.419h-19.371v57.138h-15.906V27.611z"/>
      <path d="M164.091,14.192h44.259v13.419h-28.244v14.177h24.023v13.311h-24.023v16.233h29.327v13.417h-45.342V14.192z"/>
      <path d="M242.321,12.895c8.766,0,16.125,4.328,20.885,9.2l-8.766,9.845c-3.571-3.247-6.926-5.303-11.903-5.303c-9.848,0-17.53,8.549-17.53,22.725c0,14.501,6.816,22.942,17.097,22.942c5.843,0,9.956-2.489,13.419-6.277l8.766,9.633c-5.844,6.816-13.638,10.387-22.4,10.387c-18.289,0-33.222-12.443-33.222-36.143C208.667,26.528,224.14,12.895,242.321,12.895z"/>
      <path d="M284.087,27.611h-19.478V14.192h54.754v13.419h-19.37v57.138h-15.907V27.611z"/>
      <path d="M315.497,49.147c0-23.052,13.095-36.252,32.032-36.252c19.045,0,32.031,13.308,32.031,36.252c0,23.048-12.985,36.899-32.031,36.899C328.592,86.047,315.497,72.195,315.497,49.147z M363.22,49.147c0-14.068-6.061-22.51-15.691-22.51c-9.524,0-15.691,8.441-15.691,22.51c0,14.176,6.167,23.157,15.691,23.157C357.159,72.305,363.22,63.323,363.22,49.147z"/>
      <path d="M444.277,14.192h16.017v70.557h-16.017V14.192z"/>
      <path d="M497.825,12.895c8.765,0,16.123,4.328,20.884,9.2l-8.765,9.845c-3.571-3.247-6.925-5.303-11.905-5.303c-9.846,0-17.529,8.549-17.529,22.725c0,14.501,6.817,22.942,17.098,22.942c5.843,0,9.954-2.489,13.418-6.277l8.767,9.633c-5.845,6.816-13.636,10.387-22.401,10.387c-18.29,0-33.222-12.443-33.222-36.143C464.169,26.528,479.644,12.895,497.825,12.895z"/>
      <polygon points="423.888,14.192 423.888,59.451 400.082,14.192 398.999,14.192 383.74,14.192 383.74,84.749 398.999,84.749 398.999,39.605 422.697,84.749 439.038,84.749 439.038,14.192"/>
    </g>
    <g>
      <path d="M556.674,14.465h38.425v4.27h-33.515v26.577h28.178v4.27h-28.178v30.953h34.582v4.27h-39.492V14.465z"/>
      <path d="M608.438,33.571h4.056l0.427,7.897h0.32c5.23-5.229,10.567-9.179,17.611-9.179c10.567,0,15.477,6.404,15.477,19.64v32.874h-4.696V52.57c0-10.887-3.416-16.01-11.741-16.01c-6.084,0-10.46,3.202-16.757,9.606v38.638h-4.696V33.571z"/>
      <path d="M664.257,37.627h-8.005v-3.629l8.112-0.427l0.64-14.837h4.056v14.837h14.836v4.056h-14.836v33.408c0,6.511,1.601,10.887,8.646,10.887c1.921,0,4.59-0.747,6.404-1.601l1.281,3.842c-2.989,1.067-6.191,1.922-8.326,1.922c-9.926,0-12.808-6.298-12.808-15.477V37.627z"/>
      <path d="M711.22,32.29c12.168,0,19.639,8.646,19.639,23.695c0,1.28,0,2.562-0.213,3.843h-36.93c0.213,12.914,7.792,22.2,19.319,22.2c5.55,0,9.926-1.814,13.769-4.589l1.921,3.629c-4.056,2.454-8.646,5.017-16.117,5.017c-13.128,0-23.695-10.033-23.695-26.791S699.799,32.29,711.22,32.29z M726.376,56.198c0-13.128-5.87-19.853-15.049-19.853c-8.752,0-16.544,7.578-17.611,19.853H726.376z"/>
      <path d="M742.596,33.571h4.056l0.427,9.499h0.32c3.416-6.298,8.432-10.78,14.516-10.78c1.921,0,3.416,0.214,5.124,1.067l-1.067,4.27c-1.708-0.641-2.668-0.854-4.696-0.854c-4.59,0-10.033,3.522-13.982,13.129v34.902h-4.696V33.571z"/>
      <path d="M778.99,89.286v18.679h-4.696V33.571h4.056l0.427,6.403h0.32c5.017-3.949,11.101-7.685,17.398-7.685c13.662,0,20.493,10.246,20.493,26.15c0,17.397-10.567,27.645-22.628,27.645c-4.803,0-10.033-2.349-15.37-6.298V89.286zM794.146,81.922c10.354,0,17.825-9.606,17.825-23.481c0-12.595-4.483-21.987-16.224-21.987c-5.124,0-10.567,2.988-16.757,8.432v30.42C784.86,80.108,790.197,81.922,794.146,81.922z"/>
      <path d="M830.22,33.571h4.056l0.427,9.499h0.32c3.416-6.298,8.432-10.78,14.517-10.78c1.921,0,3.415,0.214,5.123,1.067l-1.067,4.27c-1.708-0.641-2.669-0.854-4.696-0.854c-4.59,0-10.033,3.522-13.982,13.129v34.902h-4.696V33.571z"/>
      <path d="M860.103,17.027c0-2.668,1.922-4.269,4.27-4.269c2.349,0,4.27,1.601,4.27,4.269c0,2.455-1.921,4.163-4.27,4.163C862.024,21.19,860.103,19.482,860.103,17.027z M861.917,33.571h4.696v51.232h-4.696V33.571z"/>
      <path d="M880.593,75.518c4.376,3.629,8.966,6.511,16.331,6.511c8.005,0,12.167-4.696,12.167-10.14c0-6.404-6.617-9.179-12.487-11.313c-7.792-2.775-16.331-5.871-16.331-14.623c0-7.472,5.871-13.662,16.544-13.662c5.443,0,10.888,2.241,14.623,5.337l-2.562,3.309c-3.416-2.562-7.045-4.59-12.274-4.59c-7.898,0-11.527,4.59-11.527,9.286c0,5.657,5.977,8.112,12.061,10.354c8.005,2.988,16.758,5.657,16.758,15.689c0,7.686-6.19,14.41-17.291,14.41c-7.578,0-14.196-3.202-18.786-7.045L880.593,75.518z"/>
      <path d="M943.352,32.29c12.168,0,19.64,8.646,19.64,23.695c0,1.28,0,2.562-0.213,3.843h-36.931c0.213,12.914,7.791,22.2,19.319,22.2c5.55,0,9.926-1.814,13.769-4.589l1.921,3.629c-4.056,2.454-8.646,5.017-16.117,5.017c-13.128,0-23.695-10.033-23.695-26.791S931.932,32.29,943.352,32.29z M958.509,56.198c0-13.128-5.871-19.853-15.05-19.853c-8.753,0-16.544,7.578-17.611,19.853H958.509z"/>
    </g>
  </g>
</svg>
