<?xml version="1.0" encoding="utf-8"?>
<!DOCTYPE svg PUBLIC "-//W3C//DTD SVG 1.1//EN" "http://www.w3.org/Graphics/SVG/1.1/DTD/svg11.dtd">
<svg version="1.1" xmlns="http://www.w3.org/2000/svg" xmlns:xlink="http://www.w3.org/1999/xlink" x="0px" y="0px" width="529.586px" height="110.059px" viewBox="0 0 529.586 110.059" enable-background="new 0 0 529.586 110.059" xml:space="preserve">
  <g>
    <polygon fill="#FFFFFF" points="70.667,41.251 51.899,32.893 33.136,41.245 51.899,52.086 51.899,73.755 68.522,61.677 "/>
    <polygon fill="#68C28D" points="19.5,33.372 33.136,41.245 51.899,32.893 70.667,41.251 68.522,61.677 51.899,73.755 51.899,89.499 80.599,68.648 84.305,33.373 51.899,18.946 "/>
    <path fill="#243A4C" d="M51.899,5.116L5.974,25.564l5.256,50.003l40.668,29.549l40.674-29.549l5.255-50L51.899,5.116z M80.598,68.65L51.899,89.499V52.086L19.5,33.372l32.399-14.426l32.406,14.427L80.598,68.65z"/>
  </g>
  <g>
    <path fill="#243A4C" d="M130.979,32.363h-19.48V18.944h54.757v13.419h-19.371v57.138h-15.906V32.363z"/>
    <path fill="#243A4C" d="M170.064,18.944h44.259v13.419H186.08V46.54h24.023v13.311H186.08v16.233h29.327v13.417h-45.342V18.944z"/>
    <path fill="#243A4C" d="M248.294,17.647c8.766,0,16.125,4.328,20.885,9.2l-8.766,9.845c-3.571-3.247-6.926-5.303-11.903-5.303 c-9.848,0-17.53,8.549-17.53,22.725c0,14.501,6.816,22.942,17.097,22.942c5.843,0,9.956-2.489,13.419-6.277l8.766,9.633 c-5.844,6.816-13.638,10.387-22.4,10.387c-18.289,0-33.222-12.443-33.222-36.143C214.641,31.28,230.113,17.647,248.294,17.647z"/>
    <path fill="#243A4C" d="M290.06,32.363h-19.478V18.944h54.754v13.419h-19.37v57.138H290.06V32.363z"/>
    <path fill="#243A4C" d="M321.471,53.899c0-23.052,13.095-36.252,32.032-36.252c19.045,0,32.031,13.308,32.031,36.252 c0,23.048-12.985,36.899-32.031,36.899C334.565,90.799,321.471,76.947,321.471,53.899z M369.193,53.899 c0-14.068-6.061-22.51-15.691-22.51c-9.524,0-15.691,8.441-15.691,22.51c0,14.176,6.167,23.157,15.691,23.157 C363.132,77.057,369.193,68.075,369.193,53.899z"/>
    <path fill="#243A4C" d="M450.25,18.944h16.017v70.557H450.25V18.944z"/>
    <path fill="#243A4C" d="M503.799,17.647c8.765,0,16.123,4.328,20.884,9.2l-8.765,9.845c-3.571-3.247-6.925-5.303-11.905-5.303 c-9.846,0-17.529,8.549-17.529,22.725c0,14.501,6.817,22.942,17.098,22.942c5.843,0,9.954-2.489,13.417-6.277l8.767,9.633 c-5.845,6.816-13.636,10.387-22.401,10.387c-18.29,0-33.222-12.443-33.222-36.143C470.143,31.28,485.617,17.647,503.799,17.647z"/>
    <polygon fill="#243A4C" points="429.862,18.944 429.862,64.203 406.055,18.944 404.972,18.944 389.713,18.944 389.713,89.501 404.972,89.501 404.972,44.357 428.67,89.501 445.011,89.501 445.011,18.944 "/>
  </g>
</svg>
