<?xml version="1.0" encoding="utf-8"?>
<!-- Generator: Adobe Illustrator 17.0.0, SVG Export Plug-In . SVG Version: 6.00 Build 0)  -->
<!DOCTYPE svg PUBLIC "-//W3C//DTD SVG 1.1//EN" "http://www.w3.org/Graphics/SVG/1.1/DTD/svg11.dtd">
<svg version="1.1" id="Layer_1" xmlns="http://www.w3.org/2000/svg" xmlns:xlink="http://www.w3.org/1999/xlink" x="0px" y="0px"
	 width="529.586px" height="110.059px" viewBox="0 0 529.586 110.059" enable-background="new 0 0 529.586 110.059"
	 xml:space="preserve">
<g>
	<path fill="#FFFFFF" d="M51.189,5.118L5.264,25.566l5.256,50.003l40.668,29.549l40.674-29.549l5.255-50L51.189,5.118z
		 M83.595,33.374L79.889,68.65l-0.001,0.002L51.189,89.5l0.004-37.415L18.79,33.373l32.399-14.426L83.595,33.374L83.595,33.374z"/>
	<rect x="51.189" y="52.087" fill="#FFFFFF" width="0.002" height="21.669"/>
	<polygon fill="#FFFFFF" points="54.193,50.354 54.193,52.085 54.191,71.576 67.812,61.678 67.813,61.678 69.957,41.252 
		51.189,32.894 35.812,39.739 52.693,49.488 	"/>
</g>
<g>
	<path fill="#FFFFFF" d="M130.269,32.365h-19.48V18.946h54.757v13.419h-19.371v57.138h-15.906V32.365z"/>
	<path fill="#FFFFFF" d="M169.354,18.946h44.259v13.419H185.37v14.177h24.023v13.311H185.37v16.233h29.327v13.417h-45.342V18.946z"
		/>
	<path fill="#FFFFFF" d="M247.584,17.649c8.766,0,16.125,4.328,20.885,9.2l-8.766,9.845c-3.571-3.247-6.926-5.303-11.903-5.303
		c-9.848,0-17.53,8.549-17.53,22.725c0,14.501,6.816,22.942,17.097,22.942c5.843,0,9.956-2.489,13.419-6.277l8.766,9.633
		c-5.844,6.816-13.638,10.387-22.4,10.387c-18.289,0-33.222-12.443-33.222-36.143C213.931,31.282,229.403,17.649,247.584,17.649z"/>
	<path fill="#FFFFFF" d="M289.35,32.365h-19.478V18.946h54.754v13.419h-19.37v57.138H289.35V32.365z"/>
	<path fill="#FFFFFF" d="M320.761,53.901c0-23.052,13.095-36.252,32.032-36.252c19.045,0,32.031,13.308,32.031,36.252
		c0,23.048-12.985,36.899-32.031,36.899C333.855,90.8,320.761,76.949,320.761,53.901z M368.483,53.901
		c0-14.068-6.061-22.51-15.691-22.51c-9.524,0-15.691,8.441-15.691,22.51c0,14.176,6.167,23.157,15.691,23.157
		C362.422,77.058,368.483,68.077,368.483,53.901z"/>
	<path fill="#FFFFFF" d="M449.54,18.946h16.017v70.557H449.54V18.946z"/>
	<path fill="#FFFFFF" d="M503.089,17.649c8.765,0,16.123,4.328,20.884,9.2l-8.765,9.845c-3.571-3.247-6.925-5.303-11.905-5.303
		c-9.846,0-17.529,8.549-17.529,22.725c0,14.501,6.817,22.942,17.098,22.942c5.843,0,9.954-2.489,13.417-6.277l8.767,9.633
		C519.211,87.23,511.42,90.8,502.655,90.8c-18.29,0-33.222-12.443-33.222-36.143C469.433,31.282,484.907,17.649,503.089,17.649z"/>
	<polygon fill="#FFFFFF" points="429.152,18.946 429.152,64.204 405.345,18.946 404.262,18.946 389.003,18.946 389.003,89.502 
		404.262,89.502 404.262,44.359 427.96,89.502 444.301,89.502 444.301,18.946 	"/>
</g>
<g>
</g>
<g>
</g>
<g>
</g>
<g>
</g>
<g>
</g>
<g>
</g>
</svg>
