<?xml version="1.0" encoding="utf-8"?>
<svg version="1.1" id="Layer_1" xmlns="http://www.w3.org/2000/svg" xmlns:xlink="http://www.w3.org/1999/xlink" x="0px" y="0px"
      viewBox="0 0 868.1 100" enable-background="new 0 0 868.1 100;" xml:space="preserve">
  <g>
    <polygon style="fill:#FFFFFF;" points="64.7,36.1 45.9,27.8 27.2,36.1 45.9,47 45.9,68.6 62.5,56.6"/>
    <polygon style="fill:#68C28D;" points="13.5,28.3 27.2,36.1 45.9,27.8 64.7,36.1 62.5,56.6 45.9,68.6 45.9,84.4 74.6,63.5 78.3,28.3 45.9,13.8"/>
    <path style="fill:#002B49;" d="M45.9,0L0,20.4l5.3,50L45.9,100l40.7-29.5l5.3-50L45.9,0z M74.6,63.5L45.9,84.4V47L13.5,28.3 l32.4-14.4l32.4,14.4L74.6,63.5z"/>
  </g>
  <g>
    <path style="fill:#002B49;" d="M125,27.2h-19.5V13.8h54.8v13.4h-19.4v57.1H125V27.2z"/>
    <path style="fill:#002B49;" d="M164.1,13.8h44.3v13.4h-28.2v14.2h24v13.3h-24V71h29.3v13.4h-45.3V13.8z"/>
    <path style="fill:#002B49;" d="M242.3,12.5c8.8,0,16.1,4.3,20.9,9.2l-8.8,9.8c-3.6-3.2-6.9-5.3-11.9-5.3
            c-9.8,0-17.5,8.5-17.5,22.7c0,14.5,6.8,22.9,17.1,22.9c5.8,0,10-2.5,13.4-6.3l8.8,9.6c-5.8,6.8-13.6,10.4-22.4,10.4
            c-18.3,0-33.2-12.4-33.2-36.1C208.7,26.2,224.1,12.5,242.3,12.5z"/>
    <path style="fill:#002B49;" d="M284.1,27.2h-19.5V13.8h54.8v13.4H300v57.1h-15.9V27.2z"/>
    <path style="fill:#002B49;" d="M315.5,48.8c0-23.1,13.1-36.3,32-36.3c19,0,32,13.3,32,36.3c0,23-13,36.9-32,36.9
            C328.6,85.7,315.5,71.8,315.5,48.8z M363.2,48.8c0-14.1-6.1-22.5-15.7-22.5c-9.5,0-15.7,8.4-15.7,22.5c0,14.2,6.2,23.2,15.7,23.2
            C357.2,71.9,363.2,63,363.2,48.8z"/>
    <path style="fill:#002B49;" d="M444.3,13.8h16v70.6h-16V13.8z"/>
    <path style="fill:#002B49;" d="M497.8,12.5c8.8,0,16.1,4.3,20.9,9.2l-8.8,9.8c-3.6-3.2-6.9-5.3-11.9-5.3
            c-9.8,0-17.5,8.5-17.5,22.7c0,14.5,6.8,22.9,17.1,22.9c5.8,0,10-2.5,13.4-6.3l8.8,9.6c-5.8,6.8-13.6,10.4-22.4,10.4
            c-18.3,0-33.2-12.4-33.2-36.1C464.2,26.2,479.6,12.5,497.8,12.5z"/>
    <polygon style="fill:#002B49;" points="423.9,13.8 423.9,59.1 400.1,13.8 399,13.8 383.7,13.8 383.7,84.4 399,84.4 399,39.2 422.7,84.4 439,84.4 439,13.8"/>
  </g>
  <g>
    <path style="fill:#002B49;" d="M556.7,14.1h19.2c15.7,0,25,5.1,25,19.6c0,13.8-9.4,20.5-25,20.5h-14.3v30.2h-4.9V14.1z
             M574.6,50.1c14.4,0,21.2-4.8,21.2-16.3c0-11.8-6.9-15.5-21.2-15.5h-13v31.8H574.6z"/>
    <path style="fill:#002B49;" d="M608.9,33.3h4.1l0.4,9.5h0.3c3.4-6.3,8.4-10.8,14.5-10.8c1.9,0,3.4,0.2,5.1,1.1l-1.1,4.3
            c-1.7-0.6-2.7-0.9-4.7-0.9c-4.6,0-10,3.5-14,13.1v34.9h-4.7V33.3z"/>
    <path style="fill:#002B49;" d="M657.5,32c12.2,0,19.6,8.6,19.6,23.7c0,1.3,0,2.6-0.2,3.8H640c0.2,12.9,7.8,22.2,19.3,22.2
            c5.6,0,9.9-1.8,13.8-4.6l1.9,3.6c-4.1,2.5-8.6,5-16.1,5c-13.1,0-23.7-10-23.7-26.8S646.1,32,657.5,32z M672.7,55.9
            c0-13.1-5.9-19.9-15-19.9c-8.8,0-16.5,7.6-17.6,19.9H672.7z"/>
    <path style="fill:#002B49;" d="M681.7,33.3h5.1l11.5,32.1c1.6,4.9,3.5,10,5.1,14.7h0.4c1.7-4.7,3.5-9.8,5.2-14.7l11.5-32.1h4.8
            l-19,51.2h-5.6L681.7,33.3z"/>
    <path style="fill:#002B49;" d="M732.6,16.7c0-2.7,1.9-4.3,4.3-4.3s4.3,1.6,4.3,4.3c0,2.5-1.9,4.2-4.3,4.2S732.6,19.2,732.6,16.7z
             M734.4,33.3h4.7v51.2h-4.7V33.3z"/>
    <path style="fill:#002B49;" d="M774.7,32c12.2,0,19.6,8.6,19.6,23.7c0,1.3,0,2.6-0.2,3.8h-36.9c0.2,12.9,7.8,22.2,19.3,22.2
            c5.6,0,9.9-1.8,13.8-4.6l1.9,3.6c-4.1,2.5-8.6,5-16.1,5c-13.1,0-23.7-10-23.7-26.8S763.3,32,774.7,32z M789.9,55.9
            c0-13.1-5.9-19.9-15-19.9c-8.8,0-16.5,7.6-17.6,19.9H789.9z"/>
    <path style="fill:#002B49;" d="M800.1,33.3h5.1l9.2,33.2c1.3,4.7,2.5,9.1,3.5,13.7h0.4c1.2-4.6,2.5-9,3.7-13.7l9.3-33.2h5.7
            l9.3,33.2c1.3,4.7,2.6,9.1,3.8,13.7h0.4c1.2-4.6,2.5-9,3.6-13.7l9.1-33.2h4.8l-14.7,51.2h-6.2l-9-31.8c-1.5-4.9-2.5-9.6-3.9-14.6
            h-0.4c-1.2,5-2.5,9.9-4.1,14.8l-8.9,31.6h-5.7L800.1,33.3z"/>
  </g>
</svg>
