<?xml version="1.0" encoding="utf-8"?>
<!-- Generator: Adobe Illustrator 19.0.0, SVG Export Plug-In . SVG Version: 6.00 Build 0)  -->
<svg version="1.1" id="Layer_1" xmlns="http://www.w3.org/2000/svg" xmlns:xlink="http://www.w3.org/1999/xlink" x="0px" y="0px"
	 viewBox="0 0 212 230" style="enable-background:new 0 0 212 230;" xml:space="preserve">
<style type="text/css">
	.st0{enable-background:new    ;}
	.st1{clip-path:url(#XMLID_88_);}
	.st2{clip-path:url(#XMLID_89_);}
	.st3{opacity:0.4;clip-path:url(#XMLID_90_);enable-background:new    ;}
	.st4{clip-path:url(#XMLID_91_);}
	.st5{clip-path:url(#XMLID_92_);enable-background:new    ;}
	.st6{clip-path:url(#XMLID_93_);}
	.st7{clip-path:url(#XMLID_94_);}
	.st8{clip-path:url(#XMLID_95_);fill:#F2F2F2;}
	.st9{clip-path:url(#XMLID_96_);fill:none;stroke:#9B9B9B;stroke-miterlimit:10;stroke-dasharray:4,4;}
	.st10{clip-path:url(#XMLID_97_);}
	.st11{clip-path:url(#XMLID_98_);fill:#F2F2F2;}
	.st12{clip-path:url(#XMLID_99_);fill:none;stroke:#9B9B9B;stroke-miterlimit:10;stroke-dasharray:4,4;}
	.st13{clip-path:url(#XMLID_100_);}
	.st14{clip-path:url(#XMLID_101_);fill:#F2F2F2;}
	.st15{clip-path:url(#XMLID_102_);fill:none;stroke:#9B9B9B;stroke-miterlimit:10;stroke-dasharray:4,4;}
</style>
<g id="XMLID_1_" class="st0">
	<g id="XMLID_2_">
		<defs>
			<rect id="XMLID_47_" x="1" y="1" width="210" height="228"/>
		</defs>
		<clipPath id="XMLID_88_">
			<use xlink:href="#XMLID_47_"  style="overflow:visible;"/>
		</clipPath>
		<g id="XMLID_3_" class="st1">
			<defs>
				<rect id="XMLID_46_" x="-444" y="-200" width="1100" height="1000"/>
			</defs>
			<clipPath id="XMLID_89_">
				<use xlink:href="#XMLID_46_"  style="overflow:visible;"/>
			</clipPath>
			<g id="XMLID_4_" class="st2">
				<defs>
					<rect id="XMLID_45_" x="1" y="1" width="210" height="228"/>
				</defs>
				<clipPath id="XMLID_90_">
					<use xlink:href="#XMLID_45_"  style="overflow:visible;"/>
				</clipPath>
				<g id="XMLID_5_" class="st3">
					<g id="XMLID_6_">
						<defs>
							<rect id="XMLID_44_" x="1" y="1" width="210" height="228"/>
						</defs>
						<clipPath id="XMLID_91_">
							<use xlink:href="#XMLID_44_"  style="overflow:visible;"/>
						</clipPath>
						<g id="XMLID_7_" class="st4">
							<defs>
								<rect id="XMLID_43_" x="1" y="1" width="210" height="228"/>
							</defs>
							<clipPath id="XMLID_92_">
								<use xlink:href="#XMLID_43_"  style="overflow:visible;"/>
							</clipPath>
							<g id="XMLID_8_" class="st5">
								<g id="XMLID_9_">
									<defs>
										<rect id="XMLID_42_" x="1" y="1" width="210" height="228"/>
									</defs>
									<clipPath id="XMLID_93_">
										<use xlink:href="#XMLID_42_"  style="overflow:visible;"/>
									</clipPath>
									<g id="XMLID_10_" class="st6">
										<defs>
											<polyline id="XMLID_14_" points="106,65.4 68.9,82 73.8,84.8 106,70.4 143.4,87.1 139.2,128 110.6,148.9 110.6,154.6 
												143.5,130.6 148.3,84.3 106,65.4 											"/>
										</defs>
										<clipPath id="XMLID_94_">
											<use xlink:href="#XMLID_14_"  style="overflow:visible;"/>
										</clipPath>
										<g id="XMLID_11_" class="st7">
											<defs>
												<rect id="XMLID_13_" x="1" y="1" width="210" height="228"/>
											</defs>
											<clipPath id="XMLID_95_">
												<use xlink:href="#XMLID_13_"  style="overflow:visible;"/>
											</clipPath>
											<rect id="XMLID_12_" x="63.9" y="60.4" class="st8" width="89.5" height="99.2"/>
										</g>
									</g>
									<g id="XMLID_15_" class="st6">
										<defs>
											<rect id="XMLID_17_" x="1" y="1" width="210" height="228"/>
										</defs>
										<clipPath id="XMLID_96_">
											<use xlink:href="#XMLID_17_"  style="overflow:visible;"/>
										</clipPath>
										<polyline id="XMLID_16_" class="st9" points="106,65.4 68.9,82 73.8,84.8 106,70.4 143.4,87.1 139.2,128 110.6,148.9 
											110.6,154.6 143.5,130.6 148.3,84.3 106,65.4 										"/>
									</g>
									<g id="XMLID_18_" class="st6">
										<defs>
											<path id="XMLID_22_" d="M106,2.5L2.4,48.8L14.3,162l91.7,66.9l91.7-66.9l11.9-113.2L106,2.5 M106,7.5l98.7,44.1
												l-11.3,107.9L106,223.3l-87.4-63.8L7.3,51.6L106,7.5"/>
										</defs>
										<clipPath id="XMLID_97_">
											<use xlink:href="#XMLID_22_"  style="overflow:visible;"/>
										</clipPath>
										<g id="XMLID_19_" class="st10">
											<defs>
												<rect id="XMLID_21_" x="1" y="1" width="210" height="228"/>
											</defs>
											<clipPath id="XMLID_98_">
												<use xlink:href="#XMLID_21_"  style="overflow:visible;"/>
											</clipPath>
											<rect id="XMLID_20_" x="-2.6" y="-2.5" class="st11" width="217.1" height="236.5"/>
										</g>
									</g>
									<g id="XMLID_25_" class="st6">
										<defs>
											<rect id="XMLID_29_" x="1" y="1" width="210" height="228"/>
										</defs>
										<clipPath id="XMLID_99_">
											<use xlink:href="#XMLID_29_"  style="overflow:visible;"/>
										</clipPath>
										<path id="XMLID_26_" class="st12" d="M106,2.5L2.4,48.8L14.3,162l91.7,66.9l91.7-66.9l11.9-113.2L106,2.5 M106,7.5
											l98.7,44.1l-11.3,107.9L106,223.3l-87.4-63.8L7.3,51.6L106,7.5"/>
									</g>
									<g id="XMLID_30_" class="st6">
										<defs>
											<path id="XMLID_34_" d="M106,33.8L32.9,66.4l73.1,42.4v84.7l64.7-47.2l8.4-79.9L106,33.8 M106,38.8l68.2,30.5l-7.8,74.5
												l-55.8,40.7v-78.4L43,67L106,38.8"/>
										</defs>
										<clipPath id="XMLID_100_">
											<use xlink:href="#XMLID_34_"  style="overflow:visible;"/>
										</clipPath>
										<g id="XMLID_31_" class="st13">
											<defs>
												<rect id="XMLID_33_" x="1" y="1" width="210" height="228"/>
											</defs>
											<clipPath id="XMLID_101_">
												<use xlink:href="#XMLID_33_"  style="overflow:visible;"/>
											</clipPath>
											<rect id="XMLID_32_" x="27.9" y="28.8" class="st14" width="156.1" height="169.8"/>
										</g>
									</g>
									<g id="XMLID_37_" class="st6">
										<defs>
											<rect id="XMLID_41_" x="1" y="1" width="210" height="228"/>
										</defs>
										<clipPath id="XMLID_102_">
											<use xlink:href="#XMLID_41_"  style="overflow:visible;"/>
										</clipPath>
										<path id="XMLID_38_" class="st15" d="M106,33.8L32.9,66.4l73.1,42.4v84.7l64.7-47.2l8.4-79.9L106,33.8 M106,38.8
											l68.2,30.5l-7.8,74.5l-55.8,40.7v-78.4L43,67L106,38.8"/>
									</g>
								</g>
							</g>
						</g>
					</g>
				</g>
			</g>
		</g>
	</g>
</g>
</svg>
