<?xml version="1.0" encoding="UTF-8" standalone="no"?>
<!DOCTYPE svg PUBLIC "-//W3C//DTD SVG 1.1//EN"
 "http://www.w3.org/Graphics/SVG/1.1/DTD/svg11.dtd">
<!-- Generated by graphviz version 2.40.1 (0)
 -->
<!-- Title: G Pages: 1 -->
<svg width="3208pt" height="548pt"
 viewBox="0.00 0.00 3208.14 548.00" xmlns="http://www.w3.org/2000/svg" xmlns:xlink="http://www.w3.org/1999/xlink">
<g id="graph0" class="graph" transform="scale(1 1) rotate(0) translate(4 544)">
<title>G</title>
<polygon fill="#ffffff" stroke="transparent" points="-4,4 -4,-544 3204.139,-544 3204.139,4 -4,4"/>
<!-- InstallConfig -->
<g id="node1" class="node">
<title>InstallConfig</title>
<ellipse fill="none" stroke="#000000" cx="840" cy="-450" rx="71.4873" ry="18"/>
<text text-anchor="middle" x="840" y="-446.3" font-family="Times,serif" font-size="14.00" fill="#000000">InstallConfig</text>
</g>
<!-- Target Install Config -->
<g id="node2" class="node">
<title>Target Install Config</title>
<polygon fill="#d3d3d3" stroke="#000000" points="166,-396 0,-396 0,-360 166,-360 166,-396"/>
<text text-anchor="middle" x="83" y="-374.3" font-family="Times,serif" font-size="14.00" fill="#000000">Target Install Config</text>
</g>
<!-- InstallConfig&#45;&gt;Target Install Config -->
<g id="edge1" class="edge">
<title>InstallConfig&#45;&gt;Target Install Config</title>
<path fill="none" stroke="#000000" d="M769.4197,-446.5899C648.3987,-440.2149 393.6705,-424.4908 180,-396 178.7346,-395.8313 177.4608,-395.6571 176.1799,-395.478"/>
<polygon fill="#000000" stroke="#000000" points="176.653,-392.01 166.2496,-394.0149 175.6326,-398.9352 176.653,-392.01"/>
</g>
<!-- Manifests -->
<g id="node11" class="node">
<title>Manifests</title>
<ellipse fill="none" stroke="#000000" cx="1784" cy="-306" rx="56.59" ry="18"/>
<text text-anchor="middle" x="1784" y="-302.3" font-family="Times,serif" font-size="14.00" fill="#000000">Manifests</text>
</g>
<!-- InstallConfig&#45;&gt;Manifests -->
<g id="edge11" class="edge">
<title>InstallConfig&#45;&gt;Manifests</title>
<path fill="none" stroke="#000000" d="M908.4268,-444.7578C977.4444,-438.1492 1086.4467,-424.074 1177,-396 1212.6993,-384.9322 1216.9971,-370.0363 1253,-360 1338.8646,-336.0642 1595.5791,-317.6062 1717.8482,-309.9115"/>
<polygon fill="#000000" stroke="#000000" points="1718.4262,-313.3823 1728.1888,-309.2662 1717.9902,-306.3959 1718.4262,-313.3823"/>
</g>
<!-- networkOperator -->
<g id="node13" class="node">
<title>networkOperator</title>
<ellipse fill="none" stroke="#000000" cx="1076" cy="-378" rx="91.784" ry="18"/>
<text text-anchor="middle" x="1076" y="-374.3" font-family="Times,serif" font-size="14.00" fill="#000000">networkOperator</text>
</g>
<!-- InstallConfig&#45;&gt;networkOperator -->
<g id="edge13" class="edge">
<title>InstallConfig&#45;&gt;networkOperator</title>
<path fill="none" stroke="#000000" d="M885.783,-436.0323C923.0567,-424.6607 975.951,-408.5234 1016.5039,-396.1514"/>
<polygon fill="#000000" stroke="#000000" points="1017.7241,-399.4384 1026.2675,-393.1726 1015.6814,-392.7431 1017.7241,-399.4384"/>
</g>
<!-- IngressCertKey -->
<g id="node16" class="node">
<title>IngressCertKey</title>
<ellipse fill="none" stroke="#000000" cx="1346" cy="-378" rx="83.6854" ry="18"/>
<text text-anchor="middle" x="1346" y="-374.3" font-family="Times,serif" font-size="14.00" fill="#000000">IngressCertKey</text>
</g>
<!-- InstallConfig&#45;&gt;IngressCertKey -->
<g id="edge20" class="edge">
<title>InstallConfig&#45;&gt;IngressCertKey</title>
<path fill="none" stroke="#000000" d="M905.1552,-442.3967C985.8147,-432.7494 1127.3142,-415.0577 1248,-396 1256.2283,-394.7006 1264.8288,-393.2532 1273.3702,-391.7593"/>
<polygon fill="#000000" stroke="#000000" points="1274.109,-395.183 1283.3441,-389.9905 1272.8865,-388.2906 1274.109,-395.183"/>
</g>
<!-- MCSCertKey -->
<g id="node20" class="node">
<title>MCSCertKey</title>
<ellipse fill="none" stroke="#000000" cx="2023" cy="-378" rx="71.4873" ry="18"/>
<text text-anchor="middle" x="2023" y="-374.3" font-family="Times,serif" font-size="14.00" fill="#000000">MCSCertKey</text>
</g>
<!-- InstallConfig&#45;&gt;MCSCertKey -->
<g id="edge28" class="edge">
<title>InstallConfig&#45;&gt;MCSCertKey</title>
<path fill="none" stroke="#000000" d="M911.3089,-448.117C1122.4964,-442.2856 1742.4577,-423.2627 1943,-396 1949.295,-395.1442 1955.8262,-394.0399 1962.32,-392.7996"/>
<polygon fill="#000000" stroke="#000000" points="1963.3443,-396.1635 1972.4545,-390.7548 1961.9598,-389.3018 1963.3443,-396.1635"/>
</g>
<!-- Tectonic -->
<g id="node22" class="node">
<title>Tectonic</title>
<ellipse fill="none" stroke="#000000" cx="892" cy="-306" rx="50.8918" ry="18"/>
<text text-anchor="middle" x="892" y="-302.3" font-family="Times,serif" font-size="14.00" fill="#000000">Tectonic</text>
</g>
<!-- InstallConfig&#45;&gt;Tectonic -->
<g id="edge32" class="edge">
<title>InstallConfig&#45;&gt;Tectonic</title>
<path fill="none" stroke="#000000" d="M825.0181,-432.0455C811.3606,-413.357 795.1267,-383.5796 808,-360 816.6808,-344.0997 832.2698,-332.1829 847.6814,-323.6467"/>
<polygon fill="#000000" stroke="#000000" points="849.3969,-326.7001 856.6814,-319.0068 846.1893,-320.4783 849.3969,-326.7001"/>
</g>
<!-- ClusterK8sIO -->
<g id="node23" class="node">
<title>ClusterK8sIO</title>
<ellipse fill="none" stroke="#000000" cx="892" cy="-378" rx="74.9875" ry="18"/>
<text text-anchor="middle" x="892" y="-374.3" font-family="Times,serif" font-size="14.00" fill="#000000">ClusterK8sIO</text>
</g>
<!-- InstallConfig&#45;&gt;ClusterK8sIO -->
<g id="edge36" class="edge">
<title>InstallConfig&#45;&gt;ClusterK8sIO</title>
<path fill="none" stroke="#000000" d="M852.8539,-432.2022C858.979,-423.7214 866.425,-413.4115 873.172,-404.0696"/>
<polygon fill="#000000" stroke="#000000" points="876.0962,-405.9986 879.1137,-395.8425 870.4214,-401.9001 876.0962,-405.9986"/>
</g>
<!-- Worker -->
<g id="node24" class="node">
<title>Worker</title>
<ellipse fill="none" stroke="#000000" cx="430" cy="-378" rx="45.4919" ry="18"/>
<text text-anchor="middle" x="430" y="-374.3" font-family="Times,serif" font-size="14.00" fill="#000000">Worker</text>
</g>
<!-- InstallConfig&#45;&gt;Worker -->
<g id="edge38" class="edge">
<title>InstallConfig&#45;&gt;Worker</title>
<path fill="none" stroke="#000000" d="M777.4764,-441.1744C710.3816,-431.3975 600.796,-414.5454 507,-396 497.802,-394.1814 488.0313,-392.052 478.6482,-389.907"/>
<polygon fill="#000000" stroke="#000000" points="479.1968,-386.4413 468.6642,-387.5875 477.6127,-393.2598 479.1968,-386.4413"/>
</g>
<!-- Master -->
<g id="node25" class="node">
<title>Master</title>
<ellipse fill="none" stroke="#000000" cx="304" cy="-378" rx="44.393" ry="18"/>
<text text-anchor="middle" x="304" y="-374.3" font-family="Times,serif" font-size="14.00" fill="#000000">Master</text>
</g>
<!-- InstallConfig&#45;&gt;Master -->
<g id="edge42" class="edge">
<title>InstallConfig&#45;&gt;Master</title>
<path fill="none" stroke="#000000" d="M771.1918,-444.787C680.2349,-437.2592 515.2212,-421.3942 376,-396 367.7094,-394.4878 358.9552,-392.5733 350.5156,-390.5608"/>
<polygon fill="#000000" stroke="#000000" points="351.3458,-387.1608 340.7993,-388.1716 349.6742,-393.9583 351.3458,-387.1608"/>
</g>
<!-- kubeAddonOperator -->
<g id="node26" class="node">
<title>kubeAddonOperator</title>
<ellipse fill="none" stroke="#000000" cx="655" cy="-378" rx="105.8812" ry="18"/>
<text text-anchor="middle" x="655" y="-374.3" font-family="Times,serif" font-size="14.00" fill="#000000">kubeAddonOperator</text>
</g>
<!-- InstallConfig&#45;&gt;kubeAddonOperator -->
<g id="edge46" class="edge">
<title>InstallConfig&#45;&gt;kubeAddonOperator</title>
<path fill="none" stroke="#000000" d="M800.7663,-434.7307C773.3941,-424.0777 736.5821,-409.7509 706.8006,-398.1602"/>
<polygon fill="#000000" stroke="#000000" points="707.9878,-394.8666 697.3992,-394.5013 705.4489,-401.39 707.9878,-394.8666"/>
</g>
<!-- Bootstrap -->
<g id="node27" class="node">
<title>Bootstrap</title>
<ellipse fill="none" stroke="#000000" cx="2264" cy="-234" rx="56.59" ry="18"/>
<text text-anchor="middle" x="2264" y="-230.3" font-family="Times,serif" font-size="14.00" fill="#000000">Bootstrap</text>
</g>
<!-- InstallConfig&#45;&gt;Bootstrap -->
<g id="edge48" class="edge">
<title>InstallConfig&#45;&gt;Bootstrap</title>
<path fill="none" stroke="#000000" d="M774.4387,-442.6664C690.7449,-432.6349 554.9143,-413.8386 540,-396 529.7372,-383.725 530.1331,-372.5954 540,-360 622.4288,-254.7775 699.6378,-306.6152 832,-288 1100.832,-250.1918 1952.0226,-237.6017 2197.2732,-234.7102"/>
<polygon fill="#000000" stroke="#000000" points="2197.5041,-238.2079 2207.4626,-234.5916 2197.4225,-231.2084 2197.5041,-238.2079"/>
</g>
<!-- APIServerCertKey -->
<g id="node30" class="node">
<title>APIServerCertKey</title>
<ellipse fill="none" stroke="#000000" cx="1545" cy="-378" rx="96.6831" ry="18"/>
<text text-anchor="middle" x="1545" y="-374.3" font-family="Times,serif" font-size="14.00" fill="#000000">APIServerCertKey</text>
</g>
<!-- InstallConfig&#45;&gt;APIServerCertKey -->
<g id="edge58" class="edge">
<title>InstallConfig&#45;&gt;APIServerCertKey</title>
<path fill="none" stroke="#000000" d="M909.3693,-445.518C1021.1561,-437.8977 1247.9568,-420.7933 1439,-396 1447.6076,-394.8829 1456.5855,-393.5778 1465.5152,-392.1897"/>
<polygon fill="#000000" stroke="#000000" points="1466.2283,-395.6204 1475.5544,-390.593 1465.1287,-388.7073 1466.2283,-395.6204"/>
</g>
<!-- Admin -->
<g id="node34" class="node">
<title>Admin</title>
<ellipse fill="none" stroke="#000000" cx="2855" cy="-306" rx="40.8928" ry="18"/>
<text text-anchor="middle" x="2855" y="-302.3" font-family="Times,serif" font-size="14.00" fill="#000000">Admin</text>
</g>
<!-- InstallConfig&#45;&gt;Admin -->
<g id="edge69" class="edge">
<title>InstallConfig&#45;&gt;Admin</title>
<path fill="none" stroke="#000000" d="M911.4713,-448.7669C1269.2834,-442.5122 2849.5785,-413.8918 2867,-396 2882.9713,-379.5976 2876.9586,-352.8392 2868.7655,-332.7544"/>
<polygon fill="#000000" stroke="#000000" points="2871.9147,-331.222 2864.6551,-323.5052 2865.5179,-334.0649 2871.9147,-331.222"/>
</g>
<!-- Kubelet -->
<g id="node35" class="node">
<title>Kubelet</title>
<ellipse fill="none" stroke="#000000" cx="2339" cy="-306" rx="46.5926" ry="18"/>
<text text-anchor="middle" x="2339" y="-302.3" font-family="Times,serif" font-size="14.00" fill="#000000">Kubelet</text>
</g>
<!-- InstallConfig&#45;&gt;Kubelet -->
<g id="edge73" class="edge">
<title>InstallConfig&#45;&gt;Kubelet</title>
<path fill="none" stroke="#000000" d="M911.5404,-448.8098C1209.9757,-443.6787 2341.4165,-422.5042 2367,-396 2383.7304,-378.6675 2371.9595,-351.5072 2358.9345,-331.5538"/>
<polygon fill="#000000" stroke="#000000" points="2361.7329,-329.4471 2353.1581,-323.2243 2355.9807,-333.4362 2361.7329,-329.4471"/>
</g>
<!-- TerraformVariables -->
<g id="node36" class="node">
<title>TerraformVariables</title>
<ellipse fill="none" stroke="#000000" cx="351" cy="-162" rx="100.9827" ry="18"/>
<text text-anchor="middle" x="351" y="-158.3" font-family="Times,serif" font-size="14.00" fill="#000000">TerraformVariables</text>
</g>
<!-- InstallConfig&#45;&gt;TerraformVariables -->
<g id="edge79" class="edge">
<title>InstallConfig&#45;&gt;TerraformVariables</title>
<path fill="none" stroke="#000000" d="M768.5573,-448.7288C619.2893,-445.3313 285.2835,-433.5704 251,-396 193.8771,-333.4005 278.5041,-233.2328 324.526,-186.9434"/>
<polygon fill="#000000" stroke="#000000" points="327.172,-189.2492 331.822,-179.7293 322.2502,-184.2715 327.172,-189.2492"/>
</g>
<!-- Cluster -->
<g id="node38" class="node">
<title>Cluster</title>
<ellipse fill="none" stroke="#000000" cx="424" cy="-90" rx="45.4919" ry="18"/>
<text text-anchor="middle" x="424" y="-86.3" font-family="Times,serif" font-size="14.00" fill="#000000">Cluster</text>
</g>
<!-- InstallConfig&#45;&gt;Cluster -->
<g id="edge85" class="edge">
<title>InstallConfig&#45;&gt;Cluster</title>
<path fill="none" stroke="#000000" d="M768.7703,-447.8445C617.0696,-442.664 272.4207,-427.5374 230,-396 195.4265,-370.2965 194,-349.0813 194,-306 194,-306 194,-306 194,-234 194,-188.8741 206.1462,-172.6628 241,-144 277.3632,-114.0959 329.7563,-100.752 369.1717,-94.7977"/>
<polygon fill="#000000" stroke="#000000" points="369.7307,-98.2537 379.1507,-93.4047 368.7628,-91.3209 369.7307,-98.2537"/>
</g>
<!-- clusterID -->
<g id="node3" class="node">
<title>clusterID</title>
<ellipse fill="none" stroke="#000000" cx="1166" cy="-522" rx="54.6905" ry="18"/>
<text text-anchor="middle" x="1166" y="-518.3" font-family="Times,serif" font-size="14.00" fill="#000000">clusterID</text>
</g>
<!-- clusterID&#45;&gt;InstallConfig -->
<g id="edge2" class="edge">
<title>clusterID&#45;&gt;InstallConfig</title>
<path fill="none" stroke="#000000" d="M1125.4529,-509.9263C1118.0111,-507.8498 1110.2917,-505.7875 1103,-504 1037.1838,-487.8655 961.3027,-472.6412 908.0141,-462.4968"/>
<polygon fill="#000000" stroke="#000000" points="908.4779,-459.0224 898.0012,-460.5998 907.1749,-465.9001 908.4779,-459.0224"/>
</g>
<!-- emailAddress -->
<g id="node4" class="node">
<title>emailAddress</title>
<ellipse fill="none" stroke="#000000" cx="1313" cy="-522" rx="74.187" ry="18"/>
<text text-anchor="middle" x="1313" y="-518.3" font-family="Times,serif" font-size="14.00" fill="#000000">emailAddress</text>
</g>
<!-- emailAddress&#45;&gt;InstallConfig -->
<g id="edge3" class="edge">
<title>emailAddress&#45;&gt;InstallConfig</title>
<path fill="none" stroke="#000000" d="M1258.6482,-509.594C1249.1248,-507.5975 1239.2915,-505.6483 1230,-504 1121.1446,-484.689 994.1648,-468.2244 915.4128,-458.7178"/>
<polygon fill="#000000" stroke="#000000" points="915.4491,-455.197 905.1031,-457.4797 914.6144,-462.1471 915.4491,-455.197"/>
</g>
<!-- password -->
<g id="node5" class="node">
<title>password</title>
<ellipse fill="none" stroke="#000000" cx="305" cy="-522" rx="55.4913" ry="18"/>
<text text-anchor="middle" x="305" y="-518.3" font-family="Times,serif" font-size="14.00" fill="#000000">password</text>
</g>
<!-- password&#45;&gt;InstallConfig -->
<g id="edge4" class="edge">
<title>password&#45;&gt;InstallConfig</title>
<path fill="none" stroke="#000000" d="M345.3921,-509.5854C353.1732,-507.4942 361.2988,-505.5143 369,-504 505.1665,-477.2247 666.2792,-462.2948 760.4119,-455.2216"/>
<polygon fill="#000000" stroke="#000000" points="760.7163,-458.7087 770.4304,-454.4795 760.1992,-451.7279 760.7163,-458.7087"/>
</g>
<!-- sshPublicKey -->
<g id="node6" class="node">
<title>sshPublicKey</title>
<ellipse fill="none" stroke="#000000" cx="451" cy="-522" rx="72.5877" ry="18"/>
<text text-anchor="middle" x="451" y="-518.3" font-family="Times,serif" font-size="14.00" fill="#000000">sshPublicKey</text>
</g>
<!-- sshPublicKey&#45;&gt;InstallConfig -->
<g id="edge5" class="edge">
<title>sshPublicKey&#45;&gt;InstallConfig</title>
<path fill="none" stroke="#000000" d="M504.5196,-509.7492C513.6726,-507.7566 523.0985,-505.7685 532,-504 613.2072,-487.8667 706.969,-471.7909 769.5057,-461.43"/>
<polygon fill="#000000" stroke="#000000" points="770.3564,-464.837 779.6522,-459.7537 769.2154,-457.9306 770.3564,-464.837"/>
</g>
<!-- baseDomain -->
<g id="node7" class="node">
<title>baseDomain</title>
<ellipse fill="none" stroke="#000000" cx="609" cy="-522" rx="67.6881" ry="18"/>
<text text-anchor="middle" x="609" y="-518.3" font-family="Times,serif" font-size="14.00" fill="#000000">baseDomain</text>
</g>
<!-- baseDomain&#45;&gt;InstallConfig -->
<g id="edge6" class="edge">
<title>baseDomain&#45;&gt;InstallConfig</title>
<path fill="none" stroke="#000000" d="M652.9931,-508.2879C690.603,-496.5653 744.8902,-479.6446 785.2946,-467.051"/>
<polygon fill="#000000" stroke="#000000" points="786.4832,-470.3467 794.9887,-464.0295 784.4002,-463.6638 786.4832,-470.3467"/>
</g>
<!-- clusterName -->
<g id="node8" class="node">
<title>clusterName</title>
<ellipse fill="none" stroke="#000000" cx="766" cy="-522" rx="71.4873" ry="18"/>
<text text-anchor="middle" x="766" y="-518.3" font-family="Times,serif" font-size="14.00" fill="#000000">clusterName</text>
</g>
<!-- clusterName&#45;&gt;InstallConfig -->
<g id="edge7" class="edge">
<title>clusterName&#45;&gt;InstallConfig</title>
<path fill="none" stroke="#000000" d="M783.9133,-504.5708C793.1165,-495.6164 804.4892,-484.551 814.5829,-474.7302"/>
<polygon fill="#000000" stroke="#000000" points="817.2686,-477.0004 821.9951,-467.5182 812.3871,-471.9833 817.2686,-477.0004"/>
</g>
<!-- pullSecret -->
<g id="node9" class="node">
<title>pullSecret</title>
<ellipse fill="none" stroke="#000000" cx="915" cy="-522" rx="59.2899" ry="18"/>
<text text-anchor="middle" x="915" y="-518.3" font-family="Times,serif" font-size="14.00" fill="#000000">pullSecret</text>
</g>
<!-- pullSecret&#45;&gt;InstallConfig -->
<g id="edge8" class="edge">
<title>pullSecret&#45;&gt;InstallConfig</title>
<path fill="none" stroke="#000000" d="M896.8446,-504.5708C887.517,-495.6164 875.9906,-484.551 865.7606,-474.7302"/>
<polygon fill="#000000" stroke="#000000" points="867.8859,-471.9187 858.2482,-467.5182 863.0382,-476.9685 867.8859,-471.9187"/>
</g>
<!-- platform -->
<g id="node10" class="node">
<title>platform</title>
<ellipse fill="none" stroke="#000000" cx="1043" cy="-522" rx="50.8918" ry="18"/>
<text text-anchor="middle" x="1043" y="-518.3" font-family="Times,serif" font-size="14.00" fill="#000000">platform</text>
</g>
<!-- platform&#45;&gt;InstallConfig -->
<g id="edge9" class="edge">
<title>platform&#45;&gt;InstallConfig</title>
<path fill="none" stroke="#000000" d="M1006.7077,-509.1278C974.601,-497.7403 927.3986,-480.9985 891.4092,-468.2338"/>
<polygon fill="#000000" stroke="#000000" points="892.1723,-464.7909 881.5776,-464.7467 889.8324,-471.3882 892.1723,-464.7909"/>
</g>
<!-- Target Manifests -->
<g id="node12" class="node">
<title>Target Manifests</title>
<polygon fill="#d3d3d3" stroke="#000000" points="1382.5,-252 1243.5,-252 1243.5,-216 1382.5,-216 1382.5,-252"/>
<text text-anchor="middle" x="1313" y="-230.3" font-family="Times,serif" font-size="14.00" fill="#000000">Target Manifests</text>
</g>
<!-- Manifests&#45;&gt;Target Manifests -->
<g id="edge10" class="edge">
<title>Manifests&#45;&gt;Target Manifests</title>
<path fill="none" stroke="#000000" d="M1732.6981,-298.1577C1650.7205,-285.6261 1489.573,-260.9921 1392.5581,-246.1618"/>
<polygon fill="#000000" stroke="#000000" points="1392.9197,-242.6764 1382.5056,-244.6251 1391.8618,-249.5961 1392.9197,-242.6764"/>
</g>
<!-- Manifests&#45;&gt;Bootstrap -->
<g id="edge74" class="edge">
<title>Manifests&#45;&gt;Bootstrap</title>
<path fill="none" stroke="#000000" d="M1835.3684,-298.2947C1924.3903,-284.9415 2106.9502,-257.5575 2202.5443,-243.2184"/>
<polygon fill="#000000" stroke="#000000" points="2203.2686,-246.649 2212.6387,-241.7042 2202.2301,-239.7264 2203.2686,-246.649"/>
</g>
<!-- networkOperator&#45;&gt;Manifests -->
<g id="edge12" class="edge">
<title>networkOperator&#45;&gt;Manifests</title>
<path fill="none" stroke="#000000" d="M1152.5523,-368.0137C1174.3318,-365.2859 1198.0878,-362.418 1220,-360 1400.4879,-340.0833 1613.9499,-320.8111 1718.9782,-311.6104"/>
<polygon fill="#000000" stroke="#000000" points="1719.4474,-315.0828 1729.1045,-310.7251 1718.8377,-308.1094 1719.4474,-315.0828"/>
</g>
<!-- RootCA -->
<g id="node14" class="node">
<title>RootCA</title>
<ellipse fill="none" stroke="#000000" cx="2160" cy="-522" rx="46.2923" ry="18"/>
<text text-anchor="middle" x="2160" y="-518.3" font-family="Times,serif" font-size="14.00" fill="#000000">RootCA</text>
</g>
<!-- RootCA&#45;&gt;Manifests -->
<g id="edge14" class="edge">
<title>RootCA&#45;&gt;Manifests</title>
<path fill="none" stroke="#000000" d="M2114.0643,-519.7963C2049.9762,-515.5164 1930.9224,-503.1487 1836,-468 1778.0305,-446.5345 1747.3572,-449.8486 1717,-396 1709.1426,-382.0622 1710.0952,-374.4334 1717,-360 1723.3294,-346.7695 1734.6573,-335.7451 1746.2193,-327.1806"/>
<polygon fill="#000000" stroke="#000000" points="1748.3735,-329.9464 1754.6115,-321.3826 1744.3946,-324.1872 1748.3735,-329.9464"/>
</g>
<!-- EtcdCA -->
<g id="node15" class="node">
<title>EtcdCA</title>
<ellipse fill="none" stroke="#000000" cx="1892" cy="-450" rx="46.5926" ry="18"/>
<text text-anchor="middle" x="1892" y="-446.3" font-family="Times,serif" font-size="14.00" fill="#000000">EtcdCA</text>
</g>
<!-- RootCA&#45;&gt;EtcdCA -->
<g id="edge16" class="edge">
<title>RootCA&#45;&gt;EtcdCA</title>
<path fill="none" stroke="#000000" d="M2121.8867,-511.7606C2074.0985,-498.922 1992.1426,-476.904 1940.0901,-462.9197"/>
<polygon fill="#000000" stroke="#000000" points="1940.9814,-459.5351 1930.4157,-460.3206 1939.1651,-466.2954 1940.9814,-459.5351"/>
</g>
<!-- KubeCA -->
<g id="node17" class="node">
<title>KubeCA</title>
<ellipse fill="none" stroke="#000000" cx="2160" cy="-450" rx="48.9926" ry="18"/>
<text text-anchor="middle" x="2160" y="-446.3" font-family="Times,serif" font-size="14.00" fill="#000000">KubeCA</text>
</g>
<!-- RootCA&#45;&gt;KubeCA -->
<g id="edge19" class="edge">
<title>RootCA&#45;&gt;KubeCA</title>
<path fill="none" stroke="#000000" d="M2160,-503.8314C2160,-496.131 2160,-486.9743 2160,-478.4166"/>
<polygon fill="#000000" stroke="#000000" points="2163.5001,-478.4132 2160,-468.4133 2156.5001,-478.4133 2163.5001,-478.4132"/>
</g>
<!-- ServiceServingCA -->
<g id="node18" class="node">
<title>ServiceServingCA</title>
<ellipse fill="none" stroke="#000000" cx="2586" cy="-378" rx="96.3833" ry="18"/>
<text text-anchor="middle" x="2586" y="-374.3" font-family="Times,serif" font-size="14.00" fill="#000000">ServiceServingCA</text>
</g>
<!-- RootCA&#45;&gt;ServiceServingCA -->
<g id="edge23" class="edge">
<title>RootCA&#45;&gt;ServiceServingCA</title>
<path fill="none" stroke="#000000" d="M2205.1664,-518.1771C2261.3198,-512.3176 2359.3593,-498.4211 2438,-468 2480.9557,-451.3832 2525.486,-422.4359 2554.3321,-401.8594"/>
<polygon fill="#000000" stroke="#000000" points="2556.7082,-404.4605 2562.7617,-395.7653 2552.6071,-398.7877 2556.7082,-404.4605"/>
</g>
<!-- RootCA&#45;&gt;MCSCertKey -->
<g id="edge27" class="edge">
<title>RootCA&#45;&gt;MCSCertKey</title>
<path fill="none" stroke="#000000" d="M2141.2642,-505.4352C2129.6771,-494.978 2114.652,-481.0282 2102,-468 2081.6519,-447.0468 2059.846,-421.9874 2044.3101,-403.6384"/>
<polygon fill="#000000" stroke="#000000" points="2046.7596,-401.1135 2037.6409,-395.7189 2041.4052,-405.6225 2046.7596,-401.1135"/>
</g>
<!-- RootCA&#45;&gt;Worker -->
<g id="edge40" class="edge">
<title>RootCA&#45;&gt;Worker</title>
<path fill="none" stroke="#000000" d="M2114.2025,-518.9649C1884.6463,-503.6712 857.7087,-434.2801 540,-396 520.7907,-393.6855 499.8069,-390.4332 481.3649,-387.3287"/>
<polygon fill="#000000" stroke="#000000" points="481.8552,-383.8618 471.4083,-385.6261 480.6752,-390.7617 481.8552,-383.8618"/>
</g>
<!-- RootCA&#45;&gt;Master -->
<g id="edge44" class="edge">
<title>RootCA&#45;&gt;Master</title>
<path fill="none" stroke="#000000" d="M2113.5978,-521.127C1902.4655,-517.0143 1031.1725,-498.4853 760,-468 609.123,-451.0384 433.7036,-410.393 351.3186,-390.04"/>
<polygon fill="#000000" stroke="#000000" points="352.0529,-386.6161 341.504,-387.6023 350.3655,-393.4097 352.0529,-386.6161"/>
</g>
<!-- RootCA&#45;&gt;Bootstrap -->
<g id="edge49" class="edge">
<title>RootCA&#45;&gt;Bootstrap</title>
<path fill="none" stroke="#000000" d="M2206.2189,-521.1748C2349.5983,-517.5424 2782.2994,-498.1565 2867,-396 2877.2123,-383.683 2874.9829,-373.8663 2867,-360 2851.1021,-332.3854 2832.3172,-340.4037 2805,-324 2778.9896,-308.381 2775.7957,-297.5553 2747,-288 2568.7629,-228.8553 2510.6264,-286.3463 2326,-252 2322.083,-251.2713 2318.0584,-250.3979 2314.0315,-249.4341"/>
<polygon fill="#000000" stroke="#000000" points="2314.6333,-245.9753 2304.0774,-246.8828 2312.8953,-252.7561 2314.6333,-245.9753"/>
</g>
<!-- AggregatorCA -->
<g id="node29" class="node">
<title>AggregatorCA</title>
<ellipse fill="none" stroke="#000000" cx="3068" cy="-378" rx="77.9862" ry="18"/>
<text text-anchor="middle" x="3068" y="-374.3" font-family="Times,serif" font-size="14.00" fill="#000000">AggregatorCA</text>
</g>
<!-- RootCA&#45;&gt;AggregatorCA -->
<g id="edge53" class="edge">
<title>RootCA&#45;&gt;AggregatorCA</title>
<path fill="none" stroke="#000000" d="M2206.1483,-520.81C2368.261,-516.3746 2905.6795,-499.4239 2976,-468 3006.7957,-454.2384 3033.2632,-425.4108 3049.7983,-404.0711"/>
<polygon fill="#000000" stroke="#000000" points="3052.6373,-406.1193 3055.8449,-396.0216 3047.0404,-401.915 3052.6373,-406.1193"/>
</g>
<!-- RootCA&#45;&gt;Admin -->
<g id="edge67" class="edge">
<title>RootCA&#45;&gt;Admin</title>
<path fill="none" stroke="#000000" d="M2205.9943,-520.3532C2364.0091,-514.4761 2876.2777,-493.5164 2900,-468 2935.3621,-429.9633 2899.8338,-366.5465 2874.8726,-331.4013"/>
<polygon fill="#000000" stroke="#000000" points="2877.5338,-329.1111 2868.8038,-323.1079 2871.8847,-333.2449 2877.5338,-329.1111"/>
</g>
<!-- RootCA&#45;&gt;Kubelet -->
<g id="edge71" class="edge">
<title>RootCA&#45;&gt;Kubelet</title>
<path fill="none" stroke="#000000" d="M2200.0591,-512.8167C2253.2298,-498.2352 2345.0423,-464.1728 2385,-396 2397.8107,-374.1433 2381.5413,-348.3144 2364.9175,-329.9452"/>
<polygon fill="#000000" stroke="#000000" points="2367.2969,-327.3693 2357.8551,-322.5628 2362.2387,-332.2082 2367.2969,-327.3693"/>
</g>
<!-- EtcdCA&#45;&gt;Manifests -->
<g id="edge15" class="edge">
<title>EtcdCA&#45;&gt;Manifests</title>
<path fill="none" stroke="#000000" d="M1849.8076,-442.0128C1805.9202,-432.7458 1741.5946,-416.1328 1727,-396 1711.1179,-374.0912 1732.0077,-347.828 1752.8254,-329.3437"/>
<polygon fill="#000000" stroke="#000000" points="1755.3471,-331.795 1760.7236,-322.6657 1750.8275,-326.4496 1755.3471,-331.795"/>
</g>
<!-- EtcdClientCertKey -->
<g id="node19" class="node">
<title>EtcdClientCertKey</title>
<ellipse fill="none" stroke="#000000" cx="1835" cy="-378" rx="98.5829" ry="18"/>
<text text-anchor="middle" x="1835" y="-374.3" font-family="Times,serif" font-size="14.00" fill="#000000">EtcdClientCertKey</text>
</g>
<!-- EtcdCA&#45;&gt;EtcdClientCertKey -->
<g id="edge25" class="edge">
<title>EtcdCA&#45;&gt;EtcdClientCertKey</title>
<path fill="none" stroke="#000000" d="M1878.2019,-432.5708C1871.4234,-424.0085 1863.1169,-413.5161 1855.6049,-404.0272"/>
<polygon fill="#000000" stroke="#000000" points="1858.2175,-401.6886 1849.2663,-396.0206 1852.7292,-406.0335 1858.2175,-401.6886"/>
</g>
<!-- EtcdCA&#45;&gt;Bootstrap -->
<g id="edge50" class="edge">
<title>EtcdCA&#45;&gt;Bootstrap</title>
<path fill="none" stroke="#000000" d="M1937.4447,-445.4728C1982.0555,-439.4504 2050.8107,-425.8484 2103,-396 2164.5009,-360.8261 2218.5815,-295.8354 2245.6405,-259.7838"/>
<polygon fill="#000000" stroke="#000000" points="2248.4856,-261.8228 2251.6172,-251.7014 2242.8573,-257.6608 2248.4856,-261.8228"/>
</g>
<!-- IngressCertKey&#45;&gt;Manifests -->
<g id="edge17" class="edge">
<title>IngressCertKey&#45;&gt;Manifests</title>
<path fill="none" stroke="#000000" d="M1407.7237,-365.7312C1418.1512,-363.751 1428.8754,-361.7716 1439,-360 1537.8353,-342.7061 1653.0734,-325.2033 1722.1962,-314.9898"/>
<polygon fill="#000000" stroke="#000000" points="1723.0857,-318.3966 1732.4683,-313.4756 1722.0648,-311.4715 1723.0857,-318.3966"/>
</g>
<!-- IngressCertKey&#45;&gt;Tectonic -->
<g id="edge33" class="edge">
<title>IngressCertKey&#45;&gt;Tectonic</title>
<path fill="none" stroke="#000000" d="M1278.5218,-367.2986C1188.8896,-353.0838 1032.1615,-328.2283 948.4631,-314.9545"/>
<polygon fill="#000000" stroke="#000000" points="948.8062,-311.4653 938.3814,-313.3556 947.7097,-318.3789 948.8062,-311.4653"/>
</g>
<!-- KubeCA&#45;&gt;Manifests -->
<g id="edge21" class="edge">
<title>KubeCA&#45;&gt;Manifests</title>
<path fill="none" stroke="#000000" d="M2153.7423,-431.8796C2145.53,-410.9886 2129.0252,-377.3109 2103,-360 2062.4104,-333.0015 1930.2099,-317.7894 1849.2888,-310.7925"/>
<polygon fill="#000000" stroke="#000000" points="1849.4578,-307.2944 1839.1985,-309.9396 1848.8681,-314.2696 1849.4578,-307.2944"/>
</g>
<!-- KubeCA&#45;&gt;IngressCertKey -->
<g id="edge18" class="edge">
<title>KubeCA&#45;&gt;IngressCertKey</title>
<path fill="none" stroke="#000000" d="M2112.4436,-445.7694C2069.488,-441.9939 2004.5289,-436.3987 1948,-432 1721.8961,-414.4063 1663.8472,-425.6011 1439,-396 1431.4336,-395.0039 1423.5543,-393.7774 1415.7243,-392.4369"/>
<polygon fill="#000000" stroke="#000000" points="1416.3176,-388.9875 1405.8598,-390.6865 1415.0945,-395.8799 1416.3176,-388.9875"/>
</g>
<!-- KubeletCertKey -->
<g id="node21" class="node">
<title>KubeletCertKey</title>
<ellipse fill="none" stroke="#000000" cx="2273" cy="-378" rx="85.2851" ry="18"/>
<text text-anchor="middle" x="2273" y="-374.3" font-family="Times,serif" font-size="14.00" fill="#000000">KubeletCertKey</text>
</g>
<!-- KubeCA&#45;&gt;KubeletCertKey -->
<g id="edge30" class="edge">
<title>KubeCA&#45;&gt;KubeletCertKey</title>
<path fill="none" stroke="#000000" d="M2184.5193,-434.3771C2199.9964,-424.5155 2220.2474,-411.6122 2237.4694,-400.639"/>
<polygon fill="#000000" stroke="#000000" points="2239.6051,-403.4283 2246.1579,-395.1029 2235.8436,-397.5248 2239.6051,-403.4283"/>
</g>
<!-- KubeCA&#45;&gt;Tectonic -->
<g id="edge34" class="edge">
<title>KubeCA&#45;&gt;Tectonic</title>
<path fill="none" stroke="#000000" d="M2112.4624,-445.5129C2069.5192,-441.567 2004.5679,-435.8655 1948,-432 1793.7083,-421.4567 1402.9555,-433.8212 1253,-396 1216.7593,-386.8595 1212.5388,-371.573 1177,-360 1100.7717,-335.1767 1009.1411,-320.3446 950.7405,-312.6767"/>
<polygon fill="#000000" stroke="#000000" points="950.9557,-309.1756 940.5911,-311.3724 950.0634,-316.1185 950.9557,-309.1756"/>
</g>
<!-- KubeCA&#45;&gt;Bootstrap -->
<g id="edge51" class="edge">
<title>KubeCA&#45;&gt;Bootstrap</title>
<path fill="none" stroke="#000000" d="M2206.9863,-444.9282C2265.7399,-437.5763 2361.4874,-421.9255 2385,-396 2417.3841,-360.2925 2421.8157,-328.0584 2395,-288 2379.4077,-264.7076 2351.7435,-251.4519 2325.8425,-243.9129"/>
<polygon fill="#000000" stroke="#000000" points="2326.5952,-240.4913 2316.0309,-241.2944 2324.7902,-247.2546 2326.5952,-240.4913"/>
</g>
<!-- KubeCA&#45;&gt;APIServerCertKey -->
<g id="edge57" class="edge">
<title>KubeCA&#45;&gt;APIServerCertKey</title>
<path fill="none" stroke="#000000" d="M2113.5229,-444.5588C2012.3421,-432.7132 1770.5296,-404.4035 1637.179,-388.7917"/>
<polygon fill="#000000" stroke="#000000" points="1637.3212,-385.2845 1626.982,-387.5979 1636.5072,-392.237 1637.3212,-385.2845"/>
</g>
<!-- AdminCertKey -->
<g id="node32" class="node">
<title>AdminCertKey</title>
<ellipse fill="none" stroke="#000000" cx="2779" cy="-378" rx="79.0865" ry="18"/>
<text text-anchor="middle" x="2779" y="-374.3" font-family="Times,serif" font-size="14.00" fill="#000000">AdminCertKey</text>
</g>
<!-- KubeCA&#45;&gt;AdminCertKey -->
<g id="edge62" class="edge">
<title>KubeCA&#45;&gt;AdminCertKey</title>
<path fill="none" stroke="#000000" d="M2208.1639,-446.7302C2301.6301,-440.0254 2513.9814,-423.0353 2691,-396 2697.7322,-394.9718 2704.7284,-393.7706 2711.7027,-392.4853"/>
<polygon fill="#000000" stroke="#000000" points="2712.7013,-395.8583 2721.8718,-390.5524 2711.3941,-388.9814 2712.7013,-395.8583"/>
</g>
<!-- ServiceServingCA&#45;&gt;Manifests -->
<g id="edge22" class="edge">
<title>ServiceServingCA&#45;&gt;Manifests</title>
<path fill="none" stroke="#000000" d="M2499.0279,-370.192C2336.8638,-355.6337 1991.8139,-324.6566 1848.4963,-311.7902"/>
<polygon fill="#000000" stroke="#000000" points="1848.8043,-308.3039 1838.5314,-310.8956 1848.1783,-315.2758 1848.8043,-308.3039"/>
</g>
<!-- ServiceServingCA&#45;&gt;Bootstrap -->
<g id="edge54" class="edge">
<title>ServiceServingCA&#45;&gt;Bootstrap</title>
<path fill="none" stroke="#000000" d="M2645.8842,-363.8889C2697.7372,-348.9479 2759.9223,-322.7211 2729,-288 2722.3954,-280.5841 2454.6821,-253.0013 2328.5227,-240.3791"/>
<polygon fill="#000000" stroke="#000000" points="2328.5257,-236.862 2318.2274,-239.3508 2327.83,-243.8274 2328.5257,-236.862"/>
</g>
<!-- EtcdClientCertKey&#45;&gt;Manifests -->
<g id="edge24" class="edge">
<title>EtcdClientCertKey&#45;&gt;Manifests</title>
<path fill="none" stroke="#000000" d="M1822.1305,-359.8314C1816.227,-351.497 1809.1152,-341.4567 1802.6406,-332.3162"/>
<polygon fill="#000000" stroke="#000000" points="1805.325,-330.0506 1796.6887,-323.9134 1799.6128,-334.0967 1805.325,-330.0506"/>
</g>
<!-- EtcdClientCertKey&#45;&gt;Bootstrap -->
<g id="edge55" class="edge">
<title>EtcdClientCertKey&#45;&gt;Bootstrap</title>
<path fill="none" stroke="#000000" d="M1873.0575,-361.3334C1917.7495,-342.132 1994.3786,-310.3596 2062,-288 2110.8749,-271.8391 2167.5854,-257.0128 2208.4536,-247.0014"/>
<polygon fill="#000000" stroke="#000000" points="2209.3363,-250.3888 2218.2263,-244.6251 2207.6824,-243.587 2209.3363,-250.3888"/>
</g>
<!-- MCSCertKey&#45;&gt;Manifests -->
<g id="edge26" class="edge">
<title>MCSCertKey&#45;&gt;Manifests</title>
<path fill="none" stroke="#000000" d="M1976.9184,-364.1177C1936.231,-351.8604 1877.0041,-334.018 1834.9249,-321.3414"/>
<polygon fill="#000000" stroke="#000000" points="1835.7381,-317.9311 1825.1536,-318.3977 1833.7189,-324.6335 1835.7381,-317.9311"/>
</g>
<!-- MCSCertKey&#45;&gt;Bootstrap -->
<g id="edge64" class="edge">
<title>MCSCertKey&#45;&gt;Bootstrap</title>
<path fill="none" stroke="#000000" d="M2035.746,-359.9923C2050.8663,-339.8424 2077.8527,-307.4771 2108,-288 2138.0852,-268.5631 2175.9745,-255.2343 2206.8782,-246.6821"/>
<polygon fill="#000000" stroke="#000000" points="2207.8903,-250.0346 2216.6477,-244.0716 2206.0831,-243.2718 2207.8903,-250.0346"/>
</g>
<!-- KubeletCertKey&#45;&gt;Manifests -->
<g id="edge29" class="edge">
<title>KubeletCertKey&#45;&gt;Manifests</title>
<path fill="none" stroke="#000000" d="M2209.1615,-365.9838C2197.4796,-363.9014 2185.3848,-361.8223 2174,-360 2058.8595,-341.5699 1923.9922,-323.7237 1846.8168,-313.867"/>
<polygon fill="#000000" stroke="#000000" points="1847.1398,-310.38 1836.7777,-312.5884 1846.2553,-317.3239 1847.1398,-310.38"/>
</g>
<!-- KubeletCertKey&#45;&gt;Bootstrap -->
<g id="edge63" class="edge">
<title>KubeletCertKey&#45;&gt;Bootstrap</title>
<path fill="none" stroke="#000000" d="M2271.8601,-359.7623C2270.3251,-335.201 2267.578,-291.2474 2265.7721,-262.3541"/>
<polygon fill="#000000" stroke="#000000" points="2269.2477,-261.8518 2265.1306,-252.0896 2262.2613,-262.2885 2269.2477,-261.8518"/>
</g>
<!-- KubeletCertKey&#45;&gt;Kubelet -->
<g id="edge72" class="edge">
<title>KubeletCertKey&#45;&gt;Kubelet</title>
<path fill="none" stroke="#000000" d="M2289.3146,-360.2022C2297.5075,-351.2646 2307.5623,-340.2957 2316.4784,-330.569"/>
<polygon fill="#000000" stroke="#000000" points="2319.1503,-332.8338 2323.3275,-323.0972 2313.9902,-328.1037 2319.1503,-332.8338"/>
</g>
<!-- Tectonic&#45;&gt;Target Manifests -->
<g id="edge31" class="edge">
<title>Tectonic&#45;&gt;Target Manifests</title>
<path fill="none" stroke="#000000" d="M937.8558,-298.1577C1008.754,-286.0326 1145.9011,-262.5775 1233.2722,-247.6352"/>
<polygon fill="#000000" stroke="#000000" points="1233.8786,-251.0824 1243.1455,-245.9466 1232.6985,-244.1825 1233.8786,-251.0824"/>
</g>
<!-- Tectonic&#45;&gt;Bootstrap -->
<g id="edge75" class="edge">
<title>Tectonic&#45;&gt;Bootstrap</title>
<path fill="none" stroke="#000000" d="M942.4574,-303.3521C1152.7745,-292.315 1959.7706,-249.9654 2197.644,-237.4822"/>
<polygon fill="#000000" stroke="#000000" points="2198.0688,-240.9649 2207.8716,-236.9455 2197.7019,-233.9745 2198.0688,-240.9649"/>
</g>
<!-- ClusterK8sIO&#45;&gt;Tectonic -->
<g id="edge35" class="edge">
<title>ClusterK8sIO&#45;&gt;Tectonic</title>
<path fill="none" stroke="#000000" d="M892,-359.8314C892,-352.131 892,-342.9743 892,-334.4166"/>
<polygon fill="#000000" stroke="#000000" points="895.5001,-334.4132 892,-324.4133 888.5001,-334.4133 895.5001,-334.4132"/>
</g>
<!-- Worker&#45;&gt;Tectonic -->
<g id="edge37" class="edge">
<title>Worker&#45;&gt;Tectonic</title>
<path fill="none" stroke="#000000" d="M472.0328,-371.021C492.5272,-367.6439 517.5427,-363.5599 540,-360 643.9667,-343.5193 765.341,-325.0748 834.9807,-314.5685"/>
<polygon fill="#000000" stroke="#000000" points="835.9208,-317.9664 845.2872,-313.0146 834.8771,-311.0446 835.9208,-317.9664"/>
</g>
<!-- Worker&#45;&gt;Worker -->
<g id="edge39" class="edge">
<title>Worker&#45;&gt;Worker</title>
<path fill="none" stroke="#000000" d="M461.6904,-390.985C478.3758,-393.0862 493.496,-388.7578 493.496,-378 493.496,-369.5114 484.0818,-365.0259 471.9129,-364.5436"/>
<polygon fill="#000000" stroke="#000000" points="471.5185,-361.058 461.6904,-365.015 471.841,-368.0505 471.5185,-361.058"/>
</g>
<!-- Target Ignition Configs -->
<g id="node28" class="node">
<title>Target Ignition Configs</title>
<polygon fill="#d3d3d3" stroke="#000000" points="654,-180 470,-180 470,-144 654,-144 654,-180"/>
<text text-anchor="middle" x="562" y="-158.3" font-family="Times,serif" font-size="14.00" fill="#000000">Target Ignition Configs</text>
</g>
<!-- Worker&#45;&gt;Target Ignition Configs -->
<g id="edge77" class="edge">
<title>Worker&#45;&gt;Target Ignition Configs</title>
<path fill="none" stroke="#000000" d="M440.8021,-360.3238C463.9016,-322.5247 518.2191,-233.6414 545.6046,-188.8288"/>
<polygon fill="#000000" stroke="#000000" points="548.6341,-190.5835 550.8622,-180.2255 542.6611,-186.9333 548.6341,-190.5835"/>
</g>
<!-- Worker&#45;&gt;TerraformVariables -->
<g id="edge82" class="edge">
<title>Worker&#45;&gt;TerraformVariables</title>
<path fill="none" stroke="#000000" d="M423.4004,-359.9555C409.5754,-322.1556 377.4981,-234.4506 361.0785,-189.5564"/>
<polygon fill="#000000" stroke="#000000" points="364.3584,-188.3344 357.6364,-180.1451 357.7843,-190.7389 364.3584,-188.3344"/>
</g>
<!-- Master&#45;&gt;Tectonic -->
<g id="edge41" class="edge">
<title>Master&#45;&gt;Tectonic</title>
<path fill="none" stroke="#000000" d="M340.7843,-367.7451C352.0177,-364.9004 364.4532,-362.0371 376,-360 539.4659,-331.161 734.9787,-315.8593 831.6909,-309.5493"/>
<polygon fill="#000000" stroke="#000000" points="832.1081,-313.0298 841.8628,-308.8952 831.6588,-306.0443 832.1081,-313.0298"/>
</g>
<!-- Master&#45;&gt;Master -->
<g id="edge43" class="edge">
<title>Master&#45;&gt;Master</title>
<path fill="none" stroke="#000000" d="M334.7209,-390.943C351.1912,-393.1425 366.1961,-388.8281 366.1961,-378 366.1961,-369.4559 356.8537,-364.9675 344.8208,-364.5346"/>
<polygon fill="#000000" stroke="#000000" points="344.5268,-361.0451 334.7209,-365.057 344.8884,-368.0357 344.5268,-361.0451"/>
</g>
<!-- Master&#45;&gt;Target Ignition Configs -->
<g id="edge76" class="edge">
<title>Master&#45;&gt;Target Ignition Configs</title>
<path fill="none" stroke="#000000" d="M323.3919,-361.7649C368.2017,-324.2498 479.1627,-231.3522 532.4769,-186.717"/>
<polygon fill="#000000" stroke="#000000" points="534.7942,-189.3417 540.215,-180.2386 530.3006,-183.9743 534.7942,-189.3417"/>
</g>
<!-- Master&#45;&gt;TerraformVariables -->
<g id="edge81" class="edge">
<title>Master&#45;&gt;TerraformVariables</title>
<path fill="none" stroke="#000000" d="M307.9264,-359.9555C316.1168,-322.3144 335.0751,-235.1867 344.8803,-190.1246"/>
<polygon fill="#000000" stroke="#000000" points="348.3455,-190.6606 347.0518,-180.1451 341.5055,-189.1722 348.3455,-190.6606"/>
</g>
<!-- kubeAddonOperator&#45;&gt;Tectonic -->
<g id="edge45" class="edge">
<title>kubeAddonOperator&#45;&gt;Tectonic</title>
<path fill="none" stroke="#000000" d="M706.7178,-362.2883C747.3992,-349.9294 803.6719,-332.8339 843.4998,-320.7342"/>
<polygon fill="#000000" stroke="#000000" points="844.701,-324.0274 853.2518,-317.7716 842.6662,-317.3296 844.701,-324.0274"/>
</g>
<!-- Bootstrap&#45;&gt;Target Ignition Configs -->
<g id="edge47" class="edge">
<title>Bootstrap&#45;&gt;Target Ignition Configs</title>
<path fill="none" stroke="#000000" d="M2207.8562,-231.6249C1962.8251,-221.2593 985.0715,-179.8973 664.4223,-166.3328"/>
<polygon fill="#000000" stroke="#000000" points="664.3499,-162.8267 654.2109,-165.9008 664.054,-169.8204 664.3499,-162.8267"/>
</g>
<!-- Bootstrap&#45;&gt;TerraformVariables -->
<g id="edge80" class="edge">
<title>Bootstrap&#45;&gt;TerraformVariables</title>
<path fill="none" stroke="#000000" d="M2207.5882,-232.7555C1921.5464,-226.3853 638.0943,-197.066 461,-180 451.3209,-179.0673 441.2033,-177.8072 431.1924,-176.3842"/>
<polygon fill="#000000" stroke="#000000" points="431.6414,-172.9126 421.2372,-174.9129 430.618,-179.8374 431.6414,-172.9126"/>
</g>
<!-- AggregatorCA&#45;&gt;Bootstrap -->
<g id="edge52" class="edge">
<title>AggregatorCA&#45;&gt;Bootstrap</title>
<path fill="none" stroke="#000000" d="M3023.5652,-363.1655C2998.7777,-353.8437 2967.9633,-340.4653 2943,-324 2923.5795,-311.1906 2926.231,-297.512 2905,-288 2853.5046,-264.9287 2483.7992,-244.6291 2330.4187,-237.1046"/>
<polygon fill="#000000" stroke="#000000" points="2330.3537,-233.5974 2320.1951,-236.6063 2330.0128,-240.5891 2330.3537,-233.5974"/>
</g>
<!-- APIServerProxyCertKey -->
<g id="node31" class="node">
<title>APIServerProxyCertKey</title>
<ellipse fill="none" stroke="#000000" cx="3076" cy="-306" rx="124.2781" ry="18"/>
<text text-anchor="middle" x="3076" y="-302.3" font-family="Times,serif" font-size="14.00" fill="#000000">APIServerProxyCertKey</text>
</g>
<!-- AggregatorCA&#45;&gt;APIServerProxyCertKey -->
<g id="edge60" class="edge">
<title>AggregatorCA&#45;&gt;APIServerProxyCertKey</title>
<path fill="none" stroke="#000000" d="M3070.0187,-359.8314C3070.8743,-352.131 3071.8917,-342.9743 3072.8426,-334.4166"/>
<polygon fill="#000000" stroke="#000000" points="3076.3283,-334.7386 3073.9541,-324.4133 3069.3711,-333.9656 3076.3283,-334.7386"/>
</g>
<!-- APIServerCertKey&#45;&gt;Bootstrap -->
<g id="edge56" class="edge">
<title>APIServerCertKey&#45;&gt;Bootstrap</title>
<path fill="none" stroke="#000000" d="M1570.9125,-360.4676C1603.6189,-339.3207 1662.3473,-304.5554 1718,-288 1806.2486,-261.748 2072.5651,-244.3512 2197.6954,-237.4055"/>
<polygon fill="#000000" stroke="#000000" points="2198.1138,-240.8879 2207.9067,-236.8446 2197.7298,-233.8984 2198.1138,-240.8879"/>
</g>
<!-- APIServerProxyCertKey&#45;&gt;Bootstrap -->
<g id="edge59" class="edge">
<title>APIServerProxyCertKey&#45;&gt;Bootstrap</title>
<path fill="none" stroke="#000000" d="M2985.8842,-293.5895C2969.9475,-291.5822 2953.4985,-289.6306 2938,-288 2715.3775,-264.5777 2450.4365,-246.0869 2329.7473,-238.177"/>
<polygon fill="#000000" stroke="#000000" points="2329.7736,-234.6713 2319.5668,-237.5124 2329.3176,-241.6564 2329.7736,-234.6713"/>
</g>
<!-- AdminCertKey&#45;&gt;Bootstrap -->
<g id="edge61" class="edge">
<title>AdminCertKey&#45;&gt;Bootstrap</title>
<path fill="none" stroke="#000000" d="M2720.3667,-365.6705C2710.5732,-363.7078 2700.5087,-361.7498 2691,-360 2593.5578,-342.069 2561.0748,-365.2677 2471,-324 2448.3404,-313.6185 2449.7825,-300.1144 2428,-288 2394.2877,-269.2508 2353.0271,-255.7061 2320.326,-246.8712"/>
<polygon fill="#000000" stroke="#000000" points="2321.0313,-243.4378 2310.47,-244.28 2319.2514,-250.2077 2321.0313,-243.4378"/>
</g>
<!-- AdminCertKey&#45;&gt;Admin -->
<g id="edge68" class="edge">
<title>AdminCertKey&#45;&gt;Admin</title>
<path fill="none" stroke="#000000" d="M2797.7865,-360.2022C2807.6197,-350.8866 2819.7823,-339.3641 2830.3616,-329.3416"/>
<polygon fill="#000000" stroke="#000000" points="2832.8767,-331.7802 2837.7292,-322.3618 2828.0625,-326.6985 2832.8767,-331.7802"/>
</g>
<!-- ServiceAccountKeyPair -->
<g id="node33" class="node">
<title>ServiceAccountKeyPair</title>
<ellipse fill="none" stroke="#000000" cx="2600" cy="-306" rx="120.4791" ry="18"/>
<text text-anchor="middle" x="2600" y="-302.3" font-family="Times,serif" font-size="14.00" fill="#000000">ServiceAccountKeyPair</text>
</g>
<!-- ServiceAccountKeyPair&#45;&gt;Bootstrap -->
<g id="edge65" class="edge">
<title>ServiceAccountKeyPair&#45;&gt;Bootstrap</title>
<path fill="none" stroke="#000000" d="M2530.788,-291.1689C2468.8082,-277.8875 2379.0062,-258.6442 2321.0558,-246.2262"/>
<polygon fill="#000000" stroke="#000000" points="2321.4863,-242.7391 2310.9749,-244.0661 2320.0196,-249.5837 2321.4863,-242.7391"/>
</g>
<!-- Admin&#45;&gt;Bootstrap -->
<g id="edge66" class="edge">
<title>Admin&#45;&gt;Bootstrap</title>
<path fill="none" stroke="#000000" d="M2823.3266,-294.3458C2815.768,-291.9252 2807.6672,-289.621 2800,-288 2788.5762,-285.5848 2468.6448,-254.0616 2328.6045,-240.3256"/>
<polygon fill="#000000" stroke="#000000" points="2328.7305,-236.8212 2318.4366,-239.3285 2328.0473,-243.7878 2328.7305,-236.8212"/>
</g>
<!-- Target Cluster -->
<g id="node37" class="node">
<title>Target Cluster</title>
<polygon fill="#d3d3d3" stroke="#000000" points="485,-36 363,-36 363,0 485,0 485,-36"/>
<text text-anchor="middle" x="424" y="-14.3" font-family="Times,serif" font-size="14.00" fill="#000000">Target Cluster</text>
</g>
<!-- Admin&#45;&gt;Target Cluster -->
<g id="edge83" class="edge">
<title>Admin&#45;&gt;Target Cluster</title>
<path fill="none" stroke="#000000" d="M2821.1781,-295.7412C2757.5586,-276.8599 2615.4487,-236.6526 2493,-216 1717.0115,-85.1194 761.6092,-33.5379 495.6394,-21.1302"/>
<polygon fill="#000000" stroke="#000000" points="495.502,-17.6201 485.3508,-20.6537 495.1781,-24.6126 495.502,-17.6201"/>
</g>
<!-- Admin&#45;&gt;Cluster -->
<g id="edge87" class="edge">
<title>Admin&#45;&gt;Cluster</title>
<path fill="none" stroke="#000000" d="M2822.9713,-294.5384C2815.4991,-292.1385 2807.5251,-289.7949 2800,-288 2594.4408,-238.9694 2540.0714,-238.9911 2330,-216 1600.7175,-136.1842 708.5205,-100.2223 479.5852,-91.925"/>
<polygon fill="#000000" stroke="#000000" points="479.6219,-88.4241 469.5024,-91.562 479.37,-95.4196 479.6219,-88.4241"/>
</g>
<!-- Kubelet&#45;&gt;Bootstrap -->
<g id="edge70" class="edge">
<title>Kubelet&#45;&gt;Bootstrap</title>
<path fill="none" stroke="#000000" d="M2321.226,-288.937C2311.6752,-279.7682 2299.7379,-268.3084 2289.2407,-258.2311"/>
<polygon fill="#000000" stroke="#000000" points="2291.5441,-255.5905 2281.9063,-251.19 2286.6963,-260.6402 2291.5441,-255.5905"/>
</g>
<!-- TerraformVariables&#45;&gt;Target Cluster -->
<g id="edge78" class="edge">
<title>TerraformVariables&#45;&gt;Target Cluster</title>
<path fill="none" stroke="#000000" d="M351.8172,-143.7075C353.3376,-124.7432 357.6714,-94.7439 370,-72 375.7664,-61.3621 384.2845,-51.446 392.8594,-43.089"/>
<polygon fill="#000000" stroke="#000000" points="395.3777,-45.5273 400.3418,-36.1673 390.6243,-40.3887 395.3777,-45.5273"/>
</g>
<!-- TerraformVariables&#45;&gt;Cluster -->
<g id="edge86" class="edge">
<title>TerraformVariables&#45;&gt;Cluster</title>
<path fill="none" stroke="#000000" d="M369.0449,-144.2022C378.1965,-135.1761 389.4484,-124.0783 399.3823,-114.2804"/>
<polygon fill="#000000" stroke="#000000" points="402.0034,-116.6113 406.6653,-107.0972 397.0879,-111.6275 402.0034,-116.6113"/>
</g>
<!-- Cluster&#45;&gt;Target Cluster -->
<g id="edge84" class="edge">
<title>Cluster&#45;&gt;Target Cluster</title>
<path fill="none" stroke="#000000" d="M424,-71.8314C424,-64.131 424,-54.9743 424,-46.4166"/>
<polygon fill="#000000" stroke="#000000" points="427.5001,-46.4132 424,-36.4133 420.5001,-46.4133 427.5001,-46.4132"/>
</g>
</g>
</svg>
