<?xml version="1.0" encoding="UTF-8" standalone="no"?>
<!DOCTYPE svg PUBLIC "-//W3C//DTD SVG 1.1//EN"
 "http://www.w3.org/Graphics/SVG/1.1/DTD/svg11.dtd">
<!-- Generated by graphviz version 2.38.0 (20140413.2041)
 -->
<!-- Title: resource Pages: 1 -->
<svg width="1346pt" height="1296pt"
 viewBox="0.00 0.00 1346.07 1296.00" xmlns="http://www.w3.org/2000/svg" xmlns:xlink="http://www.w3.org/1999/xlink">
<g id="graph0" class="graph" transform="scale(0.661785 0.661785) rotate(0) translate(4 1954.34)">
<title>resource</title>
<polygon fill="white" stroke="none" points="-4,4 -4,-1954.34 2030,-1954.34 2030,4 -4,4"/>
<!-- install_cfg -->
<g id="node1" class="node"><title>install_cfg</title>
<polygon fill="white" stroke="yellowgreen" stroke-width="3" points="622,-479.941 418,-479.941 418,-431.941 622,-431.941 622,-479.941"/>
<text text-anchor="middle" x="520" y="-447.141" font-family="Times,serif" font-size="36.00">install config</text>
</g>
<!-- manifests -->
<g id="node2" class="node"><title>manifests</title>
<polygon fill="white" stroke="yellowgreen" stroke-width="3" points="1430,-1108.94 1276,-1108.94 1276,-1060.94 1430,-1060.94 1430,-1108.94"/>
<text text-anchor="middle" x="1353" y="-1076.14" font-family="Times,serif" font-size="36.00">manifests</text>
</g>
<!-- ignition_configs -->
<g id="node3" class="node"><title>ignition_configs</title>
<polygon fill="white" stroke="yellowgreen" stroke-width="3" points="1708,-1489.94 1466,-1489.94 1466,-1441.94 1708,-1441.94 1708,-1489.94"/>
<text text-anchor="middle" x="1587" y="-1457.14" font-family="Times,serif" font-size="36.00">ignition configs</text>
</g>
<!-- cluster_target -->
<g id="node4" class="node"><title>cluster_target</title>
<polygon fill="white" stroke="yellowgreen" stroke-width="3" points="2026,-204.941 1914,-204.941 1914,-156.941 2026,-156.941 2026,-204.941"/>
<text text-anchor="middle" x="1970" y="-172.141" font-family="Times,serif" font-size="36.00">cluster</text>
</g>
<!-- base_domain -->
<g id="node5" class="node"><title>base_domain</title>
<polygon fill="gainsboro" stroke="gainsboro" points="123,-398.941 7,-398.941 7,-362.941 123,-362.941 123,-398.941"/>
<text text-anchor="middle" x="65" y="-375.941" font-family="Times,serif" font-size="20.00">base domain</text>
</g>
<!-- install_config -->
<g id="node12" class="node"><title>install_config</title>
<polygon fill="lightcoral" stroke="lightcoral" points="333,-482.941 167,-482.941 167,-446.941 333,-446.941 333,-482.941"/>
<text text-anchor="middle" x="250" y="-459.941" font-family="Times,serif" font-size="20.00">install&#45;config.yaml</text>
</g>
<!-- base_domain&#45;&gt;install_config -->
<g id="edge7" class="edge"><title>base_domain&#45;&gt;install_config</title>
<path fill="none" stroke="black" d="M105.258,-398.962C133.025,-411.707 170.444,-428.883 200.142,-442.515"/>
<polygon fill="black" stroke="black" points="198.943,-445.816 209.492,-446.806 201.863,-439.454 198.943,-445.816"/>
</g>
<!-- cluster_name -->
<g id="node6" class="node"><title>cluster_name</title>
<polygon fill="gainsboro" stroke="gainsboro" points="124,-314.941 6,-314.941 6,-278.941 124,-278.941 124,-314.941"/>
<text text-anchor="middle" x="65" y="-291.941" font-family="Times,serif" font-size="20.00">cluster name</text>
</g>
<!-- cluster_name&#45;&gt;install_config -->
<g id="edge6" class="edge"><title>cluster_name&#45;&gt;install_config</title>
<path fill="none" stroke="black" d="M86.7596,-315.016C99.4698,-326.15 116.02,-340.767 130.5,-353.941 162.484,-383.042 198.685,-417.123 222.566,-439.767"/>
<polygon fill="black" stroke="black" points="220.203,-442.35 229.866,-446.696 225.023,-437.273 220.203,-442.35"/>
</g>
<!-- pull_secret -->
<g id="node7" class="node"><title>pull_secret</title>
<polygon fill="gainsboro" stroke="gainsboro" points="114,-230.941 16,-230.941 16,-194.941 114,-194.941 114,-230.941"/>
<text text-anchor="middle" x="65" y="-207.941" font-family="Times,serif" font-size="20.00">pull secret</text>
</g>
<!-- pull_secret&#45;&gt;install_config -->
<g id="edge5" class="edge"><title>pull_secret&#45;&gt;install_config</title>
<path fill="none" stroke="black" d="M89.9689,-231.187C102.857,-241.687 118.515,-255.613 130.5,-269.941 176.072,-324.427 215.939,-398.25 235.736,-437.593"/>
<polygon fill="black" stroke="black" points="232.739,-439.427 240.328,-446.82 239.006,-436.308 232.739,-439.427"/>
</g>
<!-- platform -->
<g id="node8" class="node"><title>platform</title>
<polygon fill="gainsboro" stroke="gainsboro" points="107.5,-734.941 22.5,-734.941 22.5,-698.941 107.5,-698.941 107.5,-734.941"/>
<text text-anchor="middle" x="65" y="-711.941" font-family="Times,serif" font-size="20.00">platform</text>
</g>
<!-- platform&#45;&gt;install_config -->
<g id="edge3" class="edge"><title>platform&#45;&gt;install_config</title>
<path fill="none" stroke="black" d="M92.9602,-698.937C106.062,-688.897 120.992,-675.322 130.5,-659.941 163.635,-606.344 131.017,-574.67 167,-522.941 176.475,-509.32 190.236,-497.812 203.787,-488.727"/>
<polygon fill="black" stroke="black" points="206.057,-491.431 212.615,-483.109 202.299,-485.525 206.057,-491.431"/>
</g>
<!-- email_address -->
<g id="node9" class="node"><title>email_address</title>
<polygon fill="gainsboro" stroke="gainsboro" points="127.5,-650.941 2.5,-650.941 2.5,-614.941 127.5,-614.941 127.5,-650.941"/>
<text text-anchor="middle" x="65" y="-627.941" font-family="Times,serif" font-size="20.00">email address</text>
</g>
<!-- email_address&#45;&gt;install_config -->
<g id="edge4" class="edge"><title>email_address&#45;&gt;install_config</title>
<path fill="none" stroke="black" d="M89.04,-614.928C101.941,-604.285 117.914,-590.146 130.5,-575.941 149.468,-554.535 146.903,-543.292 167,-522.941 179.582,-510.201 195.264,-498.349 209.534,-488.723"/>
<polygon fill="black" stroke="black" points="211.763,-491.447 218.197,-483.029 207.918,-485.597 211.763,-491.447"/>
</g>
<!-- password -->
<g id="node10" class="node"><title>password</title>
<polygon fill="gainsboro" stroke="gainsboro" points="110.5,-566.941 19.5,-566.941 19.5,-530.941 110.5,-530.941 110.5,-566.941"/>
<text text-anchor="middle" x="65" y="-543.941" font-family="Times,serif" font-size="20.00">password</text>
</g>
<!-- password&#45;&gt;install_config -->
<g id="edge1" class="edge"><title>password&#45;&gt;install_config</title>
<path fill="none" stroke="black" d="M105.258,-530.921C133.025,-518.176 170.444,-501 200.142,-487.368"/>
<polygon fill="black" stroke="black" points="201.863,-490.429 209.492,-483.076 198.943,-484.067 201.863,-490.429"/>
</g>
<!-- sshkey -->
<g id="node11" class="node"><title>sshkey</title>
<polygon fill="gainsboro" stroke="gainsboro" points="108.5,-482.941 21.5,-482.941 21.5,-446.941 108.5,-446.941 108.5,-482.941"/>
<text text-anchor="middle" x="65" y="-459.941" font-family="Times,serif" font-size="20.00">SSH key</text>
</g>
<!-- sshkey&#45;&gt;install_config -->
<g id="edge2" class="edge"><title>sshkey&#45;&gt;install_config</title>
<path fill="none" stroke="black" d="M108.905,-464.941C123.253,-464.941 139.846,-464.941 156.484,-464.941"/>
<polygon fill="black" stroke="black" points="156.83,-468.442 166.83,-464.941 156.83,-461.442 156.83,-468.442"/>
</g>
<!-- install_config&#45;&gt;install_cfg -->
<g id="edge61" class="edge"><title>install_config&#45;&gt;install_cfg</title>
<path fill="none" stroke="black" d="M333.23,-462.18C356.626,-461.394 382.509,-460.525 407.34,-459.691"/>
<polygon fill="black" stroke="black" points="407.657,-463.183 417.534,-459.349 407.422,-456.187 407.657,-463.183"/>
</g>
<!-- apiserver_bundle -->
<g id="node15" class="node"><title>apiserver_bundle</title>
<polygon fill="violet" stroke="violet" points="594.5,-1104.94 445.5,-1104.94 445.5,-1068.94 594.5,-1068.94 594.5,-1104.94"/>
<text text-anchor="middle" x="520" y="-1081.94" font-family="Times,serif" font-size="20.00">apiserver crt/key</text>
</g>
<!-- install_config&#45;&gt;apiserver_bundle -->
<g id="edge25" class="edge"><title>install_config&#45;&gt;apiserver_bundle</title>
<path fill="none" stroke="black" d="M252.477,-483.141C259.881,-570.25 295.55,-943.927 369,-1029.94 386.089,-1049.95 410.989,-1062.96 435.61,-1071.4"/>
<polygon fill="black" stroke="black" points="434.79,-1074.81 445.381,-1074.53 436.924,-1068.15 434.79,-1074.81"/>
</g>
<!-- ingress_bundle -->
<g id="node20" class="node"><title>ingress_bundle</title>
<polygon fill="violet" stroke="violet" points="586,-625.941 454,-625.941 454,-589.941 586,-589.941 586,-625.941"/>
<text text-anchor="middle" x="520" y="-602.941" font-family="Times,serif" font-size="20.00">ingress crt/key</text>
</g>
<!-- install_config&#45;&gt;ingress_bundle -->
<g id="edge29" class="edge"><title>install_config&#45;&gt;ingress_bundle</title>
<path fill="none" stroke="black" d="M284.942,-483.052C333.541,-508.984 422.935,-556.683 476.068,-585.034"/>
<polygon fill="black" stroke="black" points="474.441,-588.132 484.911,-589.752 477.736,-581.957 474.441,-588.132"/>
</g>
<!-- openshift_apiserver_bundle -->
<g id="node23" class="node"><title>openshift_apiserver_bundle</title>
<polygon fill="violet" stroke="violet" points="1086.5,-507.941 859.5,-507.941 859.5,-471.941 1086.5,-471.941 1086.5,-507.941"/>
<text text-anchor="middle" x="973" y="-484.941" font-family="Times,serif" font-size="20.00">openshift apiserver crt/key</text>
</g>
<!-- install_config&#45;&gt;openshift_apiserver_bundle -->
<g id="edge31" class="edge"><title>install_config&#45;&gt;openshift_apiserver_bundle</title>
<path fill="none" stroke="black" d="M291.032,-446.836C313.454,-437.688 342.215,-427.566 369,-422.941 501.265,-400.104 537.582,-408.272 671,-422.941 750.394,-431.671 839.481,-452.982 899.997,-469.244"/>
<polygon fill="black" stroke="black" points="899.264,-472.672 909.832,-471.91 901.096,-465.916 899.264,-472.672"/>
</g>
<!-- mcc_bundle -->
<g id="node27" class="node"><title>mcc_bundle</title>
<polygon fill="violet" stroke="violet" points="660.5,-709.941 379.5,-709.941 379.5,-673.941 660.5,-673.941 660.5,-709.941"/>
<text text-anchor="middle" x="520" y="-686.941" font-family="Times,serif" font-size="20.00">machine config controller crt/key</text>
</g>
<!-- install_config&#45;&gt;mcc_bundle -->
<g id="edge14" class="edge"><title>install_config&#45;&gt;mcc_bundle</title>
<path fill="none" stroke="black" d="M258.997,-483.001C275.046,-517.297 314.376,-592.232 369,-634.941 388.675,-650.325 412.965,-661.924 436.224,-670.503"/>
<polygon fill="black" stroke="black" points="435.17,-673.842 445.765,-673.879 437.505,-667.243 435.17,-673.842"/>
</g>
<!-- operator_manifests -->
<g id="node28" class="node"><title>operator_manifests</title>
<polygon fill="lightpink" stroke="lightpink" points="671,-1020.94 369,-1020.94 369,-984.941 671,-984.941 671,-1020.94"/>
<text text-anchor="middle" x="520" y="-997.941" font-family="Times,serif" font-size="20.00">operator manifests and their configs</text>
</g>
<!-- install_config&#45;&gt;operator_manifests -->
<g id="edge8" class="edge"><title>install_config&#45;&gt;operator_manifests</title>
<path fill="none" stroke="black" d="M253.178,-483.013C262.992,-561.742 305.417,-874.045 369,-945.941 382.719,-961.454 401.118,-972.764 420.323,-981.004"/>
<polygon fill="black" stroke="black" points="419.215,-984.33 429.799,-984.807 421.822,-977.834 419.215,-984.33"/>
</g>
<!-- kubeconfig_admin -->
<g id="node34" class="node"><title>kubeconfig_admin</title>
<polygon fill="lightblue" stroke="lightblue" points="1053.5,-162.941 892.5,-162.941 892.5,-126.941 1053.5,-126.941 1053.5,-162.941"/>
<text text-anchor="middle" x="973" y="-139.941" font-family="Times,serif" font-size="20.00">kubeconfig&#45;admin</text>
</g>
<!-- install_config&#45;&gt;kubeconfig_admin -->
<g id="edge37" class="edge"><title>install_config&#45;&gt;kubeconfig_admin</title>
<path fill="none" stroke="black" d="M276.277,-446.61C343.072,-399.038 531.187,-270.642 706.5,-202.941 763.147,-181.066 829.943,-166.526 882.365,-157.476"/>
<polygon fill="black" stroke="black" points="883.039,-160.911 892.315,-155.793 881.872,-154.009 883.039,-160.911"/>
</g>
<!-- kubeconfig_kubelet -->
<g id="node35" class="node"><title>kubeconfig_kubelet</title>
<polygon fill="lightblue" stroke="lightblue" points="1058,-1483.94 888,-1483.94 888,-1447.94 1058,-1447.94 1058,-1483.94"/>
<text text-anchor="middle" x="973" y="-1460.94" font-family="Times,serif" font-size="20.00">kubeconfig&#45;kubelet</text>
</g>
<!-- install_config&#45;&gt;kubeconfig_kubelet -->
<g id="edge38" class="edge"><title>install_config&#45;&gt;kubeconfig_kubelet</title>
<path fill="none" stroke="black" d="M252.447,-483.204C260.154,-576.986 298.68,-1004.28 369,-1113.94 491.808,-1305.45 758.64,-1405.35 892.318,-1445.03"/>
<polygon fill="black" stroke="black" points="891.519,-1448.44 902.1,-1447.9 893.488,-1441.73 891.519,-1448.44"/>
</g>
<!-- terraform_tfvars -->
<g id="node36" class="node"><title>terraform_tfvars</title>
<polygon fill="gold" stroke="gold" points="1658.5,-650.941 1515.5,-650.941 1515.5,-614.941 1658.5,-614.941 1658.5,-650.941"/>
<text text-anchor="middle" x="1587" y="-627.941" font-family="Times,serif" font-size="20.00">terraform.tfvars</text>
</g>
<!-- install_config&#45;&gt;terraform_tfvars -->
<g id="edge58" class="edge"><title>install_config&#45;&gt;terraform_tfvars</title>
<path fill="none" stroke="black" d="M254.294,-446.802C263.584,-400.947 294.338,-279.524 369,-215.941 665.413,36.4852 895.846,65.0394 1239.5,-117.941 1443.52,-226.571 1548.9,-514.682 1577.71,-605.272"/>
<polygon fill="black" stroke="black" points="1574.38,-606.344 1580.71,-614.844 1581.06,-604.255 1574.38,-606.344"/>
</g>
<!-- admin_bundle -->
<g id="node13" class="node"><title>admin_bundle</title>
<polygon fill="violet" stroke="violet" points="583,-936.941 457,-936.941 457,-900.941 583,-900.941 583,-936.941"/>
<text text-anchor="middle" x="520" y="-913.941" font-family="Times,serif" font-size="20.00">admin crt/key</text>
</g>
<!-- admin_bundle&#45;&gt;manifests -->
<g id="edge62" class="edge"><title>admin_bundle&#45;&gt;manifests</title>
<path fill="none" stroke="black" d="M580.926,-937.02C609.161,-946.7 642.762,-959.942 671,-975.941 688.484,-985.847 687.963,-996.184 706.5,-1003.94 894.549,-1082.64 1138.29,-1090.63 1265.73,-1088.5"/>
<polygon fill="black" stroke="black" points="1265.89,-1091.99 1275.82,-1088.3 1265.76,-1085 1265.89,-1091.99"/>
</g>
<!-- admin_bundle&#45;&gt;kubeconfig_admin -->
<g id="edge35" class="edge"><title>admin_bundle&#45;&gt;kubeconfig_admin</title>
<path fill="none" stroke="black" d="M583.137,-911.263C614.632,-903.962 650.467,-889.721 671,-861.941 742.746,-764.877 645.823,-424.284 706.5,-319.941 751.639,-242.319 846.595,-192.689 909.843,-166.815"/>
<polygon fill="black" stroke="black" points="911.341,-169.986 919.322,-163.018 908.738,-163.488 911.341,-169.986"/>
</g>
<!-- aggregator_ca_bundle -->
<g id="node14" class="node"><title>aggregator_ca_bundle</title>
<polygon fill="violet" stroke="violet" points="612.5,-852.941 427.5,-852.941 427.5,-816.941 612.5,-816.941 612.5,-852.941"/>
<text text-anchor="middle" x="520" y="-829.941" font-family="Times,serif" font-size="20.00">aggregator ca crt/key</text>
</g>
<!-- aggregator_ca_bundle&#45;&gt;manifests -->
<g id="edge63" class="edge"><title>aggregator_ca_bundle&#45;&gt;manifests</title>
<path fill="none" stroke="black" d="M595.243,-852.959C621.077,-861.746 649.054,-874.333 671,-891.941 693.402,-909.916 681.996,-930.958 706.5,-945.941 909.794,-1070.25 1017.01,-918.616 1239.5,-1003.94 1268.99,-1015.25 1297.81,-1036.25 1318.9,-1054.04"/>
<polygon fill="black" stroke="black" points="1316.73,-1056.79 1326.58,-1060.67 1321.3,-1051.48 1316.73,-1056.79"/>
</g>
<!-- apiserver_proxy_bundle -->
<g id="node16" class="node"><title>apiserver_proxy_bundle</title>
<polygon fill="violet" stroke="violet" points="1073,-936.941 873,-936.941 873,-900.941 1073,-900.941 1073,-936.941"/>
<text text-anchor="middle" x="973" y="-913.941" font-family="Times,serif" font-size="20.00">apiserver proxy crt/key</text>
</g>
<!-- aggregator_ca_bundle&#45;&gt;apiserver_proxy_bundle -->
<g id="edge32" class="edge"><title>aggregator_ca_bundle&#45;&gt;apiserver_proxy_bundle</title>
<path fill="none" stroke="black" d="M612.538,-851.991C685.598,-865.598 788.087,-884.687 864.944,-899.002"/>
<polygon fill="black" stroke="black" points="864.665,-902.51 875.136,-900.9 865.946,-895.628 864.665,-902.51"/>
</g>
<!-- clusterapi_apiserver_bundle -->
<g id="node17" class="node"><title>clusterapi_apiserver_bundle</title>
<polygon fill="violet" stroke="violet" points="1088.5,-852.941 857.5,-852.941 857.5,-816.941 1088.5,-816.941 1088.5,-852.941"/>
<text text-anchor="middle" x="973" y="-829.941" font-family="Times,serif" font-size="20.00">clusterapi apiserver crt/key</text>
</g>
<!-- aggregator_ca_bundle&#45;&gt;clusterapi_apiserver_bundle -->
<g id="edge33" class="edge"><title>aggregator_ca_bundle&#45;&gt;clusterapi_apiserver_bundle</title>
<path fill="none" stroke="black" d="M612.538,-834.941C680.039,-834.941 772.661,-834.941 846.98,-834.941"/>
<polygon fill="black" stroke="black" points="847.34,-838.442 857.34,-834.941 847.34,-831.442 847.34,-838.442"/>
</g>
<!-- aggregator_ca_bundle&#45;&gt;openshift_apiserver_bundle -->
<g id="edge30" class="edge"><title>aggregator_ca_bundle&#45;&gt;openshift_apiserver_bundle</title>
<path fill="none" stroke="black" d="M611.669,-816.924C634.073,-808.328 655.942,-795.645 671,-776.941 735.587,-696.715 635.938,-622.966 706.5,-547.941 742.789,-509.358 798.309,-493.461 849.215,-487.772"/>
<polygon fill="black" stroke="black" points="849.723,-491.239 859.328,-486.767 849.03,-484.274 849.723,-491.239"/>
</g>
<!-- bootstrap_ignition -->
<g id="node31" class="node"><title>bootstrap_ignition</title>
<polygon fill="sandybrown" stroke="sandybrown" points="1412.5,-650.941 1293.5,-650.941 1293.5,-614.941 1412.5,-614.941 1412.5,-650.941"/>
<text text-anchor="middle" x="1353" y="-627.941" font-family="Times,serif" font-size="20.00">bootstrap.ign</text>
</g>
<!-- aggregator_ca_bundle&#45;&gt;bootstrap_ignition -->
<g id="edge34" class="edge"><title>aggregator_ca_bundle&#45;&gt;bootstrap_ignition</title>
<path fill="none" stroke="black" d="M612.574,-817.179C634.842,-808.586 656.416,-795.841 671,-776.941 713.899,-721.346 654.13,-509.724 706.5,-462.941 794.832,-384.033 1135.17,-406.875 1239.5,-462.941 1295.71,-493.147 1328.55,-565.134 1343.05,-605.065"/>
<polygon fill="black" stroke="black" points="1339.82,-606.431 1346.43,-614.715 1346.43,-604.12 1339.82,-606.431"/>
</g>
<!-- apiserver_bundle&#45;&gt;manifests -->
<g id="edge64" class="edge"><title>apiserver_bundle&#45;&gt;manifests</title>
<path fill="none" stroke="black" d="M594.698,-1103.84C620.916,-1112.56 649.289,-1125.39 671,-1143.94 695.143,-1164.57 679.03,-1190.02 706.5,-1205.94 911.439,-1324.75 1022.33,-1300.56 1239.5,-1205.94 1280.49,-1188.08 1313.27,-1147.11 1332.64,-1117.8"/>
<polygon fill="black" stroke="black" points="1335.76,-1119.42 1338.22,-1109.11 1329.87,-1115.63 1335.76,-1119.42"/>
</g>
<!-- bootstrap_control_plane -->
<g id="node29" class="node"><title>bootstrap_control_plane</title>
<polygon fill="lightpink" stroke="lightpink" points="1112.5,-1340.94 833.5,-1340.94 833.5,-1304.94 1112.5,-1304.94 1112.5,-1340.94"/>
<text text-anchor="middle" x="973" y="-1317.94" font-family="Times,serif" font-size="20.00">bootstrap control plane manifests</text>
</g>
<!-- apiserver_bundle&#45;&gt;bootstrap_control_plane -->
<g id="edge39" class="edge"><title>apiserver_bundle&#45;&gt;bootstrap_control_plane</title>
<path fill="none" stroke="black" d="M594.878,-1100.51C622.058,-1108.89 651.041,-1122.37 671,-1143.94 709.059,-1185.08 665.502,-1226.73 706.5,-1264.94 738.199,-1294.49 781.328,-1310.3 823.604,-1318.43"/>
<polygon fill="black" stroke="black" points="823.002,-1321.87 833.462,-1320.19 824.234,-1314.98 823.002,-1321.87"/>
</g>
<!-- apiserver_proxy_bundle&#45;&gt;manifests -->
<g id="edge65" class="edge"><title>apiserver_proxy_bundle&#45;&gt;manifests</title>
<path fill="none" stroke="black" d="M1073.11,-926.99C1125.06,-934.398 1188.35,-948.624 1239.5,-975.941 1274.63,-994.703 1306.38,-1027.67 1327.13,-1052.45"/>
<polygon fill="black" stroke="black" points="1324.68,-1054.99 1333.73,-1060.51 1330.1,-1050.55 1324.68,-1054.99"/>
</g>
<!-- apiserver_proxy_bundle&#45;&gt;bootstrap_ignition -->
<g id="edge40" class="edge"><title>apiserver_proxy_bundle&#45;&gt;bootstrap_ignition</title>
<path fill="none" stroke="black" d="M1073.32,-918.082C1127.37,-912.93 1192.58,-898.566 1239.5,-861.941 1305.53,-810.393 1335.4,-710.027 1346.5,-661.107"/>
<polygon fill="black" stroke="black" points="1349.95,-661.723 1348.64,-651.209 1343.1,-660.24 1349.95,-661.723"/>
</g>
<!-- clusterapi_apiserver_bundle&#45;&gt;manifests -->
<g id="edge66" class="edge"><title>clusterapi_apiserver_bundle&#45;&gt;manifests</title>
<path fill="none" stroke="black" d="M1088.61,-839.026C1138.83,-845.709 1196.08,-860.467 1239.5,-891.941 1294.41,-931.75 1326.8,-1007.23 1341.81,-1051.08"/>
<polygon fill="black" stroke="black" points="1338.54,-1052.32 1345.01,-1060.71 1345.18,-1050.12 1338.54,-1052.32"/>
</g>
<!-- clusterapi_apiserver_bundle&#45;&gt;bootstrap_ignition -->
<g id="edge41" class="edge"><title>clusterapi_apiserver_bundle&#45;&gt;bootstrap_ignition</title>
<path fill="none" stroke="black" d="M1007.88,-816.838C1076.83,-779.988 1233.38,-696.332 1309.22,-655.8"/>
<polygon fill="black" stroke="black" points="1310.89,-658.877 1318.06,-651.077 1307.59,-652.704 1310.89,-658.877"/>
</g>
<!-- etcd_ca_bundle -->
<g id="node18" class="node"><title>etcd_ca_bundle</title>
<polygon fill="violet" stroke="violet" points="316.5,-1626.94 183.5,-1626.94 183.5,-1590.94 316.5,-1590.94 316.5,-1626.94"/>
<text text-anchor="middle" x="250" y="-1603.94" font-family="Times,serif" font-size="20.00">etcd ca crt/key</text>
</g>
<!-- etcd_ca_bundle&#45;&gt;manifests -->
<g id="edge67" class="edge"><title>etcd_ca_bundle&#45;&gt;manifests</title>
<path fill="none" stroke="black" d="M316.703,-1626.72C333.615,-1630.54 351.876,-1634.01 369,-1635.94 561.336,-1657.67 1092.14,-1731.44 1239.5,-1605.94 1240.09,-1605.44 1319.78,-1234.85 1344.66,-1119.08"/>
<polygon fill="black" stroke="black" points="1348.15,-1119.51 1346.83,-1109 1341.31,-1118.04 1348.15,-1119.51"/>
</g>
<!-- etcd_client_bundle -->
<g id="node19" class="node"><title>etcd_client_bundle</title>
<polygon fill="violet" stroke="violet" points="599,-1626.94 441,-1626.94 441,-1590.94 599,-1590.94 599,-1626.94"/>
<text text-anchor="middle" x="520" y="-1603.94" font-family="Times,serif" font-size="20.00">etcd client crt/key</text>
</g>
<!-- etcd_ca_bundle&#45;&gt;etcd_client_bundle -->
<g id="edge20" class="edge"><title>etcd_ca_bundle&#45;&gt;etcd_client_bundle</title>
<path fill="none" stroke="black" d="M316.56,-1608.94C350.838,-1608.94 393.284,-1608.94 430.442,-1608.94"/>
<polygon fill="black" stroke="black" points="430.771,-1612.44 440.771,-1608.94 430.771,-1605.44 430.771,-1612.44"/>
</g>
<!-- etcd_ca_bundle&#45;&gt;bootstrap_control_plane -->
<g id="edge22" class="edge"><title>etcd_ca_bundle&#45;&gt;bootstrap_control_plane</title>
<path fill="none" stroke="black" d="M265.424,-1590.8C285.907,-1566.23 325.765,-1522.62 369,-1497.94 518.324,-1412.71 712.549,-1366.07 839.661,-1342.83"/>
<polygon fill="black" stroke="black" points="840.619,-1346.21 849.838,-1340.99 839.375,-1339.32 840.619,-1346.21"/>
</g>
<!-- master_ignition -->
<g id="node32" class="node"><title>master_ignition</title>
<polygon fill="sandybrown" stroke="sandybrown" points="1403,-1483.94 1303,-1483.94 1303,-1447.94 1403,-1447.94 1403,-1483.94"/>
<text text-anchor="middle" x="1353" y="-1460.94" font-family="Times,serif" font-size="20.00">master.ign</text>
</g>
<!-- etcd_ca_bundle&#45;&gt;master_ignition -->
<g id="edge21" class="edge"><title>etcd_ca_bundle&#45;&gt;master_ignition</title>
<path fill="none" stroke="black" d="M268.552,-1627.18C289.975,-1647.99 328.393,-1680.84 369,-1693.94 737.196,-1812.75 938.727,-1937.29 1239.5,-1693.94 1299.91,-1645.06 1234.14,-1588.42 1276,-1522.94 1284.37,-1509.84 1296.88,-1498.66 1309.35,-1489.77"/>
<polygon fill="black" stroke="black" points="1311.59,-1492.47 1317.92,-1483.97 1307.67,-1486.67 1311.59,-1492.47"/>
</g>
<!-- etcd_client_bundle&#45;&gt;manifests -->
<g id="edge68" class="edge"><title>etcd_client_bundle&#45;&gt;manifests</title>
<path fill="none" stroke="black" d="M599.163,-1626.81C744.402,-1655.03 1057.62,-1691.75 1239.5,-1533.94 1255.58,-1519.99 1322.16,-1221.31 1344.59,-1118.98"/>
<polygon fill="black" stroke="black" points="1348.02,-1119.67 1346.74,-1109.15 1341.18,-1118.17 1348.02,-1119.67"/>
</g>
<!-- etcd_client_bundle&#45;&gt;bootstrap_control_plane -->
<g id="edge42" class="edge"><title>etcd_client_bundle&#45;&gt;bootstrap_control_plane</title>
<path fill="none" stroke="black" d="M599.314,-1593.69C625.09,-1585.21 651.984,-1572.11 671,-1551.94 707.114,-1513.64 671.33,-1478.11 706.5,-1438.94 750.578,-1389.85 819.184,-1360.61 875.613,-1343.77"/>
<polygon fill="black" stroke="black" points="876.647,-1347.12 885.278,-1340.97 874.699,-1340.39 876.647,-1347.12"/>
</g>
<!-- ingress_bundle&#45;&gt;manifests -->
<g id="edge69" class="edge"><title>ingress_bundle&#45;&gt;manifests</title>
<path fill="none" stroke="black" d="M576.031,-625.945C612.642,-637.28 662.003,-651.345 706.5,-659.941 823.48,-682.542 1147.68,-642.022 1239.5,-717.941 1341.57,-802.33 1352.96,-976.857 1352.95,-1050.72"/>
<polygon fill="black" stroke="black" points="1349.45,-1050.84 1352.88,-1060.87 1356.45,-1050.9 1349.45,-1050.84"/>
</g>
<!-- ingress_bundle&#45;&gt;bootstrap_ignition -->
<g id="edge43" class="edge"><title>ingress_bundle&#45;&gt;bootstrap_ignition</title>
<path fill="none" stroke="black" d="M586.323,-598.855C616.695,-591.181 650.545,-577.03 671,-550.941 750.847,-449.102 609.576,-347.688 706.5,-261.941 795.212,-183.46 1144.37,-191.379 1239.5,-261.941 1296.03,-303.875 1335.29,-524.948 1347.76,-604.44"/>
<polygon fill="black" stroke="black" points="1344.35,-605.334 1349.34,-614.683 1351.27,-604.267 1344.35,-605.334"/>
</g>
<!-- kube_ca_bundle -->
<g id="node21" class="node"><title>kube_ca_bundle</title>
<polygon fill="violet" stroke="violet" points="319,-1222.94 181,-1222.94 181,-1186.94 319,-1186.94 319,-1222.94"/>
<text text-anchor="middle" x="250" y="-1199.94" font-family="Times,serif" font-size="20.00">kube ca crt/key</text>
</g>
<!-- kube_ca_bundle&#45;&gt;manifests -->
<g id="edge70" class="edge"><title>kube_ca_bundle&#45;&gt;manifests</title>
<path fill="none" stroke="black" d="M281.685,-1223.18C410.841,-1297.35 918.398,-1562.46 1239.5,-1349.94 1318.17,-1297.87 1341.99,-1178.52 1349.08,-1119.41"/>
<polygon fill="black" stroke="black" points="1352.59,-1119.43 1350.21,-1109.11 1345.64,-1118.66 1352.59,-1119.43"/>
</g>
<!-- kube_ca_bundle&#45;&gt;admin_bundle -->
<g id="edge23" class="edge"><title>kube_ca_bundle&#45;&gt;admin_bundle</title>
<path fill="none" stroke="black" d="M255.542,-1186.71C267.106,-1143.91 301.622,-1036.13 369,-975.941 390.928,-956.355 420.269,-943.23 447.185,-934.568"/>
<polygon fill="black" stroke="black" points="448.434,-937.846 456.974,-931.575 446.387,-931.152 448.434,-937.846"/>
</g>
<!-- kube_ca_bundle&#45;&gt;apiserver_bundle -->
<g id="edge24" class="edge"><title>kube_ca_bundle&#45;&gt;apiserver_bundle</title>
<path fill="none" stroke="black" d="M291.995,-1186.89C339.481,-1165.98 417.713,-1131.54 468.8,-1109.04"/>
<polygon fill="black" stroke="black" points="470.268,-1112.22 478.009,-1104.99 467.447,-1105.82 470.268,-1112.22"/>
</g>
<!-- kube_ca_bundle&#45;&gt;ingress_bundle -->
<g id="edge27" class="edge"><title>kube_ca_bundle&#45;&gt;ingress_bundle</title>
<path fill="none" stroke="black" d="M252.671,-1186.7C260.777,-1101.88 298.516,-746.714 369,-664.941 388.115,-642.765 416.815,-629.19 444.009,-620.892"/>
<polygon fill="black" stroke="black" points="445.278,-624.17 453.939,-618.068 443.363,-617.437 445.278,-624.17"/>
</g>
<!-- kubelet_bundle -->
<g id="node22" class="node"><title>kubelet_bundle</title>
<polygon fill="violet" stroke="violet" points="587,-1542.94 453,-1542.94 453,-1506.94 587,-1506.94 587,-1542.94"/>
<text text-anchor="middle" x="520" y="-1519.94" font-family="Times,serif" font-size="20.00">kubelet crt/key</text>
</g>
<!-- kube_ca_bundle&#45;&gt;kubelet_bundle -->
<g id="edge26" class="edge"><title>kube_ca_bundle&#45;&gt;kubelet_bundle</title>
<path fill="none" stroke="black" d="M258.625,-1222.96C274.996,-1260.28 316.335,-1347.59 369,-1407.94 401.848,-1445.59 448.254,-1479.6 480.724,-1501.12"/>
<polygon fill="black" stroke="black" points="479.205,-1504.31 489.489,-1506.85 483.036,-1498.45 479.205,-1504.31"/>
</g>
<!-- kube_ca_bundle&#45;&gt;bootstrap_control_plane -->
<g id="edge28" class="edge"><title>kube_ca_bundle&#45;&gt;bootstrap_control_plane</title>
<path fill="none" stroke="black" d="M319.223,-1212.82C402.49,-1222.75 547.473,-1241.07 671,-1261.94 741.572,-1273.87 820.894,-1290.06 880.385,-1302.76"/>
<polygon fill="black" stroke="black" points="879.994,-1306.26 890.506,-1304.93 881.461,-1299.41 879.994,-1306.26"/>
</g>
<!-- kubelet_bundle&#45;&gt;manifests -->
<g id="edge71" class="edge"><title>kubelet_bundle&#45;&gt;manifests</title>
<path fill="none" stroke="black" d="M587.018,-1531.48C745.222,-1545.68 1140.22,-1572.1 1239.5,-1492.94 1298.85,-1445.62 1335.68,-1208.95 1347.68,-1119.37"/>
<polygon fill="black" stroke="black" points="1351.18,-1119.57 1349.02,-1109.2 1344.24,-1118.65 1351.18,-1119.57"/>
</g>
<!-- kubelet_bundle&#45;&gt;kubeconfig_kubelet -->
<g id="edge36" class="edge"><title>kubelet_bundle&#45;&gt;kubeconfig_kubelet</title>
<path fill="none" stroke="black" d="M587.062,-1516.3C663.668,-1506.28 790.535,-1489.68 877.543,-1478.3"/>
<polygon fill="black" stroke="black" points="878.223,-1481.74 887.684,-1476.97 877.315,-1474.8 878.223,-1481.74"/>
</g>
<!-- openshift_apiserver_bundle&#45;&gt;manifests -->
<g id="edge72" class="edge"><title>openshift_apiserver_bundle&#45;&gt;manifests</title>
<path fill="none" stroke="black" d="M1065.77,-507.959C1123.77,-524.044 1195.78,-553.486 1239.5,-605.941 1296.95,-674.875 1335.87,-953.279 1347.99,-1050.91"/>
<polygon fill="black" stroke="black" points="1344.51,-1051.34 1349.2,-1060.84 1351.46,-1050.49 1344.51,-1051.34"/>
</g>
<!-- openshift_apiserver_bundle&#45;&gt;bootstrap_ignition -->
<g id="edge44" class="edge"><title>openshift_apiserver_bundle&#45;&gt;bootstrap_ignition</title>
<path fill="none" stroke="black" d="M1086.59,-503.508C1135.18,-512.124 1191.71,-525.961 1239.5,-547.941 1272.18,-562.972 1304.41,-588.756 1325.94,-607.994"/>
<polygon fill="black" stroke="black" points="1323.62,-610.612 1333.37,-614.753 1328.33,-605.434 1323.62,-610.612"/>
</g>
<!-- root_ca_bundle -->
<g id="node24" class="node"><title>root_ca_bundle</title>
<polygon fill="violet" stroke="violet" points="130.5,-1293.94 -0.5,-1293.94 -0.5,-1257.94 130.5,-1257.94 130.5,-1293.94"/>
<text text-anchor="middle" x="65" y="-1270.94" font-family="Times,serif" font-size="20.00">root ca crt/key</text>
</g>
<!-- root_ca_bundle&#45;&gt;manifests -->
<g id="edge73" class="edge"><title>root_ca_bundle&#45;&gt;manifests</title>
<path fill="none" stroke="black" d="M68.4991,-1294.3C77.966,-1361.03 113.803,-1589.29 167,-1635.94 317.553,-1767.97 1233.98,-1659.69 1239.5,-1654.94 1276.4,-1623.19 1266.83,-1486.75 1276,-1438.94 1298.59,-1321.11 1329.75,-1182.19 1344.13,-1119.14"/>
<polygon fill="black" stroke="black" points="1347.56,-1119.86 1346.38,-1109.33 1340.74,-1118.3 1347.56,-1119.86"/>
</g>
<!-- root_ca_bundle&#45;&gt;aggregator_ca_bundle -->
<g id="edge11" class="edge"><title>root_ca_bundle&#45;&gt;aggregator_ca_bundle</title>
<path fill="none" stroke="black" d="M75.4984,-1257.86C108.129,-1197.39 221.788,-999.943 369,-891.941 389.821,-876.666 415.23,-864.98 439.175,-856.286"/>
<polygon fill="black" stroke="black" points="440.337,-859.587 448.619,-852.98 438.025,-852.98 440.337,-859.587"/>
</g>
<!-- root_ca_bundle&#45;&gt;etcd_ca_bundle -->
<g id="edge10" class="edge"><title>root_ca_bundle&#45;&gt;etcd_ca_bundle</title>
<path fill="none" stroke="black" d="M75.2474,-1293.97C92.764,-1327.99 132.153,-1403.91 167,-1466.94 189.276,-1507.23 216.131,-1553.28 232.89,-1581.74"/>
<polygon fill="black" stroke="black" points="230.07,-1583.85 238.165,-1590.68 236.099,-1580.29 230.07,-1583.85"/>
</g>
<!-- root_ca_bundle&#45;&gt;kube_ca_bundle -->
<g id="edge9" class="edge"><title>root_ca_bundle&#45;&gt;kube_ca_bundle</title>
<path fill="none" stroke="black" d="M112.652,-1257.84C137.066,-1248.37 167.139,-1236.7 192.825,-1226.74"/>
<polygon fill="black" stroke="black" points="194.376,-1229.89 202.433,-1223.01 191.844,-1223.36 194.376,-1229.89"/>
</g>
<!-- service_serving_ca_bundle -->
<g id="node26" class="node"><title>service_serving_ca_bundle</title>
<polygon fill="violet" stroke="violet" points="1082.5,-364.941 863.5,-364.941 863.5,-328.941 1082.5,-328.941 1082.5,-364.941"/>
<text text-anchor="middle" x="973" y="-341.941" font-family="Times,serif" font-size="20.00">service serving ca crt/key</text>
</g>
<!-- root_ca_bundle&#45;&gt;service_serving_ca_bundle -->
<g id="edge12" class="edge"><title>root_ca_bundle&#45;&gt;service_serving_ca_bundle</title>
<path fill="none" stroke="black" d="M66.4428,-1257.93C68.7092,-1201.85 82.553,-1027.76 167,-920.941 230.798,-840.244 274.183,-847.841 369,-807.941 497.975,-753.668 580.95,-826.045 671,-718.941 760.245,-612.795 614.257,-512.493 706.5,-408.941 742.955,-368.017 800.747,-351.429 853.117,-345.535"/>
<polygon fill="black" stroke="black" points="853.568,-349.007 863.167,-344.525 852.868,-342.042 853.568,-349.007"/>
</g>
<!-- root_ca_bundle&#45;&gt;mcc_bundle -->
<g id="edge13" class="edge"><title>root_ca_bundle&#45;&gt;mcc_bundle</title>
<path fill="none" stroke="black" d="M66.7777,-1257.84C70.7754,-1173.72 91.8331,-821.973 167,-748.941 219.582,-697.853 298.843,-681.834 368.847,-679.37"/>
<polygon fill="black" stroke="black" points="369.199,-682.862 379.104,-679.103 369.016,-675.865 369.199,-682.862"/>
</g>
<!-- root_ca_bundle&#45;&gt;bootstrap_control_plane -->
<g id="edge17" class="edge"><title>root_ca_bundle&#45;&gt;bootstrap_control_plane</title>
<path fill="none" stroke="black" d="M130.794,-1279.3C274.473,-1286.76 622.907,-1304.83 823.369,-1315.23"/>
<polygon fill="black" stroke="black" points="823.225,-1318.73 833.393,-1315.75 823.588,-1311.74 823.225,-1318.73"/>
</g>
<!-- root_ca_bundle&#45;&gt;master_ignition -->
<g id="edge18" class="edge"><title>root_ca_bundle&#45;&gt;master_ignition</title>
<path fill="none" stroke="black" d="M66.4594,-1294.05C69.0488,-1379.81 84.8114,-1743.79 167,-1811.94 258.783,-1888.04 1151.84,-1857.76 1239.5,-1776.94 1323.35,-1699.64 1217.85,-1621.05 1276,-1522.94 1283.79,-1509.8 1295.89,-1498.71 1308.16,-1489.9"/>
<polygon fill="black" stroke="black" points="1310.31,-1492.67 1316.64,-1484.17 1306.39,-1486.87 1310.31,-1492.67"/>
</g>
<!-- worker_ignition -->
<g id="node33" class="node"><title>worker_ignition</title>
<polygon fill="sandybrown" stroke="sandybrown" points="1404.5,-1567.94 1301.5,-1567.94 1301.5,-1531.94 1404.5,-1531.94 1404.5,-1567.94"/>
<text text-anchor="middle" x="1353" y="-1544.94" font-family="Times,serif" font-size="20.00">worker.ign</text>
</g>
<!-- root_ca_bundle&#45;&gt;worker_ignition -->
<g id="edge19" class="edge"><title>root_ca_bundle&#45;&gt;worker_ignition</title>
<path fill="none" stroke="black" d="M66.4419,-1293.99C68.9898,-1382.03 84.7325,-1765.31 167,-1842.94 340.362,-2006.53 1046.53,-1967.86 1239.5,-1827.94 1322.26,-1767.93 1344.25,-1636.44 1350,-1578.42"/>
<polygon fill="black" stroke="black" points="1353.52,-1578.43 1350.92,-1568.15 1346.54,-1577.8 1353.52,-1578.43"/>
</g>
<!-- root_ca_bundle&#45;&gt;kubeconfig_admin -->
<g id="edge15" class="edge"><title>root_ca_bundle&#45;&gt;kubeconfig_admin</title>
<path fill="none" stroke="black" d="M66.8578,-1257.74C71.4097,-1168.02 95.2921,-773.211 167,-677.941 226.892,-598.37 276.209,-617.113 369,-580.941 499.731,-529.981 580.684,-596.322 671,-488.941 753.446,-390.917 620.17,-297.563 706.5,-202.941 750.313,-154.92 823.871,-141.788 882.465,-139.901"/>
<polygon fill="black" stroke="black" points="882.554,-143.4 892.475,-139.682 882.401,-136.402 882.554,-143.4"/>
</g>
<!-- root_ca_bundle&#45;&gt;kubeconfig_kubelet -->
<g id="edge16" class="edge"><title>root_ca_bundle&#45;&gt;kubeconfig_kubelet</title>
<path fill="none" stroke="black" d="M130.626,-1290.8C142.707,-1293.54 155.233,-1296.35 167,-1298.94 423.509,-1355.45 727.205,-1417.01 877.705,-1447.16"/>
<polygon fill="black" stroke="black" points="877.341,-1450.66 887.834,-1449.19 878.716,-1443.79 877.341,-1450.66"/>
</g>
<!-- service_account_bundle -->
<g id="node25" class="node"><title>service_account_bundle</title>
<polygon fill="violet" stroke="violet" points="1077,-650.941 869,-650.941 869,-614.941 1077,-614.941 1077,-650.941"/>
<text text-anchor="middle" x="973" y="-627.941" font-family="Times,serif" font-size="20.00">service account pub/key</text>
</g>
<!-- service_account_bundle&#45;&gt;manifests -->
<g id="edge74" class="edge"><title>service_account_bundle&#45;&gt;manifests</title>
<path fill="none" stroke="black" d="M1077.29,-630.78C1131.91,-635.077 1196.39,-649.588 1239.5,-689.941 1292.97,-739.993 1333.07,-964.077 1346.82,-1050.65"/>
<polygon fill="black" stroke="black" points="1343.4,-1051.41 1348.41,-1060.74 1350.32,-1050.32 1343.4,-1051.41"/>
</g>
<!-- service_account_bundle&#45;&gt;bootstrap_ignition -->
<g id="edge45" class="edge"><title>service_account_bundle&#45;&gt;bootstrap_ignition</title>
<path fill="none" stroke="black" d="M1077.29,-632.941C1142.76,-632.941 1225.64,-632.941 1283.16,-632.941"/>
<polygon fill="black" stroke="black" points="1283.24,-636.442 1293.24,-632.941 1283.24,-629.442 1283.24,-636.442"/>
</g>
<!-- service_serving_ca_bundle&#45;&gt;manifests -->
<g id="edge75" class="edge"><title>service_serving_ca_bundle&#45;&gt;manifests</title>
<path fill="none" stroke="black" d="M1069.59,-365.017C1127.44,-380.979 1197.86,-410.261 1239.5,-462.941 1240.67,-464.417 1322.42,-919.95 1345.81,-1050.41"/>
<polygon fill="black" stroke="black" points="1342.43,-1051.4 1347.64,-1060.62 1349.32,-1050.16 1342.43,-1051.4"/>
</g>
<!-- service_serving_ca_bundle&#45;&gt;bootstrap_ignition -->
<g id="edge46" class="edge"><title>service_serving_ca_bundle&#45;&gt;bootstrap_ignition</title>
<path fill="none" stroke="black" d="M1082.73,-349.276C1134.8,-355.387 1195.28,-370.352 1239.5,-404.941 1305.25,-456.37 1335.25,-556.247 1346.44,-604.921"/>
<polygon fill="black" stroke="black" points="1343.04,-605.754 1348.61,-614.769 1349.88,-604.25 1343.04,-605.754"/>
</g>
<!-- mcc_bundle&#45;&gt;manifests -->
<g id="edge76" class="edge"><title>mcc_bundle&#45;&gt;manifests</title>
<path fill="none" stroke="black" d="M642.086,-709.948C843.804,-740.158 1227.86,-798.668 1239.5,-807.941 1316.3,-869.102 1341.02,-991.097 1348.7,-1050.65"/>
<polygon fill="black" stroke="black" points="1345.24,-1051.16 1349.91,-1060.67 1352.19,-1050.32 1345.24,-1051.16"/>
</g>
<!-- mcc_bundle&#45;&gt;bootstrap_ignition -->
<g id="edge47" class="edge"><title>mcc_bundle&#45;&gt;bootstrap_ignition</title>
<path fill="none" stroke="black" d="M614.89,-673.906C636.323,-665.473 656.91,-653.099 671,-634.941 714.186,-579.289 653.974,-366.88 706.5,-319.941 794.818,-241.018 1142.61,-251.81 1239.5,-319.941 1334.16,-386.507 1349.56,-540.67 1351.78,-604.487"/>
<polygon fill="black" stroke="black" points="1348.29,-604.717 1352.05,-614.621 1355.28,-604.533 1348.29,-604.717"/>
</g>
<!-- operator_manifests&#45;&gt;manifests -->
<g id="edge77" class="edge"><title>operator_manifests&#45;&gt;manifests</title>
<path fill="none" stroke="black" d="M604.268,-1021.06C628.173,-1029.6 652.694,-1042 671,-1059.94 701.122,-1089.46 671.543,-1124.35 706.5,-1147.94 804.677,-1214.2 1124.89,-1177.85 1239.5,-1147.94 1264.9,-1141.31 1290.63,-1127.54 1311.06,-1114.56"/>
<polygon fill="black" stroke="black" points="1313.02,-1117.46 1319.48,-1109.07 1309.19,-1111.6 1313.02,-1117.46"/>
</g>
<!-- operator_manifests&#45;&gt;bootstrap_control_plane -->
<g id="edge48" class="edge"><title>operator_manifests&#45;&gt;bootstrap_control_plane</title>
<path fill="none" stroke="black" d="M610.226,-1021.05C632.759,-1029.51 655.055,-1041.87 671,-1059.94 715.188,-1110.01 663.627,-1154.74 706.5,-1205.94 748.381,-1255.96 815.836,-1285.31 872.271,-1302.11"/>
<polygon fill="black" stroke="black" points="871.369,-1305.49 881.948,-1304.9 873.309,-1298.76 871.369,-1305.49"/>
</g>
<!-- misc_manifests -->
<g id="node30" class="node"><title>misc_manifests</title>
<polygon fill="lightpink" stroke="lightpink" points="1239.5,-1138.94 706.5,-1138.94 706.5,-1102.94 1239.5,-1102.94 1239.5,-1138.94"/>
<text text-anchor="middle" x="973" y="-1115.94" font-family="Times,serif" font-size="20.00">misc manifests (rbac, namespace, CRD, pod security policy, etc)</text>
</g>
<!-- operator_manifests&#45;&gt;misc_manifests -->
<g id="edge49" class="edge"><title>operator_manifests&#45;&gt;misc_manifests</title>
<path fill="none" stroke="black" d="M572.172,-1020.98C609.2,-1033.67 660.591,-1050.53 706.5,-1062.94 759.551,-1077.28 819.288,-1090.58 868.646,-1100.81"/>
<polygon fill="black" stroke="black" points="868.193,-1104.29 878.693,-1102.88 869.606,-1097.44 868.193,-1104.29"/>
</g>
<!-- operator_manifests&#45;&gt;bootstrap_ignition -->
<g id="edge50" class="edge"><title>operator_manifests&#45;&gt;bootstrap_ignition</title>
<path fill="none" stroke="black" d="M615.382,-984.831C636.673,-976.401 657.069,-964.046 671,-945.941 717.326,-885.736 650.063,-656.792 706.5,-605.941 876.267,-452.977 1184.65,-560.581 1303.49,-610.896"/>
<polygon fill="black" stroke="black" points="1302.16,-614.13 1312.73,-614.851 1304.91,-607.696 1302.16,-614.13"/>
</g>
<!-- bootstrap_control_plane&#45;&gt;manifests -->
<g id="edge78" class="edge"><title>bootstrap_control_plane&#45;&gt;manifests</title>
<path fill="none" stroke="black" d="M1112.78,-1313.73C1156.36,-1305.55 1202.66,-1290.89 1239.5,-1264.94 1291.27,-1228.48 1324.23,-1159.87 1340.3,-1118.69"/>
<polygon fill="black" stroke="black" points="1343.67,-1119.69 1343.94,-1109.1 1337.12,-1117.21 1343.67,-1119.69"/>
</g>
<!-- bootstrap_control_plane&#45;&gt;bootstrap_ignition -->
<g id="edge51" class="edge"><title>bootstrap_control_plane&#45;&gt;bootstrap_ignition</title>
<path fill="none" stroke="black" d="M1021.8,-1304.85C1082.32,-1279.37 1185.22,-1227.02 1239.5,-1147.94 1267.7,-1106.85 1329.35,-762.866 1347.12,-661.157"/>
<polygon fill="black" stroke="black" points="1350.62,-661.483 1348.88,-651.031 1343.72,-660.282 1350.62,-661.483"/>
</g>
<!-- misc_manifests&#45;&gt;manifests -->
<g id="edge79" class="edge"><title>misc_manifests&#45;&gt;manifests</title>
<path fill="none" stroke="black" d="M1163.28,-1102.92C1199.06,-1099.51 1234.83,-1096.1 1265.46,-1093.18"/>
<polygon fill="black" stroke="black" points="1266.01,-1096.65 1275.64,-1092.21 1265.35,-1089.68 1266.01,-1096.65"/>
</g>
<!-- misc_manifests&#45;&gt;bootstrap_ignition -->
<g id="edge52" class="edge"><title>misc_manifests&#45;&gt;bootstrap_ignition</title>
<path fill="none" stroke="black" d="M1017.98,-1102.73C1076.46,-1076.39 1179.43,-1022.31 1239.5,-945.941 1309.74,-856.645 1338.47,-719.721 1348,-661.127"/>
<polygon fill="black" stroke="black" points="1351.48,-661.547 1349.56,-651.126 1344.56,-660.466 1351.48,-661.547"/>
</g>
<!-- bootstrap_ignition&#45;&gt;ignition_configs -->
<g id="edge82" class="edge"><title>bootstrap_ignition&#45;&gt;ignition_configs</title>
<path fill="none" stroke="black" d="M1359.06,-651.115C1388.48,-756.728 1537.46,-1291.67 1576.58,-1432.13"/>
<polygon fill="black" stroke="black" points="1573.25,-1433.22 1579.31,-1441.92 1580,-1431.35 1573.25,-1433.22"/>
</g>
<!-- bootstrap_ignition&#45;&gt;terraform_tfvars -->
<g id="edge55" class="edge"><title>bootstrap_ignition&#45;&gt;terraform_tfvars</title>
<path fill="none" stroke="black" d="M1412.54,-632.941C1440.64,-632.941 1474.76,-632.941 1505.28,-632.941"/>
<polygon fill="black" stroke="black" points="1505.48,-636.442 1515.48,-632.941 1505.48,-629.442 1505.48,-636.442"/>
</g>
<!-- master_ignition&#45;&gt;ignition_configs -->
<g id="edge83" class="edge"><title>master_ignition&#45;&gt;ignition_configs</title>
<path fill="none" stroke="black" d="M1403.2,-1465.94C1418.87,-1465.94 1437.01,-1465.94 1455.65,-1465.94"/>
<polygon fill="black" stroke="black" points="1455.74,-1469.44 1465.74,-1465.94 1455.74,-1462.44 1455.74,-1469.44"/>
</g>
<!-- master_ignition&#45;&gt;terraform_tfvars -->
<g id="edge56" class="edge"><title>master_ignition&#45;&gt;terraform_tfvars</title>
<path fill="none" stroke="black" d="M1359.06,-1447.77C1388.9,-1340.63 1541.8,-791.66 1578.21,-660.916"/>
<polygon fill="black" stroke="black" points="1581.59,-661.804 1580.91,-651.232 1574.85,-659.926 1581.59,-661.804"/>
</g>
<!-- worker_ignition&#45;&gt;ignition_configs -->
<g id="edge84" class="edge"><title>worker_ignition&#45;&gt;ignition_configs</title>
<path fill="none" stroke="black" d="M1403.77,-1531.92C1434.68,-1520.73 1475.03,-1506.12 1509.9,-1493.49"/>
<polygon fill="black" stroke="black" points="1511.37,-1496.69 1519.58,-1489.99 1508.98,-1490.1 1511.37,-1496.69"/>
</g>
<!-- worker_ignition&#45;&gt;terraform_tfvars -->
<g id="edge57" class="edge"><title>worker_ignition&#45;&gt;terraform_tfvars</title>
<path fill="none" stroke="black" d="M1388.7,-1531.8C1403.68,-1522.22 1420.03,-1509.08 1430,-1492.94 1519.79,-1347.6 1572.31,-792.601 1583.66,-661.032"/>
<polygon fill="black" stroke="black" points="1587.16,-661.22 1584.52,-650.958 1580.19,-660.625 1587.16,-661.22"/>
</g>
<!-- kubeconfig_admin&#45;&gt;manifests -->
<g id="edge81" class="edge"><title>kubeconfig_admin&#45;&gt;manifests</title>
<path fill="none" stroke="black" d="M1025.3,-163.023C1087.51,-187.887 1190.14,-238.984 1239.5,-319.941 1279.06,-384.824 1265.25,-584.716 1276,-659.941 1296.87,-805.985 1330.57,-978.68 1345.04,-1050.72"/>
<polygon fill="black" stroke="black" points="1341.62,-1051.49 1347.03,-1060.6 1348.49,-1050.11 1341.62,-1051.49"/>
</g>
<!-- kubeconfig_admin&#45;&gt;cluster_target -->
<g id="edge85" class="edge"><title>kubeconfig_admin&#45;&gt;cluster_target</title>
<path fill="none" stroke="black" d="M1053.74,-147.827C1245.23,-154.755 1728.1,-172.225 1903.79,-178.582"/>
<polygon fill="black" stroke="black" points="1903.8,-182.085 1913.92,-178.949 1904.05,-175.089 1903.8,-182.085"/>
</g>
<!-- tfstate -->
<g id="node37" class="node"><title>tfstate</title>
<polygon fill="lemonchiffon" stroke="lemonchiffon" points="1878,-234.941 1744,-234.941 1744,-198.941 1878,-198.941 1878,-234.941"/>
<text text-anchor="middle" x="1811" y="-211.941" font-family="Times,serif" font-size="20.00">terraform.state</text>
</g>
<!-- kubeconfig_admin&#45;&gt;tfstate -->
<g id="edge60" class="edge"><title>kubeconfig_admin&#45;&gt;tfstate</title>
<path fill="none" stroke="black" d="M1053.78,-151.812C1214.62,-165.665 1575.9,-196.779 1733.75,-210.375"/>
<polygon fill="black" stroke="black" points="1733.59,-213.873 1743.85,-211.245 1734.19,-206.899 1733.59,-213.873"/>
</g>
<!-- kubeconfig_kubelet&#45;&gt;manifests -->
<g id="edge80" class="edge"><title>kubeconfig_kubelet&#45;&gt;manifests</title>
<path fill="none" stroke="black" d="M1058,-1467.98C1115.57,-1464.95 1190.16,-1451.68 1239.5,-1407.94 1325.57,-1331.63 1345.8,-1185.86 1350.55,-1119.45"/>
<polygon fill="black" stroke="black" points="1354.06,-1119.32 1351.2,-1109.12 1347.08,-1118.87 1354.06,-1119.32"/>
</g>
<!-- kubeconfig_kubelet&#45;&gt;bootstrap_ignition -->
<g id="edge53" class="edge"><title>kubeconfig_kubelet&#45;&gt;bootstrap_ignition</title>
<path fill="none" stroke="black" d="M1058.08,-1451.88C1118.44,-1437.16 1196.45,-1407.72 1239.5,-1349.94 1279.36,-1296.44 1265.99,-1117.9 1276,-1051.94 1298.43,-904.16 1332.84,-728.456 1346.31,-661.114"/>
<polygon fill="black" stroke="black" points="1349.75,-661.75 1348.29,-651.257 1342.89,-660.373 1349.75,-661.75"/>
</g>
<!-- kubeconfig_kubelet&#45;&gt;master_ignition -->
<g id="edge54" class="edge"><title>kubeconfig_kubelet&#45;&gt;master_ignition</title>
<path fill="none" stroke="black" d="M1058.36,-1465.94C1129.57,-1465.94 1229.73,-1465.94 1292.72,-1465.94"/>
<polygon fill="black" stroke="black" points="1292.89,-1469.44 1302.89,-1465.94 1292.89,-1462.44 1292.89,-1469.44"/>
</g>
<!-- terraform_tfvars&#45;&gt;tfstate -->
<g id="edge59" class="edge"><title>terraform_tfvars&#45;&gt;tfstate</title>
<path fill="none" stroke="black" d="M1597.68,-614.799C1632.74,-549.113 1753.17,-323.434 1795.3,-244.481"/>
<polygon fill="black" stroke="black" points="1798.65,-245.65 1800.27,-235.179 1792.47,-242.354 1798.65,-245.65"/>
</g>
<!-- tfstate&#45;&gt;cluster_target -->
<g id="edge86" class="edge"><title>tfstate&#45;&gt;cluster_target</title>
<path fill="none" stroke="black" d="M1878.13,-201.779C1886.68,-199.817 1895.43,-197.81 1903.97,-195.853"/>
<polygon fill="black" stroke="black" points="1904.9,-199.231 1913.86,-193.584 1903.33,-192.408 1904.9,-199.231"/>
</g>
</g>
</svg>
