<?xml version="1.0" encoding="UTF-8" standalone="no"?>
<!DOCTYPE svg PUBLIC "-//W3C//DTD SVG 1.1//EN"
 "http://www.w3.org/Graphics/SVG/1.1/DTD/svg11.dtd">
<!-- Generated by graphviz version 2.40.1 (0)
 -->
<!-- Title: G Pages: 1 -->
<svg width="2426pt" height="3082pt"
 viewBox="0.00 0.00 2425.83 3082.46" xmlns="http://www.w3.org/2000/svg" xmlns:xlink="http://www.w3.org/1999/xlink">
<g id="graph0" class="graph" transform="scale(1 1) rotate(0) translate(4 3078.4636)">
<title>G</title>
<polygon fill="#ffffff" stroke="transparent" points="-4,4 -4,-3078.4636 2421.8258,-3078.4636 2421.8258,4 -4,4"/>
<g id="clust1" class="cluster">
<title>cluster_Target</title>
<polygon fill="none" stroke="#000000" points="2186.8258,-1825.9472 2186.8258,-2116.9472 2409.8258,-2116.9472 2409.8258,-1825.9472 2186.8258,-1825.9472"/>
<text text-anchor="middle" x="2298.3258" y="-2101.7472" font-family="Times,serif" font-size="14.00" fill="#000000">Target</text>
</g>
<g id="clust2" class="cluster">
<title>cluster_bootkube</title>
<polygon fill="none" stroke="#000000" points="1011.6205,-1636.9472 1011.6205,-2251.9472 1512.4775,-2251.9472 1512.4775,-1636.9472 1011.6205,-1636.9472"/>
<text text-anchor="middle" x="1262.049" y="-2236.7472" font-family="Times,serif" font-size="14.00" fill="#000000">bootkube</text>
</g>
<g id="clust3" class="cluster">
<title>cluster_bootstrap</title>
<polygon fill="none" stroke="#000000" points="1910.3472,-482.9472 1910.3472,-557.9472 2135.6286,-557.9472 2135.6286,-482.9472 1910.3472,-482.9472"/>
<text text-anchor="middle" x="2022.9879" y="-542.7472" font-family="Times,serif" font-size="14.00" fill="#000000">bootstrap</text>
</g>
<g id="clust4" class="cluster">
<title>cluster_cluster</title>
<polygon fill="none" stroke="#000000" points="1879.1499,-2643.9472 1879.1499,-2772.9472 2386.2687,-2772.9472 2386.2687,-2643.9472 1879.1499,-2643.9472"/>
<text text-anchor="middle" x="2132.7093" y="-2757.7472" font-family="Times,serif" font-size="14.00" fill="#000000">cluster</text>
</g>
<g id="clust5" class="cluster">
<title>cluster_installconfig</title>
<polygon fill="none" stroke="#000000" points="8,-2699.9472 8,-2956.9472 1439.034,-2956.9472 1439.034,-2699.9472 8,-2699.9472"/>
<text text-anchor="middle" x="723.517" y="-2941.7472" font-family="Times,serif" font-size="14.00" fill="#000000">installconfig</text>
</g>
<g id="clust6" class="cluster">
<title>cluster_kubeconfig</title>
<polygon fill="none" stroke="#000000" points="1586.4227,-645.9472 1586.4227,-774.9472 1805.2047,-774.9472 1805.2047,-645.9472 1586.4227,-645.9472"/>
<text text-anchor="middle" x="1695.8137" y="-759.7472" font-family="Times,serif" font-size="14.00" fill="#000000">kubeconfig</text>
</g>
<g id="clust7" class="cluster">
<title>cluster_machine</title>
<polygon fill="none" stroke="#000000" points="1166.3068,-2479.9472 1166.3068,-2608.9472 1357.7912,-2608.9472 1357.7912,-2479.9472 1166.3068,-2479.9472"/>
<text text-anchor="middle" x="1262.049" y="-2593.7472" font-family="Times,serif" font-size="14.00" fill="#000000">machine</text>
</g>
<g id="clust8" class="cluster">
<title>cluster_machines</title>
<polygon fill="none" stroke="#000000" points="1594.872,-2358.9472 1594.872,-2487.9472 1796.7555,-2487.9472 1796.7555,-2358.9472 1594.872,-2358.9472"/>
<text text-anchor="middle" x="1695.8137" y="-2472.7472" font-family="Times,serif" font-size="14.00" fill="#000000">machines</text>
</g>
<g id="clust9" class="cluster">
<title>cluster_manifests</title>
<polygon fill="none" stroke="#000000" points="1127.9602,-1344.9472 1127.9602,-1581.9472 2135.6286,-1581.9472 2135.6286,-1344.9472 1127.9602,-1344.9472"/>
<text text-anchor="middle" x="1631.7944" y="-1566.7472" font-family="Times,serif" font-size="14.00" fill="#000000">manifests</text>
</g>
<g id="clust10" class="cluster">
<title>cluster_openshift</title>
<polygon fill="none" stroke="#000000" points="583.0554,-856.9472 583.0554,-1201.9472 991.6205,-1201.9472 991.6205,-856.9472 583.0554,-856.9472"/>
<text text-anchor="middle" x="787.3379" y="-1186.7472" font-family="Times,serif" font-size="14.00" fill="#000000">openshift</text>
</g>
<g id="clust11" class="cluster">
<title>cluster_password</title>
<polygon fill="none" stroke="#000000" points="1532.4775,-2563.9472 1532.4775,-2638.9472 1859.1499,-2638.9472 1859.1499,-2563.9472 1532.4775,-2563.9472"/>
<text text-anchor="middle" x="1695.8137" y="-2623.7472" font-family="Times,serif" font-size="14.00" fill="#000000">password</text>
</g>
<g id="clust12" class="cluster">
<title>cluster_rhcos</title>
<polygon fill="none" stroke="#000000" points="1185.1551,-2616.9472 1185.1551,-2691.9472 1338.9429,-2691.9472 1338.9429,-2616.9472 1185.1551,-2616.9472"/>
<text text-anchor="middle" x="1262.049" y="-2676.7472" font-family="Times,serif" font-size="14.00" fill="#000000">rhcos</text>
</g>
<g id="clust13" class="cluster">
<title>cluster_tls</title>
<polygon fill="none" stroke="#000000" points="277.9792,-374.9472 277.9792,-719.9472 1408.4867,-719.9472 1408.4867,-374.9472 277.9792,-374.9472"/>
<text text-anchor="middle" x="843.233" y="-704.7472" font-family="Times,serif" font-size="14.00" fill="#000000">tls</text>
</g>
<!-- installconfig.InstallConfig -->
<g id="node1" class="node">
<title>installconfig.InstallConfig</title>
<ellipse fill="none" stroke="#000000" cx="787.3379" cy="-2725.9472" rx="131.8766" ry="18"/>
<text text-anchor="middle" x="787.3379" y="-2722.2472" font-family="Times,serif" font-size="14.00" fill="#000000">installconfig.InstallConfig</text>
</g>
<!-- Target Install Config -->
<g id="node2" class="node">
<title>Target Install Config</title>
<polygon fill="#d3d3d3" stroke="#000000" points="2381.3258,-2085.9472 2215.3258,-2085.9472 2215.3258,-2049.9472 2381.3258,-2049.9472 2381.3258,-2085.9472"/>
<text text-anchor="middle" x="2298.3258" y="-2064.2472" font-family="Times,serif" font-size="14.00" fill="#000000">Target Install Config</text>
</g>
<!-- installconfig.InstallConfig&#45;&gt;Target Install Config -->
<g id="edge1" class="edge">
<title>installconfig.InstallConfig&#45;&gt;Target Install Config</title>
<path fill="none" stroke="#000000" d="M876.8794,-2739.2184C917.8501,-2744.6484 967.0888,-2750.2764 1011.6205,-2752.9472 1390.7783,-2775.6874 1511.9985,-2797.1018 1859.1499,-2642.9472 2000.113,-2580.3518 2060.779,-2587.0085 2158.8258,-2467.9472 2254.2402,-2352.0826 2286.1819,-2166.7432 2295.2134,-2096.3334"/>
<polygon fill="#000000" stroke="#000000" points="2298.7314,-2096.3993 2296.4724,-2086.0481 2291.7832,-2095.5487 2298.7314,-2096.3993"/>
</g>
<!-- manifests.Manifests -->
<g id="node24" class="node">
<title>manifests.Manifests</title>
<ellipse fill="none" stroke="#000000" cx="1695.8137" cy="-1532.9472" rx="104.7816" ry="18"/>
<text text-anchor="middle" x="1695.8137" y="-1529.2472" font-family="Times,serif" font-size="14.00" fill="#000000">manifests.Manifests</text>
</g>
<!-- installconfig.InstallConfig&#45;&gt;manifests.Manifests -->
<g id="edge25" class="edge">
<title>installconfig.InstallConfig&#45;&gt;manifests.Manifests</title>
<path fill="none" stroke="#000000" d="M788.1967,-2707.7176C794.7499,-2577.0275 841.2926,-1783.5613 1011.6205,-1632.9472 1095.2652,-1558.9836 1403.0028,-1614.9096 1512.4775,-1592.9472 1558.4449,-1583.7254 1608.9621,-1566.6475 1645.3074,-1553.063"/>
<polygon fill="#000000" stroke="#000000" points="1646.5819,-1556.323 1654.6982,-1549.513 1644.1066,-1549.7752 1646.5819,-1556.323"/>
</g>
<!-- manifests.Ingress -->
<g id="node27" class="node">
<title>manifests.Ingress</title>
<ellipse fill="none" stroke="#000000" cx="1262.049" cy="-1478.9472" rx="94.4839" ry="18"/>
<text text-anchor="middle" x="1262.049" y="-1475.2472" font-family="Times,serif" font-size="14.00" fill="#000000">manifests.Ingress</text>
</g>
<!-- installconfig.InstallConfig&#45;&gt;manifests.Ingress -->
<g id="edge27" class="edge">
<title>installconfig.InstallConfig&#45;&gt;manifests.Ingress</title>
<path fill="none" stroke="#000000" d="M787.8205,-2707.9374C791.9119,-2569.7812 825.3721,-1678.8285 1011.6205,-1505.9472 1057.3311,-1463.5174 1129.838,-1459.9843 1185.0958,-1465.1771"/>
<polygon fill="#000000" stroke="#000000" points="1184.8911,-1468.6748 1195.2026,-1466.2409 1185.6239,-1461.7133 1184.8911,-1468.6748"/>
</g>
<!-- manifests.DNS -->
<g id="node28" class="node">
<title>manifests.DNS</title>
<ellipse fill="none" stroke="#000000" cx="1262.049" cy="-1532.9472" rx="81.4863" ry="18"/>
<text text-anchor="middle" x="1262.049" y="-1529.2472" font-family="Times,serif" font-size="14.00" fill="#000000">manifests.DNS</text>
</g>
<!-- installconfig.InstallConfig&#45;&gt;manifests.DNS -->
<g id="edge29" class="edge">
<title>installconfig.InstallConfig&#45;&gt;manifests.DNS</title>
<path fill="none" stroke="#000000" d="M788.0487,-2707.5573C793.6753,-2572.1494 835.5207,-1730.166 1011.6205,-1564.9472 1057.7363,-1521.6809 1131.4095,-1517.0176 1186.9336,-1521.1885"/>
<polygon fill="#000000" stroke="#000000" points="1186.8156,-1524.6912 1197.0792,-1522.0628 1187.4166,-1517.7171 1186.8156,-1524.6912"/>
</g>
<!-- manifests.Infrastructure -->
<g id="node29" class="node">
<title>manifests.Infrastructure</title>
<ellipse fill="none" stroke="#000000" cx="1262.049" cy="-1424.9472" rx="126.1777" ry="18"/>
<text text-anchor="middle" x="1262.049" y="-1421.2472" font-family="Times,serif" font-size="14.00" fill="#000000">manifests.Infrastructure</text>
</g>
<!-- installconfig.InstallConfig&#45;&gt;manifests.Infrastructure -->
<g id="edge31" class="edge">
<title>installconfig.InstallConfig&#45;&gt;manifests.Infrastructure</title>
<path fill="none" stroke="#000000" d="M787.6771,-2707.6048C790.7139,-2564.9161 817.869,-1633.159 1011.6205,-1451.9472 1053.9257,-1412.3801 1119.4997,-1406.5307 1172.9357,-1410.0994"/>
<polygon fill="#000000" stroke="#000000" points="1172.8627,-1413.6044 1183.1067,-1410.9002 1173.4123,-1406.626 1172.8627,-1413.6044"/>
</g>
<!-- manifests.Networking -->
<g id="node31" class="node">
<title>manifests.Networking</title>
<ellipse fill="none" stroke="#000000" cx="1262.049" cy="-1370.9472" rx="114.2798" ry="18"/>
<text text-anchor="middle" x="1262.049" y="-1367.2472" font-family="Times,serif" font-size="14.00" fill="#000000">manifests.Networking</text>
</g>
<!-- installconfig.InstallConfig&#45;&gt;manifests.Networking -->
<g id="edge34" class="edge">
<title>installconfig.InstallConfig&#45;&gt;manifests.Networking</title>
<path fill="none" stroke="#000000" d="M787.5339,-2707.7687C789.4975,-2562.2766 810.1301,-1587.7143 1011.6205,-1397.9472 1055.0743,-1357.0217 1123.3897,-1352.064 1177.6985,-1356.3527"/>
<polygon fill="#000000" stroke="#000000" points="1177.3922,-1359.8392 1187.667,-1357.2545 1178.023,-1352.8677 1177.3922,-1359.8392"/>
</g>
<!-- tls.IngressCertKey -->
<g id="node35" class="node">
<title>tls.IngressCertKey</title>
<ellipse fill="none" stroke="#000000" cx="1262.049" cy="-670.9472" rx="98.5829" ry="18"/>
<text text-anchor="middle" x="1262.049" y="-667.2472" font-family="Times,serif" font-size="14.00" fill="#000000">tls.IngressCertKey</text>
</g>
<!-- installconfig.InstallConfig&#45;&gt;tls.IngressCertKey -->
<g id="edge42" class="edge">
<title>installconfig.InstallConfig&#45;&gt;tls.IngressCertKey</title>
<path fill="none" stroke="#000000" d="M789.7236,-2707.6967C812.8845,-2530.6107 997.1897,-1123.6241 1011.6205,-1082.9472 1068.1534,-923.5953 1191.3909,-759.2026 1240.8672,-696.9388"/>
<polygon fill="#000000" stroke="#000000" points="1243.8306,-698.8372 1247.3444,-688.842 1238.3645,-694.4644 1243.8306,-698.8372"/>
</g>
<!-- tls.MCSCertKey -->
<g id="node38" class="node">
<title>tls.MCSCertKey</title>
<ellipse fill="none" stroke="#000000" cx="787.3379" cy="-670.9472" rx="86.3847" ry="18"/>
<text text-anchor="middle" x="787.3379" y="-667.2472" font-family="Times,serif" font-size="14.00" fill="#000000">tls.MCSCertKey</text>
</g>
<!-- installconfig.InstallConfig&#45;&gt;tls.MCSCertKey -->
<g id="edge48" class="edge">
<title>installconfig.InstallConfig&#45;&gt;tls.MCSCertKey</title>
<path fill="none" stroke="#000000" d="M783.7636,-2707.8787C759.0726,-2582.0151 613.5057,-1822.8249 569.0554,-1196.9472 566.4185,-1159.8185 553.6747,-895.8431 569.0554,-861.9472 605.2476,-782.1871 693.0274,-722.6381 745.5852,-692.6563"/>
<polygon fill="#000000" stroke="#000000" points="747.3242,-695.6939 754.3363,-687.7515 743.9018,-689.5876 747.3242,-695.6939"/>
</g>
<!-- manifests.Openshift -->
<g id="node40" class="node">
<title>manifests.Openshift</title>
<ellipse fill="none" stroke="#000000" cx="2022.9879" cy="-1424.9472" rx="104.7816" ry="18"/>
<text text-anchor="middle" x="2022.9879" y="-1421.2472" font-family="Times,serif" font-size="14.00" fill="#000000">manifests.Openshift</text>
</g>
<!-- installconfig.InstallConfig&#45;&gt;manifests.Openshift -->
<g id="edge63" class="edge">
<title>installconfig.InstallConfig&#45;&gt;manifests.Openshift</title>
<path fill="none" stroke="#000000" d="M793.4929,-2707.7161C814.115,-2649.5396 886.6012,-2466.9388 1011.6205,-2377.9472 1198.2736,-2245.0833 1327.2703,-2390.8193 1512.4775,-2255.9472 1816.7354,-2034.3798 1977.5225,-1571.0339 2014.5906,-1452.8527"/>
<polygon fill="#000000" stroke="#000000" points="2017.9924,-1453.6995 2017.6093,-1443.1116 2011.3061,-1451.6274 2017.9924,-1453.6995"/>
</g>
<!-- manifests.ClusterK8sIO -->
<g id="node41" class="node">
<title>manifests.ClusterK8sIO</title>
<ellipse fill="none" stroke="#000000" cx="1695.8137" cy="-1424.9472" rx="122.6784" ry="18"/>
<text text-anchor="middle" x="1695.8137" y="-1421.2472" font-family="Times,serif" font-size="14.00" fill="#000000">manifests.ClusterK8sIO</text>
</g>
<!-- installconfig.InstallConfig&#45;&gt;manifests.ClusterK8sIO -->
<g id="edge65" class="edge">
<title>installconfig.InstallConfig&#45;&gt;manifests.ClusterK8sIO</title>
<path fill="none" stroke="#000000" d="M788.0265,-2707.8903C793.492,-2574.9492 834.3901,-1748.5723 1011.6205,-1592.9472 1095.4364,-1519.3489 1423.0722,-1626.6443 1512.4775,-1559.9472 1532.9913,-1544.6438 1515.3613,-1524.9748 1532.4775,-1505.9472 1558.3911,-1477.1399 1596.8706,-1457.3615 1629.9728,-1444.5641"/>
<polygon fill="#000000" stroke="#000000" points="1631.4526,-1447.7478 1639.6011,-1440.9764 1629.0084,-1441.1884 1631.4526,-1447.7478"/>
</g>
<!-- machines.Worker -->
<g id="node42" class="node">
<title>machines.Worker</title>
<ellipse fill="none" stroke="#000000" cx="1695.8137" cy="-2384.9472" rx="92.8835" ry="18"/>
<text text-anchor="middle" x="1695.8137" y="-2381.2472" font-family="Times,serif" font-size="14.00" fill="#000000">machines.Worker</text>
</g>
<!-- installconfig.InstallConfig&#45;&gt;machines.Worker -->
<g id="edge71" class="edge">
<title>installconfig.InstallConfig&#45;&gt;machines.Worker</title>
<path fill="none" stroke="#000000" d="M794.9156,-2707.8042C818.1228,-2654.8512 893.873,-2500.2583 1011.6205,-2436.9472 1109.3799,-2384.3835 1427.3518,-2380.7911 1593.1404,-2382.7274"/>
<polygon fill="#000000" stroke="#000000" points="1593.3071,-2386.2297 1603.3503,-2382.8559 1593.3952,-2379.2302 1593.3071,-2386.2297"/>
</g>
<!-- installconfig.PlatformCredsCheck -->
<g id="node43" class="node">
<title>installconfig.PlatformCredsCheck</title>
<ellipse fill="none" stroke="#000000" cx="1262.049" cy="-2725.9472" rx="168.97" ry="18"/>
<text text-anchor="middle" x="1262.049" y="-2722.2472" font-family="Times,serif" font-size="14.00" fill="#000000">installconfig.PlatformCredsCheck</text>
</g>
<!-- installconfig.InstallConfig&#45;&gt;installconfig.PlatformCredsCheck -->
<g id="edge70" class="edge">
<title>installconfig.InstallConfig&#45;&gt;installconfig.PlatformCredsCheck</title>
<path fill="none" stroke="#000000" d="M919.5714,-2725.9472C970.0627,-2725.9472 1028.5072,-2725.9472 1082.6631,-2725.9472"/>
<polygon fill="#000000" stroke="#000000" points="1082.7224,-2729.4473 1092.7224,-2725.9472 1082.7223,-2722.4473 1082.7224,-2729.4473"/>
</g>
<!-- rhcos.Image -->
<g id="node44" class="node">
<title>rhcos.Image</title>
<ellipse fill="none" stroke="#000000" cx="1262.049" cy="-2642.9472" rx="68.7879" ry="18"/>
<text text-anchor="middle" x="1262.049" y="-2639.2472" font-family="Times,serif" font-size="14.00" fill="#000000">rhcos.Image</text>
</g>
<!-- installconfig.InstallConfig&#45;&gt;rhcos.Image -->
<g id="edge73" class="edge">
<title>installconfig.InstallConfig&#45;&gt;rhcos.Image</title>
<path fill="none" stroke="#000000" d="M868.6738,-2711.7262C960.6786,-2695.6398 1108.8317,-2669.7362 1194.6496,-2654.7316"/>
<polygon fill="#000000" stroke="#000000" points="1195.2949,-2658.1719 1204.5427,-2653.0018 1194.0893,-2651.2765 1195.2949,-2658.1719"/>
</g>
<!-- machine.Worker -->
<g id="node45" class="node">
<title>machine.Worker</title>
<ellipse fill="none" stroke="#000000" cx="1262.049" cy="-2505.9472" rx="87.9851" ry="18"/>
<text text-anchor="middle" x="1262.049" y="-2502.2472" font-family="Times,serif" font-size="14.00" fill="#000000">machine.Worker</text>
</g>
<!-- installconfig.InstallConfig&#45;&gt;machine.Worker -->
<g id="edge75" class="edge">
<title>installconfig.InstallConfig&#45;&gt;machine.Worker</title>
<path fill="none" stroke="#000000" d="M801.5493,-2707.8494C833.9071,-2668.1465 917.5897,-2573.7026 1011.6205,-2532.9472 1059.6606,-2512.1254 1117.5448,-2504.8744 1165.5558,-2503.0546"/>
<polygon fill="#000000" stroke="#000000" points="1165.7557,-2506.5502 1175.6439,-2502.7458 1165.5415,-2499.5535 1165.7557,-2506.5502"/>
</g>
<!-- machines.Master -->
<g id="node46" class="node">
<title>machines.Master</title>
<ellipse fill="none" stroke="#000000" cx="1695.8137" cy="-2438.9472" rx="90.9839" ry="18"/>
<text text-anchor="middle" x="1695.8137" y="-2435.2472" font-family="Times,serif" font-size="14.00" fill="#000000">machines.Master</text>
</g>
<!-- installconfig.InstallConfig&#45;&gt;machines.Master -->
<g id="edge80" class="edge">
<title>installconfig.InstallConfig&#45;&gt;machines.Master</title>
<path fill="none" stroke="#000000" d="M796.8793,-2707.7082C823.3095,-2659.3676 902.7689,-2528.0993 1011.6205,-2475.9472 1062.7262,-2451.462 1416.8232,-2442.9279 1594.54,-2440.1646"/>
<polygon fill="#000000" stroke="#000000" points="1594.7415,-2443.6621 1604.687,-2440.0101 1594.6348,-2436.6629 1594.7415,-2443.6621"/>
</g>
<!-- machine.Master -->
<g id="node47" class="node">
<title>machine.Master</title>
<ellipse fill="none" stroke="#000000" cx="1262.049" cy="-2559.9472" rx="86.3847" ry="18"/>
<text text-anchor="middle" x="1262.049" y="-2556.2472" font-family="Times,serif" font-size="14.00" fill="#000000">machine.Master</text>
</g>
<!-- installconfig.InstallConfig&#45;&gt;machine.Master -->
<g id="edge83" class="edge">
<title>installconfig.InstallConfig&#45;&gt;machine.Master</title>
<path fill="none" stroke="#000000" d="M816.3676,-2708.2372C858.1173,-2683.4949 938.1871,-2638.7279 1011.6205,-2612.9472 1066.4424,-2593.7006 1130.5866,-2580.2891 1180.2319,-2571.7726"/>
<polygon fill="#000000" stroke="#000000" points="1180.998,-2575.193 1190.2784,-2570.0818 1179.8362,-2568.2901 1180.998,-2575.193"/>
</g>
<!-- kubeconfig.Admin -->
<g id="node49" class="node">
<title>kubeconfig.Admin</title>
<ellipse fill="none" stroke="#000000" cx="1695.8137" cy="-725.9472" rx="95.5831" ry="18"/>
<text text-anchor="middle" x="1695.8137" y="-722.2472" font-family="Times,serif" font-size="14.00" fill="#000000">kubeconfig.Admin</text>
</g>
<!-- installconfig.InstallConfig&#45;&gt;kubeconfig.Admin -->
<g id="edge94" class="edge">
<title>installconfig.InstallConfig&#45;&gt;kubeconfig.Admin</title>
<path fill="none" stroke="#000000" d="M789.3001,-2707.698C807.7963,-2536.4037 952.1345,-1215.7227 1011.6205,-1158.9472 1092.5045,-1081.7488 1432.8197,-1189.4102 1512.4775,-1110.9472 1541.1501,-1082.7048 1517.1127,-968.145 1532.4775,-930.9472 1563.3749,-856.1452 1630.175,-786.3351 1668.0803,-750.6835"/>
<polygon fill="#000000" stroke="#000000" points="1670.7585,-752.973 1675.707,-743.6048 1665.9965,-747.8423 1670.7585,-752.973"/>
</g>
<!-- bootstrap.Bootstrap -->
<g id="node52" class="node">
<title>bootstrap.Bootstrap</title>
<ellipse fill="none" stroke="#000000" cx="2022.9879" cy="-508.9472" rx="104.7816" ry="18"/>
<text text-anchor="middle" x="2022.9879" y="-505.2472" font-family="Times,serif" font-size="14.00" fill="#000000">bootstrap.Bootstrap</text>
</g>
<!-- installconfig.InstallConfig&#45;&gt;bootstrap.Bootstrap -->
<g id="edge98" class="edge">
<title>installconfig.InstallConfig&#45;&gt;bootstrap.Bootstrap</title>
<path fill="none" stroke="#000000" d="M787.8518,-2707.8933C792.3654,-2561.2352 829.5302,-1564.9116 1011.6205,-1340.9472 1162.0123,-1155.9709 1314.6481,-1281.979 1512.4775,-1148.9472 1769.298,-976.2464 1958.5738,-634.3045 2009.4025,-535.9757"/>
<polygon fill="#000000" stroke="#000000" points="2012.5676,-537.4736 2014.017,-526.9784 2006.3391,-534.2791 2012.5676,-537.4736"/>
</g>
<!-- tls.APIServerCertKey -->
<g id="node54" class="node">
<title>tls.APIServerCertKey</title>
<ellipse fill="none" stroke="#000000" cx="1262.049" cy="-508.9472" rx="111.5806" ry="18"/>
<text text-anchor="middle" x="1262.049" y="-505.2472" font-family="Times,serif" font-size="14.00" fill="#000000">tls.APIServerCertKey</text>
</g>
<!-- installconfig.InstallConfig&#45;&gt;tls.APIServerCertKey -->
<g id="edge107" class="edge">
<title>installconfig.InstallConfig&#45;&gt;tls.APIServerCertKey</title>
<path fill="none" stroke="#000000" d="M790.5479,-2707.5542C812.4737,-2581.0378 940.8164,-1826.2564 991.6205,-1205.9472 994.6603,-1168.8327 986.3294,-563.2801 1011.6205,-535.9472 1054.2763,-489.8479 1127.8954,-486.977 1184.3078,-493.3394"/>
<polygon fill="#000000" stroke="#000000" points="1183.9172,-496.8177 1194.2726,-494.5779 1184.7806,-489.8711 1183.9172,-496.8177"/>
</g>
<!-- kubeconfig.Kubelet -->
<g id="node58" class="node">
<title>kubeconfig.Kubelet</title>
<ellipse fill="none" stroke="#000000" cx="1695.8137" cy="-671.9472" rx="101.2821" ry="18"/>
<text text-anchor="middle" x="1695.8137" y="-668.2472" font-family="Times,serif" font-size="14.00" fill="#000000">kubeconfig.Kubelet</text>
</g>
<!-- installconfig.InstallConfig&#45;&gt;kubeconfig.Kubelet -->
<g id="edge120" class="edge">
<title>installconfig.InstallConfig&#45;&gt;kubeconfig.Kubelet</title>
<path fill="none" stroke="#000000" d="M789.6771,-2707.6951C812.2065,-2532.0837 990.3436,-1147.6415 1011.6205,-1110.9472 1152.7309,-867.5874 1311.888,-921.1781 1512.4775,-723.9472 1522.6236,-713.971 1520.2,-706.1398 1532.4775,-698.9472 1549.0554,-689.2353 1568.1127,-682.7544 1587.2242,-678.4794"/>
<polygon fill="#000000" stroke="#000000" points="1588.1132,-681.8701 1597.2104,-676.4394 1586.7122,-675.0117 1588.1132,-681.8701"/>
</g>
<!-- cluster.Metadata -->
<g id="node59" class="node">
<title>cluster.Metadata</title>
<ellipse fill="none" stroke="#000000" cx="2022.9879" cy="-2723.9472" rx="89.8845" ry="18"/>
<text text-anchor="middle" x="2022.9879" y="-2720.2472" font-family="Times,serif" font-size="14.00" fill="#000000">cluster.Metadata</text>
</g>
<!-- installconfig.InstallConfig&#45;&gt;cluster.Metadata -->
<g id="edge125" class="edge">
<title>installconfig.InstallConfig&#45;&gt;cluster.Metadata</title>
<path fill="none" stroke="#000000" d="M816.8449,-2743.5889C858.5185,-2767.3736 937.7902,-2808.5213 1011.6205,-2823.9472 1380.3381,-2900.986 1496.5219,-2925.8712 1859.1499,-2823.9472 1911.3462,-2809.2764 1963.3748,-2772.8604 1994.3649,-2748.266"/>
<polygon fill="#000000" stroke="#000000" points="1996.9504,-2750.6768 2002.5305,-2741.6705 1992.5519,-2745.2312 1996.9504,-2750.6768"/>
</g>
<!-- cluster.TerraformVariables -->
<g id="node60" class="node">
<title>cluster.TerraformVariables</title>
<ellipse fill="none" stroke="#000000" cx="2022.9879" cy="-2669.9472" rx="135.6761" ry="18"/>
<text text-anchor="middle" x="2022.9879" y="-2666.2472" font-family="Times,serif" font-size="14.00" fill="#000000">cluster.TerraformVariables</text>
</g>
<!-- installconfig.InstallConfig&#45;&gt;cluster.TerraformVariables -->
<g id="edge128" class="edge">
<title>installconfig.InstallConfig&#45;&gt;cluster.TerraformVariables</title>
<path fill="none" stroke="#000000" d="M835.5979,-2742.7936C880.5231,-2757.5269 949.6772,-2777.8049 1011.6205,-2785.9472 1104.9873,-2798.2202 1785.6234,-2844.7846 1859.1499,-2785.9472 1890.8045,-2760.6166 1849.9782,-2725.1015 1879.1499,-2696.9472 1884.5546,-2691.7311 1890.6292,-2687.3596 1897.1468,-2683.7072"/>
<polygon fill="#000000" stroke="#000000" points="1898.8929,-2686.7478 1906.2878,-2679.1607 1895.7755,-2680.4803 1898.8929,-2686.7478"/>
</g>
<!-- cluster.Cluster -->
<g id="node62" class="node">
<title>cluster.Cluster</title>
<ellipse fill="none" stroke="#000000" cx="2298.3258" cy="-2696.9472" rx="79.8859" ry="18"/>
<text text-anchor="middle" x="2298.3258" y="-2693.2472" font-family="Times,serif" font-size="14.00" fill="#000000">cluster.Cluster</text>
</g>
<!-- installconfig.InstallConfig&#45;&gt;cluster.Cluster -->
<g id="edge138" class="edge">
<title>installconfig.InstallConfig&#45;&gt;cluster.Cluster</title>
<path fill="none" stroke="#000000" d="M806.3726,-2743.879C842.7696,-2776.7862 926.2366,-2845.7502 1011.6205,-2870.9472 1372.8979,-2977.561 1486.7208,-2926.3771 1859.1499,-2869.9472 1996.9021,-2849.0752 2031.1579,-2833.7343 2158.8258,-2777.9472 2196.4547,-2761.5045 2236.7439,-2737.3239 2264.3009,-2719.6639"/>
<polygon fill="#000000" stroke="#000000" points="2266.2863,-2722.5481 2272.781,-2714.1774 2262.4838,-2716.6709 2266.2863,-2722.5481"/>
</g>
<!-- installconfig.sshPublicKey -->
<g id="node3" class="node">
<title>installconfig.sshPublicKey</title>
<ellipse fill="none" stroke="#000000" cx="420.5173" cy="-2725.9472" rx="133.4768" ry="18"/>
<text text-anchor="middle" x="420.5173" y="-2722.2472" font-family="Times,serif" font-size="14.00" fill="#000000">installconfig.sshPublicKey</text>
</g>
<!-- installconfig.sshPublicKey&#45;&gt;installconfig.InstallConfig -->
<g id="edge2" class="edge">
<title>installconfig.sshPublicKey&#45;&gt;installconfig.InstallConfig</title>
<path fill="none" stroke="#000000" d="M553.9856,-2725.9472C583.6168,-2725.9472 615.1306,-2725.9472 645.0981,-2725.9472"/>
<polygon fill="#000000" stroke="#000000" points="645.1968,-2729.4473 655.1968,-2725.9472 645.1968,-2722.4473 645.1968,-2729.4473"/>
</g>
<!-- installconfig.baseDomain -->
<g id="node4" class="node">
<title>installconfig.baseDomain</title>
<ellipse fill="none" stroke="#000000" cx="420.5173" cy="-2907.9472" rx="128.0773" ry="18"/>
<text text-anchor="middle" x="420.5173" y="-2904.2472" font-family="Times,serif" font-size="14.00" fill="#000000">installconfig.baseDomain</text>
</g>
<!-- installconfig.baseDomain&#45;&gt;installconfig.InstallConfig -->
<g id="edge3" class="edge">
<title>installconfig.baseDomain&#45;&gt;installconfig.InstallConfig</title>
<path fill="none" stroke="#000000" d="M499.8629,-2893.8002C518.3679,-2889.2168 537.7216,-2883.3465 555.0554,-2875.9472 633.4909,-2842.4656 714.9286,-2783.2153 757.4275,-2750.0863"/>
<polygon fill="#000000" stroke="#000000" points="759.6958,-2752.7552 765.3957,-2743.8242 755.3705,-2747.2514 759.6958,-2752.7552"/>
</g>
<!-- installconfig.platform -->
<g id="node5" class="node">
<title>installconfig.platform</title>
<ellipse fill="none" stroke="#000000" cx="132.9896" cy="-2888.9472" rx="111.2805" ry="18"/>
<text text-anchor="middle" x="132.9896" y="-2885.2472" font-family="Times,serif" font-size="14.00" fill="#000000">installconfig.platform</text>
</g>
<!-- installconfig.platform&#45;&gt;installconfig.InstallConfig -->
<g id="edge7" class="edge">
<title>installconfig.platform&#45;&gt;installconfig.InstallConfig</title>
<path fill="none" stroke="#000000" d="M238.3001,-2883.1634C358.3722,-2876.3885 540.1085,-2865.5113 555.0554,-2860.9472 633.7248,-2836.9255 714.2359,-2781.9364 756.7195,-2750.0442"/>
<polygon fill="#000000" stroke="#000000" points="759.097,-2752.6336 764.9455,-2743.7992 754.8644,-2747.0582 759.097,-2752.6336"/>
</g>
<!-- installconfig.platform&#45;&gt;installconfig.baseDomain -->
<g id="edge4" class="edge">
<title>installconfig.platform&#45;&gt;installconfig.baseDomain</title>
<path fill="none" stroke="#000000" d="M235.9816,-2895.753C254.9179,-2897.0043 274.883,-2898.3236 294.4072,-2899.6138"/>
<polygon fill="#000000" stroke="#000000" points="294.36,-2903.1182 304.5691,-2900.2853 294.8216,-2896.1335 294.36,-2903.1182"/>
</g>
<!-- installconfig.clusterName -->
<g id="node6" class="node">
<title>installconfig.clusterName</title>
<ellipse fill="none" stroke="#000000" cx="420.5173" cy="-2833.9472" rx="131.8766" ry="18"/>
<text text-anchor="middle" x="420.5173" y="-2830.2472" font-family="Times,serif" font-size="14.00" fill="#000000">installconfig.clusterName</text>
</g>
<!-- installconfig.clusterName&#45;&gt;installconfig.InstallConfig -->
<g id="edge5" class="edge">
<title>installconfig.clusterName&#45;&gt;installconfig.InstallConfig</title>
<path fill="none" stroke="#000000" d="M500.9758,-2819.6794C518.8871,-2815.9825 537.7053,-2811.6891 555.0554,-2806.9472 617.7479,-2789.8129 687.9852,-2764.4274 734.6447,-2746.6548"/>
<polygon fill="#000000" stroke="#000000" points="736.1451,-2749.8281 744.2323,-2742.9835 733.6419,-2743.291 736.1451,-2749.8281"/>
</g>
<!-- installconfig.pullSecret -->
<g id="node7" class="node">
<title>installconfig.pullSecret</title>
<ellipse fill="none" stroke="#000000" cx="420.5173" cy="-2779.9472" rx="119.6788" ry="18"/>
<text text-anchor="middle" x="420.5173" y="-2776.2472" font-family="Times,serif" font-size="14.00" fill="#000000">installconfig.pullSecret</text>
</g>
<!-- installconfig.pullSecret&#45;&gt;installconfig.InstallConfig -->
<g id="edge6" class="edge">
<title>installconfig.pullSecret&#45;&gt;installconfig.InstallConfig</title>
<path fill="none" stroke="#000000" d="M506.0575,-2767.3548C560.2796,-2759.3727 630.641,-2749.0147 687.4261,-2740.6553"/>
<polygon fill="#000000" stroke="#000000" points="688.1177,-2744.0913 697.5013,-2739.1722 687.0981,-2737.166 688.1177,-2744.0913"/>
</g>
<!-- bootkube.KubeCloudConfig -->
<g id="node8" class="node">
<title>bootkube.KubeCloudConfig</title>
<ellipse fill="none" stroke="#000000" cx="1262.049" cy="-1878.9472" rx="139.1754" ry="18"/>
<text text-anchor="middle" x="1262.049" y="-1875.2472" font-family="Times,serif" font-size="14.00" fill="#000000">bootkube.KubeCloudConfig</text>
</g>
<!-- Target Manifest templates -->
<g id="node9" class="node">
<title>Target Manifest templates</title>
<polygon fill="#d3d3d3" stroke="#000000" points="2401.8258,-1923.9472 2194.8258,-1923.9472 2194.8258,-1887.9472 2401.8258,-1887.9472 2401.8258,-1923.9472"/>
<text text-anchor="middle" x="2298.3258" y="-1902.2472" font-family="Times,serif" font-size="14.00" fill="#000000">Target Manifest templates</text>
</g>
<!-- bootkube.KubeCloudConfig&#45;&gt;Target Manifest templates -->
<g id="edge8" class="edge">
<title>bootkube.KubeCloudConfig&#45;&gt;Target Manifest templates</title>
<path fill="none" stroke="#000000" d="M1398.5897,-1882.5048C1604.9805,-1887.8822 1992.6365,-1897.9825 2184.6263,-1902.9848"/>
<polygon fill="#000000" stroke="#000000" points="2184.654,-1906.4866 2194.7418,-1903.2484 2184.8364,-1899.489 2184.654,-1906.4866"/>
</g>
<!-- bootkube.KubeCloudConfig&#45;&gt;manifests.Manifests -->
<g id="edge51" class="edge">
<title>bootkube.KubeCloudConfig&#45;&gt;manifests.Manifests</title>
<path fill="none" stroke="#000000" d="M1382.7447,-1887.9393C1426.6214,-1885.7898 1474.6686,-1876.6259 1512.4775,-1851.9472 1620.1508,-1781.6666 1671.8483,-1624.6803 1689.0263,-1560.7952"/>
<polygon fill="#000000" stroke="#000000" points="1692.4381,-1561.5822 1691.578,-1551.0223 1685.6651,-1559.8137 1692.4381,-1561.5822"/>
</g>
<!-- bootkube.MachineConfigServerTLSSecret -->
<g id="node10" class="node">
<title>bootkube.MachineConfigServerTLSSecret</title>
<ellipse fill="none" stroke="#000000" cx="1262.049" cy="-1824.9472" rx="208.7631" ry="18"/>
<text text-anchor="middle" x="1262.049" y="-1821.2472" font-family="Times,serif" font-size="14.00" fill="#000000">bootkube.MachineConfigServerTLSSecret</text>
</g>
<!-- bootkube.MachineConfigServerTLSSecret&#45;&gt;Target Manifest templates -->
<g id="edge9" class="edge">
<title>bootkube.MachineConfigServerTLSSecret&#45;&gt;Target Manifest templates</title>
<path fill="none" stroke="#000000" d="M1430.3608,-1835.6381C1610.6822,-1847.4884 1905.2063,-1867.9855 2158.8258,-1890.9472 2167.1952,-1891.705 2175.8424,-1892.5309 2184.5404,-1893.3929"/>
<polygon fill="#000000" stroke="#000000" points="2184.4612,-1896.9024 2194.761,-1894.4194 2185.1608,-1889.9375 2184.4612,-1896.9024"/>
</g>
<!-- bootkube.MachineConfigServerTLSSecret&#45;&gt;manifests.Manifests -->
<g id="edge52" class="edge">
<title>bootkube.MachineConfigServerTLSSecret&#45;&gt;manifests.Manifests</title>
<path fill="none" stroke="#000000" d="M1461.374,-1819.5684C1479.3447,-1814.3684 1496.6915,-1807.3346 1512.4775,-1797.9472 1606.6329,-1741.9565 1664.0136,-1616.5785 1685.7903,-1560.7188"/>
<polygon fill="#000000" stroke="#000000" points="1689.1539,-1561.7209 1689.443,-1551.13 1682.6125,-1559.229 1689.1539,-1561.7209"/>
</g>
<!-- bootkube.Pull -->
<g id="node11" class="node">
<title>bootkube.Pull</title>
<ellipse fill="none" stroke="#000000" cx="1262.049" cy="-1770.9472" rx="75.2868" ry="18"/>
<text text-anchor="middle" x="1262.049" y="-1767.2472" font-family="Times,serif" font-size="14.00" fill="#000000">bootkube.Pull</text>
</g>
<!-- bootkube.Pull&#45;&gt;Target Manifest templates -->
<g id="edge10" class="edge">
<title>bootkube.Pull&#45;&gt;Target Manifest templates</title>
<path fill="none" stroke="#000000" d="M1337.2072,-1769.0689C1493.7767,-1767.2341 1864.7709,-1773.767 2158.8258,-1863.9472 2172.3231,-1868.0865 2173.6366,-1873.912 2186.8258,-1878.9472 2192.3688,-1881.0634 2198.1314,-1883.0526 2203.9877,-1884.9158"/>
<polygon fill="#000000" stroke="#000000" points="2203.3237,-1888.3721 2213.9094,-1887.9327 2205.3602,-1881.6748 2203.3237,-1888.3721"/>
</g>
<!-- bootkube.Pull&#45;&gt;manifests.Manifests -->
<g id="edge53" class="edge">
<title>bootkube.Pull&#45;&gt;manifests.Manifests</title>
<path fill="none" stroke="#000000" d="M1333.5076,-1776.7464C1385.9079,-1777.8982 1457.2462,-1772.8009 1512.4775,-1743.9472 1593.7628,-1701.4826 1654.9461,-1606.7294 1681.4101,-1560.028"/>
<polygon fill="#000000" stroke="#000000" points="1684.5779,-1561.5331 1686.3805,-1551.0928 1678.4606,-1558.1302 1684.5779,-1561.5331"/>
</g>
<!-- bootkube.CVOOverrides -->
<g id="node12" class="node">
<title>bootkube.CVOOverrides</title>
<ellipse fill="none" stroke="#000000" cx="1262.049" cy="-1716.9472" rx="125.3778" ry="18"/>
<text text-anchor="middle" x="1262.049" y="-1713.2472" font-family="Times,serif" font-size="14.00" fill="#000000">bootkube.CVOOverrides</text>
</g>
<!-- bootkube.CVOOverrides&#45;&gt;Target Manifest templates -->
<g id="edge11" class="edge">
<title>bootkube.CVOOverrides&#45;&gt;Target Manifest templates</title>
<path fill="none" stroke="#000000" d="M1383.4728,-1712.2219C1600.1355,-1706.3023 2041.6679,-1706.3951 2158.8258,-1798.9472 2188.3855,-1822.2987 2158.9022,-1853.6622 2186.8258,-1878.9472 2187.9793,-1879.9917 2189.1661,-1880.9975 2190.3833,-1881.9661"/>
<polygon fill="#000000" stroke="#000000" points="2188.6151,-1884.9995 2198.8239,-1887.8333 2192.6105,-1879.2517 2188.6151,-1884.9995"/>
</g>
<!-- bootkube.CVOOverrides&#45;&gt;manifests.Manifests -->
<g id="edge54" class="edge">
<title>bootkube.CVOOverrides&#45;&gt;manifests.Manifests</title>
<path fill="none" stroke="#000000" d="M1387.4386,-1718.0534C1428.6215,-1714.6371 1473.7391,-1706.6822 1512.4775,-1689.9472 1581.5023,-1660.1285 1643.8337,-1594.9822 1674.9456,-1558.6789"/>
<polygon fill="#000000" stroke="#000000" points="1677.6816,-1560.8637 1681.4582,-1550.9648 1672.3329,-1556.348 1677.6816,-1560.8637"/>
</g>
<!-- bootkube.HostEtcdServiceEndpointsKubeSystem -->
<g id="node13" class="node">
<title>bootkube.HostEtcdServiceEndpointsKubeSystem</title>
<ellipse fill="none" stroke="#000000" cx="1262.049" cy="-1662.9472" rx="242.357" ry="18"/>
<text text-anchor="middle" x="1262.049" y="-1659.2472" font-family="Times,serif" font-size="14.00" fill="#000000">bootkube.HostEtcdServiceEndpointsKubeSystem</text>
</g>
<!-- bootkube.HostEtcdServiceEndpointsKubeSystem&#45;&gt;Target Manifest templates -->
<g id="edge12" class="edge">
<title>bootkube.HostEtcdServiceEndpointsKubeSystem&#45;&gt;Target Manifest templates</title>
<path fill="none" stroke="#000000" d="M1433.2239,-1650.1948C1663.3176,-1636.971 2055.4935,-1629.4729 2158.8258,-1721.9472 2211.6428,-1769.2143 2138.261,-1827.3211 2186.8258,-1878.9472 2187.6105,-1879.7814 2188.4162,-1880.5917 2189.2416,-1881.3788"/>
<polygon fill="#000000" stroke="#000000" points="2187.2066,-1884.2358 2197.1645,-1887.8539 2191.6363,-1878.8157 2187.2066,-1884.2358"/>
</g>
<!-- bootkube.HostEtcdServiceEndpointsKubeSystem&#45;&gt;manifests.Manifests -->
<g id="edge55" class="edge">
<title>bootkube.HostEtcdServiceEndpointsKubeSystem&#45;&gt;manifests.Manifests</title>
<path fill="none" stroke="#000000" d="M1430.5908,-1649.9614C1458.326,-1645.3986 1486.4851,-1639.2445 1512.4775,-1630.9472 1567.7867,-1613.2916 1625.9788,-1579.1278 1661.5907,-1556.1745"/>
<polygon fill="#000000" stroke="#000000" points="1663.6782,-1558.9917 1670.1425,-1550.5974 1659.8544,-1553.1283 1663.6782,-1558.9917"/>
</g>
<!-- bootkube.KubeSystemConfigmapEtcdServingCA -->
<g id="node14" class="node">
<title>bootkube.KubeSystemConfigmapEtcdServingCA</title>
<ellipse fill="none" stroke="#000000" cx="1262.049" cy="-2202.9472" rx="238.5577" ry="18"/>
<text text-anchor="middle" x="1262.049" y="-2199.2472" font-family="Times,serif" font-size="14.00" fill="#000000">bootkube.KubeSystemConfigmapEtcdServingCA</text>
</g>
<!-- bootkube.KubeSystemConfigmapEtcdServingCA&#45;&gt;Target Manifest templates -->
<g id="edge13" class="edge">
<title>bootkube.KubeSystemConfigmapEtcdServingCA&#45;&gt;Target Manifest templates</title>
<path fill="none" stroke="#000000" d="M1473.8448,-2211.2418C1708.6107,-2215.4825 2066.4318,-2205.5879 2158.8258,-2111.9472 2215.3814,-2054.6286 2132.2814,-1992.1828 2186.8258,-1932.9472 2187.6016,-1932.1048 2188.3988,-1931.2865 2189.216,-1930.4918"/>
<polygon fill="#000000" stroke="#000000" points="2191.6233,-1933.0421 2197.0757,-1923.9579 2187.1484,-1927.6592 2191.6233,-1933.0421"/>
</g>
<!-- bootkube.KubeSystemConfigmapEtcdServingCA&#45;&gt;manifests.Manifests -->
<g id="edge56" class="edge">
<title>bootkube.KubeSystemConfigmapEtcdServingCA&#45;&gt;manifests.Manifests</title>
<path fill="none" stroke="#000000" d="M1484.0559,-2196.1966C1494.3004,-2190.7146 1503.8744,-2184.0336 1512.4775,-2175.9472 1531.6972,-2157.8819 1526.3308,-2084.5982 1532.4775,-2058.9472 1578.86,-1865.3879 1657.8025,-1638.8383 1685.6906,-1560.9164"/>
<polygon fill="#000000" stroke="#000000" points="1689.0452,-1561.9305 1689.1306,-1551.336 1682.457,-1559.5648 1689.0452,-1561.9305"/>
</g>
<!-- bootkube.KubeSystemConfigmapRootCA -->
<g id="node15" class="node">
<title>bootkube.KubeSystemConfigmapRootCA</title>
<ellipse fill="none" stroke="#000000" cx="1262.049" cy="-2148.9472" rx="202.2642" ry="18"/>
<text text-anchor="middle" x="1262.049" y="-2145.2472" font-family="Times,serif" font-size="14.00" fill="#000000">bootkube.KubeSystemConfigmapRootCA</text>
</g>
<!-- bootkube.KubeSystemConfigmapRootCA&#45;&gt;Target Manifest templates -->
<g id="edge14" class="edge">
<title>bootkube.KubeSystemConfigmapRootCA&#45;&gt;Target Manifest templates</title>
<path fill="none" stroke="#000000" d="M1450.6299,-2155.4423C1683.2088,-2159.1986 2059.9849,-2150.0281 2158.8258,-2056.9472 2199.9569,-2018.2131 2147.186,-1973.2062 2186.8258,-1932.9472 2187.6293,-1932.1312 2188.453,-1931.3382 2189.2955,-1930.5676"/>
<polygon fill="#000000" stroke="#000000" points="2191.6626,-1933.1585 2197.3515,-1924.2205 2187.3305,-1927.66 2191.6626,-1933.1585"/>
</g>
<!-- bootkube.KubeSystemConfigmapRootCA&#45;&gt;manifests.Manifests -->
<g id="edge57" class="edge">
<title>bootkube.KubeSystemConfigmapRootCA&#45;&gt;manifests.Manifests</title>
<path fill="none" stroke="#000000" d="M1464.4199,-2148.4542C1481.8264,-2142.2791 1498.2074,-2133.6822 1512.4775,-2121.9472 1513.1958,-2121.3566 1650.8998,-1677.6933 1687.1519,-1560.8642"/>
<polygon fill="#000000" stroke="#000000" points="1690.5297,-1561.7884 1690.1505,-1551.2004 1683.8441,-1559.7139 1690.5297,-1561.7884"/>
</g>
<!-- bootkube.KubeSystemSecretEtcdClient -->
<g id="node16" class="node">
<title>bootkube.KubeSystemSecretEtcdClient</title>
<ellipse fill="none" stroke="#000000" cx="1262.049" cy="-2094.9472" rx="196.0654" ry="18"/>
<text text-anchor="middle" x="1262.049" y="-2091.2472" font-family="Times,serif" font-size="14.00" fill="#000000">bootkube.KubeSystemSecretEtcdClient</text>
</g>
<!-- bootkube.KubeSystemSecretEtcdClient&#45;&gt;Target Manifest templates -->
<g id="edge15" class="edge">
<title>bootkube.KubeSystemSecretEtcdClient&#45;&gt;Target Manifest templates</title>
<path fill="none" stroke="#000000" d="M1451.4437,-2099.7387C1682.1737,-2101.6095 2054.1962,-2090.5757 2158.8258,-2004.9472 2185.3966,-1983.2019 2160.9844,-1955.5544 2186.8258,-1932.9472 2188.1398,-1931.7977 2189.4946,-1930.6952 2190.8857,-1929.6379"/>
<polygon fill="#000000" stroke="#000000" points="2192.8543,-1932.532 2199.2212,-1924.0637 2188.963,-1926.7133 2192.8543,-1932.532"/>
</g>
<!-- bootkube.KubeSystemSecretEtcdClient&#45;&gt;manifests.Manifests -->
<g id="edge58" class="edge">
<title>bootkube.KubeSystemSecretEtcdClient&#45;&gt;manifests.Manifests</title>
<path fill="none" stroke="#000000" d="M1458.1445,-2095.993C1477.8165,-2089.8025 1496.4194,-2080.7749 1512.4775,-2067.9472 1595.9304,-2001.2826 1669.9581,-1661.4944 1690.3021,-1560.9865"/>
<polygon fill="#000000" stroke="#000000" points="1693.7746,-1561.4707 1692.3099,-1550.9776 1686.9113,-1560.0938 1693.7746,-1561.4707"/>
</g>
<!-- bootkube.OpenshiftMachineConfigOperator -->
<g id="node17" class="node">
<title>bootkube.OpenshiftMachineConfigOperator</title>
<ellipse fill="none" stroke="#000000" cx="1262.049" cy="-2040.9472" rx="215.5619" ry="18"/>
<text text-anchor="middle" x="1262.049" y="-2037.2472" font-family="Times,serif" font-size="14.00" fill="#000000">bootkube.OpenshiftMachineConfigOperator</text>
</g>
<!-- bootkube.OpenshiftMachineConfigOperator&#45;&gt;Target Manifest templates -->
<g id="edge16" class="edge">
<title>bootkube.OpenshiftMachineConfigOperator&#45;&gt;Target Manifest templates</title>
<path fill="none" stroke="#000000" d="M1428.9327,-2052.3711C1614.1192,-2058.9081 1918.5169,-2051.1493 2158.8258,-1954.9472 2173.5185,-1949.0654 2172.5874,-1939.8564 2186.8258,-1932.9472 2190.866,-1930.9868 2195.0594,-1929.1622 2199.3477,-1927.4648"/>
<polygon fill="#000000" stroke="#000000" points="2200.6973,-1930.6975 2208.8645,-1923.9486 2198.2713,-1924.1313 2200.6973,-1930.6975"/>
</g>
<!-- bootkube.OpenshiftMachineConfigOperator&#45;&gt;manifests.Manifests -->
<g id="edge59" class="edge">
<title>bootkube.OpenshiftMachineConfigOperator&#45;&gt;manifests.Manifests</title>
<path fill="none" stroke="#000000" d="M1471.7021,-2036.5825C1486.2939,-2030.9032 1500.0989,-2023.4953 1512.4775,-2013.9472 1661.9566,-1898.648 1689.579,-1646.1223 1694.6685,-1561.3433"/>
<polygon fill="#000000" stroke="#000000" points="1698.1725,-1561.3615 1695.2163,-1551.1875 1691.1827,-1560.9845 1698.1725,-1561.3615"/>
</g>
<!-- bootkube.EtcdServiceKubeSystem -->
<g id="node18" class="node">
<title>bootkube.EtcdServiceKubeSystem</title>
<ellipse fill="none" stroke="#000000" cx="1262.049" cy="-1986.9472" rx="172.7694" ry="18"/>
<text text-anchor="middle" x="1262.049" y="-1983.2472" font-family="Times,serif" font-size="14.00" fill="#000000">bootkube.EtcdServiceKubeSystem</text>
</g>
<!-- bootkube.EtcdServiceKubeSystem&#45;&gt;Target Manifest templates -->
<g id="edge17" class="edge">
<title>bootkube.EtcdServiceKubeSystem&#45;&gt;Target Manifest templates</title>
<path fill="none" stroke="#000000" d="M1426.1233,-1981.2036C1606.2698,-1973.7643 1903.8457,-1958.1403 2158.8258,-1928.9472 2167.6907,-1927.9323 2176.8507,-1926.7418 2186.0434,-1925.4461"/>
<polygon fill="#000000" stroke="#000000" points="2186.6234,-1928.8987 2196.0189,-1924.0022 2185.6206,-1921.9709 2186.6234,-1928.8987"/>
</g>
<!-- bootkube.EtcdServiceKubeSystem&#45;&gt;manifests.Manifests -->
<g id="edge60" class="edge">
<title>bootkube.EtcdServiceKubeSystem&#45;&gt;manifests.Manifests</title>
<path fill="none" stroke="#000000" d="M1410.5799,-1996.1705C1446.6985,-1991.936 1483.2857,-1981.5153 1512.4775,-1959.9472 1647.8864,-1859.9018 1684.3602,-1639.22 1693.2171,-1561.0622"/>
<polygon fill="#000000" stroke="#000000" points="1696.7092,-1561.3222 1694.291,-1551.0071 1689.7488,-1560.5788 1696.7092,-1561.3222"/>
</g>
<!-- bootkube.HostEtcdServiceKubeSystem -->
<g id="node19" class="node">
<title>bootkube.HostEtcdServiceKubeSystem</title>
<ellipse fill="none" stroke="#000000" cx="1262.049" cy="-1932.9472" rx="194.9654" ry="18"/>
<text text-anchor="middle" x="1262.049" y="-1929.2472" font-family="Times,serif" font-size="14.00" fill="#000000">bootkube.HostEtcdServiceKubeSystem</text>
</g>
<!-- bootkube.HostEtcdServiceKubeSystem&#45;&gt;Target Manifest templates -->
<g id="edge18" class="edge">
<title>bootkube.HostEtcdServiceKubeSystem&#45;&gt;Target Manifest templates</title>
<path fill="none" stroke="#000000" d="M1453.6349,-1929.5457C1635.2263,-1926.0646 1915.6269,-1920.0241 2158.8258,-1911.9472 2167.1844,-1911.6696 2175.8237,-1911.3579 2184.5161,-1911.0262"/>
<polygon fill="#000000" stroke="#000000" points="2184.8749,-1914.515 2194.7312,-1910.6286 2184.6026,-1907.5203 2184.8749,-1914.515"/>
</g>
<!-- bootkube.HostEtcdServiceKubeSystem&#45;&gt;manifests.Manifests -->
<g id="edge61" class="edge">
<title>bootkube.HostEtcdServiceKubeSystem&#45;&gt;manifests.Manifests</title>
<path fill="none" stroke="#000000" d="M1456.9036,-1931.816C1476.7462,-1926.0115 1495.7291,-1917.6699 1512.4775,-1905.9472 1633.6497,-1821.1352 1678.317,-1633.006 1691.3087,-1561.3842"/>
<polygon fill="#000000" stroke="#000000" points="1694.7963,-1561.7574 1693.0651,-1551.305 1687.9002,-1560.5557 1694.7963,-1561.7574"/>
</g>
<!-- openshift.BindingDiscovery -->
<g id="node20" class="node">
<title>openshift.BindingDiscovery</title>
<ellipse fill="none" stroke="#000000" cx="787.3379" cy="-936.9472" rx="139.9756" ry="18"/>
<text text-anchor="middle" x="787.3379" y="-933.2472" font-family="Times,serif" font-size="14.00" fill="#000000">openshift.BindingDiscovery</text>
</g>
<!-- openshift.BindingDiscovery&#45;&gt;Target Manifest templates -->
<g id="edge19" class="edge">
<title>openshift.BindingDiscovery&#45;&gt;Target Manifest templates</title>
<path fill="none" stroke="#000000" d="M921.0456,-931.6857C1237.9503,-922.6072 2018.6972,-921.2983 2158.8258,-1120.9472 2207.2438,-1189.931 2133.4998,-1813.6832 2186.8258,-1878.9472 2187.322,-1879.5545 2187.8294,-1880.1495 2188.3473,-1880.7325"/>
<polygon fill="#000000" stroke="#000000" points="2185.9789,-1883.3099 2195.6438,-1887.6504 2190.7951,-1878.2302 2185.9789,-1883.3099"/>
</g>
<!-- openshift.BindingDiscovery&#45;&gt;manifests.Openshift -->
<g id="edge86" class="edge">
<title>openshift.BindingDiscovery&#45;&gt;manifests.Openshift</title>
<path fill="none" stroke="#000000" d="M925.3114,-939.9373C1072.1821,-945.2501 1310.7471,-960.0001 1512.4775,-1000.9472 1671.1596,-1033.1564 1749.4098,-993.8904 1859.1499,-1112.9472 1885.4531,-1141.4835 1864.1104,-1162.1703 1879.1499,-1197.9472 1912.1491,-1276.4475 1971.2085,-1358.3994 2002.3946,-1398.9786"/>
<polygon fill="#000000" stroke="#000000" points="1999.7144,-1401.2339 2008.6069,-1406.9936 2005.2471,-1396.9456 1999.7144,-1401.2339"/>
</g>
<!-- openshift.CloudCredsSecret -->
<g id="node21" class="node">
<title>openshift.CloudCredsSecret</title>
<ellipse fill="none" stroke="#000000" cx="787.3379" cy="-882.9472" rx="142.9746" ry="18"/>
<text text-anchor="middle" x="787.3379" y="-879.2472" font-family="Times,serif" font-size="14.00" fill="#000000">openshift.CloudCredsSecret</text>
</g>
<!-- openshift.CloudCredsSecret&#45;&gt;Target Manifest templates -->
<g id="edge20" class="edge">
<title>openshift.CloudCredsSecret&#45;&gt;Target Manifest templates</title>
<path fill="none" stroke="#000000" d="M903.1359,-872.3864C1203.6799,-847.844 1996.5344,-802.3266 2158.8258,-987.9472 2224.0212,-1062.5143 2124.3664,-1802.074 2186.8258,-1878.9472 2187.3204,-1879.5559 2187.8261,-1880.1522 2188.3425,-1880.7364"/>
<polygon fill="#000000" stroke="#000000" points="2185.9661,-1883.3066 2195.6213,-1887.6688 2190.7938,-1878.2377 2185.9661,-1883.3066"/>
</g>
<!-- openshift.CloudCredsSecret&#45;&gt;manifests.Openshift -->
<g id="edge87" class="edge">
<title>openshift.CloudCredsSecret&#45;&gt;manifests.Openshift</title>
<path fill="none" stroke="#000000" d="M847.1705,-866.5272C1030.5712,-820.2312 1588.7888,-710.0927 1859.1499,-1000.9472 1889.1085,-1033.1766 1864.767,-1156.3615 1879.1499,-1197.9472 1906.9127,-1278.2182 1967.9302,-1359.1191 2000.8651,-1399.1599"/>
<polygon fill="#000000" stroke="#000000" points="1998.3587,-1401.6198 2007.4447,-1407.0691 2003.74,-1397.143 1998.3587,-1401.6198"/>
</g>
<!-- openshift.KubeadminPasswordSecret -->
<g id="node22" class="node">
<title>openshift.KubeadminPasswordSecret</title>
<ellipse fill="none" stroke="#000000" cx="787.3379" cy="-1098.9472" rx="184.6673" ry="18"/>
<text text-anchor="middle" x="787.3379" y="-1095.2472" font-family="Times,serif" font-size="14.00" fill="#000000">openshift.KubeadminPasswordSecret</text>
</g>
<!-- openshift.KubeadminPasswordSecret&#45;&gt;Target Manifest templates -->
<g id="edge21" class="edge">
<title>openshift.KubeadminPasswordSecret&#45;&gt;Target Manifest templates</title>
<path fill="none" stroke="#000000" d="M963.9595,-1104.4165C974.2527,-1109.9411 983.6416,-1117.0052 991.6205,-1125.9472 1033.4235,-1172.7959 966.8319,-2211.9443 1011.6205,-2255.9472 1102.8146,-2345.5416 2070.8653,-2260.7182 2158.8258,-2167.9472 2231.1963,-2091.6189 2117.004,-2011.6137 2186.8258,-1932.9472 2187.4621,-1932.2304 2188.1139,-1931.5309 2188.7803,-1930.8485"/>
<polygon fill="#000000" stroke="#000000" points="2191.2055,-1933.3775 2196.4453,-1924.1691 2186.6067,-1928.1001 2191.2055,-1933.3775"/>
</g>
<!-- openshift.KubeadminPasswordSecret&#45;&gt;manifests.Openshift -->
<g id="edge88" class="edge">
<title>openshift.KubeadminPasswordSecret&#45;&gt;manifests.Openshift</title>
<path fill="none" stroke="#000000" d="M910.6956,-1112.3436C937.4956,-1116.0631 965.6049,-1120.5858 991.6205,-1125.9472 1370.8465,-1204.1004 1813.5841,-1352.2426 1967.1782,-1405.3717"/>
<polygon fill="#000000" stroke="#000000" points="1966.2785,-1408.7641 1976.8733,-1408.732 1968.571,-1402.1501 1966.2785,-1408.7641"/>
</g>
<!-- openshift.RoleCloudCredsSecretReader -->
<g id="node23" class="node">
<title>openshift.RoleCloudCredsSecretReader</title>
<ellipse fill="none" stroke="#000000" cx="787.3379" cy="-990.9472" rx="196.0654" ry="18"/>
<text text-anchor="middle" x="787.3379" y="-987.2472" font-family="Times,serif" font-size="14.00" fill="#000000">openshift.RoleCloudCredsSecretReader</text>
</g>
<!-- openshift.RoleCloudCredsSecretReader&#45;&gt;Target Manifest templates -->
<g id="edge22" class="edge">
<title>openshift.RoleCloudCredsSecretReader&#45;&gt;Target Manifest templates</title>
<path fill="none" stroke="#000000" d="M914.2493,-977.1773C1123.9305,-960.3445 1550.1977,-951.5378 1859.1499,-1112.9472 2007.482,-1190.442 2080.6255,-1192.9859 2158.8258,-1340.9472 2186.7961,-1393.8691 2148.6033,-1832.881 2186.8258,-1878.9472 2187.3266,-1879.5508 2187.8384,-1880.1421 2188.3606,-1880.7215"/>
<polygon fill="#000000" stroke="#000000" points="2186.0138,-1883.3189 2195.7054,-1887.5997 2190.7987,-1878.2096 2186.0138,-1883.3189"/>
</g>
<!-- openshift.RoleCloudCredsSecretReader&#45;&gt;manifests.Openshift -->
<g id="edge89" class="edge">
<title>openshift.RoleCloudCredsSecretReader&#45;&gt;manifests.Openshift</title>
<path fill="none" stroke="#000000" d="M955.8781,-1000.1924C1179.0977,-1019.508 1577.3725,-1079.1185 1859.1499,-1262.9472 1918.3895,-1301.5945 1973.9593,-1364.1421 2002.666,-1399.1348"/>
<polygon fill="#000000" stroke="#000000" points="2000.0224,-1401.4316 2009.0402,-1406.9929 2005.4587,-1397.0218 2000.0224,-1401.4316"/>
</g>
<!-- Target Manifests -->
<g id="node25" class="node">
<title>Target Manifests</title>
<polygon fill="#d3d3d3" stroke="#000000" points="2367.8258,-1869.9472 2228.8258,-1869.9472 2228.8258,-1833.9472 2367.8258,-1833.9472 2367.8258,-1869.9472"/>
<text text-anchor="middle" x="2298.3258" y="-1848.2472" font-family="Times,serif" font-size="14.00" fill="#000000">Target Manifests</text>
</g>
<!-- manifests.Manifests&#45;&gt;Target Manifests -->
<g id="edge23" class="edge">
<title>manifests.Manifests&#45;&gt;Target Manifests</title>
<path fill="none" stroke="#000000" d="M1788.5398,-1541.3921C1887.76,-1554.2527 2046.0669,-1586.1287 2158.8258,-1663.9472 2219.8321,-1706.0496 2264.7162,-1783.5803 2285.4865,-1824.6913"/>
<polygon fill="#000000" stroke="#000000" points="2282.4411,-1826.4287 2290.0128,-1833.8395 2288.7151,-1823.3244 2282.4411,-1826.4287"/>
</g>
<!-- manifests.Manifests&#45;&gt;bootstrap.Bootstrap -->
<g id="edge121" class="edge">
<title>manifests.Manifests&#45;&gt;bootstrap.Bootstrap</title>
<path fill="none" stroke="#000000" d="M1755.6612,-1518.0474C1791.189,-1506.0732 1834.0627,-1485.5559 1859.1499,-1451.9472 1860.9302,-1449.5623 1990.907,-695.2377 2018.0527,-537.6101"/>
<polygon fill="#000000" stroke="#000000" points="2021.5784,-537.7597 2019.8263,-527.3107 2014.6799,-536.5717 2021.5784,-537.7597"/>
</g>
<!-- installconfig.ClusterID -->
<g id="node26" class="node">
<title>installconfig.ClusterID</title>
<ellipse fill="none" stroke="#000000" cx="132.9896" cy="-2789.9472" rx="116.9792" ry="18"/>
<text text-anchor="middle" x="132.9896" y="-2786.2472" font-family="Times,serif" font-size="14.00" fill="#000000">installconfig.ClusterID</text>
</g>
<!-- installconfig.ClusterID&#45;&gt;manifests.Manifests -->
<g id="edge24" class="edge">
<title>installconfig.ClusterID&#45;&gt;manifests.Manifests</title>
<path fill="none" stroke="#000000" d="M136.8385,-2771.7494C168.3746,-2627.8808 398.7236,-1671.0541 1011.6205,-1343.9472 1109.8126,-1291.5415 1426.9095,-1272.7703 1512.4775,-1343.9472 1550.0071,-1375.1649 1503.0604,-1412.9903 1532.4775,-1451.9472 1555.5668,-1482.5243 1593.3409,-1502.2953 1626.7497,-1514.6428"/>
<polygon fill="#000000" stroke="#000000" points="1625.9026,-1518.0554 1636.4974,-1518.0856 1628.2339,-1511.455 1625.9026,-1518.0554"/>
</g>
<!-- installconfig.ClusterID&#45;&gt;machines.Worker -->
<g id="edge68" class="edge">
<title>installconfig.ClusterID&#45;&gt;machines.Worker</title>
<path fill="none" stroke="#000000" d="M140.0936,-2771.7013C157.4262,-2729.3809 205.8155,-2623.5366 277.9792,-2562.9472 390.4591,-2468.5081 439.9719,-2469.0769 583.0554,-2435.9472 950.4665,-2350.8765 1403.8297,-2365.8186 1598.994,-2377.7666"/>
<polygon fill="#000000" stroke="#000000" points="1599.0215,-2381.2751 1609.22,-2378.4045 1599.4573,-2374.2886 1599.0215,-2381.2751"/>
</g>
<!-- installconfig.ClusterID&#45;&gt;machines.Master -->
<g id="edge78" class="edge">
<title>installconfig.ClusterID&#45;&gt;machines.Master</title>
<path fill="none" stroke="#000000" d="M157.4392,-2772.2771C185.5195,-2752.5447 233.4609,-2720.5481 277.9792,-2698.9472 589.4787,-2547.8038 670.4685,-2496.0363 1011.6205,-2436.9472 1222.6494,-2400.3961 1475.8133,-2416.3235 1607.0794,-2428.9386"/>
<polygon fill="#000000" stroke="#000000" points="1606.7945,-2432.4273 1617.0876,-2429.9168 1607.4755,-2425.4605 1606.7945,-2432.4273"/>
</g>
<!-- installconfig.ClusterID&#45;&gt;cluster.Metadata -->
<g id="edge124" class="edge">
<title>installconfig.ClusterID&#45;&gt;cluster.Metadata</title>
<path fill="none" stroke="#000000" d="M176.1071,-2806.7404C201.1568,-2818.5976 231.3547,-2836.8633 249.9792,-2861.9472 279.027,-2901.0694 239.3742,-2938.2156 277.9792,-2967.9472 375.5436,-3043.0863 431.997,-2972.5645 555.0554,-2967.9472 1135.8785,-2946.1541 1324.1284,-3097.0647 1859.1499,-2869.9472 1920.9008,-2843.7339 1975.2143,-2784.5108 2003.1086,-2750.0874"/>
<polygon fill="#000000" stroke="#000000" points="2006.1316,-2751.9095 2009.6195,-2741.9052 2000.6541,-2747.5508 2006.1316,-2751.9095"/>
</g>
<!-- installconfig.ClusterID&#45;&gt;cluster.TerraformVariables -->
<g id="edge127" class="edge">
<title>installconfig.ClusterID&#45;&gt;cluster.TerraformVariables</title>
<path fill="none" stroke="#000000" d="M174.0305,-2806.9344C198.9376,-2819.0579 229.7234,-2837.5381 249.9792,-2861.9472 272.1701,-2888.6881 249.3441,-2915.2613 277.9792,-2934.9472 379.457,-3004.7107 432.0422,-2940.6419 555.0554,-2934.9472 627.7384,-2931.5825 1805.7634,-2863.3843 1859.1499,-2813.9472 1897.8571,-2778.1036 1842.1513,-2734.5519 1879.1499,-2696.9472 1884.1784,-2691.8364 1889.846,-2687.5242 1895.9508,-2683.8967"/>
<polygon fill="#000000" stroke="#000000" points="1897.9509,-2686.8001 1905.1842,-2679.0587 1894.702,-2680.5997 1897.9509,-2686.8001"/>
</g>
<!-- installconfig.ClusterID&#45;&gt;cluster.Cluster -->
<g id="edge137" class="edge">
<title>installconfig.ClusterID&#45;&gt;cluster.Cluster</title>
<path fill="none" stroke="#000000" d="M177.1993,-2806.64C202.3184,-2818.3714 232.2093,-2836.5414 249.9792,-2861.9472 285.5995,-2912.8738 231.0516,-2958.2027 277.9792,-2998.9472 449.2363,-3147.6398 560.5374,-3029.9472 787.3379,-3029.9472 787.3379,-3029.9472 787.3379,-3029.9472 1695.8137,-3029.9472 1918.9302,-3029.9472 1973.4526,-2960.1155 2158.8258,-2835.9472 2206.8601,-2803.7725 2252.3041,-2753.4541 2277.621,-2723.0005"/>
<polygon fill="#000000" stroke="#000000" points="2280.5739,-2724.9196 2284.2134,-2714.9694 2275.1633,-2720.4782 2280.5739,-2724.9196"/>
</g>
<!-- manifests.Ingress&#45;&gt;manifests.Manifests -->
<g id="edge26" class="edge">
<title>manifests.Ingress&#45;&gt;manifests.Manifests</title>
<path fill="none" stroke="#000000" d="M1345.906,-1487.1672C1394.5911,-1492.1446 1457.0621,-1498.8821 1512.4775,-1505.9472 1543.731,-1509.9319 1577.9017,-1514.819 1608.1843,-1519.3351"/>
<polygon fill="#000000" stroke="#000000" points="1607.8868,-1522.8295 1618.2952,-1520.8505 1608.9245,-1515.9068 1607.8868,-1522.8295"/>
</g>
<!-- manifests.DNS&#45;&gt;manifests.Manifests -->
<g id="edge28" class="edge">
<title>manifests.DNS&#45;&gt;manifests.Manifests</title>
<path fill="none" stroke="#000000" d="M1343.3823,-1532.9472C1410.2725,-1532.9472 1505.8752,-1532.9472 1580.6357,-1532.9472"/>
<polygon fill="#000000" stroke="#000000" points="1581.0413,-1536.4473 1591.0412,-1532.9472 1581.0412,-1529.4473 1581.0413,-1536.4473"/>
</g>
<!-- manifests.Infrastructure&#45;&gt;manifests.Manifests -->
<g id="edge30" class="edge">
<title>manifests.Infrastructure&#45;&gt;manifests.Manifests</title>
<path fill="none" stroke="#000000" d="M1382.538,-1430.3765C1424.2074,-1434.237 1470.871,-1440.8027 1512.4775,-1451.9472 1563.8513,-1465.708 1619.2319,-1491.9102 1655.5225,-1510.7927"/>
<polygon fill="#000000" stroke="#000000" points="1654.2985,-1514.1037 1664.7776,-1515.6654 1657.5595,-1507.9097 1654.2985,-1514.1037"/>
</g>
<!-- openshift.InfrastructureCRD -->
<g id="node30" class="node">
<title>openshift.InfrastructureCRD</title>
<ellipse fill="none" stroke="#000000" cx="787.3379" cy="-1152.9472" rx="145.6742" ry="18"/>
<text text-anchor="middle" x="787.3379" y="-1149.2472" font-family="Times,serif" font-size="14.00" fill="#000000">openshift.InfrastructureCRD</text>
</g>
<!-- openshift.InfrastructureCRD&#45;&gt;manifests.Infrastructure -->
<g id="edge32" class="edge">
<title>openshift.InfrastructureCRD&#45;&gt;manifests.Infrastructure</title>
<path fill="none" stroke="#000000" d="M797.5329,-1171.1963C824.9887,-1218.3528 905.6266,-1344.3113 1011.6205,-1397.9472 1047.4104,-1416.0579 1089.7037,-1424.6566 1129.2452,-1428.2346"/>
<polygon fill="#000000" stroke="#000000" points="1128.9845,-1431.7248 1139.2332,-1429.0388 1129.5464,-1424.7474 1128.9845,-1431.7248"/>
</g>
<!-- manifests.Networking&#45;&gt;manifests.Manifests -->
<g id="edge33" class="edge">
<title>manifests.Networking&#45;&gt;manifests.Manifests</title>
<path fill="none" stroke="#000000" d="M1347.5605,-1358.9352C1400.2975,-1356.2729 1466.4216,-1362.074 1512.4775,-1397.9472 1532.6685,-1413.6741 1515.3613,-1432.9197 1532.4775,-1451.9472 1558.7764,-1481.1829 1598.0177,-1501.1192 1631.4458,-1513.8966"/>
<polygon fill="#000000" stroke="#000000" points="1630.5637,-1517.3015 1641.1571,-1517.4733 1632.983,-1510.7329 1630.5637,-1517.3015"/>
</g>
<!-- manifests.Networking&#45;&gt;manifests.ClusterK8sIO -->
<g id="edge66" class="edge">
<title>manifests.Networking&#45;&gt;manifests.ClusterK8sIO</title>
<path fill="none" stroke="#000000" d="M1359.0745,-1380.5222C1405.5391,-1385.3338 1461.9421,-1391.5043 1512.4775,-1397.9472 1541.454,-1401.6416 1572.9381,-1406.1117 1601.5062,-1410.3426"/>
<polygon fill="#000000" stroke="#000000" points="1601.0742,-1413.8168 1611.4806,-1411.8275 1602.105,-1406.8931 1601.0742,-1413.8168"/>
</g>
<!-- openshift.NetworkCRDs -->
<g id="node32" class="node">
<title>openshift.NetworkCRDs</title>
<ellipse fill="none" stroke="#000000" cx="787.3379" cy="-1044.9472" rx="124.2781" ry="18"/>
<text text-anchor="middle" x="787.3379" y="-1041.2472" font-family="Times,serif" font-size="14.00" fill="#000000">openshift.NetworkCRDs</text>
</g>
<!-- openshift.NetworkCRDs&#45;&gt;manifests.Networking -->
<g id="edge35" class="edge">
<title>openshift.NetworkCRDs&#45;&gt;manifests.Networking</title>
<path fill="none" stroke="#000000" d="M887.1653,-1034.2231C924.6352,-1035.7433 964.6362,-1044.9243 991.6205,-1071.9472 1040.0783,-1120.4741 973.6672,-1167.8285 1011.6205,-1224.9472 1055.285,-1290.661 1139.3867,-1330.6431 1198.0235,-1351.765"/>
<polygon fill="#000000" stroke="#000000" points="1196.9735,-1355.1058 1207.5683,-1355.1185 1199.2938,-1348.5016 1196.9735,-1355.1058"/>
</g>
<!-- tls.RootCA -->
<g id="node33" class="node">
<title>tls.RootCA</title>
<ellipse fill="none" stroke="#000000" cx="420.5173" cy="-670.9472" rx="61.1893" ry="18"/>
<text text-anchor="middle" x="420.5173" y="-667.2472" font-family="Times,serif" font-size="14.00" fill="#000000">tls.RootCA</text>
</g>
<!-- tls.RootCA&#45;&gt;manifests.Manifests -->
<g id="edge36" class="edge">
<title>tls.RootCA&#45;&gt;manifests.Manifests</title>
<path fill="none" stroke="#000000" d="M423.3068,-688.9381C436.8952,-774.1489 498.9333,-1135.9261 583.0554,-1205.9472 902.5587,-1471.8938 1214.3849,-1021.2046 1512.4775,-1310.9472 1557.8642,-1355.0626 1495.4103,-1400.6428 1532.4775,-1451.9472 1554.7477,-1482.7712 1592.0886,-1502.5034 1625.45,-1514.7659"/>
<polygon fill="#000000" stroke="#000000" points="1624.6001,-1518.1767 1635.1949,-1518.1824 1626.9161,-1511.5709 1624.6001,-1518.1767"/>
</g>
<!-- tls.EtcdCA -->
<g id="node34" class="node">
<title>tls.EtcdCA</title>
<ellipse fill="none" stroke="#000000" cx="787.3379" cy="-616.9472" rx="61.99" ry="18"/>
<text text-anchor="middle" x="787.3379" y="-613.2472" font-family="Times,serif" font-size="14.00" fill="#000000">tls.EtcdCA</text>
</g>
<!-- tls.RootCA&#45;&gt;tls.EtcdCA -->
<g id="edge38" class="edge">
<title>tls.RootCA&#45;&gt;tls.EtcdCA</title>
<path fill="none" stroke="#000000" d="M473.152,-661.749C504.9357,-656.308 546.2753,-649.4311 583.0554,-643.9472 628.6248,-637.1528 680.0462,-630.3612 719.8981,-625.2892"/>
<polygon fill="#000000" stroke="#000000" points="720.5504,-628.7346 730.0309,-624.0049 719.6701,-621.7902 720.5504,-628.7346"/>
</g>
<!-- tls.KubeCA -->
<g id="node36" class="node">
<title>tls.KubeCA</title>
<ellipse fill="none" stroke="#000000" cx="787.3379" cy="-562.9472" rx="63.8893" ry="18"/>
<text text-anchor="middle" x="787.3379" y="-559.2472" font-family="Times,serif" font-size="14.00" fill="#000000">tls.KubeCA</text>
</g>
<!-- tls.RootCA&#45;&gt;tls.KubeCA -->
<g id="edge41" class="edge">
<title>tls.RootCA&#45;&gt;tls.KubeCA</title>
<path fill="none" stroke="#000000" d="M446.4206,-654.6411C477.5887,-635.8415 532.1033,-605.5337 583.0554,-589.9472 625.3824,-576.9992 674.5143,-570.2601 713.9858,-566.7528"/>
<polygon fill="#000000" stroke="#000000" points="714.3903,-570.2312 724.0631,-565.9083 713.8058,-563.2557 714.3903,-570.2312"/>
</g>
<!-- tls.RootCA&#45;&gt;tls.MCSCertKey -->
<g id="edge47" class="edge">
<title>tls.RootCA&#45;&gt;tls.MCSCertKey</title>
<path fill="none" stroke="#000000" d="M481.9148,-670.9472C538.8527,-670.9472 624.5018,-670.9472 690.6248,-670.9472"/>
<polygon fill="#000000" stroke="#000000" points="690.6471,-674.4473 700.6471,-670.9472 690.6471,-667.4473 690.6471,-674.4473"/>
</g>
<!-- tls.RootCA&#45;&gt;machine.Worker -->
<g id="edge76" class="edge">
<title>tls.RootCA&#45;&gt;machine.Worker</title>
<path fill="none" stroke="#000000" d="M423.4465,-689.0056C436.1765,-765.2974 490.2631,-1067.984 583.0554,-1300.9472 721.7865,-1649.244 883.1462,-1680.0736 991.6205,-2038.9472 1023.2307,-2143.5254 962.7787,-2186.2217 1011.6205,-2283.9472 1058.4662,-2377.6787 1163.5986,-2449.5254 1221.6416,-2483.8023"/>
<polygon fill="#000000" stroke="#000000" points="1220.1332,-2486.974 1230.5367,-2488.9786 1223.654,-2480.9238 1220.1332,-2486.974"/>
</g>
<!-- tls.RootCA&#45;&gt;machine.Master -->
<g id="edge84" class="edge">
<title>tls.RootCA&#45;&gt;machine.Master</title>
<path fill="none" stroke="#000000" d="M421.3484,-689.0931C426.4115,-790.4059 457.2133,-1295.4878 583.0554,-1683.9472 713.3193,-2086.0565 664.0505,-2292.4152 1011.6205,-2532.9472 1059.8271,-2566.308 1126.222,-2572.1325 1178.5352,-2570.1122"/>
<polygon fill="#000000" stroke="#000000" points="1178.9837,-2573.5946 1188.8005,-2569.6094 1178.6412,-2566.6029 1178.9837,-2573.5946"/>
</g>
<!-- tls.RootCA&#45;&gt;kubeconfig.Admin -->
<g id="edge91" class="edge">
<title>tls.RootCA&#45;&gt;kubeconfig.Admin</title>
<path fill="none" stroke="#000000" d="M455.8999,-685.7546C488.3206,-698.4747 537.9845,-715.8509 583.0554,-722.9472 956.1454,-781.6893 1408.3608,-752.4608 1601.2602,-735.3656"/>
<polygon fill="#000000" stroke="#000000" points="1601.716,-738.8388 1611.3637,-734.4602 1601.0912,-731.8668 1601.716,-738.8388"/>
</g>
<!-- tls.RootCA&#45;&gt;bootstrap.Bootstrap -->
<g id="edge99" class="edge">
<title>tls.RootCA&#45;&gt;bootstrap.Bootstrap</title>
<path fill="none" stroke="#000000" d="M430.6438,-653.0531C453.2902,-612.9498 509.6104,-512.7393 555.0554,-427.9472 567.8261,-404.1193 563.3645,-392.4712 583.0554,-373.9472 734.8111,-231.1846 807.7864,-227.1055 1011.6205,-183.9472 1195.8756,-144.9345 1698.7759,-85.1946 1859.1499,-183.9472 1967.9663,-250.9525 2007.1043,-414.9237 2018.7433,-480.8353"/>
<polygon fill="#000000" stroke="#000000" points="2015.3258,-481.6184 2020.4387,-490.8979 2022.2285,-480.4553 2015.3258,-481.6184"/>
</g>
<!-- tls.AggregatorCA -->
<g id="node53" class="node">
<title>tls.AggregatorCA</title>
<ellipse fill="none" stroke="#000000" cx="787.3379" cy="-454.9472" rx="92.8835" ry="18"/>
<text text-anchor="middle" x="787.3379" y="-451.2472" font-family="Times,serif" font-size="14.00" fill="#000000">tls.AggregatorCA</text>
</g>
<!-- tls.RootCA&#45;&gt;tls.AggregatorCA -->
<g id="edge103" class="edge">
<title>tls.RootCA&#45;&gt;tls.AggregatorCA</title>
<path fill="none" stroke="#000000" d="M437.6202,-653.5428C465.796,-625.6499 524.6859,-570.5638 583.0554,-535.9472 628.7209,-508.8648 685.1038,-487.291 727.0584,-473.2397"/>
<polygon fill="#000000" stroke="#000000" points="728.1891,-476.5522 736.588,-470.094 725.9948,-469.905 728.1891,-476.5522"/>
</g>
<!-- tls.JournalCertKey -->
<g id="node57" class="node">
<title>tls.JournalCertKey</title>
<ellipse fill="none" stroke="#000000" cx="787.3379" cy="-400.9472" rx="96.6831" ry="18"/>
<text text-anchor="middle" x="787.3379" y="-397.2472" font-family="Times,serif" font-size="14.00" fill="#000000">tls.JournalCertKey</text>
</g>
<!-- tls.RootCA&#45;&gt;tls.JournalCertKey -->
<g id="edge115" class="edge">
<title>tls.RootCA&#45;&gt;tls.JournalCertKey</title>
<path fill="none" stroke="#000000" d="M426.6568,-652.7398C443.3741,-606.2627 494.483,-483.0265 583.0554,-427.9472 612.3073,-409.7567 648.4547,-401.4304 682.1721,-398.1213"/>
<polygon fill="#000000" stroke="#000000" points="682.8757,-401.5747 692.5477,-397.2501 682.2899,-394.5992 682.8757,-401.5747"/>
</g>
<!-- tls.RootCA&#45;&gt;kubeconfig.Kubelet -->
<g id="edge118" class="edge">
<title>tls.RootCA&#45;&gt;kubeconfig.Kubelet</title>
<path fill="none" stroke="#000000" d="M470.4079,-681.421C502.4306,-687.6001 544.9968,-694.8077 583.0554,-697.9472 994.7335,-731.9075 1100.4253,-727.0196 1512.4775,-697.9472 1545.6096,-695.6096 1581.8606,-690.9239 1613.3164,-686.1662"/>
<polygon fill="#000000" stroke="#000000" points="1613.9996,-689.6023 1623.3508,-684.6218 1612.9347,-682.6838 1613.9996,-689.6023"/>
</g>
<!-- tls.EtcdCA&#45;&gt;manifests.Manifests -->
<g id="edge37" class="edge">
<title>tls.EtcdCA&#45;&gt;manifests.Manifests</title>
<path fill="none" stroke="#000000" d="M839.6269,-607.2613C886.6282,-601.8859 953.8957,-603.0645 991.6205,-643.9472 1021.1211,-675.9172 981.2415,-1003.8109 1011.6205,-1034.9472 1089.5713,-1114.841 1434.4622,-993.1164 1512.4775,-1072.9472 1541.9511,-1103.1067 1509.312,-1416.7103 1532.4775,-1451.9472 1553.1301,-1483.3618 1589.779,-1503.0622 1623.1349,-1515.1559"/>
<polygon fill="#000000" stroke="#000000" points="1622.3033,-1518.5713 1632.8981,-1518.5189 1624.5832,-1511.9529 1622.3033,-1518.5713"/>
</g>
<!-- tls.EtcdClientCertKey -->
<g id="node37" class="node">
<title>tls.EtcdClientCertKey</title>
<ellipse fill="none" stroke="#000000" cx="1262.049" cy="-616.9472" rx="113.9803" ry="18"/>
<text text-anchor="middle" x="1262.049" y="-613.2472" font-family="Times,serif" font-size="14.00" fill="#000000">tls.EtcdClientCertKey</text>
</g>
<!-- tls.EtcdCA&#45;&gt;tls.EtcdClientCertKey -->
<g id="edge45" class="edge">
<title>tls.EtcdCA&#45;&gt;tls.EtcdClientCertKey</title>
<path fill="none" stroke="#000000" d="M849.3981,-616.9472C922.3861,-616.9472 1045.3401,-616.9472 1138.0932,-616.9472"/>
<polygon fill="#000000" stroke="#000000" points="1138.1081,-620.4473 1148.108,-616.9472 1138.108,-613.4473 1138.1081,-620.4473"/>
</g>
<!-- tls.EtcdCA&#45;&gt;bootstrap.Bootstrap -->
<g id="edge100" class="edge">
<title>tls.EtcdCA&#45;&gt;bootstrap.Bootstrap</title>
<path fill="none" stroke="#000000" d="M840.2598,-626.4773C887.0276,-631.5567 953.5524,-630.0185 991.6205,-589.9472 1029.8543,-549.7016 970.8269,-378.5957 1011.6205,-340.9472 1080.8231,-277.0803 1772.376,-304.3651 1859.1499,-340.9472 1927.5862,-369.7986 1981.6364,-442.7519 2007.0854,-482.3659"/>
<polygon fill="#000000" stroke="#000000" points="2004.2172,-484.3796 2012.5051,-490.9797 2010.142,-480.6517 2004.2172,-484.3796"/>
</g>
<!-- tls.IngressCertKey&#45;&gt;manifests.Manifests -->
<g id="edge39" class="edge">
<title>tls.IngressCertKey&#45;&gt;manifests.Manifests</title>
<path fill="none" stroke="#000000" d="M1281.9388,-688.9145C1331.9211,-735.518 1462.3593,-866.476 1512.4775,-1006.9472 1529.1095,-1053.5634 1505.45,-1410.484 1532.4775,-1451.9472 1552.9286,-1483.3215 1589.3668,-1502.9972 1622.6452,-1515.0861"/>
<polygon fill="#000000" stroke="#000000" points="1621.7947,-1518.495 1632.3894,-1518.4482 1624.0779,-1511.8779 1621.7947,-1518.495"/>
</g>
<!-- tls.KubeCA&#45;&gt;manifests.Manifests -->
<g id="edge43" class="edge">
<title>tls.KubeCA&#45;&gt;manifests.Manifests</title>
<path fill="none" stroke="#000000" d="M842.9328,-554.0351C888.8381,-550.0586 952.5785,-552.8733 991.6205,-589.9472 1027.0194,-623.5617 984.8347,-657.1363 1011.6205,-697.9472 1158.8398,-922.2506 1380.7442,-801.2126 1512.4775,-1034.9472 1558.0282,-1115.768 1481.6996,-1374.304 1532.4775,-1451.9472 1553.0547,-1483.4112 1589.6981,-1503.1152 1623.0699,-1515.1985"/>
<polygon fill="#000000" stroke="#000000" points="1622.2436,-1518.6155 1632.8383,-1518.5581 1624.5203,-1511.9961 1622.2436,-1518.6155"/>
</g>
<!-- tls.KubeCA&#45;&gt;tls.IngressCertKey -->
<g id="edge40" class="edge">
<title>tls.KubeCA&#45;&gt;tls.IngressCertKey</title>
<path fill="none" stroke="#000000" d="M845.4674,-555.5683C890.0989,-553.1604 950.8032,-557.3597 991.6205,-589.9472 1011.6213,-605.9154 991.4295,-628.2203 1011.6205,-643.9472 1057.3997,-679.6049 1123.0065,-685.5508 1175.5853,-683.0063"/>
<polygon fill="#000000" stroke="#000000" points="1175.8047,-686.4996 1185.5802,-682.4143 1175.3907,-679.5118 1175.8047,-686.4996"/>
</g>
<!-- tls.KubeletCertKey -->
<g id="node39" class="node">
<title>tls.KubeletCertKey</title>
<ellipse fill="none" stroke="#000000" cx="1262.049" cy="-562.9472" rx="99.3824" ry="18"/>
<text text-anchor="middle" x="1262.049" y="-559.2472" font-family="Times,serif" font-size="14.00" fill="#000000">tls.KubeletCertKey</text>
</g>
<!-- tls.KubeCA&#45;&gt;tls.KubeletCertKey -->
<g id="edge50" class="edge">
<title>tls.KubeCA&#45;&gt;tls.KubeletCertKey</title>
<path fill="none" stroke="#000000" d="M851.3596,-562.9472C928.3985,-562.9472 1059.004,-562.9472 1152.2482,-562.9472"/>
<polygon fill="#000000" stroke="#000000" points="1152.2877,-566.4473 1162.2877,-562.9472 1152.2876,-559.4473 1152.2877,-566.4473"/>
</g>
<!-- tls.AdminCertKey -->
<g id="node51" class="node">
<title>tls.AdminCertKey</title>
<ellipse fill="none" stroke="#000000" cx="1262.049" cy="-454.9472" rx="93.6835" ry="18"/>
<text text-anchor="middle" x="1262.049" y="-451.2472" font-family="Times,serif" font-size="14.00" fill="#000000">tls.AdminCertKey</text>
</g>
<!-- tls.KubeCA&#45;&gt;tls.AdminCertKey -->
<g id="edge93" class="edge">
<title>tls.KubeCA&#45;&gt;tls.AdminCertKey</title>
<path fill="none" stroke="#000000" d="M821.5241,-547.6835C864.8448,-529.0281 942.24,-497.9719 1011.6205,-481.9472 1060.2467,-470.7162 1115.2879,-464.1328 1161.3604,-460.2853"/>
<polygon fill="#000000" stroke="#000000" points="1161.664,-463.7722 1171.3512,-459.4818 1161.1028,-456.7948 1161.664,-463.7722"/>
</g>
<!-- tls.KubeCA&#45;&gt;bootstrap.Bootstrap -->
<g id="edge101" class="edge">
<title>tls.KubeCA&#45;&gt;bootstrap.Bootstrap</title>
<path fill="none" stroke="#000000" d="M846.484,-556.0009C893.5728,-547.1509 957.1145,-527.123 991.6205,-481.9472 1015.9161,-450.1392 981.7884,-329.6318 1011.6205,-302.9472 1081.8084,-240.1648 1774.3326,-262.0328 1859.1499,-302.9472 1936.9596,-340.4813 1989.1976,-434.9233 2011.1981,-481.7521"/>
<polygon fill="#000000" stroke="#000000" points="2008.0821,-483.3538 2015.4321,-490.9845 2014.4449,-480.4357 2008.0821,-483.3538"/>
</g>
<!-- tls.KubeCA&#45;&gt;tls.APIServerCertKey -->
<g id="edge106" class="edge">
<title>tls.KubeCA&#45;&gt;tls.APIServerCertKey</title>
<path fill="none" stroke="#000000" d="M845.8717,-555.6992C891.1144,-550.1458 955.3143,-542.3715 1011.6205,-535.9472 1059.6874,-530.463 1112.9797,-524.6764 1158.0038,-519.8729"/>
<polygon fill="#000000" stroke="#000000" points="1158.4987,-523.3401 1168.0717,-518.8005 1157.7572,-516.3794 1158.4987,-523.3401"/>
</g>
<!-- tls.EtcdClientCertKey&#45;&gt;manifests.Manifests -->
<g id="edge44" class="edge">
<title>tls.EtcdClientCertKey&#45;&gt;manifests.Manifests</title>
<path fill="none" stroke="#000000" d="M1330.1701,-602.4827C1387.6144,-594.6959 1467.4593,-595.0454 1512.4775,-643.9472 1542.8896,-676.9829 1508.3379,-1414.0853 1532.4775,-1451.9472 1552.6112,-1483.5261 1589.0254,-1503.2173 1622.3698,-1515.2636"/>
<polygon fill="#000000" stroke="#000000" points="1621.5414,-1518.6795 1632.136,-1518.6116 1623.8115,-1512.0578 1621.5414,-1518.6795"/>
</g>
<!-- tls.EtcdClientCertKey&#45;&gt;bootstrap.Bootstrap -->
<g id="edge104" class="edge">
<title>tls.EtcdClientCertKey&#45;&gt;bootstrap.Bootstrap</title>
<path fill="none" stroke="#000000" d="M1364.3011,-609.0205C1483.6603,-598.8706 1686.7079,-578.815 1859.1499,-547.9472 1891.3435,-542.1845 1926.6828,-534.012 1956.2726,-526.6358"/>
<polygon fill="#000000" stroke="#000000" points="1957.2306,-530.004 1966.0742,-524.1695 1955.5224,-523.2156 1957.2306,-530.004"/>
</g>
<!-- tls.MCSCertKey&#45;&gt;manifests.Manifests -->
<g id="edge46" class="edge">
<title>tls.MCSCertKey&#45;&gt;manifests.Manifests</title>
<path fill="none" stroke="#000000" d="M818.1542,-687.9691C864.9203,-715.6757 952.4989,-775.3244 991.6205,-852.9472 1013.7145,-896.7848 982.2736,-1033.5945 1011.6205,-1072.9472 1154.9129,-1265.0948 1367.2127,-1082.2865 1512.4775,-1272.9472 1560.9915,-1336.6221 1486.5635,-1386.3728 1532.4775,-1451.9472 1554.206,-1482.9798 1591.3188,-1502.7003 1624.6817,-1514.9029"/>
<polygon fill="#000000" stroke="#000000" points="1623.8388,-1518.3156 1634.4336,-1518.3005 1626.1419,-1511.7053 1623.8388,-1518.3156"/>
</g>
<!-- tls.MCSCertKey&#45;&gt;bootstrap.Bootstrap -->
<g id="edge112" class="edge">
<title>tls.MCSCertKey&#45;&gt;bootstrap.Bootstrap</title>
<path fill="none" stroke="#000000" d="M855.9319,-681.9066C901.0148,-684.8859 957.7292,-679.8445 991.6205,-643.9472 1032.9233,-600.1999 967.5345,-414.8884 1011.6205,-373.9472 1080.735,-309.763 1769.4079,-392.9165 1859.1499,-421.9472 1906.485,-437.2597 1956.3506,-465.7708 1988.4571,-485.9763"/>
<polygon fill="#000000" stroke="#000000" points="1986.711,-489.0138 1997.025,-491.4371 1990.4733,-483.1108 1986.711,-489.0138"/>
</g>
<!-- tls.KubeletCertKey&#45;&gt;manifests.Manifests -->
<g id="edge49" class="edge">
<title>tls.KubeletCertKey&#45;&gt;manifests.Manifests</title>
<path fill="none" stroke="#000000" d="M1325.7005,-549.0972C1383.4183,-540.6832 1466.3135,-539.7227 1512.4775,-589.9472 1544.8935,-625.2145 1506.7569,-1411.5365 1532.4775,-1451.9472 1552.5867,-1483.5417 1588.9991,-1503.234 1622.3486,-1515.2771"/>
<polygon fill="#000000" stroke="#000000" points="1621.5219,-1518.6936 1632.1165,-1518.624 1623.7909,-1512.0715 1621.5219,-1518.6936"/>
</g>
<!-- tls.KubeletCertKey&#45;&gt;bootstrap.Bootstrap -->
<g id="edge111" class="edge">
<title>tls.KubeletCertKey&#45;&gt;bootstrap.Bootstrap</title>
<path fill="none" stroke="#000000" d="M1356.4543,-557.1598C1474.1892,-549.8185 1681.6136,-536.478 1859.1499,-522.9472 1878.7526,-521.4532 1899.6647,-519.7499 1919.7633,-518.058"/>
<polygon fill="#000000" stroke="#000000" points="1920.2012,-521.5336 1929.8703,-517.2026 1919.6107,-514.5585 1920.2012,-521.5336"/>
</g>
<!-- tls.KubeletCertKey&#45;&gt;kubeconfig.Kubelet -->
<g id="edge119" class="edge">
<title>tls.KubeletCertKey&#45;&gt;kubeconfig.Kubelet</title>
<path fill="none" stroke="#000000" d="M1359.6811,-566.3757C1406.5335,-569.8101 1463.0869,-576.5971 1512.4775,-589.9472 1564.0784,-603.8948 1619.623,-630.543 1655.884,-649.6792"/>
<polygon fill="#000000" stroke="#000000" points="1654.6568,-652.9916 1665.1265,-654.6149 1657.9543,-646.8169 1654.6568,-652.9916"/>
</g>
<!-- manifests.Openshift&#45;&gt;Target Manifests -->
<g id="edge62" class="edge">
<title>manifests.Openshift&#45;&gt;Target Manifests</title>
<path fill="none" stroke="#000000" d="M2042.3807,-1442.664C2070.5274,-1469.0803 2123.218,-1521.2453 2158.8258,-1572.9472 2217.7161,-1658.4547 2266.6394,-1772.3669 2287.4955,-1824.182"/>
<polygon fill="#000000" stroke="#000000" points="2284.3319,-1825.698 2291.2871,-1833.6903 2290.834,-1823.1051 2284.3319,-1825.698"/>
</g>
<!-- manifests.Openshift&#45;&gt;bootstrap.Bootstrap -->
<g id="edge122" class="edge">
<title>manifests.Openshift&#45;&gt;bootstrap.Bootstrap</title>
<path fill="none" stroke="#000000" d="M2022.9879,-1406.5381C2022.9879,-1116.8884 2022.9879,-827.2386 2022.9879,-537.5889"/>
<polygon fill="#000000" stroke="#000000" points="2026.488,-537.2851 2022.9879,-527.2851 2019.488,-537.2852 2026.488,-537.2851"/>
</g>
<!-- manifests.ClusterK8sIO&#45;&gt;manifests.Openshift -->
<g id="edge64" class="edge">
<title>manifests.ClusterK8sIO&#45;&gt;manifests.Openshift</title>
<path fill="none" stroke="#000000" d="M1819.038,-1424.9472C1848.2855,-1424.9472 1879.369,-1424.9472 1908.2219,-1424.9472"/>
<polygon fill="#000000" stroke="#000000" points="1908.3279,-1428.4473 1918.3278,-1424.9472 1908.3278,-1421.4473 1908.3279,-1428.4473"/>
</g>
<!-- machines.Worker&#45;&gt;manifests.Openshift -->
<g id="edge67" class="edge">
<title>machines.Worker&#45;&gt;manifests.Openshift</title>
<path fill="none" stroke="#000000" d="M1707.8786,-2366.9346C1737.6576,-2321.7303 1815.403,-2199.0707 1859.1499,-2086.9472 1951.3605,-1850.6118 2003.9884,-1546.1392 2018.6968,-1453.1486"/>
<polygon fill="#000000" stroke="#000000" points="2022.1787,-1453.5357 2020.2657,-1443.115 2015.2628,-1452.4542 2022.1787,-1453.5357"/>
</g>
<!-- installconfig.PlatformCredsCheck&#45;&gt;machines.Worker -->
<g id="edge69" class="edge">
<title>installconfig.PlatformCredsCheck&#45;&gt;machines.Worker</title>
<path fill="none" stroke="#000000" d="M1353.3407,-2741.1124C1407.2828,-2744.4735 1472.6184,-2737.8055 1512.4775,-2695.9472 1556.1068,-2650.1296 1489.8806,-2458.7262 1532.4775,-2411.9472 1549.0604,-2393.7363 1572.8433,-2384.6919 1597.1478,-2380.7177"/>
<polygon fill="#000000" stroke="#000000" points="1597.7673,-2384.1658 1607.2059,-2379.353 1596.8261,-2377.2293 1597.7673,-2384.1658"/>
</g>
<!-- installconfig.PlatformCredsCheck&#45;&gt;machines.Master -->
<g id="edge79" class="edge">
<title>installconfig.PlatformCredsCheck&#45;&gt;machines.Master</title>
<path fill="none" stroke="#000000" d="M1362.1002,-2740.4547C1413.6018,-2742.0457 1473.5729,-2733.8235 1512.4775,-2695.9472 1556.2526,-2653.3293 1501.0871,-2612.3608 1532.4775,-2559.9472 1559.8076,-2514.3134 1611.5767,-2480.4702 1649.5325,-2460.353"/>
<polygon fill="#000000" stroke="#000000" points="1651.5822,-2463.2336 1658.8614,-2455.5353 1648.3702,-2457.014 1651.5822,-2463.2336"/>
</g>
<!-- installconfig.PlatformCredsCheck&#45;&gt;cluster.Cluster -->
<g id="edge139" class="edge">
<title>installconfig.PlatformCredsCheck&#45;&gt;cluster.Cluster</title>
<path fill="none" stroke="#000000" d="M1353.417,-2741.1026C1516.7083,-2765.4044 1868.6961,-2805.142 2158.8258,-2750.9472 2192.9656,-2744.5701 2229.5053,-2730.1194 2256.6211,-2717.7706"/>
<polygon fill="#000000" stroke="#000000" points="2258.205,-2720.8941 2265.7998,-2713.507 2255.256,-2714.5456 2258.205,-2720.8941"/>
</g>
<!-- rhcos.Image&#45;&gt;machines.Worker -->
<g id="edge72" class="edge">
<title>rhcos.Image&#45;&gt;machines.Worker</title>
<path fill="none" stroke="#000000" d="M1316.6171,-2654.0163C1373.842,-2662.127 1462.2867,-2664.1546 1512.4775,-2612.9472 1543.8978,-2580.8906 1501.7798,-2444.6965 1532.4775,-2411.9472 1549.1487,-2394.1619 1572.7018,-2385.1977 1596.7469,-2381.1619"/>
<polygon fill="#000000" stroke="#000000" points="1597.2809,-2384.6213 1606.6968,-2379.7642 1596.3071,-2377.6894 1597.2809,-2384.6213"/>
</g>
<!-- rhcos.Image&#45;&gt;machines.Master -->
<g id="edge81" class="edge">
<title>rhcos.Image&#45;&gt;machines.Master</title>
<path fill="none" stroke="#000000" d="M1321.6878,-2652.0282C1376.9544,-2657.0126 1458.5343,-2655.2113 1512.4775,-2612.9472 1532.296,-2597.4197 1517.3005,-2580.0354 1532.4775,-2559.9472 1565.1307,-2516.7276 1617.3461,-2481.8362 1653.9268,-2460.8235"/>
<polygon fill="#000000" stroke="#000000" points="1655.8757,-2463.7428 1662.8688,-2455.7837 1652.4386,-2457.6446 1655.8757,-2463.7428"/>
</g>
<!-- rhcos.Image&#45;&gt;cluster.TerraformVariables -->
<g id="edge129" class="edge">
<title>rhcos.Image&#45;&gt;cluster.TerraformVariables</title>
<path fill="none" stroke="#000000" d="M1323.6661,-2651.1568C1378.387,-2658.01 1460.5927,-2667.2357 1532.4775,-2670.9472 1677.4721,-2678.4335 1713.9629,-2671.3903 1859.1499,-2670.9472 1864.9811,-2670.9294 1870.9289,-2670.9081 1876.9374,-2670.8838"/>
<polygon fill="#000000" stroke="#000000" points="1877.1116,-2674.3832 1887.0966,-2670.8405 1877.0817,-2667.3833 1877.1116,-2674.3832"/>
</g>
<!-- machine.Worker&#45;&gt;machines.Worker -->
<g id="edge74" class="edge">
<title>machine.Worker&#45;&gt;machines.Worker</title>
<path fill="none" stroke="#000000" d="M1337.8672,-2496.8581C1390.2429,-2487.8076 1459.7002,-2470.0978 1512.4775,-2435.9472 1524.1348,-2428.4042 1520.4275,-2418.8456 1532.4775,-2411.9472 1551.2962,-2401.1738 1573.2091,-2394.4054 1594.758,-2390.2171"/>
<polygon fill="#000000" stroke="#000000" points="1595.385,-2393.6606 1604.6208,-2388.4692 1594.1634,-2386.768 1595.385,-2393.6606"/>
</g>
<!-- Target Ignition Configs -->
<g id="node50" class="node">
<title>Target Ignition Configs</title>
<polygon fill="#d3d3d3" stroke="#000000" points="2390.3258,-2031.9472 2206.3258,-2031.9472 2206.3258,-1995.9472 2390.3258,-1995.9472 2390.3258,-2031.9472"/>
<text text-anchor="middle" x="2298.3258" y="-2010.2472" font-family="Times,serif" font-size="14.00" fill="#000000">Target Ignition Configs</text>
</g>
<!-- machine.Worker&#45;&gt;Target Ignition Configs -->
<g id="edge96" class="edge">
<title>machine.Worker&#45;&gt;Target Ignition Configs</title>
<path fill="none" stroke="#000000" d="M1347.8556,-2509.9587C1489.7479,-2515.5883 1766.7864,-2522.0534 1859.1499,-2491.9472 2013.2956,-2441.7031 2075.5555,-2423.0566 2158.8258,-2283.9472 2214.6627,-2190.6675 2114.8173,-2122.3943 2186.8258,-2040.9472 2189.991,-2037.3672 2193.5422,-2034.2211 2197.3793,-2031.459"/>
<polygon fill="#000000" stroke="#000000" points="2199.5328,-2034.2425 2206.1973,-2026.0062 2195.8512,-2028.2888 2199.5328,-2034.2425"/>
</g>
<!-- machines.Master&#45;&gt;manifests.Openshift -->
<g id="edge77" class="edge">
<title>machines.Master&#45;&gt;manifests.Openshift</title>
<path fill="none" stroke="#000000" d="M1784.1729,-2443.3964C1811.494,-2440.2142 1839.5311,-2431.5528 1859.1499,-2411.9472 1998.9528,-2272.2386 2019.6702,-1600.9583 2022.5474,-1453.5904"/>
<polygon fill="#000000" stroke="#000000" points="2026.0547,-1453.2203 2022.7378,-1443.158 2019.0558,-1453.0925 2026.0547,-1453.2203"/>
</g>
<!-- machines.Master&#45;&gt;cluster.TerraformVariables -->
<g id="edge132" class="edge">
<title>machines.Master&#45;&gt;cluster.TerraformVariables</title>
<path fill="none" stroke="#000000" d="M1720.405,-2456.3098C1778.2901,-2497.1794 1923.2252,-2599.5102 1989.2593,-2646.1333"/>
<polygon fill="#000000" stroke="#000000" points="1987.4738,-2649.1571 1997.6616,-2652.0657 1991.5112,-2643.4387 1987.4738,-2649.1571"/>
</g>
<!-- machine.Master&#45;&gt;machines.Master -->
<g id="edge82" class="edge">
<title>machine.Master&#45;&gt;machines.Master</title>
<path fill="none" stroke="#000000" d="M1348.1988,-2558.4101C1397.2214,-2555.6283 1459.2698,-2548.859 1512.4775,-2532.9472 1567.4478,-2516.5083 1625.5106,-2483.7648 1661.2085,-2461.6032"/>
<polygon fill="#000000" stroke="#000000" points="1663.1816,-2464.4971 1669.7869,-2456.2133 1659.4575,-2458.5699 1663.1816,-2464.4971"/>
</g>
<!-- machine.Master&#45;&gt;Target Ignition Configs -->
<g id="edge95" class="edge">
<title>machine.Master&#45;&gt;Target Ignition Configs</title>
<path fill="none" stroke="#000000" d="M1348.3143,-2562.0027C1465.5186,-2562.9324 1680.8973,-2558.0047 1859.1499,-2516.9472 1998.9598,-2484.7444 2073.8143,-2512.5191 2158.8258,-2396.9472 2205.8468,-2333.023 2135.3493,-2101.3413 2186.8258,-2040.9472 2190.0477,-2037.1672 2193.7,-2033.8674 2197.6681,-2030.9901"/>
<polygon fill="#000000" stroke="#000000" points="2199.5855,-2033.9193 2206.2203,-2025.6591 2195.8825,-2027.9789 2199.5855,-2033.9193"/>
</g>
<!-- machine.Master&#45;&gt;cluster.TerraformVariables -->
<g id="edge131" class="edge">
<title>machine.Master&#45;&gt;cluster.TerraformVariables</title>
<path fill="none" stroke="#000000" d="M1348.0995,-2562.1243C1399.5948,-2567.1209 1464.1956,-2580.2213 1512.4775,-2612.9472 1525.7422,-2621.9382 1518.5622,-2635.0003 1532.4775,-2642.9472 1561.8684,-2659.7321 1743.4086,-2666.0825 1877.1092,-2668.4851"/>
<polygon fill="#000000" stroke="#000000" points="1877.3985,-2671.9906 1887.4578,-2668.665 1877.5202,-2664.9916 1877.3985,-2671.9906"/>
</g>
<!-- password.KubeadminPassword -->
<g id="node48" class="node">
<title>password.KubeadminPassword</title>
<ellipse fill="none" stroke="#000000" cx="1695.8137" cy="-2589.9472" rx="155.1726" ry="18"/>
<text text-anchor="middle" x="1695.8137" y="-2586.2472" font-family="Times,serif" font-size="14.00" fill="#000000">password.KubeadminPassword</text>
</g>
<!-- password.KubeadminPassword&#45;&gt;manifests.Openshift -->
<g id="edge85" class="edge">
<title>password.KubeadminPassword&#45;&gt;manifests.Openshift</title>
<path fill="none" stroke="#000000" d="M1747.0043,-2572.7875C1784.2396,-2557.5465 1832.6017,-2531.4803 1859.1499,-2491.9472 1978.4112,-2314.3549 2015.2567,-1605.0062 2021.8364,-1453.5084"/>
<polygon fill="#000000" stroke="#000000" points="2025.3467,-1453.3395 2022.2743,-1443.1999 2018.353,-1453.0423 2025.3467,-1453.3395"/>
</g>
<!-- password.KubeadminPassword&#45;&gt;cluster.Cluster -->
<g id="edge141" class="edge">
<title>password.KubeadminPassword&#45;&gt;cluster.Cluster</title>
<path fill="none" stroke="#000000" d="M1839.3313,-2596.9079C1931.6333,-2603.6969 2053.558,-2617.002 2158.8258,-2642.9472 2191.7575,-2651.0639 2227.3952,-2664.9532 2254.407,-2676.6128"/>
<polygon fill="#000000" stroke="#000000" points="2253.0188,-2679.8258 2263.583,-2680.6308 2255.8266,-2673.4135 2253.0188,-2679.8258"/>
</g>
<!-- kubeconfig.Admin&#45;&gt;Target Ignition Configs -->
<g id="edge90" class="edge">
<title>kubeconfig.Admin&#45;&gt;Target Ignition Configs</title>
<path fill="none" stroke="#000000" d="M1710.2596,-743.8407C1741.1158,-782.7571 1814.2937,-878.8481 1859.1499,-968.9472 1871.3023,-993.3568 1865.3689,-1003.4188 1879.1499,-1026.9472 1973.6033,-1188.2076 2088.5558,-1167.7755 2158.8258,-1340.9472 2185.84,-1407.5202 2141.1898,-1931.4578 2186.8258,-1986.9472 2190.0183,-1990.829 2193.6648,-1994.2079 2197.6448,-1997.1452"/>
<polygon fill="#000000" stroke="#000000" points="2195.9196,-2000.1952 2206.2439,-2002.5742 2199.6566,-1994.2761 2195.9196,-2000.1952"/>
</g>
<!-- kubeconfig.Admin&#45;&gt;bootstrap.Bootstrap -->
<g id="edge116" class="edge">
<title>kubeconfig.Admin&#45;&gt;bootstrap.Bootstrap</title>
<path fill="none" stroke="#000000" d="M1788.9966,-721.8366C1812.9787,-717.8174 1837.9717,-710.8355 1859.1499,-698.9472 1929.2418,-659.6015 1983.4185,-578.2477 2008.202,-535.8969"/>
<polygon fill="#000000" stroke="#000000" points="2011.3707,-537.4071 2013.3149,-526.9922 2005.3002,-533.9215 2011.3707,-537.4071"/>
</g>
<!-- Target Cluster -->
<g id="node61" class="node">
<title>Target Cluster</title>
<polygon fill="#d3d3d3" stroke="#000000" points="2359.3258,-1977.9472 2237.3258,-1977.9472 2237.3258,-1941.9472 2359.3258,-1941.9472 2359.3258,-1977.9472"/>
<text text-anchor="middle" x="2298.3258" y="-1956.2472" font-family="Times,serif" font-size="14.00" fill="#000000">Target Cluster</text>
</g>
<!-- kubeconfig.Admin&#45;&gt;Target Cluster -->
<g id="edge133" class="edge">
<title>kubeconfig.Admin&#45;&gt;Target Cluster</title>
<path fill="none" stroke="#000000" d="M1725.717,-743.2349C1812.2946,-795.2175 2063.0784,-959.8733 2158.8258,-1174.9472 2193.1026,-1251.9418 2133.4998,-1867.6832 2186.8258,-1932.9472 2196.905,-1945.2829 2211.5696,-1952.546 2226.9706,-1956.7022"/>
<polygon fill="#000000" stroke="#000000" points="2226.631,-1960.2137 2237.1568,-1959.0068 2228.1757,-1953.3863 2226.631,-1960.2137"/>
</g>
<!-- tls.AdminCertKey&#45;&gt;kubeconfig.Admin -->
<g id="edge92" class="edge">
<title>tls.AdminCertKey&#45;&gt;kubeconfig.Admin</title>
<path fill="none" stroke="#000000" d="M1325.7496,-441.7233C1382.8845,-433.9404 1464.8457,-433.5717 1512.4775,-481.9472 1546.454,-516.4543 1499.4879,-663.4956 1532.4775,-698.9472 1548.4105,-716.0694 1570.7181,-725.0344 1593.7377,-729.298"/>
<polygon fill="#000000" stroke="#000000" points="1593.2092,-732.7578 1603.6303,-730.8475 1594.2924,-725.8421 1593.2092,-732.7578"/>
</g>
<!-- tls.AdminCertKey&#45;&gt;bootstrap.Bootstrap -->
<g id="edge110" class="edge">
<title>tls.AdminCertKey&#45;&gt;bootstrap.Bootstrap</title>
<path fill="none" stroke="#000000" d="M1350.0817,-461.1945C1490.4332,-471.1545 1764.4779,-490.6021 1915.9497,-501.3513"/>
<polygon fill="#000000" stroke="#000000" points="1915.9709,-504.8615 1926.1936,-502.0782 1916.4665,-497.879 1915.9709,-504.8615"/>
</g>
<!-- bootstrap.Bootstrap&#45;&gt;Target Ignition Configs -->
<g id="edge97" class="edge">
<title>bootstrap.Bootstrap&#45;&gt;Target Ignition Configs</title>
<path fill="none" stroke="#000000" d="M2027.8406,-527.0414C2048.3138,-604.3042 2127.993,-914.4987 2158.8258,-1174.9472 2164.1324,-1219.7721 2158.3088,-1951.9585 2186.8258,-1986.9472 2190.0011,-1990.8431 2193.6338,-1994.2333 2197.6028,-1997.1796"/>
<polygon fill="#000000" stroke="#000000" points="2195.8645,-2000.2217 2206.1835,-2002.6237 2199.6147,-1994.3109 2195.8645,-2000.2217"/>
</g>
<!-- bootstrap.Bootstrap&#45;&gt;cluster.TerraformVariables -->
<g id="edge130" class="edge">
<title>bootstrap.Bootstrap&#45;&gt;cluster.TerraformVariables</title>
<path fill="none" stroke="#000000" d="M2018.3936,-527.1248C1996.1472,-616.2074 1899.4539,-1015.868 1869.1499,-1349.9472 1865.9404,-1385.3297 1854.6959,-2596.4926 1869.1499,-2628.9472 1874.5182,-2641.0008 1883.2338,-2649.9847 1893.8618,-2656.6246"/>
<polygon fill="#000000" stroke="#000000" points="1892.3097,-2659.7645 1902.7678,-2661.461 1895.6503,-2653.613 1892.3097,-2659.7645"/>
</g>
<!-- tls.AggregatorCA&#45;&gt;bootstrap.Bootstrap -->
<g id="edge102" class="edge">
<title>tls.AggregatorCA&#45;&gt;bootstrap.Bootstrap</title>
<path fill="none" stroke="#000000" d="M861.8495,-465.7635C905.5849,-467.6457 958.5833,-461.4373 991.6205,-427.9472 1044.7375,-374.1022 955.0829,-309.1885 1011.6205,-258.9472 1082.0137,-196.3934 1776.3897,-218.0148 1859.1499,-262.9472 1946.8462,-310.5596 1995.8501,-427.7893 2014.3411,-481.3942"/>
<polygon fill="#000000" stroke="#000000" points="2011.0409,-482.5613 2017.5382,-490.93 2017.6778,-480.3361 2011.0409,-482.5613"/>
</g>
<!-- tls.APIServerProxyCertKey -->
<g id="node55" class="node">
<title>tls.APIServerProxyCertKey</title>
<ellipse fill="none" stroke="#000000" cx="1262.049" cy="-400.9472" rx="138.3755" ry="18"/>
<text text-anchor="middle" x="1262.049" y="-397.2472" font-family="Times,serif" font-size="14.00" fill="#000000">tls.APIServerProxyCertKey</text>
</g>
<!-- tls.AggregatorCA&#45;&gt;tls.APIServerProxyCertKey -->
<g id="edge109" class="edge">
<title>tls.AggregatorCA&#45;&gt;tls.APIServerProxyCertKey</title>
<path fill="none" stroke="#000000" d="M865.9354,-445.2434C908.9531,-439.9933 963.2049,-433.4712 1011.6205,-427.9472 1054.8599,-423.0138 1102.3277,-417.8357 1144.2014,-413.3486"/>
<polygon fill="#000000" stroke="#000000" points="1144.5885,-416.8273 1154.1594,-412.2833 1143.8438,-409.867 1144.5885,-416.8273"/>
</g>
<!-- tls.APIServerCertKey&#45;&gt;bootstrap.Bootstrap -->
<g id="edge105" class="edge">
<title>tls.APIServerCertKey&#45;&gt;bootstrap.Bootstrap</title>
<path fill="none" stroke="#000000" d="M1373.9193,-508.9472C1516.9352,-508.9472 1763.2941,-508.9472 1907.8594,-508.9472"/>
<polygon fill="#000000" stroke="#000000" points="1908.0894,-512.4473 1918.0894,-508.9472 1908.0894,-505.4473 1908.0894,-512.4473"/>
</g>
<!-- tls.APIServerProxyCertKey&#45;&gt;bootstrap.Bootstrap -->
<g id="edge108" class="edge">
<title>tls.APIServerProxyCertKey&#45;&gt;bootstrap.Bootstrap</title>
<path fill="none" stroke="#000000" d="M1379.3476,-410.58C1500.184,-421.4656 1693.6948,-441.5813 1859.1499,-470.9472 1890.9207,-476.5861 1925.792,-484.4376 1955.1668,-491.5407"/>
<polygon fill="#000000" stroke="#000000" points="1954.361,-494.9467 1964.9056,-493.9167 1956.0201,-488.1462 1954.361,-494.9467"/>
</g>
<!-- tls.ServiceAccountKeyPair -->
<g id="node56" class="node">
<title>tls.ServiceAccountKeyPair</title>
<ellipse fill="none" stroke="#000000" cx="420.5173" cy="-400.9472" rx="134.5761" ry="18"/>
<text text-anchor="middle" x="420.5173" y="-397.2472" font-family="Times,serif" font-size="14.00" fill="#000000">tls.ServiceAccountKeyPair</text>
</g>
<!-- tls.ServiceAccountKeyPair&#45;&gt;bootstrap.Bootstrap -->
<g id="edge113" class="edge">
<title>tls.ServiceAccountKeyPair&#45;&gt;bootstrap.Bootstrap</title>
<path fill="none" stroke="#000000" d="M424.205,-382.663C436.0611,-329.3319 478.6891,-173.8863 583.0554,-112.9472 827.9428,30.0416 1623.397,44.6479 1859.1499,-112.9472 1987.3769,-198.6639 2015.3683,-405.2336 2021.3776,-480.718"/>
<polygon fill="#000000" stroke="#000000" points="2017.8999,-481.1532 2022.1141,-490.8738 2024.8816,-480.6469 2017.8999,-481.1532"/>
</g>
<!-- tls.JournalCertKey&#45;&gt;bootstrap.Bootstrap -->
<g id="edge114" class="edge">
<title>tls.JournalCertKey&#45;&gt;bootstrap.Bootstrap</title>
<path fill="none" stroke="#000000" d="M801.4651,-382.9608C833.6527,-343.6291 917.0134,-250.7891 1011.6205,-216.9472 1100.2889,-185.2297 1777.9875,-172.1901 1859.1499,-219.9472 1957.8598,-278.0295 2002.0137,-419.8946 2016.8554,-480.6152"/>
<polygon fill="#000000" stroke="#000000" points="2013.5171,-481.7084 2019.2172,-490.6392 2020.3305,-480.103 2013.5171,-481.7084"/>
</g>
<!-- tls.JournalCertKey&#45;&gt;Target Cluster -->
<g id="edge134" class="edge">
<title>tls.JournalCertKey&#45;&gt;Target Cluster</title>
<path fill="none" stroke="#000000" d="M845.1144,-386.2906C892.0362,-371.2912 956.0589,-343.1909 991.6205,-294.9472 1021.3636,-254.597 973.1604,-216.097 1011.6205,-183.9472 1300.6256,57.6386 1510.5792,-41.1674 1859.1499,-183.9472 2032.0977,-254.7892 2084.9699,-307.2649 2158.8258,-478.9472 2190.7531,-553.1639 2136.2607,-1869.9342 2186.8258,-1932.9472 2196.9422,-1945.5541 2211.8502,-1952.8812 2227.495,-1957.0092"/>
<polygon fill="#000000" stroke="#000000" points="2226.7743,-1960.4344 2237.2951,-1959.1847 2228.2913,-1953.6007 2226.7743,-1960.4344"/>
</g>
<!-- kubeconfig.Kubelet&#45;&gt;bootstrap.Bootstrap -->
<g id="edge117" class="edge">
<title>kubeconfig.Kubelet&#45;&gt;bootstrap.Bootstrap</title>
<path fill="none" stroke="#000000" d="M1754.4073,-657.2067C1786.225,-648.1548 1825.7692,-635.1757 1859.1499,-618.9472 1908.9306,-594.7457 1961.133,-557.2794 1992.8733,-532.9305"/>
<polygon fill="#000000" stroke="#000000" points="1995.1105,-535.6249 2000.8758,-526.736 1990.8257,-530.0895 1995.1105,-535.6249"/>
</g>
<!-- cluster.Metadata&#45;&gt;Target Ignition Configs -->
<g id="edge123" class="edge">
<title>cluster.Metadata&#45;&gt;Target Ignition Configs</title>
<path fill="none" stroke="#000000" d="M2112.7302,-2723.1636C2130.3511,-2718.7321 2147.0118,-2710.7304 2158.8258,-2696.9472 2206.3043,-2641.5553 2140.5033,-2097.3094 2186.8258,-2040.9472 2190.017,-2037.0644 2193.6625,-2033.6847 2197.6416,-2030.7467"/>
<polygon fill="#000000" stroke="#000000" points="2199.6534,-2033.6157 2206.2394,-2025.3166 2195.9155,-2027.6973 2199.6534,-2033.6157"/>
</g>
<!-- cluster.Metadata&#45;&gt;Target Cluster -->
<g id="edge135" class="edge">
<title>cluster.Metadata&#45;&gt;Target Cluster</title>
<path fill="none" stroke="#000000" d="M2112.7635,-2723.1922C2130.3826,-2718.7591 2147.0341,-2710.7495 2158.8258,-2696.9472 2210.1085,-2636.9204 2136.7957,-2048.022 2186.8258,-1986.9472 2196.9204,-1974.6242 2211.5908,-1967.3657 2226.9924,-1963.2101"/>
<polygon fill="#000000" stroke="#000000" points="2228.1974,-1966.526 2237.1784,-1960.9053 2226.6525,-1959.6986 2228.1974,-1966.526"/>
</g>
<!-- cluster.TerraformVariables&#45;&gt;Target Cluster -->
<g id="edge126" class="edge">
<title>cluster.TerraformVariables&#45;&gt;Target Cluster</title>
<path fill="none" stroke="#000000" d="M2031.1234,-2651.931C2055.2418,-2597.6434 2126.6713,-2430.3573 2158.8258,-2283.9472 2173.0461,-2219.1977 2143.433,-2037.0648 2186.8258,-1986.9472 2197.146,-1975.0277 2211.745,-1967.8981 2226.9899,-1963.7357"/>
<polygon fill="#000000" stroke="#000000" points="2228.1074,-1967.0698 2237.0628,-1961.4084 2226.5315,-1960.2495 2228.1074,-1967.0698"/>
</g>
<!-- cluster.TerraformVariables&#45;&gt;cluster.Cluster -->
<g id="edge140" class="edge">
<title>cluster.TerraformVariables&#45;&gt;cluster.Cluster</title>
<path fill="none" stroke="#000000" d="M2132.2042,-2680.6571C2159.6415,-2683.3477 2188.6553,-2686.1928 2214.6252,-2688.7394"/>
<polygon fill="#000000" stroke="#000000" points="2214.5015,-2692.244 2224.7954,-2689.7367 2215.1847,-2685.2774 2214.5015,-2692.244"/>
</g>
<!-- cluster.Cluster&#45;&gt;Target Cluster -->
<g id="edge136" class="edge">
<title>cluster.Cluster&#45;&gt;Target Cluster</title>
<path fill="none" stroke="#000000" d="M2293.0083,-2678.9768C2272.2893,-2607.8977 2196.9273,-2339.194 2172.8258,-2111.9472 2167.3884,-2060.6792 2148.121,-2041.1982 2172.8258,-1995.9472 2183.6107,-1976.1929 2204.9095,-1966.3467 2226.9437,-1961.6946"/>
<polygon fill="#000000" stroke="#000000" points="2227.8443,-1965.0898 2237.0842,-1959.9056 2226.6281,-1958.1962 2227.8443,-1965.0898"/>
</g>
</g>
</svg>
