<?xml version="1.0" encoding="UTF-8" standalone="no"?>
<!DOCTYPE svg PUBLIC "-//W3C//DTD SVG 1.1//EN"
 "http://www.w3.org/Graphics/SVG/1.1/DTD/svg11.dtd">
<!-- Generated by graphviz version 2.40.1 (20161225.0304)
 -->
<!-- Title: G Pages: 1 -->
<svg width="3483pt" height="692pt"
 viewBox="0.00 0.00 3483.34 692.00" xmlns="http://www.w3.org/2000/svg" xmlns:xlink="http://www.w3.org/1999/xlink">
<g id="graph0" class="graph" transform="scale(1 1) rotate(0) translate(4 688)">
<title>G</title>
<polygon fill="#ffffff" stroke="transparent" points="-4,4 -4,-688 3479.3364,-688 3479.3364,4 -4,4"/>
<!-- InstallConfig -->
<g id="node1" class="node">
<title>InstallConfig</title>
<ellipse fill="none" stroke="#000000" cx="2796.3364" cy="-594" rx="71.4873" ry="18"/>
<text text-anchor="middle" x="2796.3364" y="-590.3" font-family="Times,serif" font-size="14.00" fill="#000000">InstallConfig</text>
</g>
<!-- Target Install Config -->
<g id="node2" class="node">
<title>Target Install Config</title>
<polygon fill="#d3d3d3" stroke="#000000" points="2711.3364,-540 2545.3364,-540 2545.3364,-504 2711.3364,-504 2711.3364,-540"/>
<text text-anchor="middle" x="2628.3364" y="-518.3" font-family="Times,serif" font-size="14.00" fill="#000000">Target Install Config</text>
</g>
<!-- InstallConfig&#45;&gt;Target Install Config -->
<g id="edge1" class="edge">
<title>InstallConfig&#45;&gt;Target Install Config</title>
<path fill="none" stroke="#000000" d="M2759.8829,-578.3771C2736.4188,-568.321 2705.5745,-555.102 2679.6509,-543.9919"/>
<polygon fill="#000000" stroke="#000000" points="2680.9158,-540.7262 2670.3456,-540.0039 2678.1583,-547.1602 2680.9158,-540.7262"/>
</g>
<!-- Manifests -->
<g id="node11" class="node">
<title>Manifests</title>
<ellipse fill="none" stroke="#000000" cx="2046.3364" cy="-378" rx="56.59" ry="18"/>
<text text-anchor="middle" x="2046.3364" y="-374.3" font-family="Times,serif" font-size="14.00" fill="#000000">Manifests</text>
</g>
<!-- InstallConfig&#45;&gt;Manifests -->
<g id="edge11" class="edge">
<title>InstallConfig&#45;&gt;Manifests</title>
<path fill="none" stroke="#000000" d="M2866.0683,-589.7314C2936.9438,-583.7656 3039.721,-570.0699 3064.3364,-540 3074.4713,-527.6193 3074.2884,-516.5283 3064.3364,-504 3020.3471,-448.6229 2971.1691,-502.3278 2909.3364,-468 2889.5533,-457.017 2893.948,-441.336 2873.3364,-432 2804.8798,-400.9929 2297.3433,-384.6302 2113.0003,-379.6609"/>
<polygon fill="#000000" stroke="#000000" points="2112.9865,-376.1594 2102.8967,-379.3913 2112.7997,-383.1569 2112.9865,-376.1594"/>
</g>
<!-- KubeCoreOperator -->
<g id="node13" class="node">
<title>KubeCoreOperator</title>
<ellipse fill="none" stroke="#000000" cx="2610.3364" cy="-450" rx="99.3824" ry="18"/>
<text text-anchor="middle" x="2610.3364" y="-446.3" font-family="Times,serif" font-size="14.00" fill="#000000">KubeCoreOperator</text>
</g>
<!-- InstallConfig&#45;&gt;KubeCoreOperator -->
<g id="edge13" class="edge">
<title>InstallConfig&#45;&gt;KubeCoreOperator</title>
<path fill="none" stroke="#000000" d="M2727.7436,-588.7636C2626.4504,-580.3258 2446.6793,-562.3796 2427.3364,-540 2392.9437,-500.2079 2460.0876,-476.2916 2522.509,-463.2253"/>
<polygon fill="#000000" stroke="#000000" points="2523.3575,-466.6248 2532.4704,-461.2206 2521.9764,-459.7624 2523.3575,-466.6248"/>
</g>
<!-- networkOperator -->
<g id="node14" class="node">
<title>networkOperator</title>
<ellipse fill="none" stroke="#000000" cx="3203.3364" cy="-522" rx="91.784" ry="18"/>
<text text-anchor="middle" x="3203.3364" y="-518.3" font-family="Times,serif" font-size="14.00" fill="#000000">networkOperator</text>
</g>
<!-- InstallConfig&#45;&gt;networkOperator -->
<g id="edge15" class="edge">
<title>InstallConfig&#45;&gt;networkOperator</title>
<path fill="none" stroke="#000000" d="M2855.083,-583.6075C2926.2268,-571.0218 3046.3095,-549.7787 3125.2047,-535.8218"/>
<polygon fill="#000000" stroke="#000000" points="3125.8572,-539.2608 3135.0946,-534.0723 3124.6378,-532.3678 3125.8572,-539.2608"/>
</g>
<!-- kubeAddonOperator -->
<g id="node15" class="node">
<title>kubeAddonOperator</title>
<ellipse fill="none" stroke="#000000" cx="2949.3364" cy="-522" rx="105.8812" ry="18"/>
<text text-anchor="middle" x="2949.3364" y="-518.3" font-family="Times,serif" font-size="14.00" fill="#000000">kubeAddonOperator</text>
</g>
<!-- InstallConfig&#45;&gt;kubeAddonOperator -->
<g id="edge17" class="edge">
<title>InstallConfig&#45;&gt;kubeAddonOperator</title>
<path fill="none" stroke="#000000" d="M2830.2921,-578.0209C2852.0538,-567.7801 2880.5502,-554.37 2904.2063,-543.2377"/>
<polygon fill="#000000" stroke="#000000" points="2905.786,-546.3626 2913.3439,-538.9377 2902.8053,-540.0288 2905.786,-546.3626"/>
</g>
<!-- machineAPIOperator -->
<g id="node16" class="node">
<title>machineAPIOperator</title>
<ellipse fill="none" stroke="#000000" cx="1889.3364" cy="-450" rx="109.6807" ry="18"/>
<text text-anchor="middle" x="1889.3364" y="-446.3" font-family="Times,serif" font-size="14.00" fill="#000000">machineAPIOperator</text>
</g>
<!-- InstallConfig&#45;&gt;machineAPIOperator -->
<g id="edge19" class="edge">
<title>InstallConfig&#45;&gt;machineAPIOperator</title>
<path fill="none" stroke="#000000" d="M2781.9981,-576.3121C2761.1511,-550.6995 2724.4911,-506.0941 2720.3364,-504 2664.6583,-475.9365 2222.5543,-472.0661 2160.3364,-468 2108.1727,-464.5909 2050.3649,-460.7588 2001.5846,-457.5093"/>
<polygon fill="#000000" stroke="#000000" points="2001.5283,-453.9979 1991.3177,-456.8251 2001.0628,-460.9824 2001.5283,-453.9979"/>
</g>
<!-- Tectonic -->
<g id="node19" class="node">
<title>Tectonic</title>
<ellipse fill="none" stroke="#000000" cx="2778.3364" cy="-450" rx="50.8918" ry="18"/>
<text text-anchor="middle" x="2778.3364" y="-446.3" font-family="Times,serif" font-size="14.00" fill="#000000">Tectonic</text>
</g>
<!-- InstallConfig&#45;&gt;Tectonic -->
<g id="edge23" class="edge">
<title>InstallConfig&#45;&gt;Tectonic</title>
<path fill="none" stroke="#000000" d="M2796.2898,-575.9744C2796.0191,-557.7357 2794.9759,-528.7726 2791.3364,-504 2790.0946,-495.5478 2788.1554,-486.4784 2786.1502,-478.2313"/>
<polygon fill="#000000" stroke="#000000" points="2789.488,-477.1561 2783.6225,-468.3331 2782.7057,-478.8882 2789.488,-477.1561"/>
</g>
<!-- IngressCertKey -->
<g id="node20" class="node">
<title>IngressCertKey</title>
<ellipse fill="none" stroke="#000000" cx="2215.3364" cy="-522" rx="83.6854" ry="18"/>
<text text-anchor="middle" x="2215.3364" y="-518.3" font-family="Times,serif" font-size="14.00" fill="#000000">IngressCertKey</text>
</g>
<!-- InstallConfig&#45;&gt;IngressCertKey -->
<g id="edge27" class="edge">
<title>InstallConfig&#45;&gt;IngressCertKey</title>
<path fill="none" stroke="#000000" d="M2731.9394,-586.0196C2626.0058,-572.8919 2415.0941,-546.7548 2298.1859,-532.2671"/>
<polygon fill="#000000" stroke="#000000" points="2298.5629,-528.7871 2288.2083,-531.0306 2297.7019,-535.734 2298.5629,-528.7871"/>
</g>
<!-- APIServerCertKey -->
<g id="node26" class="node">
<title>APIServerCertKey</title>
<ellipse fill="none" stroke="#000000" cx="1978.3364" cy="-522" rx="96.6831" ry="18"/>
<text text-anchor="middle" x="1978.3364" y="-518.3" font-family="Times,serif" font-size="14.00" fill="#000000">APIServerCertKey</text>
</g>
<!-- InstallConfig&#45;&gt;APIServerCertKey -->
<g id="edge43" class="edge">
<title>InstallConfig&#45;&gt;APIServerCertKey</title>
<path fill="none" stroke="#000000" d="M2726.8695,-589.4561C2604.5398,-581.2263 2342.7528,-562.5945 2122.3364,-540 2104.4671,-538.1682 2085.3819,-535.9606 2067.1441,-533.7286"/>
<polygon fill="#000000" stroke="#000000" points="2067.4661,-530.2419 2057.1122,-532.4883 2066.6072,-537.189 2067.4661,-530.2419"/>
</g>
<!-- OpenshiftAPIServerCertKey -->
<g id="node27" class="node">
<title>OpenshiftAPIServerCertKey</title>
<ellipse fill="none" stroke="#000000" cx="2312.3364" cy="-450" rx="142.9746" ry="18"/>
<text text-anchor="middle" x="2312.3364" y="-446.3" font-family="Times,serif" font-size="14.00" fill="#000000">OpenshiftAPIServerCertKey</text>
</g>
<!-- InstallConfig&#45;&gt;OpenshiftAPIServerCertKey -->
<g id="edge46" class="edge">
<title>InstallConfig&#45;&gt;OpenshiftAPIServerCertKey</title>
<path fill="none" stroke="#000000" d="M2793.0454,-575.8018C2788.2251,-554.8361 2777.0958,-521.0866 2753.3364,-504 2740.4277,-494.7167 2561.1514,-474.9855 2435.2041,-462.1193"/>
<polygon fill="#000000" stroke="#000000" points="2435.3966,-458.6209 2425.0934,-461.0895 2434.6872,-465.5849 2435.3966,-458.6209"/>
</g>
<!-- MCSCertKey -->
<g id="node29" class="node">
<title>MCSCertKey</title>
<ellipse fill="none" stroke="#000000" cx="1792.3364" cy="-522" rx="71.4873" ry="18"/>
<text text-anchor="middle" x="1792.3364" y="-518.3" font-family="Times,serif" font-size="14.00" fill="#000000">MCSCertKey</text>
</g>
<!-- InstallConfig&#45;&gt;MCSCertKey -->
<g id="edge51" class="edge">
<title>InstallConfig&#45;&gt;MCSCertKey</title>
<path fill="none" stroke="#000000" d="M2725.5025,-591.3572C2538.9086,-584.1557 2036.9279,-563.1685 1872.3364,-540 1866.1381,-539.1275 1859.709,-538.0237 1853.3112,-536.7939"/>
<polygon fill="#000000" stroke="#000000" points="1853.8166,-533.3253 1843.3211,-534.7725 1852.4284,-540.1862 1853.8166,-533.3253"/>
</g>
<!-- Admin -->
<g id="node32" class="node">
<title>Admin</title>
<ellipse fill="none" stroke="#000000" cx="3002.3364" cy="-450" rx="40.8928" ry="18"/>
<text text-anchor="middle" x="3002.3364" y="-446.3" font-family="Times,serif" font-size="14.00" fill="#000000">Admin</text>
</g>
<!-- InstallConfig&#45;&gt;Admin -->
<g id="edge59" class="edge">
<title>InstallConfig&#45;&gt;Admin</title>
<path fill="none" stroke="#000000" d="M2867.259,-591.62C3000.0954,-586.4282 3275.6466,-571.9012 3304.3364,-540 3416.2954,-415.5091 3464.1102,-537.6436 3090.3364,-468 3077.0206,-465.5189 3062.6102,-462.6493 3049.3808,-459.9404"/>
<polygon fill="#000000" stroke="#000000" points="3050.033,-456.5014 3039.5321,-457.9094 3048.6191,-463.3571 3050.033,-456.5014"/>
</g>
<!-- Worker -->
<g id="node34" class="node">
<title>Worker</title>
<ellipse fill="none" stroke="#000000" cx="3144.3364" cy="-450" rx="45.4919" ry="18"/>
<text text-anchor="middle" x="3144.3364" y="-446.3" font-family="Times,serif" font-size="14.00" fill="#000000">Worker</text>
</g>
<!-- InstallConfig&#45;&gt;Worker -->
<g id="edge61" class="edge">
<title>InstallConfig&#45;&gt;Worker</title>
<path fill="none" stroke="#000000" d="M2867.6503,-592.0898C3007.1884,-587.6132 3305.4571,-574.1212 3336.3364,-540 3347.0725,-528.1368 3346.0604,-516.706 3336.3364,-504 3299.1187,-455.3691 3262.1859,-484.937 3203.3364,-468 3198.9931,-466.75 3194.4784,-465.4229 3189.9668,-464.0782"/>
<polygon fill="#000000" stroke="#000000" points="3190.7472,-460.6581 3180.1629,-461.1292 3188.7308,-467.3614 3190.7472,-460.6581"/>
</g>
<!-- Bootstrap -->
<g id="node35" class="node">
<title>Bootstrap</title>
<ellipse fill="none" stroke="#000000" cx="1637.3364" cy="-306" rx="56.59" ry="18"/>
<text text-anchor="middle" x="1637.3364" y="-302.3" font-family="Times,serif" font-size="14.00" fill="#000000">Bootstrap</text>
</g>
<!-- InstallConfig&#45;&gt;Bootstrap -->
<g id="edge65" class="edge">
<title>InstallConfig&#45;&gt;Bootstrap</title>
<path fill="none" stroke="#000000" d="M2867.6911,-592.324C3010.6493,-588.2262 3321.2781,-575.3166 3353.3364,-540 3364.0904,-528.153 3361.9431,-517.4879 3353.3364,-504 3312.4768,-439.9674 3271.0789,-453.868 3198.3364,-432 2992.1705,-370.0218 2933.5514,-381.3918 2719.3364,-360 2336.2523,-321.7448 1874.0243,-310.142 1704.1355,-307.0278"/>
<polygon fill="#000000" stroke="#000000" points="1704.1542,-303.5277 1694.093,-306.8475 1704.0285,-310.5266 1704.1542,-303.5277"/>
</g>
<!-- Kubelet -->
<g id="node37" class="node">
<title>Kubelet</title>
<ellipse fill="none" stroke="#000000" cx="1448.3364" cy="-450" rx="46.5926" ry="18"/>
<text text-anchor="middle" x="1448.3364" y="-446.3" font-family="Times,serif" font-size="14.00" fill="#000000">Kubelet</text>
</g>
<!-- InstallConfig&#45;&gt;Kubelet -->
<g id="edge85" class="edge">
<title>InstallConfig&#45;&gt;Kubelet</title>
<path fill="none" stroke="#000000" d="M2724.7694,-592.952C2460.3156,-588.8309 1550.7978,-572.3551 1498.3364,-540 1476.1102,-526.2922 1462.9684,-498.9192 1455.7808,-477.9422"/>
<polygon fill="#000000" stroke="#000000" points="1459.0674,-476.7268 1452.717,-468.2461 1452.3927,-478.836 1459.0674,-476.7268"/>
</g>
<!-- Master -->
<g id="node38" class="node">
<title>Master</title>
<ellipse fill="none" stroke="#000000" cx="3323.3364" cy="-378" rx="44.393" ry="18"/>
<text text-anchor="middle" x="3323.3364" y="-374.3" font-family="Times,serif" font-size="14.00" fill="#000000">Master</text>
</g>
<!-- InstallConfig&#45;&gt;Master -->
<g id="edge90" class="edge">
<title>InstallConfig&#45;&gt;Master</title>
<path fill="none" stroke="#000000" d="M2867.938,-593.0481C3022.6375,-590.2477 3377.1056,-579.5403 3413.3364,-540 3452.6025,-497.1472 3391.6344,-434.1038 3352.3426,-400.7045"/>
<polygon fill="#000000" stroke="#000000" points="3354.2586,-397.7459 3344.3311,-394.0453 3349.7841,-403.1291 3354.2586,-397.7459"/>
</g>
<!-- TerraformVariables -->
<g id="node39" class="node">
<title>TerraformVariables</title>
<ellipse fill="none" stroke="#000000" cx="3124.3364" cy="-234" rx="100.9827" ry="18"/>
<text text-anchor="middle" x="3124.3364" y="-230.3" font-family="Times,serif" font-size="14.00" fill="#000000">TerraformVariables</text>
</g>
<!-- InstallConfig&#45;&gt;TerraformVariables -->
<g id="edge94" class="edge">
<title>InstallConfig&#45;&gt;TerraformVariables</title>
<path fill="none" stroke="#000000" d="M2725.2928,-591.5145C2629.6342,-585.7753 2477.7746,-566.7899 2536.3364,-504 2614.7356,-419.9405 2962.3094,-539.4674 3052.3364,-468 3115.7611,-417.6506 3124.6601,-312.6391 3125.063,-262.2135"/>
<polygon fill="#000000" stroke="#000000" points="3128.5626,-262.0278 3125.0327,-252.0384 3121.5626,-262.0488 3128.5626,-262.0278"/>
</g>
<!-- Metadata -->
<g id="node42" class="node">
<title>Metadata</title>
<ellipse fill="none" stroke="#000000" cx="3207.3364" cy="-90" rx="55.4913" ry="18"/>
<text text-anchor="middle" x="3207.3364" y="-86.3" font-family="Times,serif" font-size="14.00" fill="#000000">Metadata</text>
</g>
<!-- InstallConfig&#45;&gt;Metadata -->
<g id="edge103" class="edge">
<title>InstallConfig&#45;&gt;Metadata</title>
<path fill="none" stroke="#000000" d="M2867.619,-591.9476C3024.1798,-586.8736 3387.8028,-571.7816 3433.3364,-540 3469.5326,-514.7358 3475.3364,-494.1412 3475.3364,-450 3475.3364,-450 3475.3364,-450 3475.3364,-234 3475.3364,-141.6211 3350.2466,-108.2551 3270.988,-96.3856"/>
<polygon fill="#000000" stroke="#000000" points="3270.9973,-92.852 3260.605,-94.9135 3270.0146,-99.7827 3270.9973,-92.852"/>
</g>
<!-- clusterID -->
<g id="node3" class="node">
<title>clusterID</title>
<ellipse fill="none" stroke="#000000" cx="3274.3364" cy="-666" rx="54.6905" ry="18"/>
<text text-anchor="middle" x="3274.3364" y="-662.3" font-family="Times,serif" font-size="14.00" fill="#000000">clusterID</text>
</g>
<!-- clusterID&#45;&gt;InstallConfig -->
<g id="edge2" class="edge">
<title>clusterID&#45;&gt;InstallConfig</title>
<path fill="none" stroke="#000000" d="M3234.2277,-653.5763C3226.6721,-651.5111 3218.8,-649.5429 3211.3364,-648 3095.1035,-623.9726 2958.2241,-608.6212 2874.3783,-600.6571"/>
<polygon fill="#000000" stroke="#000000" points="2874.7044,-597.1724 2864.421,-599.7224 2874.0501,-604.1418 2874.7044,-597.1724"/>
</g>
<!-- emailAddress -->
<g id="node4" class="node">
<title>emailAddress</title>
<ellipse fill="none" stroke="#000000" cx="2266.3364" cy="-666" rx="74.187" ry="18"/>
<text text-anchor="middle" x="2266.3364" y="-662.3" font-family="Times,serif" font-size="14.00" fill="#000000">emailAddress</text>
</g>
<!-- emailAddress&#45;&gt;InstallConfig -->
<g id="edge3" class="edge">
<title>emailAddress&#45;&gt;InstallConfig</title>
<path fill="none" stroke="#000000" d="M2320.2183,-653.5507C2329.883,-651.5361 2339.8855,-649.5921 2349.3364,-648 2478.2968,-626.2755 2629.6108,-609.8829 2718.9828,-601.1316"/>
<polygon fill="#000000" stroke="#000000" points="2719.4209,-604.6056 2729.0351,-600.1539 2718.7432,-597.6384 2719.4209,-604.6056"/>
</g>
<!-- password -->
<g id="node5" class="node">
<title>password</title>
<ellipse fill="none" stroke="#000000" cx="2413.3364" cy="-666" rx="55.4913" ry="18"/>
<text text-anchor="middle" x="2413.3364" y="-662.3" font-family="Times,serif" font-size="14.00" fill="#000000">password</text>
</g>
<!-- password&#45;&gt;InstallConfig -->
<g id="edge4" class="edge">
<title>password&#45;&gt;InstallConfig</title>
<path fill="none" stroke="#000000" d="M2454.1417,-653.8245C2461.8115,-651.7352 2469.7911,-649.6946 2477.3364,-648 2560.961,-629.2184 2658.2281,-613.6416 2723.1656,-604.1218"/>
<polygon fill="#000000" stroke="#000000" points="2723.9114,-607.5502 2733.303,-602.6463 2722.9032,-600.6232 2723.9114,-607.5502"/>
</g>
<!-- sshPublicKey -->
<g id="node6" class="node">
<title>sshPublicKey</title>
<ellipse fill="none" stroke="#000000" cx="2559.3364" cy="-666" rx="72.5877" ry="18"/>
<text text-anchor="middle" x="2559.3364" y="-662.3" font-family="Times,serif" font-size="14.00" fill="#000000">sshPublicKey</text>
</g>
<!-- sshPublicKey&#45;&gt;InstallConfig -->
<g id="edge5" class="edge">
<title>sshPublicKey&#45;&gt;InstallConfig</title>
<path fill="none" stroke="#000000" d="M2605.3134,-652.0323C2644.0704,-640.258 2699.6446,-623.3747 2740.8661,-610.8517"/>
<polygon fill="#000000" stroke="#000000" points="2741.9366,-614.1846 2750.4874,-607.9288 2739.9017,-607.4868 2741.9366,-614.1846"/>
</g>
<!-- baseDomain -->
<g id="node7" class="node">
<title>baseDomain</title>
<ellipse fill="none" stroke="#000000" cx="2717.3364" cy="-666" rx="67.6881" ry="18"/>
<text text-anchor="middle" x="2717.3364" y="-662.3" font-family="Times,serif" font-size="14.00" fill="#000000">baseDomain</text>
</g>
<!-- baseDomain&#45;&gt;InstallConfig -->
<g id="edge6" class="edge">
<title>baseDomain&#45;&gt;InstallConfig</title>
<path fill="none" stroke="#000000" d="M2736.4601,-648.5708C2746.3814,-639.5286 2758.6646,-628.3338 2769.5185,-618.4417"/>
<polygon fill="#000000" stroke="#000000" points="2772.0817,-620.8411 2777.115,-611.5182 2767.3664,-615.6675 2772.0817,-620.8411"/>
</g>
<!-- clusterName -->
<g id="node8" class="node">
<title>clusterName</title>
<ellipse fill="none" stroke="#000000" cx="2874.3364" cy="-666" rx="71.4873" ry="18"/>
<text text-anchor="middle" x="2874.3364" y="-662.3" font-family="Times,serif" font-size="14.00" fill="#000000">clusterName</text>
</g>
<!-- clusterName&#45;&gt;InstallConfig -->
<g id="edge7" class="edge">
<title>clusterName&#45;&gt;InstallConfig</title>
<path fill="none" stroke="#000000" d="M2855.4548,-648.5708C2845.659,-639.5286 2833.5314,-628.3338 2822.8149,-618.4417"/>
<polygon fill="#000000" stroke="#000000" points="2825.0365,-615.7292 2815.3145,-611.5182 2820.2886,-620.8729 2825.0365,-615.7292"/>
</g>
<!-- pullSecret -->
<g id="node9" class="node">
<title>pullSecret</title>
<ellipse fill="none" stroke="#000000" cx="3023.3364" cy="-666" rx="59.2899" ry="18"/>
<text text-anchor="middle" x="3023.3364" y="-662.3" font-family="Times,serif" font-size="14.00" fill="#000000">pullSecret</text>
</g>
<!-- pullSecret&#45;&gt;InstallConfig -->
<g id="edge8" class="edge">
<title>pullSecret&#45;&gt;InstallConfig</title>
<path fill="none" stroke="#000000" d="M2982.2284,-652.9613C2945.4024,-641.2809 2891.1262,-624.0655 2850.7182,-611.2489"/>
<polygon fill="#000000" stroke="#000000" points="2851.6136,-607.8611 2841.0234,-608.1739 2849.4972,-614.5335 2851.6136,-607.8611"/>
</g>
<!-- platform -->
<g id="node10" class="node">
<title>platform</title>
<ellipse fill="none" stroke="#000000" cx="3151.3364" cy="-666" rx="50.8918" ry="18"/>
<text text-anchor="middle" x="3151.3364" y="-662.3" font-family="Times,serif" font-size="14.00" fill="#000000">platform</text>
</g>
<!-- platform&#45;&gt;InstallConfig -->
<g id="edge9" class="edge">
<title>platform&#45;&gt;InstallConfig</title>
<path fill="none" stroke="#000000" d="M3113.4201,-653.9359C3106.1298,-651.8123 3098.5262,-649.7309 3091.3364,-648 3015.7307,-629.7981 2927.9301,-614.4541 2867.9003,-604.829"/>
<polygon fill="#000000" stroke="#000000" points="2868.1944,-601.3318 2857.7685,-603.2165 2867.0941,-608.2448 2868.1944,-601.3318"/>
</g>
<!-- Target Manifests -->
<g id="node12" class="node">
<title>Target Manifests</title>
<polygon fill="#d3d3d3" stroke="#000000" points="2490.8364,-324 2351.8364,-324 2351.8364,-288 2490.8364,-288 2490.8364,-324"/>
<text text-anchor="middle" x="2421.3364" y="-302.3" font-family="Times,serif" font-size="14.00" fill="#000000">Target Manifests</text>
</g>
<!-- Manifests&#45;&gt;Target Manifests -->
<g id="edge10" class="edge">
<title>Manifests&#45;&gt;Target Manifests</title>
<path fill="none" stroke="#000000" d="M2094.9767,-368.6611C2157.5645,-356.6442 2267.1151,-335.6105 2341.878,-321.256"/>
<polygon fill="#000000" stroke="#000000" points="2342.5696,-324.6872 2351.7303,-319.3644 2341.2497,-317.8128 2342.5696,-324.6872"/>
</g>
<!-- Manifests&#45;&gt;Bootstrap -->
<g id="edge86" class="edge">
<title>Manifests&#45;&gt;Bootstrap</title>
<path fill="none" stroke="#000000" d="M1996.5939,-369.2434C1921.1578,-355.9637 1778.0622,-330.7732 1697.0906,-316.5191"/>
<polygon fill="#000000" stroke="#000000" points="1697.5076,-313.0387 1687.0522,-314.7519 1696.294,-319.9327 1697.5076,-313.0387"/>
</g>
<!-- KubeCoreOperator&#45;&gt;Manifests -->
<g id="edge12" class="edge">
<title>KubeCoreOperator&#45;&gt;Manifests</title>
<path fill="none" stroke="#000000" d="M2528.9283,-439.6075C2415.3811,-425.1121 2211.8744,-399.1325 2109.2174,-386.0274"/>
<polygon fill="#000000" stroke="#000000" points="2109.368,-382.5183 2099.0052,-384.7237 2108.4815,-389.4619 2109.368,-382.5183"/>
</g>
<!-- KubeCoreOperator&#45;&gt;Bootstrap -->
<g id="edge88" class="edge">
<title>KubeCoreOperator&#45;&gt;Bootstrap</title>
<path fill="none" stroke="#000000" d="M2594.4724,-431.9208C2574.3315,-410.3925 2537.3574,-375.4143 2497.3364,-360 2424.0839,-331.7864 1892.858,-313.5375 1703.8617,-307.8787"/>
<polygon fill="#000000" stroke="#000000" points="1703.8819,-304.3779 1693.7824,-307.5792 1703.6739,-311.3748 1703.8819,-304.3779"/>
</g>
<!-- networkOperator&#45;&gt;Manifests -->
<g id="edge14" class="edge">
<title>networkOperator&#45;&gt;Manifests</title>
<path fill="none" stroke="#000000" d="M3137.311,-509.5009C3068.6535,-496.2319 2968.8817,-476.0836 2952.3364,-468 2929.9418,-457.0586 2932.4852,-441.2394 2909.3364,-432 2836.1349,-402.7831 2302.2512,-385.1616 2112.7953,-379.7733"/>
<polygon fill="#000000" stroke="#000000" points="2112.7875,-376.2718 2102.6928,-379.4883 2112.5901,-383.269 2112.7875,-376.2718"/>
</g>
<!-- kubeAddonOperator&#45;&gt;Manifests -->
<g id="edge16" class="edge">
<title>kubeAddonOperator&#45;&gt;Manifests</title>
<path fill="none" stroke="#000000" d="M2926.8625,-504.3903C2913.5567,-493.9055 2896.4078,-480.2898 2881.3364,-468 2862.0199,-452.2486 2861.4593,-441.304 2838.3364,-432 2771.9018,-405.2686 2291.2995,-386.3487 2112.825,-380.1761"/>
<polygon fill="#000000" stroke="#000000" points="2112.8921,-376.6764 2102.7779,-379.8311 2112.6518,-383.6723 2112.8921,-376.6764"/>
</g>
<!-- machineAPIOperator&#45;&gt;Manifests -->
<g id="edge18" class="edge">
<title>machineAPIOperator&#45;&gt;Manifests</title>
<path fill="none" stroke="#000000" d="M1926.5432,-432.937C1949.9983,-422.1805 1980.3291,-408.2709 2004.6018,-397.1394"/>
<polygon fill="#000000" stroke="#000000" points="2006.2868,-400.2173 2013.9175,-392.8673 2003.3687,-393.8545 2006.2868,-400.2173"/>
</g>
<!-- AggregatorCA -->
<g id="node17" class="node">
<title>AggregatorCA</title>
<ellipse fill="none" stroke="#000000" cx="1109.3364" cy="-522" rx="77.9862" ry="18"/>
<text text-anchor="middle" x="1109.3364" y="-518.3" font-family="Times,serif" font-size="14.00" fill="#000000">AggregatorCA</text>
</g>
<!-- AggregatorCA&#45;&gt;Manifests -->
<g id="edge34" class="edge">
<title>AggregatorCA&#45;&gt;Manifests</title>
<path fill="none" stroke="#000000" d="M1168.6316,-510.1814C1234.3363,-496.8452 1333.209,-475.9736 1349.3364,-468 1371.6793,-456.9534 1369.2806,-441.4692 1392.3364,-432 1445.7131,-410.0779 1824.202,-389.0337 1979.7949,-381.2075"/>
<polygon fill="#000000" stroke="#000000" points="1980.3477,-384.6844 1990.1604,-380.6892 1979.998,-377.6931 1980.3477,-384.6844"/>
</g>
<!-- AggregatorCA&#45;&gt;machineAPIOperator -->
<g id="edge20" class="edge">
<title>AggregatorCA&#45;&gt;machineAPIOperator</title>
<path fill="none" stroke="#000000" d="M1174.1174,-511.9077C1193.4582,-509.1011 1214.7287,-506.2179 1234.3364,-504 1424.2571,-482.517 1646.0776,-466.0277 1776.7348,-457.1951"/>
<polygon fill="#000000" stroke="#000000" points="1777.0163,-460.6842 1786.7586,-456.5204 1776.5461,-453.7 1777.0163,-460.6842"/>
</g>
<!-- ClusterAPIServerCertKey -->
<g id="node24" class="node">
<title>ClusterAPIServerCertKey</title>
<ellipse fill="none" stroke="#000000" cx="651.3364" cy="-450" rx="131.8766" ry="18"/>
<text text-anchor="middle" x="651.3364" y="-446.3" font-family="Times,serif" font-size="14.00" fill="#000000">ClusterAPIServerCertKey</text>
</g>
<!-- AggregatorCA&#45;&gt;ClusterAPIServerCertKey -->
<g id="edge38" class="edge">
<title>AggregatorCA&#45;&gt;ClusterAPIServerCertKey</title>
<path fill="none" stroke="#000000" d="M1044.6876,-511.8369C967.4048,-499.6876 837.3398,-479.2407 748.0738,-465.2076"/>
<polygon fill="#000000" stroke="#000000" points="748.3623,-461.7101 737.9401,-463.6146 747.2752,-468.6252 748.3623,-461.7101"/>
</g>
<!-- AggregatorCA&#45;&gt;OpenshiftAPIServerCertKey -->
<g id="edge45" class="edge">
<title>AggregatorCA&#45;&gt;OpenshiftAPIServerCertKey</title>
<path fill="none" stroke="#000000" d="M1173.106,-511.6058C1192.701,-508.7387 1214.3648,-505.8979 1234.3364,-504 1577.1637,-471.4204 1664.4446,-486.1778 2008.3364,-468 2062.4116,-465.1416 2121.8782,-461.6892 2173.7664,-458.5756"/>
<polygon fill="#000000" stroke="#000000" points="2174.2673,-462.0519 2184.0391,-457.9577 2173.847,-455.0646 2174.2673,-462.0519"/>
</g>
<!-- APIServerProxyCertKey -->
<g id="node28" class="node">
<title>APIServerProxyCertKey</title>
<ellipse fill="none" stroke="#000000" cx="925.3364" cy="-450" rx="124.2781" ry="18"/>
<text text-anchor="middle" x="925.3364" y="-446.3" font-family="Times,serif" font-size="14.00" fill="#000000">APIServerProxyCertKey</text>
</g>
<!-- AggregatorCA&#45;&gt;APIServerProxyCertKey -->
<g id="edge48" class="edge">
<title>AggregatorCA&#45;&gt;APIServerProxyCertKey</title>
<path fill="none" stroke="#000000" d="M1069.4111,-506.3771C1042.7273,-495.9356 1007.3287,-482.0839 978.2974,-470.7239"/>
<polygon fill="#000000" stroke="#000000" points="979.3058,-467.3601 968.7179,-466.9754 976.7549,-473.8788 979.3058,-467.3601"/>
</g>
<!-- AggregatorCA&#45;&gt;Bootstrap -->
<g id="edge70" class="edge">
<title>AggregatorCA&#45;&gt;Bootstrap</title>
<path fill="none" stroke="#000000" d="M1031.441,-520.7089C877.214,-517.3423 544.8299,-505.743 510.3364,-468 499.5425,-456.1893 499.9506,-444.1711 510.3364,-432 579.5604,-350.8764 1338.9183,-316.815 1570.6094,-308.2639"/>
<polygon fill="#000000" stroke="#000000" points="1571.0483,-311.7503 1580.9139,-307.8876 1570.7928,-304.7549 1571.0483,-311.7503"/>
</g>
<!-- RootCA -->
<g id="node18" class="node">
<title>RootCA</title>
<ellipse fill="none" stroke="#000000" cx="1693.3364" cy="-666" rx="46.2923" ry="18"/>
<text text-anchor="middle" x="1693.3364" y="-662.3" font-family="Times,serif" font-size="14.00" fill="#000000">RootCA</text>
</g>
<!-- RootCA&#45;&gt;Manifests -->
<g id="edge29" class="edge">
<title>RootCA&#45;&gt;Manifests</title>
<path fill="none" stroke="#000000" d="M1735.5986,-658.7628C1827.8555,-642.0141 2042.3987,-597.576 2084.3364,-540 2114.0795,-499.166 2085.456,-438.5263 2064.3274,-404.1935"/>
<polygon fill="#000000" stroke="#000000" points="2067.2126,-402.2083 2058.8896,-395.6525 2061.3078,-405.9677 2067.2126,-402.2083"/>
</g>
<!-- RootCA&#45;&gt;AggregatorCA -->
<g id="edge21" class="edge">
<title>RootCA&#45;&gt;AggregatorCA</title>
<path fill="none" stroke="#000000" d="M1646.9735,-664.7466C1540.1171,-661.2484 1279.6927,-649.0672 1201.3364,-612 1171.0237,-597.6603 1144.6336,-569.2024 1127.9848,-548.108"/>
<polygon fill="#000000" stroke="#000000" points="1130.7444,-545.955 1121.8833,-540.1471 1125.1885,-550.2132 1130.7444,-545.955"/>
</g>
<!-- KubeCA -->
<g id="node21" class="node">
<title>KubeCA</title>
<ellipse fill="none" stroke="#000000" cx="1693.3364" cy="-594" rx="48.9926" ry="18"/>
<text text-anchor="middle" x="1693.3364" y="-590.3" font-family="Times,serif" font-size="14.00" fill="#000000">KubeCA</text>
</g>
<!-- RootCA&#45;&gt;KubeCA -->
<g id="edge26" class="edge">
<title>RootCA&#45;&gt;KubeCA</title>
<path fill="none" stroke="#000000" d="M1693.3364,-647.8314C1693.3364,-640.131 1693.3364,-630.9743 1693.3364,-622.4166"/>
<polygon fill="#000000" stroke="#000000" points="1696.8365,-622.4132 1693.3364,-612.4133 1689.8365,-622.4133 1696.8365,-622.4132"/>
</g>
<!-- EtcdCA -->
<g id="node22" class="node">
<title>EtcdCA</title>
<ellipse fill="none" stroke="#000000" cx="185.3364" cy="-522" rx="46.5926" ry="18"/>
<text text-anchor="middle" x="185.3364" y="-518.3" font-family="Times,serif" font-size="14.00" fill="#000000">EtcdCA</text>
</g>
<!-- RootCA&#45;&gt;EtcdCA -->
<g id="edge31" class="edge">
<title>RootCA&#45;&gt;EtcdCA</title>
<path fill="none" stroke="#000000" d="M1647.1201,-665.3263C1426.3766,-661.9478 484.8469,-645.6632 358.3364,-612 305.0267,-597.8148 249.4944,-565.227 216.165,-543.409"/>
<polygon fill="#000000" stroke="#000000" points="218.0457,-540.4564 207.7793,-537.8387 214.1725,-546.2873 218.0457,-540.4564"/>
</g>
<!-- ServiceServingCA -->
<g id="node23" class="node">
<title>ServiceServingCA</title>
<ellipse fill="none" stroke="#000000" cx="329.3364" cy="-450" rx="96.3833" ry="18"/>
<text text-anchor="middle" x="329.3364" y="-446.3" font-family="Times,serif" font-size="14.00" fill="#000000">ServiceServingCA</text>
</g>
<!-- RootCA&#45;&gt;ServiceServingCA -->
<g id="edge36" class="edge">
<title>RootCA&#45;&gt;ServiceServingCA</title>
<path fill="none" stroke="#000000" d="M1647.1962,-665.1707C1427.1825,-661.0696 493.0428,-641.9471 439.3364,-612 386.3231,-582.4394 353.7505,-515.3116 338.8931,-477.3975"/>
<polygon fill="#000000" stroke="#000000" points="342.1431,-476.0966 335.3325,-467.9808 335.5956,-478.5724 342.1431,-476.0966"/>
</g>
<!-- RootCA&#45;&gt;MCSCertKey -->
<g id="edge50" class="edge">
<title>RootCA&#45;&gt;MCSCertKey</title>
<path fill="none" stroke="#000000" d="M1714.3372,-649.9486C1726.3161,-639.9996 1740.9625,-626.4004 1751.3364,-612 1765.203,-592.7512 1776.0447,-568.0636 1783.0873,-549.4152"/>
<polygon fill="#000000" stroke="#000000" points="1786.3783,-550.6063 1786.5118,-540.0123 1779.8009,-548.2108 1786.3783,-550.6063"/>
</g>
<!-- RootCA&#45;&gt;Admin -->
<g id="edge56" class="edge">
<title>RootCA&#45;&gt;Admin</title>
<path fill="none" stroke="#000000" d="M1738.9778,-662.9019C1817.1705,-656.9925 1981.4611,-641.9438 2117.3364,-612 2220.6984,-589.2214 2245.2119,-577.1066 2344.3364,-540 2381.9937,-525.9033 2388.3603,-513.882 2427.3364,-504 2605.0786,-458.9354 2655.8563,-486.0038 2838.3364,-468 2876.6609,-464.2188 2919.9655,-459.4445 2952.4483,-455.7631"/>
<polygon fill="#000000" stroke="#000000" points="2953.0541,-459.2168 2962.5944,-454.6089 2952.2629,-452.2617 2953.0541,-459.2168"/>
</g>
<!-- RootCA&#45;&gt;Worker -->
<g id="edge62" class="edge">
<title>RootCA&#45;&gt;Worker</title>
<path fill="none" stroke="#000000" d="M1739.3471,-664.6113C1828.5495,-661.1416 2030.7965,-649.4715 2196.3364,-612 2200.7449,-611.0021 2498.9082,-504.9063 2503.3364,-504 2742.8947,-454.9713 2809.855,-499.54 3052.3364,-468 3066.0975,-466.2101 3080.8978,-463.6156 3094.5185,-460.9512"/>
<polygon fill="#000000" stroke="#000000" points="3095.553,-464.3134 3104.6677,-458.9122 3094.1741,-457.4505 3095.553,-464.3134"/>
</g>
<!-- RootCA&#45;&gt;Bootstrap -->
<g id="edge66" class="edge">
<title>RootCA&#45;&gt;Bootstrap</title>
<path fill="none" stroke="#000000" d="M1646.99,-665.5844C1421.8795,-662.9674 453.3364,-644.5848 453.3364,-522 453.3364,-522 453.3364,-522 453.3364,-450 453.3364,-375.2804 524.1407,-382.6757 595.3364,-360 687.7828,-330.5559 1355.28,-312.5743 1570.5842,-307.4914"/>
<polygon fill="#000000" stroke="#000000" points="1570.8789,-310.9856 1580.7941,-307.2521 1570.7148,-303.9875 1570.8789,-310.9856"/>
</g>
<!-- RootCA&#45;&gt;Kubelet -->
<g id="edge83" class="edge">
<title>RootCA&#45;&gt;Kubelet</title>
<path fill="none" stroke="#000000" d="M1649.001,-660.6108C1544.013,-646.8459 1285.1927,-606.6982 1234.3364,-540 1159.2298,-441.4975 1278.3738,-496.0162 1385.3364,-468 1390.5633,-466.6309 1396.0195,-465.1502 1401.4399,-463.6465"/>
<polygon fill="#000000" stroke="#000000" points="1402.4192,-467.0069 1411.1007,-460.9338 1400.5269,-460.2675 1402.4192,-467.0069"/>
</g>
<!-- RootCA&#45;&gt;Master -->
<g id="edge91" class="edge">
<title>RootCA&#45;&gt;Master</title>
<path fill="none" stroke="#000000" d="M1738.9767,-663.115C1855.6547,-655.5078 2162.6481,-633.9739 2262.3364,-612 2356.2305,-591.3033 2378.0482,-578.0742 2466.3364,-540 2498.4608,-526.1464 2502.5703,-513.1515 2536.3364,-504 2678.5348,-465.4604 3059.4013,-517.0176 3198.3364,-468 3237.7588,-454.0914 3275.6468,-423.6084 3299.1737,-401.9801"/>
<polygon fill="#000000" stroke="#000000" points="3301.6899,-404.4186 3306.5833,-395.0215 3296.8978,-399.316 3301.6899,-404.4186"/>
</g>
<!-- Tectonic&#45;&gt;Manifests -->
<g id="edge22" class="edge">
<title>Tectonic&#45;&gt;Manifests</title>
<path fill="none" stroke="#000000" d="M2741.5109,-437.6207C2733.9194,-435.4464 2725.925,-433.4266 2718.3364,-432 2603.3366,-410.3812 2258.0241,-389.5907 2112.3307,-381.5231"/>
<polygon fill="#000000" stroke="#000000" points="2112.3691,-378.02 2102.1917,-380.9644 2111.9839,-385.0094 2112.3691,-378.02"/>
</g>
<!-- Tectonic&#45;&gt;Target Manifests -->
<g id="edge63" class="edge">
<title>Tectonic&#45;&gt;Target Manifests</title>
<path fill="none" stroke="#000000" d="M2759.7395,-433.0907C2736.3665,-412.7414 2694.2167,-378.9516 2652.3364,-360 2604.27,-338.2491 2546.467,-324.745 2500.7071,-316.6806"/>
<polygon fill="#000000" stroke="#000000" points="2501.2843,-313.2286 2490.8373,-314.9922 2500.1039,-320.1284 2501.2843,-313.2286"/>
</g>
<!-- Tectonic&#45;&gt;Bootstrap -->
<g id="edge87" class="edge">
<title>Tectonic&#45;&gt;Bootstrap</title>
<path fill="none" stroke="#000000" d="M2745.4752,-436.1609C2690.2638,-413.1498 2580.9433,-368.6818 2540.3364,-360 2380.6417,-325.8571 1884.4962,-311.5508 1703.9207,-307.384"/>
<polygon fill="#000000" stroke="#000000" points="1703.8431,-303.8814 1693.7659,-307.1527 1703.6836,-310.8796 1703.8431,-303.8814"/>
</g>
<!-- IngressCertKey&#45;&gt;Manifests -->
<g id="edge32" class="edge">
<title>IngressCertKey&#45;&gt;Manifests</title>
<path fill="none" stroke="#000000" d="M2197.0113,-504.2192C2177.6609,-485.6723 2146.0414,-456.0091 2117.3364,-432 2104.5961,-421.3439 2090.0692,-410.1387 2077.4888,-400.7147"/>
<polygon fill="#000000" stroke="#000000" points="2079.2492,-397.6621 2069.1361,-394.5036 2075.0722,-403.2793 2079.2492,-397.6621"/>
</g>
<!-- IngressCertKey&#45;&gt;Tectonic -->
<g id="edge24" class="edge">
<title>IngressCertKey&#45;&gt;Tectonic</title>
<path fill="none" stroke="#000000" d="M2277.1458,-509.7461C2289.1205,-507.6276 2301.595,-505.5966 2313.3364,-504 2492.3982,-479.6509 2540.8806,-502.1386 2718.3364,-468 2722.5415,-467.191 2726.8724,-466.2051 2731.191,-465.1158"/>
<polygon fill="#000000" stroke="#000000" points="2732.4371,-468.4048 2741.1804,-462.421 2730.6139,-461.6464 2732.4371,-468.4048"/>
</g>
<!-- IngressCertKey&#45;&gt;Bootstrap -->
<g id="edge68" class="edge">
<title>IngressCertKey&#45;&gt;Bootstrap</title>
<path fill="none" stroke="#000000" d="M2275.4634,-509.4382C2348.6661,-494.0764 2462.8288,-469.8696 2464.3364,-468 2474.3799,-455.5449 2474.1932,-444.6033 2464.3364,-432 2417.3066,-371.8661 1889.6702,-325.5156 1702.6099,-310.8713"/>
<polygon fill="#000000" stroke="#000000" points="1702.8772,-307.3816 1692.6358,-310.0953 1702.3342,-314.3605 1702.8772,-307.3816"/>
</g>
<!-- KubeCA&#45;&gt;Manifests -->
<g id="edge33" class="edge">
<title>KubeCA&#45;&gt;Manifests</title>
<path fill="none" stroke="#000000" d="M1694.654,-575.9616C1696.5825,-557.2046 1701.245,-527.3722 1712.3364,-504 1729.9535,-466.8768 1735.1544,-453.2302 1770.3364,-432 1805.3494,-410.8718 1912.7148,-394.2729 1982.7547,-385.3222"/>
<polygon fill="#000000" stroke="#000000" points="1983.3199,-388.7788 1992.8046,-384.0575 1982.4458,-381.8335 1983.3199,-388.7788"/>
</g>
<!-- KubeCA&#45;&gt;Tectonic -->
<g id="edge28" class="edge">
<title>KubeCA&#45;&gt;Tectonic</title>
<path fill="none" stroke="#000000" d="M1742.4163,-593.4623C1869.4465,-591.4755 2206.2022,-582.2577 2308.3364,-540 2331.3675,-530.4709 2328.3542,-513.6464 2351.3364,-504 2502.4581,-440.5693 2557.5365,-499.6958 2718.3364,-468 2722.5377,-467.1719 2726.8661,-466.1727 2731.183,-465.0746"/>
<polygon fill="#000000" stroke="#000000" points="2732.4341,-468.3618 2741.1698,-462.367 2730.6024,-461.6057 2732.4341,-468.3618"/>
</g>
<!-- KubeCA&#45;&gt;IngressCertKey -->
<g id="edge25" class="edge">
<title>KubeCA&#45;&gt;IngressCertKey</title>
<path fill="none" stroke="#000000" d="M1739.2029,-587.6736C1827.7427,-575.4612 2023.2436,-548.4956 2134.23,-533.1871"/>
<polygon fill="#000000" stroke="#000000" points="2134.9436,-536.6219 2144.3716,-531.7883 2133.9871,-529.6875 2134.9436,-536.6219"/>
</g>
<!-- KubeCA&#45;&gt;APIServerCertKey -->
<g id="edge42" class="edge">
<title>KubeCA&#45;&gt;APIServerCertKey</title>
<path fill="none" stroke="#000000" d="M1733.8673,-583.7606C1779.8736,-572.138 1855.6581,-552.9924 1910.6696,-539.0948"/>
<polygon fill="#000000" stroke="#000000" points="1911.8498,-542.4067 1920.6879,-536.5638 1910.1352,-535.6199 1911.8498,-542.4067"/>
</g>
<!-- KubeletCertKey -->
<g id="node30" class="node">
<title>KubeletCertKey</title>
<ellipse fill="none" stroke="#000000" cx="1328.3364" cy="-522" rx="85.2851" ry="18"/>
<text text-anchor="middle" x="1328.3364" y="-518.3" font-family="Times,serif" font-size="14.00" fill="#000000">KubeletCertKey</text>
</g>
<!-- KubeCA&#45;&gt;KubeletCertKey -->
<g id="edge53" class="edge">
<title>KubeCA&#45;&gt;KubeletCertKey</title>
<path fill="none" stroke="#000000" d="M1650.0328,-585.4579C1588.6221,-573.344 1475.44,-551.0177 1401.0284,-536.3392"/>
<polygon fill="#000000" stroke="#000000" points="1401.2836,-532.8222 1390.7953,-534.3207 1399.9288,-539.6899 1401.2836,-532.8222"/>
</g>
<!-- AdminCertKey -->
<g id="node33" class="node">
<title>AdminCertKey</title>
<ellipse fill="none" stroke="#000000" cx="1586.3364" cy="-522" rx="79.0865" ry="18"/>
<text text-anchor="middle" x="1586.3364" y="-518.3" font-family="Times,serif" font-size="14.00" fill="#000000">AdminCertKey</text>
</g>
<!-- KubeCA&#45;&gt;AdminCertKey -->
<g id="edge58" class="edge">
<title>KubeCA&#45;&gt;AdminCertKey</title>
<path fill="none" stroke="#000000" d="M1669.8548,-578.1993C1655.425,-568.4895 1636.6875,-555.8811 1620.6179,-545.068"/>
<polygon fill="#000000" stroke="#000000" points="1622.2597,-541.9541 1612.0092,-539.2751 1618.3518,-547.7617 1622.2597,-541.9541"/>
</g>
<!-- KubeCA&#45;&gt;Bootstrap -->
<g id="edge69" class="edge">
<title>KubeCA&#45;&gt;Bootstrap</title>
<path fill="none" stroke="#000000" d="M1647.3068,-587.7145C1595.5337,-579.5909 1516.308,-563.6247 1498.3364,-540 1488.6493,-527.2658 1492.7681,-518.9998 1498.3364,-504 1505.6846,-484.2053 1516.5673,-484.816 1529.3364,-468 1564.2777,-421.9851 1600.7068,-365.1958 1621.0596,-332.5343"/>
<polygon fill="#000000" stroke="#000000" points="1624.0621,-334.3338 1626.3593,-323.9909 1618.1136,-330.6438 1624.0621,-334.3338"/>
</g>
<!-- EtcdCA&#45;&gt;Manifests -->
<g id="edge30" class="edge">
<title>EtcdCA&#45;&gt;Manifests</title>
<path fill="none" stroke="#000000" d="M232.2631,-521.8564C433.4243,-520.9588 1217.1582,-514.4828 1316.3364,-468 1335.99,-458.7888 1329.8213,-441.5012 1349.3364,-432 1405.0951,-404.853 1816.1042,-386.6328 1979.5662,-380.3894"/>
<polygon fill="#000000" stroke="#000000" points="1980.1083,-383.8715 1989.9687,-379.9956 1979.8434,-376.8765 1980.1083,-383.8715"/>
</g>
<!-- EtcdClientCertKey -->
<g id="node25" class="node">
<title>EtcdClientCertKey</title>
<ellipse fill="none" stroke="#000000" cx="116.3364" cy="-450" rx="98.5829" ry="18"/>
<text text-anchor="middle" x="116.3364" y="-446.3" font-family="Times,serif" font-size="14.00" fill="#000000">EtcdClientCertKey</text>
</g>
<!-- EtcdCA&#45;&gt;EtcdClientCertKey -->
<g id="edge40" class="edge">
<title>EtcdCA&#45;&gt;EtcdClientCertKey</title>
<path fill="none" stroke="#000000" d="M168.9844,-504.937C160.4735,-496.0561 149.9027,-485.0257 140.4712,-475.1841"/>
<polygon fill="#000000" stroke="#000000" points="142.98,-472.7435 133.5339,-467.9453 137.9261,-477.5868 142.98,-472.7435"/>
</g>
<!-- EtcdCA&#45;&gt;Bootstrap -->
<g id="edge67" class="edge">
<title>EtcdCA&#45;&gt;Bootstrap</title>
<path fill="none" stroke="#000000" d="M140.6278,-516.4648C76.6597,-506.6744 -29.3329,-482.3906 8.3364,-432 76.0344,-341.4397 140.7671,-378.3433 252.3364,-360 510.5786,-317.5419 1329.8712,-308.2498 1570.3585,-306.4156"/>
<polygon fill="#000000" stroke="#000000" points="1570.7228,-309.9131 1580.6964,-306.3386 1570.6706,-302.9133 1570.7228,-309.9131"/>
</g>
<!-- ServiceServingCA&#45;&gt;Manifests -->
<g id="edge35" class="edge">
<title>ServiceServingCA&#45;&gt;Manifests</title>
<path fill="none" stroke="#000000" d="M411.6892,-440.6881C442.5908,-437.4895 478.0412,-434.1713 510.3364,-432 1078.0925,-393.8282 1765.833,-381.7801 1979.6604,-378.821"/>
<polygon fill="#000000" stroke="#000000" points="1979.8308,-382.3191 1989.7821,-378.6829 1979.7352,-375.3198 1979.8308,-382.3191"/>
</g>
<!-- ServiceServingCA&#45;&gt;Bootstrap -->
<g id="edge71" class="edge">
<title>ServiceServingCA&#45;&gt;Bootstrap</title>
<path fill="none" stroke="#000000" d="M344.2908,-432.1873C363.6676,-410.5791 399.6975,-375.1645 439.3364,-360 544.9586,-319.5926 1334.2272,-308.8768 1570.625,-306.5594"/>
<polygon fill="#000000" stroke="#000000" points="1570.8315,-310.0576 1580.7974,-306.4615 1570.7641,-303.058 1570.8315,-310.0576"/>
</g>
<!-- ClusterAPIServerCertKey&#45;&gt;Manifests -->
<g id="edge37" class="edge">
<title>ClusterAPIServerCertKey&#45;&gt;Manifests</title>
<path fill="none" stroke="#000000" d="M743.7493,-437.0753C759.9187,-435.1364 776.5996,-433.3409 792.3364,-432 1244.8961,-393.4376 1791.808,-381.8725 1979.4201,-378.9061"/>
<polygon fill="#000000" stroke="#000000" points="1979.728,-382.4018 1989.6724,-378.7469 1979.6193,-375.4027 1979.728,-382.4018"/>
</g>
<!-- ClusterAPIServerCertKey&#45;&gt;Bootstrap -->
<g id="edge72" class="edge">
<title>ClusterAPIServerCertKey&#45;&gt;Bootstrap</title>
<path fill="none" stroke="#000000" d="M730.466,-435.4794C834.7182,-416.6267 1023.8887,-383.3756 1186.3364,-360 1323.9226,-340.2019 1485.8611,-322.066 1573.3847,-312.6898"/>
<polygon fill="#000000" stroke="#000000" points="1573.853,-316.1598 1583.4248,-311.6177 1573.1097,-309.1994 1573.853,-316.1598"/>
</g>
<!-- EtcdClientCertKey&#45;&gt;Manifests -->
<g id="edge39" class="edge">
<title>EtcdClientCertKey&#45;&gt;Manifests</title>
<path fill="none" stroke="#000000" d="M185.2891,-437.0784C198.2227,-435.0615 211.661,-433.2384 224.3364,-432 574.9231,-397.7484 1693.6335,-382.2315 1979.3795,-378.7677"/>
<polygon fill="#000000" stroke="#000000" points="1979.6314,-382.265 1989.5885,-378.6448 1979.547,-375.2655 1979.6314,-382.265"/>
</g>
<!-- EtcdClientCertKey&#45;&gt;Bootstrap -->
<g id="edge73" class="edge">
<title>EtcdClientCertKey&#45;&gt;Bootstrap</title>
<path fill="none" stroke="#000000" d="M154.3203,-433.1876C204.7964,-411.7531 297.2908,-375.605 380.3364,-360 611.7134,-316.5222 1344.6836,-307.9768 1570.4719,-306.362"/>
<polygon fill="#000000" stroke="#000000" points="1570.544,-309.8617 1580.5195,-306.2923 1570.4954,-302.8618 1570.544,-309.8617"/>
</g>
<!-- APIServerCertKey&#45;&gt;Manifests -->
<g id="edge41" class="edge">
<title>APIServerCertKey&#45;&gt;Manifests</title>
<path fill="none" stroke="#000000" d="M2007.6127,-504.6564C2020.3061,-495.474 2033.9353,-482.9821 2041.3364,-468 2050.7225,-448.9996 2051.5775,-424.9164 2050.3005,-406.4449"/>
<polygon fill="#000000" stroke="#000000" points="2053.7676,-405.9286 2049.3507,-396.2984 2046.798,-406.5811 2053.7676,-405.9286"/>
</g>
<!-- APIServerCertKey&#45;&gt;Bootstrap -->
<g id="edge74" class="edge">
<title>APIServerCertKey&#45;&gt;Bootstrap</title>
<path fill="none" stroke="#000000" d="M1909.3972,-509.2937C1858.0148,-498.8725 1792.9818,-483.3808 1770.3364,-468 1745.7382,-451.2929 1710.6845,-382.5799 1691.3364,-360 1682.7096,-349.9322 1672.5828,-339.4902 1663.4441,-330.5024"/>
<polygon fill="#000000" stroke="#000000" points="1665.6696,-327.7851 1656.0547,-323.335 1660.7959,-332.8098 1665.6696,-327.7851"/>
</g>
<!-- OpenshiftAPIServerCertKey&#45;&gt;Manifests -->
<g id="edge44" class="edge">
<title>OpenshiftAPIServerCertKey&#45;&gt;Manifests</title>
<path fill="none" stroke="#000000" d="M2251.9769,-433.6621C2205.9475,-421.203 2143.1736,-404.2116 2099.13,-392.29"/>
<polygon fill="#000000" stroke="#000000" points="2100.0408,-388.9106 2089.4736,-389.6762 2098.2118,-395.6675 2100.0408,-388.9106"/>
</g>
<!-- OpenshiftAPIServerCertKey&#45;&gt;Bootstrap -->
<g id="edge75" class="edge">
<title>OpenshiftAPIServerCertKey&#45;&gt;Bootstrap</title>
<path fill="none" stroke="#000000" d="M2281.2596,-432.3417C2242.8676,-411.406 2174.9379,-377.1925 2112.3364,-360 2036.7634,-339.2451 1814.1887,-319.7246 1702.6303,-310.9125"/>
<polygon fill="#000000" stroke="#000000" points="1702.7578,-307.4119 1692.5147,-310.1188 1702.2102,-314.3904 1702.7578,-307.4119"/>
</g>
<!-- APIServerProxyCertKey&#45;&gt;Manifests -->
<g id="edge47" class="edge">
<title>APIServerProxyCertKey&#45;&gt;Manifests</title>
<path fill="none" stroke="#000000" d="M1012.8603,-437.1429C1028.0009,-435.2085 1043.6065,-433.397 1058.3364,-432 1404.3163,-399.1858 1820.49,-384.5114 1979.8425,-379.7994"/>
<polygon fill="#000000" stroke="#000000" points="1980.0705,-383.2943 1989.9639,-379.5033 1979.8658,-376.2973 1980.0705,-383.2943"/>
</g>
<!-- APIServerProxyCertKey&#45;&gt;Bootstrap -->
<g id="edge76" class="edge">
<title>APIServerProxyCertKey&#45;&gt;Bootstrap</title>
<path fill="none" stroke="#000000" d="M994.8969,-435.0585C1079.8632,-416.8962 1228.0169,-385.5123 1355.3364,-360 1432.3366,-344.5707 1521.3621,-327.6812 1578.4516,-316.972"/>
<polygon fill="#000000" stroke="#000000" points="1579.1956,-320.3936 1588.3799,-315.1115 1577.9063,-313.5133 1579.1956,-320.3936"/>
</g>
<!-- MCSCertKey&#45;&gt;Manifests -->
<g id="edge49" class="edge">
<title>MCSCertKey&#45;&gt;Manifests</title>
<path fill="none" stroke="#000000" d="M1845.6148,-509.9333C1907.5176,-495.7277 2002.0513,-473.3818 2008.3364,-468 2026.7671,-452.2181 2036.4656,-425.9683 2041.4359,-405.879"/>
<polygon fill="#000000" stroke="#000000" points="2044.8733,-406.5442 2043.6251,-396.0231 2038.0399,-405.0262 2044.8733,-406.5442"/>
</g>
<!-- MCSCertKey&#45;&gt;Bootstrap -->
<g id="edge79" class="edge">
<title>MCSCertKey&#45;&gt;Bootstrap</title>
<path fill="none" stroke="#000000" d="M1772.3308,-504.5604C1761.3449,-494.4632 1747.8569,-481.1759 1737.3364,-468 1702.0484,-423.805 1669.2578,-366.3155 1651.3911,-333.0477"/>
<polygon fill="#000000" stroke="#000000" points="1654.3335,-331.1263 1646.5483,-323.9401 1648.1529,-334.4127 1654.3335,-331.1263"/>
</g>
<!-- KubeletCertKey&#45;&gt;Manifests -->
<g id="edge52" class="edge">
<title>KubeletCertKey&#45;&gt;Manifests</title>
<path fill="none" stroke="#000000" d="M1383.4602,-508.2329C1425.6693,-497.5763 1485.2927,-482.2747 1537.3364,-468 1592.6791,-452.8204 1605.2218,-444.0163 1661.3364,-432 1772.976,-408.0936 1905.1749,-392.2033 1982.0208,-384.1734"/>
<polygon fill="#000000" stroke="#000000" points="1982.4425,-387.6485 1992.0298,-383.1393 1981.723,-380.6856 1982.4425,-387.6485"/>
</g>
<!-- KubeletCertKey&#45;&gt;Bootstrap -->
<g id="edge78" class="edge">
<title>KubeletCertKey&#45;&gt;Bootstrap</title>
<path fill="none" stroke="#000000" d="M1388.8466,-509.3119C1432.7245,-499.0496 1487.2409,-483.7606 1504.3364,-468 1542.3217,-432.9807 1513.87,-399.3603 1547.3364,-360 1559.67,-345.4943 1576.9295,-333.8336 1593.0389,-325.1121"/>
<polygon fill="#000000" stroke="#000000" points="1595.0586,-328.0088 1602.3451,-320.3174 1591.8525,-321.7862 1595.0586,-328.0088"/>
</g>
<!-- KubeletCertKey&#45;&gt;Kubelet -->
<g id="edge84" class="edge">
<title>KubeletCertKey&#45;&gt;Kubelet</title>
<path fill="none" stroke="#000000" d="M1356.7747,-504.937C1373.8905,-494.6675 1395.7965,-481.5239 1413.8899,-470.6679"/>
<polygon fill="#000000" stroke="#000000" points="1416.1844,-473.3729 1422.9585,-465.2267 1412.5829,-467.3705 1416.1844,-473.3729"/>
</g>
<!-- ServiceAccountKeyPair -->
<g id="node31" class="node">
<title>ServiceAccountKeyPair</title>
<ellipse fill="none" stroke="#000000" cx="1187.3364" cy="-450" rx="120.4791" ry="18"/>
<text text-anchor="middle" x="1187.3364" y="-446.3" font-family="Times,serif" font-size="14.00" fill="#000000">ServiceAccountKeyPair</text>
</g>
<!-- ServiceAccountKeyPair&#45;&gt;Manifests -->
<g id="edge54" class="edge">
<title>ServiceAccountKeyPair&#45;&gt;Manifests</title>
<path fill="none" stroke="#000000" d="M1274.4652,-437.5355C1290.0537,-435.5225 1306.1614,-433.583 1321.3364,-432 1563.6486,-406.7237 1852.725,-388.8643 1980.2892,-381.607"/>
<polygon fill="#000000" stroke="#000000" points="1980.5073,-385.1004 1990.2935,-381.0408 1980.1116,-378.1116 1980.5073,-385.1004"/>
</g>
<!-- ServiceAccountKeyPair&#45;&gt;Bootstrap -->
<g id="edge80" class="edge">
<title>ServiceAccountKeyPair&#45;&gt;Bootstrap</title>
<path fill="none" stroke="#000000" d="M1238.519,-433.6216C1325.6911,-405.7265 1501.8643,-349.3511 1587.8597,-321.8325"/>
<polygon fill="#000000" stroke="#000000" points="1588.9328,-325.1641 1597.3903,-318.7827 1586.7993,-318.4971 1588.9328,-325.1641"/>
</g>
<!-- Admin&#45;&gt;Manifests -->
<g id="edge55" class="edge">
<title>Admin&#45;&gt;Manifests</title>
<path fill="none" stroke="#000000" d="M2970.9989,-438.2127C2963.356,-435.7662 2955.1335,-433.484 2947.3364,-432 2787.3607,-401.5529 2293.2583,-384.9506 2113.0149,-379.7816"/>
<polygon fill="#000000" stroke="#000000" points="2112.9729,-376.2791 2102.8775,-379.4935 2112.774,-383.2763 2112.9729,-376.2791"/>
</g>
<!-- Admin&#45;&gt;Bootstrap -->
<g id="edge81" class="edge">
<title>Admin&#45;&gt;Bootstrap</title>
<path fill="none" stroke="#000000" d="M2969.3615,-439.1928C2961.2227,-436.6844 2952.498,-434.1284 2944.3364,-432 2795.2936,-393.1324 2758.0137,-380.3495 2605.3364,-360 2430.4509,-336.6905 1892.8334,-315.3443 1703.8616,-308.3778"/>
<polygon fill="#000000" stroke="#000000" points="1703.9113,-304.8774 1693.7895,-308.008 1703.6543,-311.8727 1703.9113,-304.8774"/>
</g>
<!-- Target Cluster -->
<g id="node40" class="node">
<title>Target Cluster</title>
<polygon fill="#d3d3d3" stroke="#000000" points="3165.3364,-36 3043.3364,-36 3043.3364,0 3165.3364,0 3165.3364,-36"/>
<text text-anchor="middle" x="3104.3364" y="-14.3" font-family="Times,serif" font-size="14.00" fill="#000000">Target Cluster</text>
</g>
<!-- Admin&#45;&gt;Target Cluster -->
<g id="edge98" class="edge">
<title>Admin&#45;&gt;Target Cluster</title>
<path fill="none" stroke="#000000" d="M2993.0124,-432.3703C2979.8316,-405.7628 2957.3364,-353.408 2957.3364,-306 2957.3364,-306 2957.3364,-306 2957.3364,-162 2957.3364,-105.9668 3012.5152,-64.5407 3055.2598,-40.8561"/>
<polygon fill="#000000" stroke="#000000" points="3057.0138,-43.887 3064.168,-36.0724 3053.702,-37.7199 3057.0138,-43.887"/>
</g>
<!-- Cluster -->
<g id="node41" class="node">
<title>Cluster</title>
<ellipse fill="none" stroke="#000000" cx="3051.3364" cy="-162" rx="45.4919" ry="18"/>
<text text-anchor="middle" x="3051.3364" y="-158.3" font-family="Times,serif" font-size="14.00" fill="#000000">Cluster</text>
</g>
<!-- Admin&#45;&gt;Cluster -->
<g id="edge101" class="edge">
<title>Admin&#45;&gt;Cluster</title>
<path fill="none" stroke="#000000" d="M3000.0008,-431.7692C2995.5415,-391.5473 2988.4135,-292.6871 3014.3364,-216 3017.7756,-205.826 3023.7174,-195.805 3029.8457,-187.2104"/>
<polygon fill="#000000" stroke="#000000" points="3032.7099,-189.2255 3035.9503,-179.1384 3027.1267,-185.0031 3032.7099,-189.2255"/>
</g>
<!-- AdminCertKey&#45;&gt;Admin -->
<g id="edge57" class="edge">
<title>AdminCertKey&#45;&gt;Admin</title>
<path fill="none" stroke="#000000" d="M1650.6024,-511.4292C1670.3536,-508.5555 1692.1939,-505.7554 1712.3364,-504 2211.1459,-460.5295 2338.885,-503.3399 2838.3364,-468 2876.8798,-465.2728 2920.3417,-460.4215 2952.8356,-456.4421"/>
<polygon fill="#000000" stroke="#000000" points="2953.4867,-459.8883 2962.9801,-455.1845 2952.6254,-452.9414 2953.4867,-459.8883"/>
</g>
<!-- AdminCertKey&#45;&gt;Bootstrap -->
<g id="edge77" class="edge">
<title>AdminCertKey&#45;&gt;Bootstrap</title>
<path fill="none" stroke="#000000" d="M1590.5969,-503.9555C1599.4844,-466.3144 1620.0562,-379.1867 1630.6959,-334.1246"/>
<polygon fill="#000000" stroke="#000000" points="1634.1605,-334.6818 1633.0522,-324.1451 1627.3478,-333.0732 1634.1605,-334.6818"/>
</g>
<!-- Worker&#45;&gt;Manifests -->
<g id="edge60" class="edge">
<title>Worker&#45;&gt;Manifests</title>
<path fill="none" stroke="#000000" d="M3104.6809,-440.9837C3088.5258,-437.6401 3069.6183,-434.1438 3052.3364,-432 2869.5574,-409.3264 2306.6494,-387.4116 2112.7692,-380.3527"/>
<polygon fill="#000000" stroke="#000000" points="2112.8412,-376.8531 2102.7209,-379.9882 2112.5874,-383.8485 2112.8412,-376.8531"/>
</g>
<!-- Target Ignition Configs -->
<g id="node36" class="node">
<title>Target Ignition Configs</title>
<polygon fill="#d3d3d3" stroke="#000000" points="3427.3364,-252 3243.3364,-252 3243.3364,-216 3427.3364,-216 3427.3364,-252"/>
<text text-anchor="middle" x="3335.3364" y="-230.3" font-family="Times,serif" font-size="14.00" fill="#000000">Target Ignition Configs</text>
</g>
<!-- Worker&#45;&gt;Target Ignition Configs -->
<g id="edge92" class="edge">
<title>Worker&#45;&gt;Target Ignition Configs</title>
<path fill="none" stroke="#000000" d="M3159.6439,-432.6889C3193.1308,-394.8189 3273.043,-304.447 3312.4985,-259.8272"/>
<polygon fill="#000000" stroke="#000000" points="3315.1467,-262.116 3319.149,-252.3061 3309.9028,-257.479 3315.1467,-262.116"/>
</g>
<!-- Worker&#45;&gt;TerraformVariables -->
<g id="edge97" class="edge">
<title>Worker&#45;&gt;TerraformVariables</title>
<path fill="none" stroke="#000000" d="M3142.6656,-431.9555C3139.1803,-394.3144 3131.1129,-307.1867 3126.9405,-262.1246"/>
<polygon fill="#000000" stroke="#000000" points="3130.4237,-261.7797 3126.0165,-252.1451 3123.4535,-262.4252 3130.4237,-261.7797"/>
</g>
<!-- Bootstrap&#45;&gt;Target Ignition Configs -->
<g id="edge64" class="edge">
<title>Bootstrap&#45;&gt;Target Ignition Configs</title>
<path fill="none" stroke="#000000" d="M1693.7589,-304.5704C1954.4565,-297.9016 3037.6421,-269.4775 3233.0932,-251.9577"/>
<polygon fill="#000000" stroke="#000000" points="3233.5997,-255.4251 3243.2151,-250.9759 3232.9238,-248.4578 3233.5997,-255.4251"/>
</g>
<!-- Bootstrap&#45;&gt;TerraformVariables -->
<g id="edge95" class="edge">
<title>Bootstrap&#45;&gt;TerraformVariables</title>
<path fill="none" stroke="#000000" d="M1693.3629,-303.2872C1913.673,-292.6199 2722.7104,-253.4466 3016.6729,-239.213"/>
<polygon fill="#000000" stroke="#000000" points="3017.0919,-242.6969 3026.9109,-238.7173 3016.7533,-235.7051 3017.0919,-242.6969"/>
</g>
<!-- Kubelet&#45;&gt;Bootstrap -->
<g id="edge82" class="edge">
<title>Kubelet&#45;&gt;Bootstrap</title>
<path fill="none" stroke="#000000" d="M1456.4926,-432.1807C1466.4343,-412.2036 1484.9683,-379.9966 1509.3364,-360 1531.0634,-342.1707 1559.5326,-329.384 1584.104,-320.7435"/>
<polygon fill="#000000" stroke="#000000" points="1585.302,-324.0332 1593.6581,-317.5197 1583.0639,-317.4006 1585.302,-324.0332"/>
</g>
<!-- Master&#45;&gt;Target Ignition Configs -->
<g id="edge89" class="edge">
<title>Master&#45;&gt;Target Ignition Configs</title>
<path fill="none" stroke="#000000" d="M3324.8562,-359.7623C3326.903,-335.201 3330.5658,-291.2474 3332.9736,-262.3541"/>
<polygon fill="#000000" stroke="#000000" points="3336.4863,-262.3458 3333.8289,-252.0896 3329.5105,-261.7644 3336.4863,-262.3458"/>
</g>
<!-- Master&#45;&gt;TerraformVariables -->
<g id="edge96" class="edge">
<title>Master&#45;&gt;TerraformVariables</title>
<path fill="none" stroke="#000000" d="M3301.2796,-362.0393C3266.2292,-336.6762 3197.6251,-287.033 3156.9053,-257.5674"/>
<polygon fill="#000000" stroke="#000000" points="3158.8147,-254.6289 3148.6615,-251.6021 3154.7111,-260.2999 3158.8147,-254.6289"/>
</g>
<!-- TerraformVariables&#45;&gt;Target Cluster -->
<g id="edge93" class="edge">
<title>TerraformVariables&#45;&gt;Target Cluster</title>
<path fill="none" stroke="#000000" d="M3122.6656,-215.9555C3119.1803,-178.3144 3111.1129,-91.1867 3106.9405,-46.1246"/>
<polygon fill="#000000" stroke="#000000" points="3110.4237,-45.7797 3106.0165,-36.1451 3103.4535,-46.4252 3110.4237,-45.7797"/>
</g>
<!-- TerraformVariables&#45;&gt;Cluster -->
<g id="edge100" class="edge">
<title>TerraformVariables&#45;&gt;Cluster</title>
<path fill="none" stroke="#000000" d="M3106.2915,-216.2022C3097.14,-207.1761 3085.888,-196.0783 3075.9541,-186.2804"/>
<polygon fill="#000000" stroke="#000000" points="3078.2485,-183.6275 3068.6711,-179.0972 3073.333,-188.6113 3078.2485,-183.6275"/>
</g>
<!-- Cluster&#45;&gt;Target Cluster -->
<g id="edge99" class="edge">
<title>Cluster&#45;&gt;Target Cluster</title>
<path fill="none" stroke="#000000" d="M3057.9417,-144.0535C3067.0268,-119.3696 3083.4636,-74.7111 3094.1351,-45.7167"/>
<polygon fill="#000000" stroke="#000000" points="3097.4783,-46.7662 3097.6478,-36.1727 3090.9091,-44.3483 3097.4783,-46.7662"/>
</g>
<!-- Cluster&#45;&gt;Metadata -->
<g id="edge104" class="edge">
<title>Cluster&#45;&gt;Metadata</title>
<path fill="none" stroke="#000000" d="M3081.046,-148.2879C3105.165,-137.156 3139.44,-121.3368 3166.1986,-108.9867"/>
<polygon fill="#000000" stroke="#000000" points="3167.7081,-112.1448 3175.321,-104.7763 3164.7747,-105.7891 3167.7081,-112.1448"/>
</g>
<!-- Metadata&#45;&gt;Target Cluster -->
<g id="edge102" class="edge">
<title>Metadata&#45;&gt;Target Cluster</title>
<path fill="none" stroke="#000000" d="M3183.9641,-73.6621C3170.5677,-64.2976 3153.5084,-52.3726 3138.6189,-41.9644"/>
<polygon fill="#000000" stroke="#000000" points="3140.3483,-38.903 3130.147,-36.0423 3136.3378,-44.6403 3140.3483,-38.903"/>
</g>
</g>
</svg>
