<?xml version="1.0" encoding="UTF-8" standalone="no"?>
<!DOCTYPE svg PUBLIC "-//W3C//DTD SVG 1.1//EN"
 "http://www.w3.org/Graphics/SVG/1.1/DTD/svg11.dtd">
<!-- Generated by graphviz version 2.30.1 (20170916.1124)
 -->
<!-- Title: G Pages: 1 -->
<svg width="2417pt" height="548pt"
 viewBox="0.00 0.00 2416.99 548.00" xmlns="http://www.w3.org/2000/svg" xmlns:xlink="http://www.w3.org/1999/xlink">
<g id="graph0" class="graph" transform="scale(1 1) rotate(0) translate(4 544)">
<title>G</title>
<polygon fill="white" stroke="white" points="-4,5 -4,-544 2413.99,-544 2413.99,5 -4,5"/>
<!-- InstallConfig -->
<g id="node1" class="node"><title>InstallConfig</title>
<ellipse fill="none" stroke="black" cx="1933.99" cy="-450" rx="57.2927" ry="18"/>
<text text-anchor="middle" x="1933.99" y="-446.3" font-family="Times,serif" font-size="14.00">InstallConfig</text>
</g>
<!-- Target Install Config -->
<g id="node2" class="node"><title>Target Install Config</title>
<polygon fill="lightgrey" stroke="black" points="2346.24,-396 2215.74,-396 2215.74,-360 2346.24,-360 2346.24,-396"/>
<text text-anchor="middle" x="2280.99" y="-374.3" font-family="Times,serif" font-size="14.00">Target Install Config</text>
</g>
<!-- InstallConfig&#45;&gt;Target Install Config -->
<g id="edge1" class="edge"><title>InstallConfig&#45;&gt;Target Install Config</title>
<path fill="none" stroke="black" d="M1981.29,-439.809C2034.69,-429.388 2124.14,-411.791 2200.99,-396 2202.47,-395.696 2203.96,-395.389 2205.46,-395.078"/>
<polygon fill="black" stroke="black" points="2206.44,-398.45 2215.51,-392.988 2205.01,-391.597 2206.44,-398.45"/>
</g>
<!-- Manifests -->
<g id="node11" class="node"><title>Manifests</title>
<ellipse fill="none" stroke="black" cx="1027.99" cy="-306" rx="46.2191" ry="18"/>
<text text-anchor="middle" x="1027.99" y="-302.3" font-family="Times,serif" font-size="14.00">Manifests</text>
</g>
<!-- InstallConfig&#45;&gt;Manifests -->
<g id="edge11" class="edge"><title>InstallConfig&#45;&gt;Manifests</title>
<path fill="none" stroke="black" d="M1877.33,-447.46C1705.13,-442.478 1195.45,-425.39 1126.99,-396 1105.31,-386.695 1105.49,-375.809 1087.99,-360 1076.81,-349.905 1064.34,-338.859 1053.68,-329.476"/>
<polygon fill="black" stroke="black" points="1055.75,-326.639 1045.93,-322.668 1051.13,-331.898 1055.75,-326.639"/>
</g>
<!-- networkOperator -->
<g id="node13" class="node"><title>networkOperator</title>
<ellipse fill="none" stroke="black" cx="1206.99" cy="-378" rx="70.2668" ry="18"/>
<text text-anchor="middle" x="1206.99" y="-374.3" font-family="Times,serif" font-size="14.00">networkOperator</text>
</g>
<!-- InstallConfig&#45;&gt;networkOperator -->
<g id="edge13" class="edge"><title>InstallConfig&#45;&gt;networkOperator</title>
<path fill="none" stroke="black" d="M1877.37,-446.853C1764.39,-442.022 1503.17,-428.11 1285.99,-396 1279.79,-395.084 1273.36,-393.971 1266.96,-392.758"/>
<polygon fill="black" stroke="black" points="1267.45,-389.287 1256.96,-390.781 1266.09,-396.154 1267.45,-389.287"/>
</g>
<!-- IngressCertKey -->
<g id="node15" class="node"><title>IngressCertKey</title>
<ellipse fill="none" stroke="black" cx="1360.99" cy="-378" rx="65.4659" ry="18"/>
<text text-anchor="middle" x="1360.99" y="-374.3" font-family="Times,serif" font-size="14.00">IngressCertKey</text>
</g>
<!-- InstallConfig&#45;&gt;IngressCertKey -->
<g id="edge18" class="edge"><title>InstallConfig&#45;&gt;IngressCertKey</title>
<path fill="none" stroke="black" d="M1880.44,-443.439C1794.57,-434.383 1620.82,-415.497 1473.99,-396 1458.5,-393.943 1441.85,-391.544 1426.21,-389.206"/>
<polygon fill="black" stroke="black" points="1426.52,-385.713 1416.11,-387.683 1425.48,-392.634 1426.52,-385.713"/>
</g>
<!-- MCSCertKey -->
<g id="node18" class="node"><title>MCSCertKey</title>
<ellipse fill="none" stroke="black" cx="1019.99" cy="-378" rx="59.1941" ry="18"/>
<text text-anchor="middle" x="1019.99" y="-374.3" font-family="Times,serif" font-size="14.00">MCSCertKey</text>
</g>
<!-- InstallConfig&#45;&gt;MCSCertKey -->
<g id="edge24" class="edge"><title>InstallConfig&#45;&gt;MCSCertKey</title>
<path fill="none" stroke="black" d="M1876.87,-448.593C1740.65,-446.93 1386.26,-438.504 1093.99,-396 1087.33,-395.031 1080.38,-393.773 1073.52,-392.378"/>
<polygon fill="black" stroke="black" points="1074.1,-388.923 1063.59,-390.256 1072.64,-395.768 1074.1,-388.923"/>
</g>
<!-- Tectonic -->
<g id="node20" class="node"><title>Tectonic</title>
<ellipse fill="none" stroke="black" cx="1542.99" cy="-306" rx="41.394" ry="18"/>
<text text-anchor="middle" x="1542.99" y="-302.3" font-family="Times,serif" font-size="14.00">Tectonic</text>
</g>
<!-- InstallConfig&#45;&gt;Tectonic -->
<g id="edge28" class="edge"><title>InstallConfig&#45;&gt;Tectonic</title>
<path fill="none" stroke="black" d="M1902.07,-434.827C1881.77,-425.161 1855.37,-411.36 1833.99,-396 1815.09,-382.428 1816.6,-370.793 1795.99,-360 1731.51,-326.232 1647.18,-313.978 1594.04,-309.532"/>
<polygon fill="black" stroke="black" points="1594.08,-306.024 1583.84,-308.742 1593.54,-313.004 1594.08,-306.024"/>
</g>
<!-- ClusterK8sIO -->
<g id="node21" class="node"><title>ClusterK8sIO</title>
<ellipse fill="none" stroke="black" cx="1542.99" cy="-378" rx="59.1941" ry="18"/>
<text text-anchor="middle" x="1542.99" y="-374.3" font-family="Times,serif" font-size="14.00">ClusterK8sIO</text>
</g>
<!-- InstallConfig&#45;&gt;ClusterK8sIO -->
<g id="edge32" class="edge"><title>InstallConfig&#45;&gt;ClusterK8sIO</title>
<path fill="none" stroke="black" d="M1883.01,-441.871C1819.33,-432.677 1707.17,-415.527 1611.99,-396 1606.98,-394.973 1601.79,-393.832 1596.6,-392.643"/>
<polygon fill="black" stroke="black" points="1597.21,-389.191 1586.67,-390.311 1595.61,-396.006 1597.21,-389.191"/>
</g>
<!-- Worker -->
<g id="node22" class="node"><title>Worker</title>
<ellipse fill="none" stroke="black" cx="1988.99" cy="-378" rx="38.0212" ry="18"/>
<text text-anchor="middle" x="1988.99" y="-374.3" font-family="Times,serif" font-size="14.00">Worker</text>
</g>
<!-- InstallConfig&#45;&gt;Worker -->
<g id="edge34" class="edge"><title>InstallConfig&#45;&gt;Worker</title>
<path fill="none" stroke="black" d="M1947.02,-432.411C1953.8,-423.781 1962.22,-413.062 1969.74,-403.497"/>
<polygon fill="black" stroke="black" points="1972.62,-405.496 1976.05,-395.47 1967.12,-401.171 1972.62,-405.496"/>
</g>
<!-- Master -->
<g id="node23" class="node"><title>Master</title>
<ellipse fill="none" stroke="black" cx="1878.99" cy="-378" rx="35.6194" ry="18"/>
<text text-anchor="middle" x="1878.99" y="-374.3" font-family="Times,serif" font-size="14.00">Master</text>
</g>
<!-- InstallConfig&#45;&gt;Master -->
<g id="edge38" class="edge"><title>InstallConfig&#45;&gt;Master</title>
<path fill="none" stroke="black" d="M1920.95,-432.411C1914.07,-423.655 1905.51,-412.751 1897.91,-403.082"/>
<polygon fill="black" stroke="black" points="1900.48,-400.689 1891.55,-394.988 1894.98,-405.014 1900.48,-400.689"/>
</g>
<!-- kubeAddonOperator -->
<g id="node24" class="node"><title>kubeAddonOperator</title>
<ellipse fill="none" stroke="black" cx="1703.99" cy="-378" rx="83.2892" ry="18"/>
<text text-anchor="middle" x="1703.99" y="-374.3" font-family="Times,serif" font-size="14.00">kubeAddonOperator</text>
</g>
<!-- InstallConfig&#45;&gt;kubeAddonOperator -->
<g id="edge42" class="edge"><title>InstallConfig&#45;&gt;kubeAddonOperator</title>
<path fill="none" stroke="black" d="M1894.45,-436.967C1857.35,-425.676 1801.49,-408.676 1759.85,-396.002"/>
<polygon fill="black" stroke="black" points="1760.71,-392.605 1750.13,-393.042 1758.67,-399.302 1760.71,-392.605"/>
</g>
<!-- Bootstrap -->
<g id="node25" class="node"><title>Bootstrap</title>
<ellipse fill="none" stroke="black" cx="705.988" cy="-234" rx="44.271" ry="18"/>
<text text-anchor="middle" x="705.988" y="-230.3" font-family="Times,serif" font-size="14.00">Bootstrap</text>
</g>
<!-- InstallConfig&#45;&gt;Bootstrap -->
<g id="edge44" class="edge"><title>InstallConfig&#45;&gt;Bootstrap</title>
<path fill="none" stroke="black" d="M1982.97,-440.565C2008.78,-433.363 2038.26,-420.139 2053.99,-396 2062.72,-382.594 2064.39,-372.155 2053.99,-360 1919.14,-202.457 1799.17,-310.21 1592.99,-288 1279.07,-254.185 900.147,-240.563 760.81,-236.459"/>
<polygon fill="black" stroke="black" points="760.511,-232.949 750.413,-236.158 760.308,-239.946 760.511,-232.949"/>
</g>
<!-- Admin -->
<g id="node33" class="node"><title>Admin</title>
<ellipse fill="none" stroke="black" cx="2122.99" cy="-306" rx="35.6194" ry="18"/>
<text text-anchor="middle" x="2122.99" y="-302.3" font-family="Times,serif" font-size="14.00">Admin</text>
</g>
<!-- InstallConfig&#45;&gt;Admin -->
<g id="edge65" class="edge"><title>InstallConfig&#45;&gt;Admin</title>
<path fill="none" stroke="black" d="M1985.04,-441.862C2035.67,-433.614 2108.07,-418.258 2124.99,-396 2138.31,-378.48 2136.19,-352.911 2131.69,-333.67"/>
<polygon fill="black" stroke="black" points="2135.07,-332.752 2129.1,-323.993 2128.3,-334.557 2135.07,-332.752"/>
</g>
<!-- Kubelet -->
<g id="node34" class="node"><title>Kubelet</title>
<ellipse fill="none" stroke="black" cx="601.988" cy="-306" rx="38.0212" ry="18"/>
<text text-anchor="middle" x="601.988" y="-302.3" font-family="Times,serif" font-size="14.00">Kubelet</text>
</g>
<!-- InstallConfig&#45;&gt;Kubelet -->
<g id="edge69" class="edge"><title>InstallConfig&#45;&gt;Kubelet</title>
<path fill="none" stroke="black" d="M1877.05,-447.947C1657.2,-443.674 870.646,-426.388 762.988,-396 736.239,-388.45 671.444,-350.028 632.699,-326.202"/>
<polygon fill="black" stroke="black" points="634.263,-323.054 623.916,-320.776 630.584,-329.01 634.263,-323.054"/>
</g>
<!-- TerraformVariables -->
<g id="node35" class="node"><title>TerraformVariables</title>
<ellipse fill="none" stroke="black" cx="2039.99" cy="-162" rx="81.3646" ry="18"/>
<text text-anchor="middle" x="2039.99" y="-158.3" font-family="Times,serif" font-size="14.00">TerraformVariables</text>
</g>
<!-- InstallConfig&#45;&gt;TerraformVariables -->
<g id="edge75" class="edge"><title>InstallConfig&#45;&gt;TerraformVariables</title>
<path fill="none" stroke="black" d="M1985.46,-441.963C2040.29,-433.473 2122.27,-417.601 2144.99,-396 2180.49,-362.247 2185.91,-333.182 2166.99,-288 2148.36,-243.529 2105.34,-206.878 2074.54,-185.006"/>
<polygon fill="black" stroke="black" points="2076.42,-182.051 2066.2,-179.235 2072.43,-187.806 2076.42,-182.051"/>
</g>
<!-- Cluster -->
<g id="node37" class="node"><title>Cluster</title>
<ellipse fill="none" stroke="black" cx="2148.99" cy="-90" rx="36.096" ry="18"/>
<text text-anchor="middle" x="2148.99" y="-86.3" font-family="Times,serif" font-size="14.00">Cluster</text>
</g>
<!-- InstallConfig&#45;&gt;Cluster -->
<g id="edge81" class="edge"><title>InstallConfig&#45;&gt;Cluster</title>
<path fill="none" stroke="black" d="M1991.16,-449.634C2093.65,-449.542 2302.85,-443.369 2354.99,-396 2385,-368.738 2374.99,-347.542 2374.99,-307 2374.99,-307 2374.99,-307 2374.99,-233 2374.99,-148.109 2259.25,-111.997 2193.42,-98.3239"/>
<polygon fill="black" stroke="black" points="2193.8,-94.831 2183.31,-96.318 2192.44,-101.697 2193.8,-94.831"/>
</g>
<!-- clusterID -->
<g id="node3" class="node"><title>clusterID</title>
<ellipse fill="none" stroke="black" cx="1984.99" cy="-522" rx="43.319" ry="18"/>
<text text-anchor="middle" x="1984.99" y="-518.3" font-family="Times,serif" font-size="14.00">clusterID</text>
</g>
<!-- clusterID&#45;&gt;InstallConfig -->
<g id="edge2" class="edge"><title>clusterID&#45;&gt;InstallConfig</title>
<path fill="none" stroke="black" d="M1972.9,-504.411C1966.77,-495.992 1959.19,-485.585 1952.35,-476.201"/>
<polygon fill="black" stroke="black" points="1955.06,-473.978 1946.34,-467.956 1949.4,-478.1 1955.06,-473.978"/>
</g>
<!-- emailAddress -->
<g id="node4" class="node"><title>emailAddress</title>
<ellipse fill="none" stroke="black" cx="2105.99" cy="-522" rx="59.1941" ry="18"/>
<text text-anchor="middle" x="2105.99" y="-518.3" font-family="Times,serif" font-size="14.00">emailAddress</text>
</g>
<!-- emailAddress&#45;&gt;InstallConfig -->
<g id="edge3" class="edge"><title>emailAddress&#45;&gt;InstallConfig</title>
<path fill="none" stroke="black" d="M2072.01,-507.17C2044.83,-496.109 2006.54,-480.529 1977.19,-468.582"/>
<polygon fill="black" stroke="black" points="1978.19,-465.21 1967.61,-464.682 1975.55,-471.693 1978.19,-465.21"/>
</g>
<!-- password -->
<g id="node5" class="node"><title>password</title>
<ellipse fill="none" stroke="black" cx="2227.99" cy="-522" rx="44.2946" ry="18"/>
<text text-anchor="middle" x="2227.99" y="-518.3" font-family="Times,serif" font-size="14.00">password</text>
</g>
<!-- password&#45;&gt;InstallConfig -->
<g id="edge4" class="edge"><title>password&#45;&gt;InstallConfig</title>
<path fill="none" stroke="black" d="M2194.71,-510.021C2187.89,-507.912 2180.73,-505.802 2173.99,-504 2112.03,-487.439 2040.09,-472.054 1991.25,-462.174"/>
<polygon fill="black" stroke="black" points="1991.68,-458.691 1981.19,-460.151 1990.3,-465.554 1991.68,-458.691"/>
</g>
<!-- sshPublicKey -->
<g id="node6" class="node"><title>sshPublicKey</title>
<ellipse fill="none" stroke="black" cx="2348.99" cy="-522" rx="59.2173" ry="18"/>
<text text-anchor="middle" x="2348.99" y="-518.3" font-family="Times,serif" font-size="14.00">sshPublicKey</text>
</g>
<!-- sshPublicKey&#45;&gt;InstallConfig -->
<g id="edge5" class="edge"><title>sshPublicKey&#45;&gt;InstallConfig</title>
<path fill="none" stroke="black" d="M2305.96,-509.598C2297.7,-507.593 2289.1,-505.63 2280.99,-504 2182.04,-484.121 2065.9,-467.782 1996.22,-458.722"/>
<polygon fill="black" stroke="black" points="1996.65,-455.248 1986.28,-457.438 1995.75,-462.191 1996.65,-455.248"/>
</g>
<!-- baseDomain -->
<g id="node7" class="node"><title>baseDomain</title>
<ellipse fill="none" stroke="black" cx="1526.99" cy="-522" rx="55.3682" ry="18"/>
<text text-anchor="middle" x="1526.99" y="-518.3" font-family="Times,serif" font-size="14.00">baseDomain</text>
</g>
<!-- baseDomain&#45;&gt;InstallConfig -->
<g id="edge6" class="edge"><title>baseDomain&#45;&gt;InstallConfig</title>
<path fill="none" stroke="black" d="M1567.09,-509.507C1574.97,-507.487 1583.21,-505.542 1590.99,-504 1710.61,-480.299 1743.09,-490.227 1862.99,-468 1868.82,-466.92 1874.88,-465.667 1880.91,-464.34"/>
<polygon fill="black" stroke="black" points="1881.99,-467.685 1890.96,-462.056 1880.43,-460.859 1881.99,-467.685"/>
</g>
<!-- clusterName -->
<g id="node8" class="node"><title>clusterName</title>
<ellipse fill="none" stroke="black" cx="1655.99" cy="-522" rx="55.3436" ry="18"/>
<text text-anchor="middle" x="1655.99" y="-518.3" font-family="Times,serif" font-size="14.00">clusterName</text>
</g>
<!-- clusterName&#45;&gt;InstallConfig -->
<g id="edge7" class="edge"><title>clusterName&#45;&gt;InstallConfig</title>
<path fill="none" stroke="black" d="M1697.58,-510.043C1705.35,-508.018 1713.42,-505.932 1720.99,-504 1775.28,-490.145 1837.48,-474.721 1880.59,-464.1"/>
<polygon fill="black" stroke="black" points="1881.43,-467.498 1890.3,-461.709 1879.75,-460.701 1881.43,-467.498"/>
</g>
<!-- pullSecret -->
<g id="node9" class="node"><title>pullSecret</title>
<ellipse fill="none" stroke="black" cx="1775.99" cy="-522" rx="46.2191" ry="18"/>
<text text-anchor="middle" x="1775.99" y="-518.3" font-family="Times,serif" font-size="14.00">pullSecret</text>
</g>
<!-- pullSecret&#45;&gt;InstallConfig -->
<g id="edge8" class="edge"><title>pullSecret&#45;&gt;InstallConfig</title>
<path fill="none" stroke="black" d="M1805.34,-507.998C1830,-497.069 1865.53,-481.328 1893.01,-469.156"/>
<polygon fill="black" stroke="black" points="1894.63,-472.264 1902.36,-465.013 1891.8,-465.864 1894.63,-472.264"/>
</g>
<!-- platform -->
<g id="node10" class="node"><title>platform</title>
<ellipse fill="none" stroke="black" cx="1881.99" cy="-522" rx="41.394" ry="18"/>
<text text-anchor="middle" x="1881.99" y="-518.3" font-family="Times,serif" font-size="14.00">platform</text>
</g>
<!-- platform&#45;&gt;InstallConfig -->
<g id="edge9" class="edge"><title>platform&#45;&gt;InstallConfig</title>
<path fill="none" stroke="black" d="M1894.05,-504.765C1900.45,-496.143 1908.46,-485.365 1915.62,-475.727"/>
<polygon fill="black" stroke="black" points="1918.48,-477.748 1921.63,-467.633 1912.86,-473.574 1918.48,-477.748"/>
</g>
<!-- Target Manifests -->
<g id="node12" class="node"><title>Target Manifests</title>
<polygon fill="lightgrey" stroke="black" points="1340.99,-252 1230.99,-252 1230.99,-216 1340.99,-216 1340.99,-252"/>
<text text-anchor="middle" x="1285.99" y="-230.3" font-family="Times,serif" font-size="14.00">Target Manifests</text>
</g>
<!-- Manifests&#45;&gt;Target Manifests -->
<g id="edge10" class="edge"><title>Manifests&#45;&gt;Target Manifests</title>
<path fill="none" stroke="black" d="M1064.68,-295.045C1105.37,-284.004 1171.8,-265.982 1221.28,-252.558"/>
<polygon fill="black" stroke="black" points="1222.2,-255.934 1230.93,-249.938 1220.36,-249.178 1222.2,-255.934"/>
</g>
<!-- Manifests&#45;&gt;Bootstrap -->
<g id="edge70" class="edge"><title>Manifests&#45;&gt;Bootstrap</title>
<path fill="none" stroke="black" d="M993.483,-293.947C986.408,-291.844 978.985,-289.755 971.988,-288 897.541,-269.331 810.062,-252.95 756.325,-243.511"/>
<polygon fill="black" stroke="black" points="756.821,-240.045 746.369,-241.774 755.618,-246.941 756.821,-240.045"/>
</g>
<!-- networkOperator&#45;&gt;Manifests -->
<g id="edge12" class="edge"><title>networkOperator&#45;&gt;Manifests</title>
<path fill="none" stroke="black" d="M1169.9,-362.496C1140.42,-350.969 1099.24,-334.862 1068.82,-322.969"/>
<polygon fill="black" stroke="black" points="1069.94,-319.649 1059.35,-319.266 1067.39,-326.168 1069.94,-319.649"/>
</g>
<!-- RootCA -->
<g id="node14" class="node"><title>RootCA</title>
<ellipse fill="none" stroke="black" cx="771.988" cy="-522" rx="39.9464" ry="18"/>
<text text-anchor="middle" x="771.988" y="-518.3" font-family="Times,serif" font-size="14.00">RootCA</text>
</g>
<!-- RootCA&#45;&gt;Manifests -->
<g id="edge14" class="edge"><title>RootCA&#45;&gt;Manifests</title>
<path fill="none" stroke="black" d="M789.312,-505.697C815.843,-482.224 868.08,-435.862 911.988,-396 929.453,-380.144 932.559,-374.725 950.988,-360 965.372,-348.507 982.13,-336.791 996.332,-327.308"/>
<polygon fill="black" stroke="black" points="998.387,-330.145 1004.8,-321.713 994.528,-324.305 998.387,-330.145"/>
</g>
<!-- KubeCA -->
<g id="node16" class="node"><title>KubeCA</title>
<ellipse fill="none" stroke="black" cx="771.988" cy="-450" rx="42.3701" ry="18"/>
<text text-anchor="middle" x="771.988" y="-446.3" font-family="Times,serif" font-size="14.00">KubeCA</text>
</g>
<!-- RootCA&#45;&gt;KubeCA -->
<g id="edge17" class="edge"><title>RootCA&#45;&gt;KubeCA</title>
<path fill="none" stroke="black" d="M771.988,-503.697C771.988,-495.983 771.988,-486.712 771.988,-478.112"/>
<polygon fill="black" stroke="black" points="775.488,-478.104 771.988,-468.104 768.488,-478.104 775.488,-478.104"/>
</g>
<!-- ServiceServingCA -->
<g id="node17" class="node"><title>ServiceServingCA</title>
<ellipse fill="none" stroke="black" cx="370.988" cy="-378" rx="76.5394" ry="18"/>
<text text-anchor="middle" x="370.988" y="-374.3" font-family="Times,serif" font-size="14.00">ServiceServingCA</text>
</g>
<!-- RootCA&#45;&gt;ServiceServingCA -->
<g id="edge21" class="edge"><title>RootCA&#45;&gt;ServiceServingCA</title>
<path fill="none" stroke="black" d="M731.696,-521.599C670.173,-520.92 550.625,-513.227 461.988,-468 432.231,-452.817 405.885,-424.53 389.299,-403.911"/>
<polygon fill="black" stroke="black" points="391.933,-401.598 383.015,-395.879 386.42,-405.911 391.933,-401.598"/>
</g>
<!-- RootCA&#45;&gt;MCSCertKey -->
<g id="edge23" class="edge"><title>RootCA&#45;&gt;MCSCertKey</title>
<path fill="none" stroke="black" d="M809.987,-515.906C847.173,-509.501 904.166,-495.785 945.988,-468 970.662,-451.607 991.458,-424.58 1004.66,-404.603"/>
<polygon fill="black" stroke="black" points="1007.73,-406.293 1010.18,-395.984 1001.84,-402.518 1007.73,-406.293"/>
</g>
<!-- RootCA&#45;&gt;Worker -->
<g id="edge36" class="edge"><title>RootCA&#45;&gt;Worker</title>
<path fill="none" stroke="black" d="M812.267,-520.576C963.114,-518.175 1508.1,-502.204 1940.99,-396 1944.21,-395.21 1947.51,-394.287 1950.81,-393.286"/>
<polygon fill="black" stroke="black" points="1952.16,-396.528 1960.59,-390.108 1950,-389.871 1952.16,-396.528"/>
</g>
<!-- RootCA&#45;&gt;Master -->
<g id="edge40" class="edge"><title>RootCA&#45;&gt;Master</title>
<path fill="none" stroke="black" d="M811.211,-517.361C947.675,-504.458 1414.19,-458.3 1795.99,-396 1809.39,-393.813 1823.92,-390.993 1837.02,-388.28"/>
<polygon fill="black" stroke="black" points="1838.11,-391.628 1847.17,-386.142 1836.67,-384.778 1838.11,-391.628"/>
</g>
<!-- RootCA&#45;&gt;Bootstrap -->
<g id="edge45" class="edge"><title>RootCA&#45;&gt;Bootstrap</title>
<path fill="none" stroke="black" d="M731.755,-521.69C637.946,-522.344 398.088,-518.475 205.988,-468 100.052,-440.165 32.8963,-430.175 5.98759,-324 2.05686,-308.49 -4.89066,-299.733 5.98759,-288 49.5509,-241.014 493.898,-235.458 651.179,-234.972"/>
<polygon fill="black" stroke="black" points="651.566,-238.471 661.558,-234.946 651.549,-231.471 651.566,-238.471"/>
</g>
<!-- EtcdCA -->
<g id="node27" class="node"><title>EtcdCA</title>
<ellipse fill="none" stroke="black" cx="92.9876" cy="-378" rx="38.4949" ry="18"/>
<text text-anchor="middle" x="92.9876" y="-374.3" font-family="Times,serif" font-size="14.00">EtcdCA</text>
</g>
<!-- RootCA&#45;&gt;EtcdCA -->
<g id="edge47" class="edge"><title>RootCA&#45;&gt;EtcdCA</title>
<path fill="none" stroke="black" d="M731.825,-519.948C651.339,-517.057 465.066,-506.42 313.988,-468 245.415,-450.562 169.806,-416.689 127.183,-396.132"/>
<polygon fill="black" stroke="black" points="128.618,-392.938 118.095,-391.709 125.555,-399.232 128.618,-392.938"/>
</g>
<!-- AggregatorCA -->
<g id="node28" class="node"><title>AggregatorCA</title>
<ellipse fill="none" stroke="black" cx="212.988" cy="-378" rx="63.0666" ry="18"/>
<text text-anchor="middle" x="212.988" y="-374.3" font-family="Times,serif" font-size="14.00">AggregatorCA</text>
</g>
<!-- RootCA&#45;&gt;AggregatorCA -->
<g id="edge51" class="edge"><title>RootCA&#45;&gt;AggregatorCA</title>
<path fill="none" stroke="black" d="M732.347,-518.723C665.22,-514.085 525.411,-501.029 411.988,-468 352.949,-450.808 288.693,-419.589 249.622,-399.073"/>
<polygon fill="black" stroke="black" points="251.202,-395.949 240.727,-394.358 247.923,-402.134 251.202,-395.949"/>
</g>
<!-- RootCA&#45;&gt;Admin -->
<g id="edge63" class="edge"><title>RootCA&#45;&gt;Admin</title>
<path fill="none" stroke="black" d="M812.027,-520.449C938.54,-518.322 1340.85,-508.597 1670.99,-468 1676.36,-467.339 2049.37,-398.822 2053.99,-396 2078.87,-380.793 2098.18,-353.094 2109.97,-332.621"/>
<polygon fill="black" stroke="black" points="2113.07,-334.24 2114.84,-323.794 2106.94,-330.854 2113.07,-334.24"/>
</g>
<!-- RootCA&#45;&gt;Kubelet -->
<g id="edge67" class="edge"><title>RootCA&#45;&gt;Kubelet</title>
<path fill="none" stroke="black" d="M735.596,-514.185C680.429,-501.679 577.371,-469.301 532.988,-396 524.7,-382.313 525.915,-374.352 532.988,-360 540.328,-345.107 554.086,-333.232 567.397,-324.529"/>
<polygon fill="black" stroke="black" points="569.299,-327.468 576.008,-319.268 565.65,-321.495 569.299,-327.468"/>
</g>
<!-- IngressCertKey&#45;&gt;Manifests -->
<g id="edge15" class="edge"><title>IngressCertKey&#45;&gt;Manifests</title>
<path fill="none" stroke="black" d="M1312.61,-365.882C1303.76,-363.892 1294.6,-361.861 1285.99,-360 1213.92,-344.431 1130.28,-327.447 1078.23,-317.008"/>
<polygon fill="black" stroke="black" points="1078.75,-313.543 1068.26,-315.01 1077.38,-320.406 1078.75,-313.543"/>
</g>
<!-- IngressCertKey&#45;&gt;Tectonic -->
<g id="edge29" class="edge"><title>IngressCertKey&#45;&gt;Tectonic</title>
<path fill="none" stroke="black" d="M1397.38,-363.003C1428.12,-351.179 1472.06,-334.281 1503.61,-322.144"/>
<polygon fill="black" stroke="black" points="1504.9,-325.398 1512.98,-318.541 1502.39,-318.864 1504.9,-325.398"/>
</g>
<!-- IngressCertKey&#45;&gt;Bootstrap -->
<g id="edge48" class="edge"><title>IngressCertKey&#45;&gt;Bootstrap</title>
<path fill="none" stroke="black" d="M1324.22,-363.011C1271.54,-343.476 1171.17,-308.16 1082.99,-288 969.221,-261.991 833.047,-246.647 759.494,-239.629"/>
<polygon fill="black" stroke="black" points="759.389,-236.104 749.106,-238.654 758.735,-243.074 759.389,-236.104"/>
</g>
<!-- KubeCA&#45;&gt;IngressCertKey -->
<g id="edge16" class="edge"><title>KubeCA&#45;&gt;IngressCertKey</title>
<path fill="none" stroke="black" d="M813.519,-446.417C901.225,-440.591 1111.6,-424.649 1285.99,-396 1291.81,-395.043 1297.86,-393.91 1303.88,-392.69"/>
<polygon fill="black" stroke="black" points="1304.88,-396.056 1313.95,-390.57 1303.44,-389.206 1304.88,-396.056"/>
</g>
<!-- KubeCA&#45;&gt;Manifests -->
<g id="edge19" class="edge"><title>KubeCA&#45;&gt;Manifests</title>
<path fill="none" stroke="black" d="M763.717,-432.104C755.416,-412.43 746.077,-380.072 762.988,-360 793.353,-323.958 926.129,-334.866 971.988,-324 975.88,-323.078 979.901,-322.037 983.917,-320.936"/>
<polygon fill="black" stroke="black" points="985.163,-324.22 993.817,-318.108 983.24,-317.489 985.163,-324.22"/>
</g>
<!-- KubeletCertKey -->
<g id="node19" class="node"><title>KubeletCertKey</title>
<ellipse fill="none" stroke="black" cx="609.988" cy="-378" rx="68.3664" ry="18"/>
<text text-anchor="middle" x="609.988" y="-374.3" font-family="Times,serif" font-size="14.00">KubeletCertKey</text>
</g>
<!-- KubeCA&#45;&gt;KubeletCertKey -->
<g id="edge26" class="edge"><title>KubeCA&#45;&gt;KubeletCertKey</title>
<path fill="none" stroke="black" d="M743.398,-436.647C718.426,-425.856 681.806,-410.033 653.248,-397.693"/>
<polygon fill="black" stroke="black" points="654.468,-394.407 643.9,-393.654 651.692,-400.833 654.468,-394.407"/>
</g>
<!-- KubeCA&#45;&gt;Tectonic -->
<g id="edge30" class="edge"><title>KubeCA&#45;&gt;Tectonic</title>
<path fill="none" stroke="black" d="M814.075,-449.191C941.764,-449.218 1322.86,-445.081 1434.99,-396 1456.6,-386.541 1455.95,-375.2 1473.99,-360 1486.94,-349.086 1501.78,-337.566 1514.37,-328.063"/>
<polygon fill="black" stroke="black" points="1516.78,-330.636 1522.68,-321.839 1512.58,-325.034 1516.78,-330.636"/>
</g>
<!-- KubeCA&#45;&gt;Bootstrap -->
<g id="edge49" class="edge"><title>KubeCA&#45;&gt;Bootstrap</title>
<path fill="none" stroke="black" d="M730.707,-445.927C668.999,-440.38 557.328,-426.329 532.988,-396 513.24,-371.393 547.698,-295.595 554.988,-288 580.767,-261.141 620.93,-247.879 653.356,-241.338"/>
<polygon fill="black" stroke="black" points="654.389,-244.706 663.584,-239.442 653.113,-237.823 654.389,-244.706"/>
</g>
<!-- AdminCertKey -->
<g id="node31" class="node"><title>AdminCertKey</title>
<ellipse fill="none" stroke="black" cx="837.988" cy="-378" rx="65.4659" ry="18"/>
<text text-anchor="middle" x="837.988" y="-374.3" font-family="Times,serif" font-size="14.00">AdminCertKey</text>
</g>
<!-- KubeCA&#45;&gt;AdminCertKey -->
<g id="edge58" class="edge"><title>KubeCA&#45;&gt;AdminCertKey</title>
<path fill="none" stroke="black" d="M786.964,-433.116C795.329,-424.244 805.922,-413.009 815.286,-403.077"/>
<polygon fill="black" stroke="black" points="817.836,-405.474 822.15,-395.797 812.743,-400.672 817.836,-405.474"/>
</g>
<!-- ServiceServingCA&#45;&gt;Manifests -->
<g id="edge20" class="edge"><title>ServiceServingCA&#45;&gt;Manifests</title>
<path fill="none" stroke="black" d="M438.739,-369.543C467.749,-366.44 502.015,-362.895 532.988,-360 727.904,-341.783 779.681,-360.641 971.988,-324 976.142,-323.208 980.426,-322.225 984.688,-321.133"/>
<polygon fill="black" stroke="black" points="985.807,-324.455 994.519,-318.426 983.949,-317.706 985.807,-324.455"/>
</g>
<!-- ServiceServingCA&#45;&gt;Bootstrap -->
<g id="edge52" class="edge"><title>ServiceServingCA&#45;&gt;Bootstrap</title>
<path fill="none" stroke="black" d="M401.885,-361.346C421.021,-351.31 445.885,-337.645 466.988,-324 489.381,-309.521 491.058,-299.769 514.988,-288 560.155,-265.785 616.061,-251.654 655.689,-243.621"/>
<polygon fill="black" stroke="black" points="656.514,-247.026 665.65,-241.66 655.162,-240.157 656.514,-247.026"/>
</g>
<!-- MCSCertKey&#45;&gt;Manifests -->
<g id="edge22" class="edge"><title>MCSCertKey&#45;&gt;Manifests</title>
<path fill="none" stroke="black" d="M1021.97,-359.697C1022.85,-351.983 1023.91,-342.712 1024.89,-334.112"/>
<polygon fill="black" stroke="black" points="1028.37,-334.437 1026.03,-324.104 1021.42,-333.642 1028.37,-334.437"/>
</g>
<!-- MCSCertKey&#45;&gt;Bootstrap -->
<g id="edge60" class="edge"><title>MCSCertKey&#45;&gt;Bootstrap</title>
<path fill="none" stroke="black" d="M969.075,-368.684C899.075,-356.919 779.811,-335.566 762.988,-324 740.768,-308.725 725.276,-281.659 716.109,-261.373"/>
<polygon fill="black" stroke="black" points="719.267,-259.858 712.115,-252.041 712.832,-262.611 719.267,-259.858"/>
</g>
<!-- KubeletCertKey&#45;&gt;Manifests -->
<g id="edge25" class="edge"><title>KubeletCertKey&#45;&gt;Manifests</title>
<path fill="none" stroke="black" d="M660.614,-365.872C670.966,-363.775 681.807,-361.707 691.988,-360 815.729,-339.25 849.309,-350.315 971.988,-324 976.067,-323.125 980.278,-322.093 984.475,-320.978"/>
<polygon fill="black" stroke="black" points="985.487,-324.329 994.169,-318.257 983.595,-317.589 985.487,-324.329"/>
</g>
<!-- KubeletCertKey&#45;&gt;Bootstrap -->
<g id="edge59" class="edge"><title>KubeletCertKey&#45;&gt;Bootstrap</title>
<path fill="none" stroke="black" d="M622.918,-360.017C630.652,-349.716 640.577,-336.24 648.988,-324 663.499,-302.88 679.141,-278.316 690.361,-260.352"/>
<polygon fill="black" stroke="black" points="693.488,-261.952 695.797,-251.612 687.543,-258.256 693.488,-261.952"/>
</g>
<!-- KubeletCertKey&#45;&gt;Kubelet -->
<g id="edge68" class="edge"><title>KubeletCertKey&#45;&gt;Kubelet</title>
<path fill="none" stroke="black" d="M608.01,-359.697C607.128,-351.983 606.069,-342.712 605.086,-334.112"/>
<polygon fill="black" stroke="black" points="608.555,-333.642 603.942,-324.104 601.601,-334.437 608.555,-333.642"/>
</g>
<!-- Tectonic&#45;&gt;Target Manifests -->
<g id="edge27" class="edge"><title>Tectonic&#45;&gt;Target Manifests</title>
<path fill="none" stroke="black" d="M1508.86,-295.705C1468.79,-284.792 1401.45,-266.448 1351.25,-252.776"/>
<polygon fill="black" stroke="black" points="1352.02,-249.358 1341.45,-250.107 1350.18,-256.112 1352.02,-249.358"/>
</g>
<!-- Tectonic&#45;&gt;Bootstrap -->
<g id="edge71" class="edge"><title>Tectonic&#45;&gt;Bootstrap</title>
<path fill="none" stroke="black" d="M1502.9,-301.647C1365.67,-290.17 914.663,-252.452 759.212,-239.451"/>
<polygon fill="black" stroke="black" points="759.229,-235.941 748.972,-238.595 758.645,-242.916 759.229,-235.941"/>
</g>
<!-- ClusterK8sIO&#45;&gt;Tectonic -->
<g id="edge31" class="edge"><title>ClusterK8sIO&#45;&gt;Tectonic</title>
<path fill="none" stroke="black" d="M1542.99,-359.697C1542.99,-351.983 1542.99,-342.712 1542.99,-334.112"/>
<polygon fill="black" stroke="black" points="1546.49,-334.104 1542.99,-324.104 1539.49,-334.104 1546.49,-334.104"/>
</g>
<!-- Worker&#45;&gt;Tectonic -->
<g id="edge33" class="edge"><title>Worker&#45;&gt;Tectonic</title>
<path fill="none" stroke="black" d="M1960.6,-365.851C1954.22,-363.655 1947.43,-361.553 1940.99,-360 1818.33,-330.454 1670.18,-316.195 1593.89,-310.375"/>
<polygon fill="black" stroke="black" points="1593.84,-306.862 1583.61,-309.609 1593.32,-313.842 1593.84,-306.862"/>
</g>
<!-- Worker&#45;&gt;Worker -->
<g id="edge35" class="edge"><title>Worker&#45;&gt;Worker</title>
<path fill="none" stroke="black" d="M2016.07,-390.854C2031.12,-393.253 2044.99,-388.969 2044.99,-378 2044.99,-369.602 2036.86,-365.122 2026.3,-364.56"/>
<polygon fill="black" stroke="black" points="2025.85,-361.08 2016.07,-365.146 2026.25,-368.068 2025.85,-361.08"/>
</g>
<!-- Target Ignition Configs -->
<g id="node26" class="node"><title>Target Ignition Configs</title>
<polygon fill="lightgrey" stroke="black" points="1940.24,-180 1795.74,-180 1795.74,-144 1940.24,-144 1940.24,-180"/>
<text text-anchor="middle" x="1867.99" y="-158.3" font-family="Times,serif" font-size="14.00">Target Ignition Configs</text>
</g>
<!-- Worker&#45;&gt;Target Ignition Configs -->
<g id="edge73" class="edge"><title>Worker&#45;&gt;Target Ignition Configs</title>
<path fill="none" stroke="black" d="M1979.49,-360.208C1958.43,-322.952 1907.66,-233.172 1882.55,-188.763"/>
<polygon fill="black" stroke="black" points="1885.57,-186.993 1877.61,-180.01 1879.48,-190.438 1885.57,-186.993"/>
</g>
<!-- Worker&#45;&gt;TerraformVariables -->
<g id="edge78" class="edge"><title>Worker&#45;&gt;TerraformVariables</title>
<path fill="none" stroke="black" d="M1993.07,-359.849C2001.92,-322.753 2022.87,-234.81 2033.53,-190.103"/>
<polygon fill="black" stroke="black" points="2036.97,-190.771 2035.88,-180.232 2030.16,-189.149 2036.97,-190.771"/>
</g>
<!-- Master&#45;&gt;Tectonic -->
<g id="edge37" class="edge"><title>Master&#45;&gt;Tectonic</title>
<path fill="none" stroke="black" d="M1851.17,-366.748C1844.01,-364.327 1836.26,-361.9 1828.99,-360 1746.88,-338.555 1649.34,-322.427 1592,-313.876"/>
<polygon fill="black" stroke="black" points="1592.18,-310.364 1581.77,-312.368 1591.16,-317.29 1592.18,-310.364"/>
</g>
<!-- Master&#45;&gt;Master -->
<g id="edge39" class="edge"><title>Master&#45;&gt;Master</title>
<path fill="none" stroke="black" d="M1904.07,-390.758C1918.53,-393.362 1931.99,-389.109 1931.99,-378 1931.99,-369.581 1924.26,-365.1 1914.22,-364.556"/>
<polygon fill="black" stroke="black" points="1913.81,-361.076 1904.07,-365.242 1914.28,-368.06 1913.81,-361.076"/>
</g>
<!-- Master&#45;&gt;Target Ignition Configs -->
<g id="edge72" class="edge"><title>Master&#45;&gt;Target Ignition Configs</title>
<path fill="none" stroke="black" d="M1878.11,-359.849C1876.2,-322.832 1871.7,-235.181 1869.4,-190.386"/>
<polygon fill="black" stroke="black" points="1872.88,-190.04 1868.87,-180.232 1865.89,-190.399 1872.88,-190.04"/>
</g>
<!-- Master&#45;&gt;TerraformVariables -->
<g id="edge77" class="edge"><title>Master&#45;&gt;TerraformVariables</title>
<path fill="none" stroke="black" d="M1891.09,-360.915C1918.92,-323.917 1987.66,-232.549 2021.11,-188.097"/>
<polygon fill="black" stroke="black" points="2024.09,-189.957 2027.3,-179.862 2018.49,-185.749 2024.09,-189.957"/>
</g>
<!-- kubeAddonOperator&#45;&gt;Tectonic -->
<g id="edge41" class="edge"><title>kubeAddonOperator&#45;&gt;Tectonic</title>
<path fill="none" stroke="black" d="M1668.66,-361.638C1642.6,-350.312 1607.22,-334.928 1580.64,-323.37"/>
<polygon fill="black" stroke="black" points="1581.84,-320.077 1571.28,-319.299 1579.05,-326.497 1581.84,-320.077"/>
</g>
<!-- Bootstrap&#45;&gt;Target Ignition Configs -->
<g id="edge43" class="edge"><title>Bootstrap&#45;&gt;Target Ignition Configs</title>
<path fill="none" stroke="black" d="M749.769,-230.363C922.248,-219.972 1556.5,-181.765 1785.13,-167.991"/>
<polygon fill="black" stroke="black" points="1785.61,-171.469 1795.38,-167.374 1785.19,-164.481 1785.61,-171.469"/>
</g>
<!-- Bootstrap&#45;&gt;TerraformVariables -->
<g id="edge76" class="edge"><title>Bootstrap&#45;&gt;TerraformVariables</title>
<path fill="none" stroke="black" d="M750.251,-231.487C957.633,-224.346 1828.14,-193.794 1948.99,-180 1956.73,-179.116 1964.81,-177.956 1972.82,-176.657"/>
<polygon fill="black" stroke="black" points="1973.62,-180.072 1982.89,-174.948 1972.45,-173.17 1973.62,-180.072"/>
</g>
<!-- EtcdCA&#45;&gt;Bootstrap -->
<g id="edge46" class="edge"><title>EtcdCA&#45;&gt;Bootstrap</title>
<path fill="none" stroke="black" d="M117.156,-363.783C134.855,-353.71 159.145,-339.049 178.988,-324 197.783,-309.746 196.515,-297.765 217.988,-288 294.172,-253.355 540.719,-240.673 651.363,-236.646"/>
<polygon fill="black" stroke="black" points="651.766,-240.135 661.636,-236.283 651.519,-233.139 651.766,-240.135"/>
</g>
<!-- EtcdClientCertKey -->
<g id="node29" class="node"><title>EtcdClientCertKey</title>
<ellipse fill="none" stroke="black" cx="92.9876" cy="-306" rx="77.4897" ry="18"/>
<text text-anchor="middle" x="92.9876" y="-302.3" font-family="Times,serif" font-size="14.00">EtcdClientCertKey</text>
</g>
<!-- EtcdCA&#45;&gt;EtcdClientCertKey -->
<g id="edge54" class="edge"><title>EtcdCA&#45;&gt;EtcdClientCertKey</title>
<path fill="none" stroke="black" d="M92.9876,-359.697C92.9876,-351.983 92.9876,-342.712 92.9876,-334.112"/>
<polygon fill="black" stroke="black" points="96.4877,-334.104 92.9876,-324.104 89.4877,-334.104 96.4877,-334.104"/>
</g>
<!-- AggregatorCA&#45;&gt;Bootstrap -->
<g id="edge50" class="edge"><title>AggregatorCA&#45;&gt;Bootstrap</title>
<path fill="none" stroke="black" d="M259.94,-365.863C323.986,-350.646 431.083,-325.103 432.988,-324 452.029,-312.966 447.846,-298.861 466.988,-288 524.741,-255.231 601.02,-242.72 651.701,-237.944"/>
<polygon fill="black" stroke="black" points="652.139,-241.419 661.797,-237.063 651.53,-234.446 652.139,-241.419"/>
</g>
<!-- APIServerProxyCertKey -->
<g id="node30" class="node"><title>APIServerProxyCertKey</title>
<ellipse fill="none" stroke="black" cx="325.988" cy="-306" rx="98.1881" ry="18"/>
<text text-anchor="middle" x="325.988" y="-302.3" font-family="Times,serif" font-size="14.00">APIServerProxyCertKey</text>
</g>
<!-- AggregatorCA&#45;&gt;APIServerProxyCertKey -->
<g id="edge56" class="edge"><title>AggregatorCA&#45;&gt;APIServerProxyCertKey</title>
<path fill="none" stroke="black" d="M238.066,-361.465C253.569,-351.861 273.701,-339.39 290.788,-328.805"/>
<polygon fill="black" stroke="black" points="292.747,-331.709 299.405,-323.467 289.061,-325.758 292.747,-331.709"/>
</g>
<!-- EtcdClientCertKey&#45;&gt;Bootstrap -->
<g id="edge53" class="edge"><title>EtcdClientCertKey&#45;&gt;Bootstrap</title>
<path fill="none" stroke="black" d="M149.798,-293.755C161.411,-291.667 173.571,-289.633 184.988,-288 355.018,-263.683 557.826,-246.393 652.439,-239.001"/>
<polygon fill="black" stroke="black" points="652.916,-242.475 662.615,-238.212 652.375,-235.496 652.916,-242.475"/>
</g>
<!-- APIServerProxyCertKey&#45;&gt;Bootstrap -->
<g id="edge55" class="edge"><title>APIServerProxyCertKey&#45;&gt;Bootstrap</title>
<path fill="none" stroke="black" d="M392.613,-292.727C467.93,-278.853 588.813,-256.585 656.311,-244.151"/>
<polygon fill="black" stroke="black" points="657.07,-247.57 666.271,-242.316 655.802,-240.686 657.07,-247.57"/>
</g>
<!-- AdminCertKey&#45;&gt;Bootstrap -->
<g id="edge57" class="edge"><title>AdminCertKey&#45;&gt;Bootstrap</title>
<path fill="none" stroke="black" d="M793.509,-364.805C771.475,-356.627 746.187,-343.668 729.988,-324 715.718,-306.675 709.88,-281.619 707.518,-262.504"/>
<polygon fill="black" stroke="black" points="710.978,-261.919 706.512,-252.311 704.012,-262.607 710.978,-261.919"/>
</g>
<!-- AdminCertKey&#45;&gt;Admin -->
<g id="edge64" class="edge"><title>AdminCertKey&#45;&gt;Admin</title>
<path fill="none" stroke="black" d="M891.875,-367.724C910.543,-364.822 931.637,-361.888 950.988,-360 1175.68,-338.078 1890.08,-314.379 2077.57,-308.42"/>
<polygon fill="black" stroke="black" points="2077.75,-311.916 2087.63,-308.101 2077.52,-304.92 2077.75,-311.916"/>
</g>
<!-- ServiceAccountKeyPair -->
<g id="node32" class="node"><title>ServiceAccountKeyPair</title>
<ellipse fill="none" stroke="black" cx="867.988" cy="-306" rx="95.3122" ry="18"/>
<text text-anchor="middle" x="867.988" y="-302.3" font-family="Times,serif" font-size="14.00">ServiceAccountKeyPair</text>
</g>
<!-- ServiceAccountKeyPair&#45;&gt;Bootstrap -->
<g id="edge61" class="edge"><title>ServiceAccountKeyPair&#45;&gt;Bootstrap</title>
<path fill="none" stroke="black" d="M831.632,-289.291C805.709,-278.09 770.916,-263.056 744.516,-251.648"/>
<polygon fill="black" stroke="black" points="745.769,-248.377 735.201,-247.623 742.993,-254.803 745.769,-248.377"/>
</g>
<!-- Admin&#45;&gt;Bootstrap -->
<g id="edge62" class="edge"><title>Admin&#45;&gt;Bootstrap</title>
<path fill="none" stroke="black" d="M2091.4,-297.699C2074.71,-294.148 2053.84,-290.185 2034.99,-288 1970.78,-280.561 1002.1,-245.586 760.338,-236.938"/>
<polygon fill="black" stroke="black" points="760.161,-233.429 750.043,-236.57 759.911,-240.425 760.161,-233.429"/>
</g>
<!-- Target Cluster -->
<g id="node36" class="node"><title>Target Cluster</title>
<polygon fill="lightgrey" stroke="black" points="2196.24,-36 2101.74,-36 2101.74,-0 2196.24,-0 2196.24,-36"/>
<text text-anchor="middle" x="2148.99" y="-14.3" font-family="Times,serif" font-size="14.00">Target Cluster</text>
</g>
<!-- Admin&#45;&gt;Target Cluster -->
<g id="edge79" class="edge"><title>Admin&#45;&gt;Target Cluster</title>
<path fill="none" stroke="black" d="M2131.35,-288.439C2147.56,-255.252 2182.66,-177.797 2193.99,-108 2196.55,-92.2066 2199.5,-87.0191 2193.99,-72 2190.2,-61.6962 2183.43,-52.0249 2176.27,-43.837"/>
<polygon fill="black" stroke="black" points="2178.76,-41.3751 2169.37,-36.469 2173.65,-46.1603 2178.76,-41.3751"/>
</g>
<!-- Admin&#45;&gt;Cluster -->
<g id="edge83" class="edge"><title>Admin&#45;&gt;Cluster</title>
<path fill="none" stroke="black" d="M2125.07,-287.849C2129.57,-250.832 2140.22,-163.181 2145.66,-118.386"/>
<polygon fill="black" stroke="black" points="2149.16,-118.582 2146.89,-108.232 2142.21,-117.737 2149.16,-118.582"/>
</g>
<!-- Kubelet&#45;&gt;Bootstrap -->
<g id="edge66" class="edge"><title>Kubelet&#45;&gt;Bootstrap</title>
<path fill="none" stroke="black" d="M623.034,-290.834C638.095,-280.697 658.605,-266.892 675.462,-255.546"/>
<polygon fill="black" stroke="black" points="677.555,-258.357 683.896,-249.869 673.646,-252.55 677.555,-258.357"/>
</g>
<!-- TerraformVariables&#45;&gt;Target Cluster -->
<g id="edge74" class="edge"><title>TerraformVariables&#45;&gt;Target Cluster</title>
<path fill="none" stroke="black" d="M2051.62,-143.972C2064.16,-125.836 2084.88,-96.4364 2103.99,-72 2111.27,-62.6818 2119.58,-52.7309 2127.05,-43.9973"/>
<polygon fill="black" stroke="black" points="2129.75,-46.2306 2133.63,-36.372 2124.44,-41.6589 2129.75,-46.2306"/>
</g>
<!-- TerraformVariables&#45;&gt;Cluster -->
<g id="edge82" class="edge"><title>TerraformVariables&#45;&gt;Cluster</title>
<path fill="none" stroke="black" d="M2065.27,-144.765C2081.33,-134.447 2102.21,-121.04 2119.1,-110.195"/>
<polygon fill="black" stroke="black" points="2120.99,-113.137 2127.52,-104.788 2117.21,-107.247 2120.99,-113.137"/>
</g>
<!-- Cluster&#45;&gt;Target Cluster -->
<g id="edge80" class="edge"><title>Cluster&#45;&gt;Target Cluster</title>
<path fill="none" stroke="black" d="M2148.99,-71.6966C2148.99,-63.9827 2148.99,-54.7125 2148.99,-46.1124"/>
<polygon fill="black" stroke="black" points="2152.49,-46.1043 2148.99,-36.1043 2145.49,-46.1044 2152.49,-46.1043"/>
</g>
</g>
</svg>
