<?xml version="1.0" encoding="utf-8"?>
<!-- Generator: Adobe Illustrator 17.0.0, SVG Export Plug-In . SVG Version: 6.00 Build 0)  -->
<!DOCTYPE svg PUBLIC "-//W3C//DTD SVG 1.1//EN" "http://www.w3.org/Graphics/SVG/1.1/DTD/svg11.dtd">
<svg version="1.1" id="Layer_1" xmlns="http://www.w3.org/2000/svg" xmlns:xlink="http://www.w3.org/1999/xlink" x="0px" y="0px"
	 width="39.243px" height="39.123px" viewBox="0 0 39.243 39.123" enable-background="new 0 0 39.243 39.123" xml:space="preserve">
<circle fill="#FFFFFF" stroke="#231F20" stroke-width="1.5" stroke-miterlimit="10" cx="19.685" cy="19.518" r="18.383"/>
<g>
	<path fill="#231F20" d="M16.307,25.816v-1.352c0-0.183,0.066-0.341,0.2-0.475s0.292-0.201,0.476-0.201h0.676v-4.054h-0.676
		c-0.184,0-0.342-0.067-0.476-0.201c-0.134-0.133-0.2-0.292-0.2-0.475v-1.351c0-0.183,0.066-0.341,0.2-0.475
		s0.292-0.201,0.476-0.201h4.054c0.184,0,0.342,0.067,0.476,0.201s0.2,0.292,0.2,0.475v6.081h0.676c0.183,0,0.341,0.067,0.475,0.201
		s0.201,0.292,0.201,0.475v1.352c0,0.183-0.067,0.342-0.201,0.475c-0.134,0.134-0.292,0.201-0.475,0.201h-5.405
		c-0.184,0-0.342-0.067-0.476-0.201C16.373,26.157,16.307,25.998,16.307,25.816z M17.658,14.329v-2.027
		c0-0.183,0.066-0.341,0.2-0.475s0.292-0.201,0.476-0.201h2.702c0.184,0,0.342,0.067,0.476,0.201s0.2,0.292,0.2,0.475v2.027
		c0,0.183-0.066,0.341-0.2,0.475s-0.292,0.201-0.476,0.201h-2.702c-0.184,0-0.342-0.067-0.476-0.201S17.658,14.512,17.658,14.329z"
		/>
</g>
<g>
</g>
<g>
</g>
<g>
</g>
<g>
</g>
<g>
</g>
<g>
</g>
</svg>
