<?xml version="1.0" encoding="utf-8"?>
<!-- Generator: Adobe Illustrator 17.0.0, SVG Export Plug-In . SVG Version: 6.00 Build 0)  -->
<!DOCTYPE svg PUBLIC "-//W3C//DTD SVG 1.1//EN" "http://www.w3.org/Graphics/SVG/1.1/DTD/svg11.dtd">
<svg version="1.1" id="Layer_1" xmlns="http://www.w3.org/2000/svg" xmlns:xlink="http://www.w3.org/1999/xlink" x="0px" y="0px"
	 width="43.69px" height="41.827px" viewBox="0 0 43.69 41.827" enable-background="new 0 0 43.69 41.827" xml:space="preserve">
<path fill="#FFFFFF" d="M2.264,19.546c0.286,0.69,0.63,1.233,1.021,1.615l18.38,18.397c0.626,0.628,1.602,0.642,2.293-0.015
	l9.043-9.062c0.315-0.316,0.463-0.676,0.463-1.131c0-0.443-0.156-0.824-0.477-1.163l-7.691-7.683
	c-5.528-0.004-14.08-0.009-14.08-0.009c-0.929,0-1.879-0.208-2.87-0.618c-1.012-0.419-1.844-0.953-2.477-1.585l-4.037-4.037v3.42
	C1.833,18.225,1.978,18.855,2.264,19.546z"/>
<path fill="#231F20" d="M34.063,27.141l-6.642-6.635c-0.331,0-0.684,0-1.062-0.001l7.174,7.166c0.455,0.48,0.682,1.04,0.682,1.679
	c0,0.652-0.227,1.205-0.682,1.661l-9.059,9.076c-0.48,0.455-1.04,0.682-1.679,0.682c-0.652,0-1.205-0.227-1.66-0.682L2.762,21.697
	c-0.468-0.456-0.864-1.076-1.19-1.865c-0.326-0.787-0.488-1.505-0.488-2.158v-4.17l-0.64-0.64c-0.042-0.042-0.071-0.091-0.11-0.134
	v4.944c0,0.748,0.184,1.571,0.545,2.445c0.365,0.879,0.822,1.59,1.353,2.107l18.373,18.39c0.599,0.599,1.335,0.902,2.19,0.902
	c0.835,0,1.573-0.299,2.211-0.902l9.059-9.077c0.598-0.6,0.9-1.337,0.9-2.19C34.964,28.517,34.666,27.779,34.063,27.141z"/>
<path fill="#231F20" d="M32.988,28.187c0.32,0.339,0.477,0.72,0.477,1.163c0,0.455-0.147,0.814-0.463,1.131l-9.043,9.062
	c-0.691,0.656-1.667,0.643-2.293,0.015L3.285,21.16c-0.391-0.381-0.735-0.925-1.021-1.615c-0.286-0.691-0.431-1.32-0.431-1.871
	v-3.42l-0.75-0.75v4.17c0,0.652,0.163,1.371,0.488,2.158c0.327,0.788,0.722,1.408,1.19,1.865l18.373,18.39
	c0.455,0.455,1.008,0.682,1.66,0.682c0.639,0,1.199-0.227,1.679-0.682l9.059-9.076c0.455-0.456,0.682-1.009,0.682-1.661
	c0-0.639-0.227-1.199-0.682-1.679l-7.174-7.166c-0.338,0-0.694,0-1.062-0.001L32.988,28.187z"/>
<path fill="#FFFFFF" d="M6.987,11.93c-0.455,0-0.818,0.15-1.141,0.473c-0.321,0.323-0.472,0.685-0.472,1.139s0.15,0.816,0.473,1.14
	c0.64,0.641,1.634,0.644,2.279-0.001c0.322-0.322,0.472-0.684,0.472-1.139s-0.15-0.817-0.472-1.139
	C7.804,12.081,7.441,11.93,6.987,11.93z"/>
<path fill="#FFFFFF" d="M9.348,13.543c0-0.652-0.23-1.208-0.691-1.669c-0.461-0.461-1.018-0.693-1.669-0.693
	c-0.652,0-1.209,0.231-1.671,0.693c-0.46,0.461-0.691,1.017-0.691,1.669c0,0.652,0.231,1.208,0.691,1.669
	c0.461,0.461,1.018,0.691,1.671,0.691c0.651,0,1.208-0.23,1.669-0.691C9.118,14.751,9.348,14.195,9.348,13.543z M8.126,14.682
	c-0.645,0.645-1.639,0.642-2.279,0.001c-0.322-0.324-0.473-0.686-0.473-1.14s0.15-0.816,0.472-1.139
	c0.323-0.323,0.686-0.473,1.141-0.473c0.454,0,0.816,0.15,1.139,0.473c0.322,0.322,0.472,0.684,0.472,1.139
	S8.448,14.36,8.126,14.682z"/>
<path fill="#FFFFFF" d="M9.187,15.742c0.604-0.604,0.911-1.345,0.911-2.2s-0.307-1.595-0.911-2.2
	c-0.605-0.605-1.346-0.913-2.2-0.913c-0.855,0-1.596,0.307-2.202,0.914c-0.604,0.606-0.91,1.346-0.91,2.199s0.306,1.593,0.911,2.2
	c0.604,0.604,1.345,0.911,2.201,0.911C7.842,16.654,8.582,16.347,9.187,15.742z M5.316,15.212c-0.46-0.461-0.691-1.017-0.691-1.669
	c0-0.652,0.231-1.208,0.691-1.669c0.461-0.461,1.018-0.693,1.671-0.693c0.651,0,1.208,0.231,1.669,0.693
	c0.461,0.461,0.691,1.017,0.691,1.669c0,0.652-0.23,1.208-0.691,1.669c-0.461,0.461-1.018,0.691-1.669,0.691
	C6.335,15.904,5.778,15.674,5.316,15.212z"/>
<g>
	<path fill="#010101" d="M16.071,25.005l0.91,0.909l2.419-2.419l-0.785-0.784l0.6-0.601c0.541,0.37,0.949,0.541,1.424,0.659
		l0.712,0.712l-3.402,3.401l0.785,0.785l-0.785,0.785l-2.663-2.664L16.071,25.005z"/>
	<path fill="#010101" d="M20.436,28.658c0.336,0.336,0.323,0.851-0.026,1.199c-0.343,0.344-0.857,0.357-1.194,0.021
		c-0.336-0.336-0.322-0.851,0.021-1.193C19.586,28.336,20.1,28.322,20.436,28.658z"/>
	<path fill="#010101" d="M22.639,28.922c1.424-1.424,2.756-1.555,3.652-0.658s0.765,2.229-0.659,3.652s-2.788,1.589-3.686,0.691
		C21.05,31.711,21.215,30.345,22.639,28.922z M24.715,30.999c1.147-1.147,1.154-1.655,0.824-1.984
		c-0.322-0.323-0.837-0.323-1.984,0.824c-1.14,1.141-1.179,1.694-0.856,2.017C23.028,32.185,23.575,32.139,24.715,30.999z"/>
</g>
<path fill="#FFFFFF" stroke="#231F20" stroke-width="1.5" d="M7.189,16.973l-5.427-5.427c-0.453-0.453-0.678-1.009-0.679-1.67
	c0-0.66,0.226-1.218,0.678-1.669l5.428-5.428c0.46-0.46,1.085-0.853,1.872-1.18s1.511-0.489,2.172-0.49l29.005-0.013
	c0.661,0.018,1.218,0.253,1.669,0.705c0.461,0.461,0.692,1.013,0.692,1.657l0.012,12.823c-0.018,0.661-0.253,1.218-0.705,1.669
	c-0.461,0.461-1.013,0.692-1.656,0.692L11.22,18.63c-0.653,0.009-1.372-0.15-2.16-0.477C8.273,17.827,7.65,17.434,7.189,16.973z"/>
<g>
	<path fill="#010101" d="M16.913,6.777h1.25v4.7c0,0.263,0.119,0.349,0.221,0.349c0.051,0,0.085,0,0.153-0.017l0.153,0.926
		c-0.136,0.06-0.348,0.102-0.629,0.102c-0.858,0-1.147-0.561-1.147-1.411V6.777z"/>
	<path fill="#010101" d="M21.562,10.024C21.537,9.65,21.35,9.412,20.9,9.412c-0.357,0-0.714,0.145-1.122,0.382L19.336,8.97
		c0.536-0.323,1.139-0.552,1.802-0.552c1.08,0,1.674,0.612,1.674,1.904v2.414h-1.02l-0.093-0.434h-0.025
		c-0.357,0.314-0.756,0.536-1.232,0.536c-0.765,0-1.25-0.561-1.25-1.275C19.191,10.678,19.897,10.194,21.562,10.024z M20.866,11.868
		c0.289,0,0.476-0.136,0.697-0.357v-0.74c-0.892,0.119-1.181,0.374-1.181,0.697C20.381,11.74,20.568,11.868,20.866,11.868z"/>
	<path fill="#010101" d="M24.053,9.497h-0.578V8.571l0.646-0.051l0.145-1.122h1.036v1.122h1.012v0.978h-1.012v1.691
		c0,0.476,0.213,0.671,0.544,0.671c0.137,0,0.289-0.042,0.399-0.085l0.196,0.91c-0.222,0.068-0.527,0.153-0.936,0.153
		c-1.045,0-1.453-0.654-1.453-1.632V9.497z"/>
	<path fill="#010101" d="M28.796,8.418c1.198,0,1.793,0.875,1.793,2.022c0,0.221-0.025,0.425-0.051,0.527h-2.524
		c0.111,0.637,0.536,0.917,1.097,0.917c0.314,0,0.604-0.093,0.909-0.28l0.417,0.756c-0.434,0.297-0.994,0.476-1.496,0.476
		c-1.207,0-2.133-0.816-2.133-2.21C26.808,9.259,27.784,8.418,28.796,8.418z M29.528,10.194c0-0.485-0.204-0.825-0.706-0.825
		c-0.391,0-0.73,0.264-0.815,0.825H29.528z"/>
	<path fill="#010101" d="M31.644,11.469c0.383,0.289,0.73,0.442,1.088,0.442c0.374,0,0.535-0.136,0.535-0.357
		c0-0.281-0.425-0.408-0.858-0.578c-0.51-0.195-1.113-0.544-1.113-1.241c0-0.782,0.638-1.317,1.615-1.317
		c0.646,0,1.121,0.263,1.487,0.535l-0.562,0.748c-0.306-0.221-0.595-0.357-0.893-0.357c-0.322,0-0.476,0.119-0.476,0.332
		c0,0.272,0.391,0.374,0.824,0.535c0.536,0.196,1.14,0.493,1.14,1.267c0,0.765-0.604,1.36-1.734,1.36
		c-0.553,0-1.189-0.238-1.614-0.586L31.644,11.469z"/>
	<path fill="#010101" d="M35.392,9.497h-0.578V8.571l0.646-0.051l0.145-1.122h1.036v1.122h1.012v0.978h-1.012v1.691
		c0,0.476,0.213,0.671,0.544,0.671c0.137,0,0.289-0.042,0.399-0.085l0.196,0.91c-0.222,0.068-0.527,0.153-0.936,0.153
		c-1.045,0-1.453-0.654-1.453-1.632V9.497z"/>
</g>
<path fill="none" stroke="#231F20" d="M6.08,9.877c0.001,0.652,0.23,1.208,0.692,1.669s1.018,0.691,1.669,0.692
	c0.653,0,1.209-0.231,1.67-0.692c0.46-0.46,0.692-1.017,0.692-1.669c0-0.653-0.23-1.208-0.692-1.669
	C9.649,7.745,9.094,7.515,8.441,7.515c-0.653,0-1.21,0.23-1.67,0.691C6.31,8.667,6.08,9.224,6.08,9.877z"/>
<g>
</g>
<g>
</g>
<g>
</g>
<g>
</g>
<g>
</g>
<g>
</g>
</svg>
