<?xml version="1.0" encoding="UTF-8" standalone="no"?>
<svg width="25px" height="29px" viewBox="0 0 25 29" version="1.1" xmlns="http://www.w3.org/2000/svg" xmlns:xlink="http://www.w3.org/1999/xlink" xmlns:sketch="http://www.bohemiancoding.com/sketch/ns">
    <!-- Generator: Sketch 3.3.2 (12043) - http://www.bohemiancoding.com/sketch -->
    <title>Imported Layers Copy</title>
    <desc>Created with Sketch.</desc>
    <defs></defs>
    <g id="Page-1" stroke="none" stroke-width="1" fill="none" fill-rule="evenodd" sketch:type="MSPage">
        <g id="03d---Confirmation-CC" sketch:type="MSArtboardGroup" transform="translate(-748.000000, -185.000000)">
            <g id="Imported-Layers-Copy" sketch:type="MSLayerGroup" transform="translate(749.000000, 186.000000)">
                <path d="M4.01940541,22.3864595 L7.70189189,26.0689459 L11.3843784,22.3864595 L15.0668649,26.0689459 L18.7493514,22.3864595 L22.4821892,26.1189865 L22.4831216,26.1189865 L22.4831216,6.63052703 L15.7478514,0.144216216 L0.285635135,0.144216216 L0.285635135,26.1189865 L0.286567568,26.1189865 L4.01940541,22.3864595 L4.01940541,22.3864595 Z" id="Fill-1" fill="#FFFFFF" sketch:type="MSShapeGroup"></path>
                <path d="M4.01940541,22.3864595 L7.70189189,26.0689459 L11.3843784,22.3864595 L15.0668649,26.0689459 L18.7493514,22.3864595 L22.4821892,26.1189865 L22.4831216,26.1189865 L22.4831216,6.63052703 L15.7478514,0.144216216 L0.285635135,0.144216216 L0.285635135,26.1189865 L0.286567568,26.1189865 L4.01940541,22.3864595 L4.01940541,22.3864595 Z" id="Stroke-2" stroke="#2EC98E" stroke-width="2" sketch:type="MSShapeGroup"></path>
                <path d="M15.6076757,0.222851351 L15.6076757,6.90341892 L22.5036351,6.90341892" id="Stroke-3" stroke="#2EC98E" stroke-width="2" sketch:type="MSShapeGroup"></path>
                <path d="M3.72972973,11.3654189 L19.4775811,11.3654189 M3.72972973,17.0638243 L19.4775811,17.0638243" id="Stroke-5" stroke="#2EC98E" stroke-width="2" sketch:type="MSShapeGroup"></path>
            </g>
        </g>
    </g>
</svg>