<?xml version="1.0" encoding="utf-8"?>
<!-- Generator: Adobe Illustrator 17.0.0, SVG Export Plug-In . SVG Version: 6.00 Build 0)  -->
<!DOCTYPE svg PUBLIC "-//W3C//DTD SVG 1.1//EN" "http://www.w3.org/Graphics/SVG/1.1/DTD/svg11.dtd">
<svg version="1.1" id="Layer_1" xmlns="http://www.w3.org/2000/svg" xmlns:xlink="http://www.w3.org/1999/xlink" x="0px" y="0px"
	 width="43.532px" height="43.878px" viewBox="0 0 43.532 43.878" enable-background="new 0 0 43.532 43.878" xml:space="preserve">
<g>
	<path fill="#FFFFFF" d="M23.396,42.146c-0.863,0.484-2.276,0.484-3.14,0L1.801,31.791c-0.863-0.484-0.863-1.277,0-1.762
		l18.455-10.355c0.863-0.484,2.276-0.484,3.14,0l18.455,10.355c0.863,0.484,0.863,1.277,0,1.762L23.396,42.146z"/>
	<path fill="none" stroke="#231F20" stroke-width="1.5" stroke-miterlimit="10" d="M23.396,42.146c-0.863,0.484-2.276,0.484-3.14,0
		L1.801,31.791c-0.863-0.484-0.863-1.277,0-1.762l18.455-10.355c0.863-0.484,2.276-0.484,3.14,0l18.455,10.355
		c0.863,0.484,0.863,1.277,0,1.762L23.396,42.146z"/>
</g>
<g>
	<path fill="#FFFFFF" d="M23.396,33.089c-0.863,0.484-2.276,0.484-3.14,0L1.801,22.733c-0.863-0.484-0.863-1.277,0-1.762
		l18.455-10.355c0.863-0.484,2.276-0.484,3.14,0l18.455,10.355c0.863,0.484,0.863,1.277,0,1.762L23.396,33.089z"/>
	<path fill="none" stroke="#231F20" stroke-width="1.5" stroke-miterlimit="10" d="M23.396,33.089c-0.863,0.484-2.276,0.484-3.14,0
		L1.801,22.733c-0.863-0.484-0.863-1.277,0-1.762l18.455-10.355c0.863-0.484,2.276-0.484,3.14,0l18.455,10.355
		c0.863,0.484,0.863,1.277,0,1.762L23.396,33.089z"/>
</g>
<g>
	<path fill="#FFFFFF" d="M23.396,24.031c-0.863,0.484-2.276,0.484-3.14,0L1.801,13.676c-0.863-0.484-0.863-1.277,0-1.762
		L20.257,1.559c0.863-0.484,2.276-0.484,3.14,0l18.455,10.355c0.863,0.484,0.863,1.277,0,1.762L23.396,24.031z"/>
	<path fill="none" stroke="#231F20" stroke-width="1.5" stroke-miterlimit="10" d="M23.396,24.031c-0.863,0.484-2.276,0.484-3.14,0
		L1.801,13.676c-0.863-0.484-0.863-1.277,0-1.762L20.257,1.559c0.863-0.484,2.276-0.484,3.14,0l18.455,10.355
		c0.863,0.484,0.863,1.277,0,1.762L23.396,24.031z"/>
</g>
<g>
</g>
<g>
</g>
<g>
</g>
<g>
</g>
<g>
</g>
<g>
</g>
</svg>
