<?xml version="1.0" encoding="UTF-8" standalone="no"?>
<!DOCTYPE svg PUBLIC "-//W3C//DTD SVG 1.1//EN"
 "http://www.w3.org/Graphics/SVG/1.1/DTD/svg11.dtd">
<!-- Generated by graphviz version 2.44.0 (0)
 -->
<!-- Title: agent_installer_services_unconfigured_ignition Pages: 1 -->
<svg width="934pt" height="708pt"
 viewBox="0.00 0.00 934.00 708.00" xmlns="http://www.w3.org/2000/svg" xmlns:xlink="http://www.w3.org/1999/xlink">
<g id="graph0" class="graph" transform="scale(1 1) rotate(0) translate(4 704)">
<title>agent_installer_services_unconfigured_ignition</title>
<polygon fill="white" stroke="transparent" points="-4,4 -4,-704 930,-704 930,4 -4,4"/>
<g id="clust2" class="cluster">
<title>cluster_assisted_service_pod</title>
<polygon fill="none" stroke="#666666" stroke-dasharray="5,2" points="476,-280 476,-692 740,-692 740,-280 476,-280"/>
</g>
<!-- iscsiadm -->
<g id="node1" class="node">
<title>iscsiadm</title>
<path fill="#add8e6" stroke="black" stroke-width="0.5" d="M44,-180C44,-180 12,-180 12,-180 6,-180 0,-174 0,-168 0,-168 0,-156 0,-156 0,-150 6,-144 12,-144 12,-144 44,-144 44,-144 50,-144 56,-150 56,-156 56,-156 56,-168 56,-168 56,-174 50,-180 44,-180"/>
<text text-anchor="middle" x="28" y="-159.5" font-family="Arial" font-size="10.00">iscsiadm</text>
</g>
<!-- iscsistart -->
<g id="node2" class="node">
<title>iscsistart</title>
<path fill="#add8e6" stroke="black" stroke-width="0.5" d="M44,-108C44,-108 12,-108 12,-108 6,-108 0,-102 0,-96 0,-96 0,-84 0,-84 0,-78 6,-72 12,-72 12,-72 44,-72 44,-72 50,-72 56,-78 56,-84 56,-84 56,-96 56,-96 56,-102 50,-108 44,-108"/>
<text text-anchor="middle" x="28" y="-87.5" font-family="Arial" font-size="10.00">iscsistart</text>
</g>
<!-- iscsistart&#45;&gt;iscsiadm -->
<g id="edge24" class="edge">
<title>iscsistart&#45;&gt;iscsiadm</title>
<path fill="none" stroke="#333333" d="M28,-108.3C28,-116.02 28,-125.29 28,-133.89"/>
<polygon fill="#333333" stroke="#333333" points="24.5,-133.9 28,-143.9 31.5,-133.9 24.5,-133.9"/>
</g>
<!-- pre_network_manager_config -->
<g id="node3" class="node">
<title>pre_network_manager_config</title>
<path fill="#add8e6" stroke="black" stroke-width="0.5" d="M199.5,-108C199.5,-108 86.5,-108 86.5,-108 80.5,-108 74.5,-102 74.5,-96 74.5,-96 74.5,-84 74.5,-84 74.5,-78 80.5,-72 86.5,-72 86.5,-72 199.5,-72 199.5,-72 205.5,-72 211.5,-78 211.5,-84 211.5,-84 211.5,-96 211.5,-96 211.5,-102 205.5,-108 199.5,-108"/>
<text text-anchor="middle" x="143" y="-87.5" font-family="Arial" font-size="10.00">pre&#45;network&#45;manager&#45;config</text>
</g>
<!-- selinux -->
<g id="node4" class="node">
<title>selinux</title>
<path fill="#add8e6" stroke="black" stroke-width="0.5" d="M272,-108C272,-108 242,-108 242,-108 236,-108 230,-102 230,-96 230,-96 230,-84 230,-84 230,-78 236,-72 242,-72 242,-72 272,-72 272,-72 278,-72 284,-78 284,-84 284,-84 284,-96 284,-96 284,-102 278,-108 272,-108"/>
<text text-anchor="middle" x="257" y="-87.5" font-family="Arial" font-size="10.00">selinux</text>
</g>
<!-- set_hostname -->
<g id="node5" class="node">
<title>set_hostname</title>
<path fill="#add8e6" stroke="black" d="M366,-108C366,-108 314,-108 314,-108 308,-108 302,-102 302,-96 302,-96 302,-84 302,-84 302,-78 308,-72 314,-72 314,-72 366,-72 366,-72 372,-72 378,-78 378,-84 378,-84 378,-96 378,-96 378,-102 372,-108 366,-108"/>
<text text-anchor="middle" x="340" y="-87.5" font-family="Arial" font-size="10.00">set&#45;hostname</text>
</g>
<!-- agent -->
<g id="node10" class="node">
<title>agent</title>
<path fill="#add8e6" stroke="black" d="M382,-180C382,-180 352,-180 352,-180 346,-180 340,-174 340,-168 340,-168 340,-156 340,-156 340,-150 346,-144 352,-144 352,-144 382,-144 382,-144 388,-144 394,-150 394,-156 394,-156 394,-168 394,-168 394,-174 388,-180 382,-180"/>
<text text-anchor="middle" x="367" y="-159.5" font-family="Arial" font-size="10.00">agent</text>
</g>
<!-- set_hostname&#45;&gt;agent -->
<g id="edge15" class="edge">
<title>set_hostname&#45;&gt;agent</title>
<path fill="none" stroke="#333333" d="M346.67,-108.3C349.71,-116.19 353.38,-125.7 356.76,-134.45"/>
<polygon fill="#333333" stroke="#333333" points="353.54,-135.83 360.4,-143.9 360.07,-133.31 353.54,-135.83"/>
</g>
<!-- _etc_assisted_node0 -->
<g id="node6" class="node">
<title>_etc_assisted_node0</title>
<polygon fill="#fffacd" stroke="black" points="831,-252 735,-252 735,-216 837,-216 837,-246 831,-252"/>
<polyline fill="none" stroke="black" points="831,-252 831,-246 "/>
<polyline fill="none" stroke="black" points="837,-246 831,-246 "/>
<text text-anchor="middle" x="786" y="-231.5" font-family="Arial" font-size="10.00">/etc/assisted/node0</text>
</g>
<!-- install_status -->
<g id="node11" class="node">
<title>install_status</title>
<path fill="#add8e6" stroke="black" d="M810,-396C810,-396 762,-396 762,-396 756,-396 750,-390 750,-384 750,-384 750,-372 750,-372 750,-366 756,-360 762,-360 762,-360 810,-360 810,-360 816,-360 822,-366 822,-372 822,-372 822,-384 822,-384 822,-390 816,-396 810,-396"/>
<text text-anchor="middle" x="786" y="-375.5" font-family="Arial" font-size="10.00">install&#45;status</text>
</g>
<!-- _etc_assisted_node0&#45;&gt;install_status -->
<g id="edge23" class="edge">
<title>_etc_assisted_node0&#45;&gt;install_status</title>
<path fill="none" stroke="#333333" stroke-dasharray="1,5" d="M786,-252.13C786,-276.33 786,-320.79 786,-349.61"/>
<polygon fill="#333333" stroke="#333333" points="782.5,-349.81 786,-359.81 789.5,-349.81 782.5,-349.81"/>
</g>
<!-- assisted_service_pod -->
<g id="node15" class="node">
<title>assisted_service_pod</title>
<path fill="#add8e6" stroke="black" d="M719.5,-324C719.5,-324 636.5,-324 636.5,-324 630.5,-324 624.5,-318 624.5,-312 624.5,-312 624.5,-300 624.5,-300 624.5,-294 630.5,-288 636.5,-288 636.5,-288 719.5,-288 719.5,-288 725.5,-288 731.5,-294 731.5,-300 731.5,-300 731.5,-312 731.5,-312 731.5,-318 725.5,-324 719.5,-324"/>
<text text-anchor="middle" x="678" y="-303.5" font-family="Arial" font-size="10.00">assisted&#45;service&#45;pod</text>
</g>
<!-- _etc_assisted_node0&#45;&gt;assisted_service_pod -->
<g id="edge21" class="edge">
<title>_etc_assisted_node0&#45;&gt;assisted_service_pod</title>
<path fill="none" stroke="#333333" stroke-dasharray="1,5" d="M759.58,-252.12C745.59,-261.19 728.22,-272.45 713.11,-282.24"/>
<polygon fill="#333333" stroke="#333333" points="711.01,-279.43 704.52,-287.81 714.82,-285.31 711.01,-279.43"/>
</g>
<!-- agent_register_cluster -->
<g id="node16" class="node">
<title>agent_register_cluster</title>
<path fill="#add8e6" stroke="black" d="M700,-468C700,-468 616,-468 616,-468 610,-468 604,-462 604,-456 604,-456 604,-444 604,-444 604,-438 610,-432 616,-432 616,-432 700,-432 700,-432 706,-432 712,-438 712,-444 712,-444 712,-456 712,-456 712,-462 706,-468 700,-468"/>
<text text-anchor="middle" x="658" y="-447.5" font-family="Arial" font-size="10.00">agent&#45;register&#45;cluster</text>
</g>
<!-- _etc_assisted_node0&#45;&gt;agent_register_cluster -->
<g id="edge9" class="edge">
<title>_etc_assisted_node0&#45;&gt;agent_register_cluster</title>
<path fill="none" stroke="#333333" stroke-dasharray="1,5" d="M799.6,-252.25C822.69,-283.75 863.96,-351.43 831,-396 806.14,-429.62 760.36,-442.61 722.14,-447.33"/>
<polygon fill="#333333" stroke="#333333" points="721.66,-443.86 712.09,-448.4 722.41,-450.82 721.66,-443.86"/>
</g>
<!-- agent_register_infraenv -->
<g id="node17" class="node">
<title>agent_register_infraenv</title>
<path fill="#add8e6" stroke="black" d="M702.5,-540C702.5,-540 613.5,-540 613.5,-540 607.5,-540 601.5,-534 601.5,-528 601.5,-528 601.5,-516 601.5,-516 601.5,-510 607.5,-504 613.5,-504 613.5,-504 702.5,-504 702.5,-504 708.5,-504 714.5,-510 714.5,-516 714.5,-516 714.5,-528 714.5,-528 714.5,-534 708.5,-540 702.5,-540"/>
<text text-anchor="middle" x="658" y="-519.5" font-family="Arial" font-size="10.00">agent&#45;register&#45;infraenv</text>
</g>
<!-- _etc_assisted_node0&#45;&gt;agent_register_infraenv -->
<g id="edge12" class="edge">
<title>_etc_assisted_node0&#45;&gt;agent_register_infraenv</title>
<path fill="none" stroke="#333333" stroke-dasharray="1,5" d="M815.76,-252.16C825.73,-259.45 835.87,-268.85 842,-280 866.93,-325.31 875.7,-350.57 851,-396 823.14,-447.24 764.21,-480.71 718.76,-500"/>
<polygon fill="#333333" stroke="#333333" points="717.19,-496.86 709.28,-503.9 719.86,-503.33 717.19,-496.86"/>
</g>
<!-- apply_host_config -->
<g id="node18" class="node">
<title>apply_host_config</title>
<path fill="#add8e6" stroke="black" d="M634.5,-612C634.5,-612 567.5,-612 567.5,-612 561.5,-612 555.5,-606 555.5,-600 555.5,-600 555.5,-588 555.5,-588 555.5,-582 561.5,-576 567.5,-576 567.5,-576 634.5,-576 634.5,-576 640.5,-576 646.5,-582 646.5,-588 646.5,-588 646.5,-600 646.5,-600 646.5,-606 640.5,-612 634.5,-612"/>
<text text-anchor="middle" x="601" y="-591.5" font-family="Arial" font-size="10.00">apply&#45;host&#45;config</text>
</g>
<!-- _etc_assisted_node0&#45;&gt;apply_host_config -->
<g id="edge17" class="edge">
<title>_etc_assisted_node0&#45;&gt;apply_host_config</title>
<path fill="none" stroke="#333333" stroke-dasharray="1,5" d="M734.9,-237.49C661.16,-244.25 527.93,-269.11 475,-360 431.15,-435.29 521.21,-526.75 571,-569.21"/>
<polygon fill="#333333" stroke="#333333" points="568.99,-572.1 578.91,-575.84 573.49,-566.73 568.99,-572.1"/>
</g>
<!-- start_cluster_installation -->
<g id="node21" class="node">
<title>start_cluster_installation</title>
<path fill="#add8e6" stroke="black" d="M648,-684C648,-684 554,-684 554,-684 548,-684 542,-678 542,-672 542,-672 542,-660 542,-660 542,-654 548,-648 554,-648 554,-648 648,-648 648,-648 654,-648 660,-654 660,-660 660,-660 660,-672 660,-672 660,-678 654,-684 648,-684"/>
<text text-anchor="middle" x="601" y="-663.5" font-family="Arial" font-size="10.00">start&#45;cluster&#45;installation</text>
</g>
<!-- _etc_assisted_node0&#45;&gt;start_cluster_installation -->
<g id="edge26" class="edge">
<title>_etc_assisted_node0&#45;&gt;start_cluster_installation</title>
<path fill="none" stroke="#333333" stroke-dasharray="1,5" d="M825.29,-252.05C839.19,-259.32 854.27,-268.75 866,-280 902.58,-315.09 926,-326.31 926,-377 926,-377 926,-377 926,-523 926,-633.65 765.86,-658.93 670.4,-664.16"/>
<polygon fill="#333333" stroke="#333333" points="670.05,-660.68 660.23,-664.66 670.39,-667.67 670.05,-660.68"/>
</g>
<!-- _etc_assisted_rendezvous_host_env -->
<g id="node7" class="node">
<title>_etc_assisted_rendezvous_host_env</title>
<polygon fill="#fffacd" stroke="black" points="497.5,-108 396.5,-108 396.5,-72 503.5,-72 503.5,-102 497.5,-108"/>
<polyline fill="none" stroke="black" points="497.5,-108 497.5,-102 "/>
<polyline fill="none" stroke="black" points="503.5,-102 497.5,-102 "/>
<text text-anchor="middle" x="450" y="-93" font-family="Arial" font-size="10.00">/etc/assisted/</text>
<text text-anchor="middle" x="450" y="-82" font-family="Arial" font-size="10.00">rendezvous&#45;host.env</text>
</g>
<!-- _etc_assisted_rendezvous_host_env&#45;&gt;agent -->
<g id="edge4" class="edge">
<title>_etc_assisted_rendezvous_host_env&#45;&gt;agent</title>
<path fill="none" stroke="#333333" stroke-dasharray="1,5" d="M429.48,-108.3C419.13,-117.03 406.41,-127.76 395.16,-137.25"/>
<polygon fill="#333333" stroke="#333333" points="392.67,-134.77 387.28,-143.9 397.18,-140.12 392.67,-134.77"/>
</g>
<!-- node_zero -->
<g id="node13" class="node">
<title>node_zero</title>
<path fill="#add8e6" stroke="black" d="M695.5,-180C695.5,-180 660.5,-180 660.5,-180 654.5,-180 648.5,-174 648.5,-168 648.5,-168 648.5,-156 648.5,-156 648.5,-150 654.5,-144 660.5,-144 660.5,-144 695.5,-144 695.5,-144 701.5,-144 707.5,-150 707.5,-156 707.5,-156 707.5,-168 707.5,-168 707.5,-174 701.5,-180 695.5,-180"/>
<text text-anchor="middle" x="678" y="-159.5" font-family="Arial" font-size="10.00">node&#45;zero</text>
</g>
<!-- _etc_assisted_rendezvous_host_env&#45;&gt;node_zero -->
<g id="edge6" class="edge">
<title>_etc_assisted_rendezvous_host_env&#45;&gt;node_zero</title>
<path fill="none" stroke="#333333" stroke-dasharray="1,5" d="M503.74,-107.5C545.02,-120.17 601.09,-137.39 638.35,-148.83"/>
<polygon fill="#333333" stroke="#333333" points="637.75,-152.3 648.34,-151.89 639.8,-145.61 637.75,-152.3"/>
</g>
<!-- assisted_service -->
<g id="node20" class="node">
<title>assisted_service</title>
<path fill="#add8e6" stroke="black" d="M560,-396C560,-396 496,-396 496,-396 490,-396 484,-390 484,-384 484,-384 484,-372 484,-372 484,-366 490,-360 496,-360 496,-360 560,-360 560,-360 566,-360 572,-366 572,-372 572,-372 572,-384 572,-384 572,-390 566,-396 560,-396"/>
<text text-anchor="middle" x="528" y="-375.5" font-family="Arial" font-size="10.00">assisted&#45;service</text>
</g>
<!-- _etc_assisted_rendezvous_host_env&#45;&gt;assisted_service -->
<g id="edge5" class="edge">
<title>_etc_assisted_rendezvous_host_env&#45;&gt;assisted_service</title>
<path fill="none" stroke="#333333" stroke-dasharray="1,5" d="M454.65,-108.03C467.67,-155.81 504.65,-291.38 520.56,-349.73"/>
<polygon fill="#333333" stroke="#333333" points="517.27,-350.97 523.28,-359.69 524.03,-349.12 517.27,-350.97"/>
</g>
<!-- agent_check_config_image -->
<g id="node8" class="node">
<title>agent_check_config_image</title>
<path fill="#add8e6" stroke="black" stroke-width="0.5" d="M842,-180C842,-180 738,-180 738,-180 732,-180 726,-174 726,-168 726,-168 726,-156 726,-156 726,-150 732,-144 738,-144 738,-144 842,-144 842,-144 848,-144 854,-150 854,-156 854,-156 854,-168 854,-168 854,-174 848,-180 842,-180"/>
<text text-anchor="middle" x="790" y="-159.5" font-family="Arial" font-size="10.00">agent&#45;check&#45;config&#45;image</text>
</g>
<!-- agent_set_host_copy_network_arg -->
<g id="node9" class="node">
<title>agent_set_host_copy_network_arg</title>
<path fill="#add8e6" stroke="black" d="M442.5,-612C442.5,-612 309.5,-612 309.5,-612 303.5,-612 297.5,-606 297.5,-600 297.5,-600 297.5,-588 297.5,-588 297.5,-582 303.5,-576 309.5,-576 309.5,-576 442.5,-576 442.5,-576 448.5,-576 454.5,-582 454.5,-588 454.5,-588 454.5,-600 454.5,-600 454.5,-606 448.5,-612 442.5,-612"/>
<text text-anchor="middle" x="376" y="-591.5" font-family="Arial" font-size="10.00">agent&#45;set&#45;host&#45;copy&#45;network&#45;arg</text>
</g>
<!-- agent_set_host_copy_network_arg&#45;&gt;start_cluster_installation -->
<g id="edge14" class="edge">
<title>agent_set_host_copy_network_arg&#45;&gt;start_cluster_installation</title>
<path fill="none" stroke="#333333" d="M430.75,-612.03C462.6,-621.94 502.92,-634.49 536.33,-644.88"/>
<polygon fill="#333333" stroke="#333333" points="535.41,-648.26 546,-647.89 537.49,-641.58 535.41,-648.26"/>
</g>
<!-- agent&#45;&gt;agent_set_host_copy_network_arg -->
<g id="edge13" class="edge">
<title>agent&#45;&gt;agent_set_host_copy_network_arg</title>
<path fill="none" stroke="#333333" d="M367.59,-180.05C368.47,-206.7 370,-259.88 370,-305 370,-305 370,-305 370,-451 370,-491.04 372.41,-537.37 374.18,-565.93"/>
<polygon fill="#333333" stroke="#333333" points="370.69,-566.2 374.81,-575.96 377.67,-565.76 370.69,-566.2"/>
</g>
<!-- load_config_iso -->
<g id="node12" class="node">
<title>load_config_iso</title>
<path fill="#6495ed" stroke="black" stroke-width="2" d="M510,-36C510,-36 390,-36 390,-36 384,-36 378,-30 378,-24 378,-24 378,-12 378,-12 378,-6 384,0 390,0 390,0 510,0 510,0 516,0 522,-6 522,-12 522,-12 522,-24 522,-24 522,-30 516,-36 510,-36"/>
<text text-anchor="middle" x="450" y="-15.5" font-family="Arial" font-size="10.00">load&#45;config&#45;iso@</text>
</g>
<!-- load_config_iso&#45;&gt;_etc_assisted_rendezvous_host_env -->
<g id="edge3" class="edge">
<title>load_config_iso&#45;&gt;_etc_assisted_rendezvous_host_env</title>
<path fill="none" stroke="#333333" stroke-dasharray="1,5" d="M444.08,-36.3C443.29,-44.02 443.06,-53.29 443.4,-61.89"/>
<polygon fill="#333333" stroke="#333333" points="439.92,-62.16 444.1,-71.9 446.9,-61.68 439.92,-62.16"/>
</g>
<!-- load_config_iso&#45;&gt;_etc_assisted_rendezvous_host_env -->
<!-- node_zero&#45;&gt;_etc_assisted_node0 -->
<g id="edge7" class="edge">
<title>node_zero&#45;&gt;_etc_assisted_node0</title>
<path fill="none" stroke="#333333" stroke-dasharray="1,5" d="M704.42,-180.12C718.41,-189.19 735.78,-200.45 750.89,-210.24"/>
<polygon fill="#333333" stroke="#333333" points="749.18,-213.31 759.48,-215.81 752.99,-207.43 749.18,-213.31"/>
</g>
<!-- node_zero&#45;&gt;assisted_service_pod -->
<g id="edge19" class="edge">
<title>node_zero&#45;&gt;assisted_service_pod</title>
<path fill="none" stroke="#333333" d="M678,-180.13C678,-204.33 678,-248.79 678,-277.61"/>
<polygon fill="#333333" stroke="#333333" points="674.5,-277.81 678,-287.81 681.5,-277.81 674.5,-277.81"/>
</g>
<!-- oci_eval_user_data -->
<g id="node14" class="node">
<title>oci_eval_user_data</title>
<path fill="#add8e6" stroke="black" stroke-width="0.5" d="M622,-36C622,-36 552,-36 552,-36 546,-36 540,-30 540,-24 540,-24 540,-12 540,-12 540,-6 546,0 552,0 552,0 622,0 622,0 628,0 634,-6 634,-12 634,-12 634,-24 634,-24 634,-30 628,-36 622,-36"/>
<text text-anchor="middle" x="587" y="-15.5" font-family="Arial" font-size="10.00">oci&#45;eval&#45;user&#45;data</text>
</g>
<!-- assisted_service_pod&#45;&gt;install_status -->
<g id="edge22" class="edge">
<title>assisted_service_pod&#45;&gt;install_status</title>
<path fill="none" stroke="#333333" d="M704.42,-324.12C718.41,-333.19 735.78,-344.45 750.89,-354.24"/>
<polygon fill="#333333" stroke="#333333" points="749.18,-357.31 759.48,-359.81 752.99,-351.43 749.18,-357.31"/>
</g>
<!-- assisted_service_pod&#45;&gt;agent_register_cluster -->
<!-- assisted_service_pod&#45;&gt;agent_register_infraenv -->
<!-- assisted_service_db -->
<g id="node19" class="node">
<title>assisted_service_db</title>
<path fill="#add8e6" stroke="black" d="M679.5,-396C679.5,-396 602.5,-396 602.5,-396 596.5,-396 590.5,-390 590.5,-384 590.5,-384 590.5,-372 590.5,-372 590.5,-366 596.5,-360 602.5,-360 602.5,-360 679.5,-360 679.5,-360 685.5,-360 691.5,-366 691.5,-372 691.5,-372 691.5,-384 691.5,-384 691.5,-390 685.5,-396 679.5,-396"/>
<text text-anchor="middle" x="641" y="-375.5" font-family="Arial" font-size="10.00">assisted&#45;service&#45;db</text>
</g>
<!-- assisted_service_pod&#45;&gt;assisted_service_db -->
<g id="edge18" class="edge">
<title>assisted_service_pod&#45;&gt;assisted_service_db</title>
<path fill="none" stroke="#333333" d="M668.85,-324.3C664.6,-332.36 659.44,-342.11 654.73,-351.02"/>
<polygon fill="#333333" stroke="#333333" points="651.62,-349.42 650.04,-359.9 657.81,-352.69 651.62,-349.42"/>
</g>
<!-- assisted_service_pod&#45;&gt;assisted_service -->
<g id="edge20" class="edge">
<title>assisted_service_pod&#45;&gt;assisted_service</title>
<path fill="none" stroke="#333333" d="M641.31,-324.12C620.98,-333.61 595.53,-345.49 573.9,-355.58"/>
<polygon fill="#333333" stroke="#333333" points="572.16,-352.53 564.57,-359.93 575.12,-358.87 572.16,-352.53"/>
</g>
<!-- agent_register_cluster&#45;&gt;agent_register_infraenv -->
<g id="edge11" class="edge">
<title>agent_register_cluster&#45;&gt;agent_register_infraenv</title>
<path fill="none" stroke="#333333" d="M658,-468.3C658,-476.02 658,-485.29 658,-493.89"/>
<polygon fill="#333333" stroke="#333333" points="654.5,-493.9 658,-503.9 661.5,-493.9 654.5,-493.9"/>
</g>
<!-- agent_register_infraenv&#45;&gt;apply_host_config -->
<g id="edge16" class="edge">
<title>agent_register_infraenv&#45;&gt;apply_host_config</title>
<path fill="none" stroke="#333333" d="M643.91,-540.3C637.08,-548.7 628.74,-558.93 621.24,-568.14"/>
<polygon fill="#333333" stroke="#333333" points="618.53,-565.93 614.93,-575.9 623.96,-570.35 618.53,-565.93"/>
</g>
<!-- apply_host_config&#45;&gt;start_cluster_installation -->
<g id="edge25" class="edge">
<title>apply_host_config&#45;&gt;start_cluster_installation</title>
<path fill="none" stroke="#333333" d="M601,-612.3C601,-620.02 601,-629.29 601,-637.89"/>
<polygon fill="#333333" stroke="#333333" points="597.5,-637.9 601,-647.9 604.5,-637.9 597.5,-637.9"/>
</g>
<!-- assisted_service&#45;&gt;agent_register_cluster -->
<g id="edge8" class="edge">
<title>assisted_service&#45;&gt;agent_register_cluster</title>
<path fill="none" stroke="#333333" d="M559.8,-396.12C577.11,-405.45 598.72,-417.08 617.26,-427.06"/>
<polygon fill="#333333" stroke="#333333" points="615.61,-430.15 626.08,-431.81 618.93,-423.99 615.61,-430.15"/>
</g>
<!-- assisted_service&#45;&gt;agent_register_infraenv -->
<g id="edge10" class="edge">
<title>assisted_service&#45;&gt;agent_register_infraenv</title>
<path fill="none" stroke="#333333" d="M539.29,-396.3C551.82,-414.92 573.19,-444.97 595,-468 604.87,-478.42 616.69,-488.82 627.41,-497.61"/>
<polygon fill="#333333" stroke="#333333" points="625.36,-500.45 635.34,-503.99 629.75,-495 625.36,-500.45"/>
</g>
</g>
</svg>
