<?xml version="1.0" encoding="UTF-8" standalone="no"?>
<!DOCTYPE svg PUBLIC "-//W3C//DTD SVG 1.1//EN"
 "http://www.w3.org/Graphics/SVG/1.1/DTD/svg11.dtd">
<!-- Generated by graphviz version 2.38.0 (20140413.2041)
 -->
<!-- Title: resource Pages: 1 -->
<svg width="1542pt" height="1296pt"
 viewBox="0.00 0.00 1541.82 1296.00" xmlns="http://www.w3.org/2000/svg" xmlns:xlink="http://www.w3.org/1999/xlink">
<g id="graph0" class="graph" transform="scale(0.741975 0.741975) rotate(0) translate(4 1742.69)">
<title>resource</title>
<polygon fill="white" stroke="none" points="-4,4 -4,-1742.69 2074,-1742.69 2074,4 -4,4"/>
<!-- install_cfg -->
<g id="node1" class="node"><title>install_cfg</title>
<polygon fill="white" stroke="yellowgreen" stroke-width="3" points="630,-1594.24 426,-1594.24 426,-1546.24 630,-1546.24 630,-1594.24"/>
<text text-anchor="middle" x="528" y="-1561.44" font-family="Times,serif" font-size="36.00">install config</text>
</g>
<!-- manifests -->
<g id="node2" class="node"><title>manifests</title>
<polygon fill="white" stroke="yellowgreen" stroke-width="3" points="1644,-799.244 1490,-799.244 1490,-751.244 1644,-751.244 1644,-799.244"/>
<text text-anchor="middle" x="1567" y="-766.444" font-family="Times,serif" font-size="36.00">manifests</text>
</g>
<!-- ignition_configs -->
<g id="node3" class="node"><title>ignition_configs</title>
<polygon fill="white" stroke="yellowgreen" stroke-width="3" points="1922,-303.244 1680,-303.244 1680,-255.244 1922,-255.244 1922,-303.244"/>
<text text-anchor="middle" x="1801" y="-270.444" font-family="Times,serif" font-size="36.00">ignition configs</text>
</g>
<!-- cluster -->
<g id="node4" class="node"><title>cluster</title>
<polygon fill="white" stroke="yellowgreen" stroke-width="3" points="2070,-307.244 1958,-307.244 1958,-259.244 2070,-259.244 2070,-307.244"/>
<text text-anchor="middle" x="2014" y="-274.444" font-family="Times,serif" font-size="36.00">cluster</text>
</g>
<!-- base_domain -->
<g id="node5" class="node"><title>base_domain</title>
<polygon fill="gainsboro" stroke="gainsboro" points="123,-1667.24 7,-1667.24 7,-1631.24 123,-1631.24 123,-1667.24"/>
<text text-anchor="middle" x="65" y="-1644.24" font-family="Times,serif" font-size="20.00">base domain</text>
</g>
<!-- install_config -->
<g id="node12" class="node"><title>install_config</title>
<polygon fill="lightcoral" stroke="lightcoral" points="342,-1534.24 176,-1534.24 176,-1498.24 342,-1498.24 342,-1534.24"/>
<text text-anchor="middle" x="259" y="-1511.24" font-family="Times,serif" font-size="20.00">install&#45;config.yaml</text>
</g>
<!-- base_domain&#45;&gt;install_config -->
<g id="edge7" class="edge"><title>base_domain&#45;&gt;install_config</title>
<path fill="none" stroke="black" d="M96.1627,-1631.18C107.093,-1624.47 119.461,-1616.68 130.5,-1609.24 163.781,-1586.83 200.709,-1559.63 226.22,-1540.45"/>
<polygon fill="black" stroke="black" points="228.535,-1543.09 234.412,-1534.27 224.32,-1537.5 228.535,-1543.09"/>
</g>
<!-- cluster_name -->
<g id="node6" class="node"><title>cluster_name</title>
<polygon fill="gainsboro" stroke="gainsboro" points="124,-1600.24 6,-1600.24 6,-1564.24 124,-1564.24 124,-1600.24"/>
<text text-anchor="middle" x="65" y="-1577.24" font-family="Times,serif" font-size="20.00">cluster name</text>
</g>
<!-- cluster_name&#45;&gt;install_config -->
<g id="edge6" class="edge"><title>cluster_name&#45;&gt;install_config</title>
<path fill="none" stroke="black" d="M118.465,-1564.21C142.382,-1555.99 170.872,-1546.19 195.854,-1537.61"/>
<polygon fill="black" stroke="black" points="197.28,-1540.82 205.599,-1534.26 195.004,-1534.2 197.28,-1540.82"/>
</g>
<!-- license -->
<g id="node7" class="node"><title>license</title>
<polygon fill="gainsboro" stroke="gainsboro" points="100.5,-1534.24 29.5,-1534.24 29.5,-1498.24 100.5,-1498.24 100.5,-1534.24"/>
<text text-anchor="middle" x="65" y="-1511.24" font-family="Times,serif" font-size="20.00">license</text>
</g>
<!-- license&#45;&gt;install_config -->
<g id="edge5" class="edge"><title>license&#45;&gt;install_config</title>
<path fill="none" stroke="black" d="M100.77,-1516.24C119.032,-1516.24 142.368,-1516.24 165.438,-1516.24"/>
<polygon fill="black" stroke="black" points="165.646,-1519.74 175.646,-1516.24 165.646,-1512.74 165.646,-1519.74"/>
</g>
<!-- pull_secret -->
<g id="node8" class="node"><title>pull_secret</title>
<polygon fill="gainsboro" stroke="gainsboro" points="114,-1467.24 16,-1467.24 16,-1431.24 114,-1431.24 114,-1467.24"/>
<text text-anchor="middle" x="65" y="-1444.24" font-family="Times,serif" font-size="20.00">pull secret</text>
</g>
<!-- pull_secret&#45;&gt;install_config -->
<g id="edge4" class="edge"><title>pull_secret&#45;&gt;install_config</title>
<path fill="none" stroke="black" d="M114.45,-1466.15C139.383,-1474.85 170.04,-1485.55 196.613,-1494.82"/>
<polygon fill="black" stroke="black" points="195.605,-1498.18 206.2,-1498.17 197.912,-1491.57 195.605,-1498.18"/>
</g>
<!-- platform -->
<g id="node9" class="node"><title>platform</title>
<polygon fill="gainsboro" stroke="gainsboro" points="107.5,-1400.24 22.5,-1400.24 22.5,-1364.24 107.5,-1364.24 107.5,-1400.24"/>
<text text-anchor="middle" x="65" y="-1377.24" font-family="Times,serif" font-size="20.00">platform</text>
</g>
<!-- platform&#45;&gt;install_config -->
<g id="edge2" class="edge"><title>platform&#45;&gt;install_config</title>
<path fill="none" stroke="black" d="M100.967,-1400.43C111.1,-1406.59 121.773,-1414.02 130.5,-1422.24 150.694,-1441.27 145.239,-1455.42 166.5,-1473.24 175.852,-1481.08 186.874,-1487.84 197.969,-1493.52"/>
<polygon fill="black" stroke="black" points="196.746,-1496.81 207.27,-1498.03 199.804,-1490.52 196.746,-1496.81"/>
</g>
<!-- email_address -->
<g id="node10" class="node"><title>email_address</title>
<polygon fill="gainsboro" stroke="gainsboro" points="127.5,-1333.24 2.5,-1333.24 2.5,-1297.24 127.5,-1297.24 127.5,-1333.24"/>
<text text-anchor="middle" x="65" y="-1310.24" font-family="Times,serif" font-size="20.00">email address</text>
</g>
<!-- email_address&#45;&gt;install_config -->
<g id="edge3" class="edge"><title>email_address&#45;&gt;install_config</title>
<path fill="none" stroke="black" d="M105.082,-1333.27C114.485,-1339.15 123.75,-1346.47 130.5,-1355.24 163.94,-1398.7 130.602,-1431.8 166.5,-1473.24 173.38,-1481.19 182.046,-1487.77 191.286,-1493.19"/>
<polygon fill="black" stroke="black" points="189.819,-1496.37 200.282,-1498.03 193.139,-1490.21 189.819,-1496.37"/>
</g>
<!-- password -->
<g id="node11" class="node"><title>password</title>
<polygon fill="gainsboro" stroke="gainsboro" points="110.5,-1734.24 19.5,-1734.24 19.5,-1698.24 110.5,-1698.24 110.5,-1734.24"/>
<text text-anchor="middle" x="65" y="-1711.24" font-family="Times,serif" font-size="20.00">password</text>
</g>
<!-- password&#45;&gt;install_config -->
<g id="edge1" class="edge"><title>password&#45;&gt;install_config</title>
<path fill="none" stroke="black" d="M100.008,-1698.15C110.323,-1691.89 121.34,-1684.38 130.5,-1676.24 176.319,-1635.52 218.305,-1576.99 240.803,-1543.17"/>
<polygon fill="black" stroke="black" points="243.786,-1545 246.356,-1534.72 237.938,-1541.16 243.786,-1545"/>
</g>
<!-- install_config&#45;&gt;install_cfg -->
<g id="edge68" class="edge"><title>install_config&#45;&gt;install_cfg</title>
<path fill="none" stroke="black" d="M342.287,-1532.89C365.451,-1537.57 391.038,-1542.75 415.6,-1547.71"/>
<polygon fill="black" stroke="black" points="415.189,-1551.2 425.684,-1549.75 416.576,-1544.34 415.189,-1551.2"/>
</g>
<!-- apiserver_bundle -->
<g id="node15" class="node"><title>apiserver_bundle</title>
<polygon fill="violet" stroke="violet" points="602.5,-964.244 453.5,-964.244 453.5,-928.244 602.5,-928.244 602.5,-964.244"/>
<text text-anchor="middle" x="528" y="-941.244" font-family="Times,serif" font-size="20.00">apiserver crt/key</text>
</g>
<!-- install_config&#45;&gt;apiserver_bundle -->
<g id="edge28" class="edge"><title>install_config&#45;&gt;apiserver_bundle</title>
<path fill="none" stroke="black" d="M263.675,-1497.93C275.645,-1440.64 316.867,-1260.73 387.5,-1127.24 419.623,-1066.54 472.095,-1005.16 502.704,-971.784"/>
<polygon fill="black" stroke="black" points="505.397,-974.027 509.622,-964.312 500.26,-969.272 505.397,-974.027"/>
</g>
<!-- ingress_bundle -->
<g id="node21" class="node"><title>ingress_bundle</title>
<polygon fill="violet" stroke="violet" points="594,-1373.24 462,-1373.24 462,-1337.24 594,-1337.24 594,-1373.24"/>
<text text-anchor="middle" x="528" y="-1350.24" font-family="Times,serif" font-size="20.00">ingress crt/key</text>
</g>
<!-- install_config&#45;&gt;ingress_bundle -->
<g id="edge32" class="edge"><title>install_config&#45;&gt;ingress_bundle</title>
<path fill="none" stroke="black" d="M289.851,-1498.24C338.448,-1468.94 434.626,-1410.95 488.367,-1378.54"/>
<polygon fill="black" stroke="black" points="490.176,-1381.54 496.933,-1373.37 486.562,-1375.54 490.176,-1381.54"/>
</g>
<!-- openshift_apiserver_bundle -->
<g id="node24" class="node"><title>openshift_apiserver_bundle</title>
<polygon fill="violet" stroke="violet" points="641.5,-1172.24 414.5,-1172.24 414.5,-1136.24 641.5,-1136.24 641.5,-1172.24"/>
<text text-anchor="middle" x="528" y="-1149.24" font-family="Times,serif" font-size="20.00">openshift apiserver crt/key</text>
</g>
<!-- install_config&#45;&gt;openshift_apiserver_bundle -->
<g id="edge35" class="edge"><title>install_config&#45;&gt;openshift_apiserver_bundle</title>
<path fill="none" stroke="black" d="M261.679,-1498.18C267.722,-1443.72 293.293,-1279.66 387.5,-1194.24 395.279,-1187.19 404.223,-1181.37 413.747,-1176.58"/>
<polygon fill="black" stroke="black" points="415.426,-1179.66 423.036,-1172.28 412.49,-1173.3 415.426,-1179.66"/>
</g>
<!-- mcc_bundle -->
<g id="node28" class="node"><title>mcc_bundle</title>
<polygon fill="violet" stroke="violet" points="668.5,-1239.24 387.5,-1239.24 387.5,-1203.24 668.5,-1203.24 668.5,-1239.24"/>
<text text-anchor="middle" x="528" y="-1216.24" font-family="Times,serif" font-size="20.00">machine config controller crt/key</text>
</g>
<!-- install_config&#45;&gt;mcc_bundle -->
<g id="edge16" class="edge"><title>install_config&#45;&gt;mcc_bundle</title>
<path fill="none" stroke="black" d="M263.793,-1497.98C274.473,-1451.2 309.26,-1326.24 387.5,-1261.24 396.194,-1254.02 406.124,-1248.1 416.591,-1243.25"/>
<polygon fill="black" stroke="black" points="418.097,-1246.41 425.909,-1239.26 415.339,-1239.98 418.097,-1246.41"/>
</g>
<!-- operator_configs -->
<g id="node29" class="node"><title>operator_configs</title>
<polygon fill="lightpink" stroke="lightpink" points="868,-1412.24 722,-1412.24 722,-1376.24 868,-1376.24 868,-1412.24"/>
<text text-anchor="middle" x="795" y="-1389.24" font-family="Times,serif" font-size="20.00">operator configs</text>
</g>
<!-- install_config&#45;&gt;operator_configs -->
<g id="edge9" class="edge"><title>install_config&#45;&gt;operator_configs</title>
<path fill="none" stroke="black" d="M342.336,-1498.93C424.965,-1481.37 555.806,-1453.02 668.5,-1426.24 683.574,-1422.66 699.626,-1418.69 715.037,-1414.8"/>
<polygon fill="black" stroke="black" points="716.223,-1418.11 725.055,-1412.26 714.501,-1411.32 716.223,-1418.11"/>
</g>
<!-- operator_manifests -->
<g id="node30" class="node"><title>operator_manifests</title>
<polygon fill="lightpink" stroke="lightpink" points="877,-1345.24 713,-1345.24 713,-1309.24 877,-1309.24 877,-1345.24"/>
<text text-anchor="middle" x="795" y="-1322.24" font-family="Times,serif" font-size="20.00">operator manifests</text>
</g>
<!-- install_config&#45;&gt;operator_manifests -->
<g id="edge8" class="edge"><title>install_config&#45;&gt;operator_manifests</title>
<path fill="none" stroke="black" d="M278.762,-1534.55C302.029,-1555.85 343.971,-1589.81 387.5,-1603.24 506.833,-1640.08 573.681,-1684.53 668.5,-1603.24 749.081,-1534.17 640.69,-1451.68 705,-1367.24 709.908,-1360.8 716.087,-1355.37 722.891,-1350.8"/>
<polygon fill="black" stroke="black" points="725.023,-1353.6 731.795,-1345.45 721.42,-1347.6 725.023,-1353.6"/>
</g>
<!-- terraform_state -->
<g id="node39" class="node"><title>terraform_state</title>
<polygon fill="gold" stroke="gold" points="1841,-371.244 1761,-371.244 1761,-335.244 1841,-335.244 1841,-371.244"/>
<text text-anchor="middle" x="1801" y="-348.244" font-family="Times,serif" font-size="20.00">*.tfstate</text>
</g>
<!-- install_config&#45;&gt;terraform_state -->
<g id="edge69" class="edge"><title>install_config&#45;&gt;terraform_state</title>
<path fill="none" stroke="black" d="M272.405,-1534.3C292.767,-1562.28 336.183,-1615.39 387.5,-1639.24 552.198,-1715.82 612.372,-1681.24 794,-1681.24 794,-1681.24 794,-1681.24 1188,-1681.24 1781.3,-1681.24 1801.38,-574.406 1800.38,-381.687"/>
<polygon fill="black" stroke="black" points="1803.88,-381.484 1800.3,-371.512 1796.88,-381.538 1803.88,-381.484"/>
</g>
<!-- admin_bundle -->
<g id="node13" class="node"><title>admin_bundle</title>
<polygon fill="violet" stroke="violet" points="858,-454.244 732,-454.244 732,-418.244 858,-418.244 858,-454.244"/>
<text text-anchor="middle" x="795" y="-431.244" font-family="Times,serif" font-size="20.00">admin crt/key</text>
</g>
<!-- admin_bundle&#45;&gt;manifests -->
<g id="edge70" class="edge"><title>admin_bundle&#45;&gt;manifests</title>
<path fill="none" stroke="black" d="M858.21,-432.058C1003.61,-423.55 1360.41,-410.448 1453.5,-479.244 1538.34,-541.945 1559.2,-676.968 1564.33,-740.656"/>
<polygon fill="black" stroke="black" points="1560.86,-741.242 1565.07,-750.965 1567.84,-740.739 1560.86,-741.242"/>
</g>
<!-- kubeconfig -->
<g id="node38" class="node"><title>kubeconfig</title>
<polygon fill="lightblue" stroke="lightblue" points="1239.5,-226.244 1134.5,-226.244 1134.5,-190.244 1239.5,-190.244 1239.5,-226.244"/>
<text text-anchor="middle" x="1187" y="-203.244" font-family="Times,serif" font-size="20.00">kubeconfig</text>
</g>
<!-- admin_bundle&#45;&gt;kubeconfig -->
<g id="edge39" class="edge"><title>admin_bundle&#45;&gt;kubeconfig</title>
<path fill="none" stroke="black" d="M802.212,-418.084C816.411,-379.592 855.147,-289.921 920.5,-248.244 981.734,-209.193 1066.77,-202.86 1123.96,-203.884"/>
<polygon fill="black" stroke="black" points="1124.22,-207.391 1134.3,-204.154 1124.4,-200.394 1124.22,-207.391"/>
</g>
<!-- aggregator_ca_bundle -->
<g id="node14" class="node"><title>aggregator_ca_bundle</title>
<polygon fill="violet" stroke="violet" points="351.5,-689.244 166.5,-689.244 166.5,-653.244 351.5,-653.244 351.5,-689.244"/>
<text text-anchor="middle" x="259" y="-666.244" font-family="Times,serif" font-size="20.00">aggregator ca crt/key</text>
</g>
<!-- aggregator_ca_bundle&#45;&gt;manifests -->
<g id="edge71" class="edge"><title>aggregator_ca_bundle&#45;&gt;manifests</title>
<path fill="none" stroke="black" d="M276.872,-653.089C299.477,-630.244 342.042,-592.19 387.5,-577.244 439.716,-560.076 1386.53,-567.7 1453.5,-605.244 1506.4,-634.901 1538.89,-701.032 1554.59,-741.515"/>
<polygon fill="black" stroke="black" points="1551.35,-742.834 1558.13,-750.971 1557.9,-740.378 1551.35,-742.834"/>
</g>
<!-- apiserver_proxy_bundle -->
<g id="node16" class="node"><title>apiserver_proxy_bundle</title>
<polygon fill="violet" stroke="violet" points="628,-622.244 428,-622.244 428,-586.244 628,-586.244 628,-622.244"/>
<text text-anchor="middle" x="528" y="-599.244" font-family="Times,serif" font-size="20.00">apiserver proxy crt/key</text>
</g>
<!-- aggregator_ca_bundle&#45;&gt;apiserver_proxy_bundle -->
<g id="edge36" class="edge"><title>aggregator_ca_bundle&#45;&gt;apiserver_proxy_bundle</title>
<path fill="none" stroke="black" d="M331.902,-653.201C366.774,-644.45 408.828,-633.898 444.949,-624.833"/>
<polygon fill="black" stroke="black" points="446.122,-628.148 454.969,-622.319 444.418,-621.358 446.122,-628.148"/>
</g>
<!-- clusterapi_apiserver_bundle -->
<g id="node17" class="node"><title>clusterapi_apiserver_bundle</title>
<polygon fill="violet" stroke="violet" points="643.5,-689.244 412.5,-689.244 412.5,-653.244 643.5,-653.244 643.5,-689.244"/>
<text text-anchor="middle" x="528" y="-666.244" font-family="Times,serif" font-size="20.00">clusterapi apiserver crt/key</text>
</g>
<!-- aggregator_ca_bundle&#45;&gt;clusterapi_apiserver_bundle -->
<g id="edge37" class="edge"><title>aggregator_ca_bundle&#45;&gt;clusterapi_apiserver_bundle</title>
<path fill="none" stroke="black" d="M351.513,-671.244C367.918,-671.244 385.265,-671.244 402.414,-671.244"/>
<polygon fill="black" stroke="black" points="402.48,-674.744 412.48,-671.244 402.48,-667.744 402.48,-674.744"/>
</g>
<!-- aggregator_ca_bundle&#45;&gt;openshift_apiserver_bundle -->
<g id="edge34" class="edge"><title>aggregator_ca_bundle&#45;&gt;openshift_apiserver_bundle</title>
<path fill="none" stroke="black" d="M270.35,-689.376C288.964,-722.658 328.308,-796.151 351.5,-862.244 374.917,-928.977 352.893,-955.567 387.5,-1017.24 413.726,-1063.98 460.667,-1105.18 492.794,-1129.9"/>
<polygon fill="black" stroke="black" points="490.938,-1132.88 501.026,-1136.12 495.159,-1127.3 490.938,-1132.88"/>
</g>
<!-- secret_manifests -->
<g id="node33" class="node"><title>secret_manifests</title>
<polygon fill="lightpink" stroke="lightpink" points="885,-897.244 705,-897.244 705,-861.244 885,-861.244 885,-897.244"/>
<text text-anchor="middle" x="795" y="-874.244" font-family="Times,serif" font-size="20.00">manifests for secrets</text>
</g>
<!-- aggregator_ca_bundle&#45;&gt;secret_manifests -->
<g id="edge38" class="edge"><title>aggregator_ca_bundle&#45;&gt;secret_manifests</title>
<path fill="none" stroke="black" d="M269.661,-689.319C287.332,-722.807 325.439,-797.031 351.5,-862.244 370.746,-910.404 345.55,-942.748 387.5,-973.244 438.009,-1009.96 612.963,-1001.79 668.5,-973.244 693.29,-960.501 683.678,-940.197 705,-922.244 714.332,-914.386 725.345,-907.576 736.385,-901.838"/>
<polygon fill="black" stroke="black" points="738.214,-904.839 745.629,-897.271 735.114,-898.563 738.214,-904.839"/>
</g>
<!-- apiserver_bundle&#45;&gt;manifests -->
<g id="edge72" class="edge"><title>apiserver_bundle&#45;&gt;manifests</title>
<path fill="none" stroke="black" d="M554.654,-928.121C587.676,-905.869 647.649,-869.022 705,-852.244 1025.27,-758.549 1122.15,-832.747 1453.5,-793.244 1462.06,-792.223 1470.97,-791.028 1479.86,-789.748"/>
<polygon fill="black" stroke="black" points="1480.48,-793.193 1489.87,-788.271 1479.46,-786.268 1480.48,-793.193"/>
</g>
<!-- apiserver_bundle&#45;&gt;secret_manifests -->
<g id="edge40" class="edge"><title>apiserver_bundle&#45;&gt;secret_manifests</title>
<path fill="none" stroke="black" d="M600.364,-928.201C634.975,-919.45 676.714,-908.898 712.564,-899.833"/>
<polygon fill="black" stroke="black" points="713.672,-903.164 722.509,-897.319 711.956,-896.377 713.672,-903.164"/>
</g>
<!-- apiserver_proxy_bundle&#45;&gt;manifests -->
<g id="edge73" class="edge"><title>apiserver_proxy_bundle&#45;&gt;manifests</title>
<path fill="none" stroke="black" d="M628.182,-604.631C851.625,-606.122 1380.63,-613.341 1453.5,-648.244 1495.45,-668.338 1528.45,-711.965 1547.58,-742.447"/>
<polygon fill="black" stroke="black" points="1544.64,-744.344 1552.84,-751.055 1550.62,-740.696 1544.64,-744.344"/>
</g>
<!-- apiserver_proxy_bundle&#45;&gt;secret_manifests -->
<g id="edge41" class="edge"><title>apiserver_proxy_bundle&#45;&gt;secret_manifests</title>
<path fill="none" stroke="black" d="M628.068,-621.834C642.603,-627.375 656.645,-634.662 668.5,-644.244 736.84,-699.482 772.866,-802.161 786.901,-851.443"/>
<polygon fill="black" stroke="black" points="783.535,-852.402 789.566,-861.113 790.283,-850.542 783.535,-852.402"/>
</g>
<!-- clusterapi_apiserver_bundle&#45;&gt;manifests -->
<g id="edge74" class="edge"><title>clusterapi_apiserver_bundle&#45;&gt;manifests</title>
<path fill="none" stroke="black" d="M643.644,-660.411C820.972,-647.224 1170.83,-635.504 1453.5,-714.244 1477.74,-720.995 1502.54,-733.71 1522.68,-745.791"/>
<polygon fill="black" stroke="black" points="1520.94,-748.831 1531.29,-751.091 1524.61,-742.869 1520.94,-748.831"/>
</g>
<!-- clusterapi_apiserver_bundle&#45;&gt;secret_manifests -->
<g id="edge42" class="edge"><title>clusterapi_apiserver_bundle&#45;&gt;secret_manifests</title>
<path fill="none" stroke="black" d="M562.138,-689.28C591.244,-705.725 634.177,-731.474 668.5,-758.244 706.781,-788.101 746.362,-828.048 770.584,-853.718"/>
<polygon fill="black" stroke="black" points="768.2,-856.293 777.59,-861.2 773.31,-851.508 768.2,-856.293"/>
</g>
<!-- etcd_ca_bundle -->
<g id="node18" class="node"><title>etcd_ca_bundle</title>
<polygon fill="violet" stroke="violet" points="325.5,-461.244 192.5,-461.244 192.5,-425.244 325.5,-425.244 325.5,-461.244"/>
<text text-anchor="middle" x="259" y="-438.244" font-family="Times,serif" font-size="20.00">etcd ca crt/key</text>
</g>
<!-- etcd_ca_bundle&#45;&gt;manifests -->
<g id="edge75" class="edge"><title>etcd_ca_bundle&#45;&gt;manifests</title>
<path fill="none" stroke="black" d="M286.917,-425.047C311.785,-409.411 350.385,-388.036 387.5,-379.244 451.48,-364.087 1418.93,-394.51 1453.5,-421.244 1554.43,-499.294 1566.55,-668.136 1566.85,-740.821"/>
<polygon fill="black" stroke="black" points="1563.34,-741.217 1566.81,-751.229 1570.34,-741.242 1563.34,-741.217"/>
</g>
<!-- etcd_client_bundle -->
<g id="node19" class="node"><title>etcd_client_bundle</title>
<polygon fill="violet" stroke="violet" points="607,-461.244 449,-461.244 449,-425.244 607,-425.244 607,-461.244"/>
<text text-anchor="middle" x="528" y="-438.244" font-family="Times,serif" font-size="20.00">etcd client crt/key</text>
</g>
<!-- etcd_ca_bundle&#45;&gt;etcd_client_bundle -->
<g id="edge23" class="edge"><title>etcd_ca_bundle&#45;&gt;etcd_client_bundle</title>
<path fill="none" stroke="black" d="M325.658,-443.244C359.672,-443.244 401.688,-443.244 438.525,-443.244"/>
<polygon fill="black" stroke="black" points="438.766,-446.744 448.766,-443.244 438.766,-439.744 438.766,-446.744"/>
</g>
<!-- etcd_ca_bundle&#45;&gt;secret_manifests -->
<g id="edge24" class="edge"><title>etcd_ca_bundle&#45;&gt;secret_manifests</title>
<path fill="none" stroke="black" d="M287.721,-461.495C308.933,-477.079 336.942,-501.498 351.5,-530.244 408.586,-642.963 299.432,-721.643 387.5,-812.244 431.555,-857.566 606.188,-845.657 668.5,-856.244 677.068,-857.7 685.958,-859.249 694.869,-860.83"/>
<polygon fill="black" stroke="black" points="694.464,-864.313 704.923,-862.625 695.694,-857.422 694.464,-864.313"/>
</g>
<!-- master_ignition -->
<g id="node35" class="node"><title>master_ignition</title>
<polygon fill="sandybrown" stroke="sandybrown" points="1617,-293.244 1517,-293.244 1517,-257.244 1617,-257.244 1617,-293.244"/>
<text text-anchor="middle" x="1567" y="-270.244" font-family="Times,serif" font-size="20.00">master.ign</text>
</g>
<!-- etcd_ca_bundle&#45;&gt;master_ignition -->
<g id="edge25" class="edge"><title>etcd_ca_bundle&#45;&gt;master_ignition</title>
<path fill="none" stroke="black" d="M268.386,-425.051C285.433,-390.287 327.651,-314.647 387.5,-278.244 593.215,-153.118 680.695,-202.887 920.5,-181.244 1156.43,-159.951 1230.81,-100.455 1453.5,-181.244 1490.74,-194.754 1524.28,-226.585 1544.86,-249.464"/>
<polygon fill="black" stroke="black" points="1542.36,-251.921 1551.58,-257.138 1547.63,-247.309 1542.36,-251.921"/>
</g>
<!-- etcd_client_bundle&#45;&gt;manifests -->
<g id="edge76" class="edge"><title>etcd_client_bundle&#45;&gt;manifests</title>
<path fill="none" stroke="black" d="M607.362,-452.644C637.822,-456.169 673.02,-460.082 705,-463.244 788.056,-471.457 1385.34,-478.077 1453.5,-526.244 1525.56,-577.168 1552.3,-685.55 1561.53,-741.006"/>
<polygon fill="black" stroke="black" points="1558.1,-741.702 1563.1,-751.039 1565.01,-740.617 1558.1,-741.702"/>
</g>
<!-- etcd_client_bundle&#45;&gt;secret_manifests -->
<g id="edge43" class="edge"><title>etcd_client_bundle&#45;&gt;secret_manifests</title>
<path fill="none" stroke="black" d="M553.407,-461.449C583.833,-485.206 635.806,-529.422 668.5,-577.244 730.815,-668.392 770.876,-795.33 786.534,-851.086"/>
<polygon fill="black" stroke="black" points="783.222,-852.242 789.257,-860.951 789.97,-850.38 783.222,-852.242"/>
</g>
<!-- ingress_ca_bundle -->
<g id="node20" class="node"><title>ingress_ca_bundle</title>
<polygon fill="violet" stroke="violet" points="336.5,-907.244 181.5,-907.244 181.5,-871.244 336.5,-871.244 336.5,-907.244"/>
<text text-anchor="middle" x="259" y="-884.244" font-family="Times,serif" font-size="20.00">ingress ca crt/key</text>
</g>
<!-- ingress_ca_bundle&#45;&gt;manifests -->
<g id="edge77" class="edge"><title>ingress_ca_bundle&#45;&gt;manifests</title>
<path fill="none" stroke="black" d="M270.878,-870.854C289.995,-840.586 332.825,-781.326 387.5,-758.244 584.028,-675.276 1242.2,-738.736 1479.65,-765.138"/>
<polygon fill="black" stroke="black" points="1479.29,-768.62 1489.62,-766.253 1480.07,-761.663 1479.29,-768.62"/>
</g>
<!-- ingress_ca_bundle&#45;&gt;ingress_bundle -->
<g id="edge31" class="edge"><title>ingress_ca_bundle&#45;&gt;ingress_bundle</title>
<path fill="none" stroke="black" d="M259.68,-907.692C259.588,-973.271 268.36,-1197.47 387.5,-1315.24 404.746,-1332.29 428.743,-1342.17 451.978,-1347.87"/>
<polygon fill="black" stroke="black" points="451.346,-1351.32 461.866,-1350.06 452.862,-1344.48 451.346,-1351.32"/>
</g>
<!-- ingress_ca_bundle&#45;&gt;secret_manifests -->
<g id="edge33" class="edge"><title>ingress_ca_bundle&#45;&gt;secret_manifests</title>
<path fill="none" stroke="black" d="M271.301,-907.702C290.729,-937.435 333.623,-994.865 387.5,-1017.24 502.835,-1065.15 565.565,-1087.97 668.5,-1017.24 705.78,-991.63 674.375,-955.531 705,-922.244 712.383,-914.219 721.585,-907.528 731.248,-902.004"/>
<polygon fill="black" stroke="black" points="733.015,-905.029 740.212,-897.254 729.737,-898.844 733.015,-905.029"/>
</g>
<!-- ingress_bundle&#45;&gt;manifests -->
<g id="edge78" class="edge"><title>ingress_bundle&#45;&gt;manifests</title>
<path fill="none" stroke="black" d="M594.285,-1349.78C620.283,-1344.52 648.671,-1334.43 668.5,-1315.24 706.433,-1278.55 666.849,-1238.71 705,-1202.24 954.332,-963.912 1186.29,-1215.34 1453.5,-997.244 1513.81,-948.016 1544.96,-858.108 1558.11,-809.172"/>
<polygon fill="black" stroke="black" points="1561.53,-809.939 1560.65,-799.381 1554.75,-808.182 1561.53,-809.939"/>
</g>
<!-- ingress_bundle&#45;&gt;secret_manifests -->
<g id="edge47" class="edge"><title>ingress_bundle&#45;&gt;secret_manifests</title>
<path fill="none" stroke="black" d="M594.259,-1351.41C620.891,-1346.47 649.769,-1336.18 668.5,-1315.24 733.125,-1243.01 678.634,-1193.51 705,-1100.24 725.365,-1028.21 761.42,-947.564 780.8,-906.492"/>
<polygon fill="black" stroke="black" points="783.989,-907.935 785.123,-897.401 777.668,-904.929 783.989,-907.935"/>
</g>
<!-- kube_ca_bundle -->
<g id="node22" class="node"><title>kube_ca_bundle</title>
<polygon fill="violet" stroke="violet" points="328,-575.244 190,-575.244 190,-539.244 328,-539.244 328,-575.244"/>
<text text-anchor="middle" x="259" y="-552.244" font-family="Times,serif" font-size="20.00">kube ca crt/key</text>
</g>
<!-- kube_ca_bundle&#45;&gt;manifests -->
<g id="edge79" class="edge"><title>kube_ca_bundle&#45;&gt;manifests</title>
<path fill="none" stroke="black" d="M328.365,-553.814C567.508,-542.362 1357.24,-509.32 1453.5,-567.244 1516.75,-605.304 1546.65,-692.511 1558.84,-741.05"/>
<polygon fill="black" stroke="black" points="1555.51,-742.168 1561.25,-751.076 1562.32,-740.535 1555.51,-742.168"/>
</g>
<!-- kube_ca_bundle&#45;&gt;admin_bundle -->
<g id="edge26" class="edge"><title>kube_ca_bundle&#45;&gt;admin_bundle</title>
<path fill="none" stroke="black" d="M281.654,-539.119C301.073,-522.314 329.771,-496.078 351.5,-470.244 370.067,-448.17 362.069,-429.854 387.5,-416.244 498.211,-356.993 651.107,-389.643 734.266,-415.154"/>
<polygon fill="black" stroke="black" points="733.22,-418.494 743.809,-418.144 735.313,-411.814 733.22,-418.494"/>
</g>
<!-- kube_ca_bundle&#45;&gt;apiserver_bundle -->
<g id="edge27" class="edge"><title>kube_ca_bundle&#45;&gt;apiserver_bundle</title>
<path fill="none" stroke="black" d="M287.634,-575.54C308.797,-591.148 336.782,-615.579 351.5,-644.244 404.584,-747.63 312.191,-814.728 387.5,-903.244 401.812,-920.067 422.548,-930.419 443.674,-936.756"/>
<polygon fill="black" stroke="black" points="442.819,-940.151 453.386,-939.394 444.653,-933.395 442.819,-940.151"/>
</g>
<!-- kubelet_bundle -->
<g id="node23" class="node"><title>kubelet_bundle</title>
<polygon fill="violet" stroke="violet" points="1254,-360.244 1120,-360.244 1120,-324.244 1254,-324.244 1254,-360.244"/>
<text text-anchor="middle" x="1187" y="-337.244" font-family="Times,serif" font-size="20.00">kubelet crt/key</text>
</g>
<!-- kube_ca_bundle&#45;&gt;kubelet_bundle -->
<g id="edge29" class="edge"><title>kube_ca_bundle&#45;&gt;kubelet_bundle</title>
<path fill="none" stroke="black" d="M284.207,-539.189C304.477,-523.019 332.985,-497.68 351.5,-470.244 375.831,-434.192 352.106,-404.523 387.5,-379.244 501.605,-297.75 933.111,-321.858 1109.83,-335.63"/>
<polygon fill="black" stroke="black" points="1109.58,-339.122 1119.83,-336.42 1110.14,-332.143 1109.58,-339.122"/>
</g>
<!-- kube_ca_bundle&#45;&gt;secret_manifests -->
<g id="edge30" class="edge"><title>kube_ca_bundle&#45;&gt;secret_manifests</title>
<path fill="none" stroke="black" d="M286.972,-575.343C308.05,-591.007 336.249,-615.611 351.5,-644.244 396.428,-728.596 316.255,-792.542 387.5,-856.244 478.161,-937.305 630.568,-919.797 720.777,-899.597"/>
<polygon fill="black" stroke="black" points="721.695,-902.977 730.653,-897.319 720.122,-896.156 721.695,-902.977"/>
</g>
<!-- kubelet_bundle&#45;&gt;manifests -->
<g id="edge80" class="edge"><title>kubelet_bundle&#45;&gt;manifests</title>
<path fill="none" stroke="black" d="M1254.08,-334.623C1313.43,-331.598 1399.34,-337.235 1453.5,-385.244 1507.67,-433.258 1547.34,-655.355 1560.91,-741.224"/>
<polygon fill="black" stroke="black" points="1557.47,-741.893 1562.47,-751.235 1564.38,-740.815 1557.47,-741.893"/>
</g>
<!-- bootstrap_ignition -->
<g id="node34" class="node"><title>bootstrap_ignition</title>
<polygon fill="sandybrown" stroke="sandybrown" points="1626.5,-1184.24 1507.5,-1184.24 1507.5,-1148.24 1626.5,-1148.24 1626.5,-1184.24"/>
<text text-anchor="middle" x="1567" y="-1161.24" font-family="Times,serif" font-size="20.00">bootstrap.ign</text>
</g>
<!-- kubelet_bundle&#45;&gt;bootstrap_ignition -->
<g id="edge44" class="edge"><title>kubelet_bundle&#45;&gt;bootstrap_ignition</title>
<path fill="none" stroke="black" d="M1196.43,-360.61C1245.53,-467.647 1494.62,-1010.64 1553.51,-1139.02"/>
<polygon fill="black" stroke="black" points="1550.37,-1140.56 1557.72,-1148.19 1556.73,-1137.64 1550.37,-1140.56"/>
</g>
<!-- kubelet_bundle&#45;&gt;master_ignition -->
<g id="edge45" class="edge"><title>kubelet_bundle&#45;&gt;master_ignition</title>
<path fill="none" stroke="black" d="M1254.01,-333.905C1307.89,-326.713 1385.9,-315.423 1453.5,-302.244 1470.97,-298.838 1489.82,-294.555 1507.01,-290.411"/>
<polygon fill="black" stroke="black" points="1508.03,-293.765 1516.91,-287.994 1506.37,-286.964 1508.03,-293.765"/>
</g>
<!-- worker_ignition -->
<g id="node36" class="node"><title>worker_ignition</title>
<polygon fill="sandybrown" stroke="sandybrown" points="1618.5,-360.244 1515.5,-360.244 1515.5,-324.244 1618.5,-324.244 1618.5,-360.244"/>
<text text-anchor="middle" x="1567" y="-337.244" font-family="Times,serif" font-size="20.00">worker.ign</text>
</g>
<!-- kubelet_bundle&#45;&gt;worker_ignition -->
<g id="edge46" class="edge"><title>kubelet_bundle&#45;&gt;worker_ignition</title>
<path fill="none" stroke="black" d="M1254.28,-342.244C1325.07,-342.244 1436.33,-342.244 1505.02,-342.244"/>
<polygon fill="black" stroke="black" points="1505.25,-345.744 1515.25,-342.244 1505.25,-338.744 1505.25,-345.744"/>
</g>
<!-- openshift_apiserver_bundle&#45;&gt;manifests -->
<g id="edge81" class="edge"><title>openshift_apiserver_bundle&#45;&gt;manifests</title>
<path fill="none" stroke="black" d="M595.637,-1136.18C621.539,-1126.14 649.493,-1111.13 668.5,-1089.24 705.049,-1047.15 662.348,-1005.14 705,-969.244 833.244,-861.321 1300.98,-945.751 1453.5,-876.244 1488.05,-860.5 1519.47,-830.302 1540.27,-807.011"/>
<polygon fill="black" stroke="black" points="1542.97,-809.243 1546.91,-799.408 1537.69,-804.64 1542.97,-809.243"/>
</g>
<!-- openshift_apiserver_bundle&#45;&gt;secret_manifests -->
<g id="edge48" class="edge"><title>openshift_apiserver_bundle&#45;&gt;secret_manifests</title>
<path fill="none" stroke="black" d="M633.344,-1136.18C646.586,-1130.09 658.853,-1122 668.5,-1111.24 725.634,-1047.57 652.834,-990.052 705,-922.244 711.121,-914.287 719.092,-907.722 727.748,-902.327"/>
<polygon fill="black" stroke="black" points="729.617,-905.291 736.589,-897.314 726.164,-899.202 729.617,-905.291"/>
</g>
<!-- root_ca_bundle -->
<g id="node25" class="node"><title>root_ca_bundle</title>
<polygon fill="violet" stroke="violet" points="130.5,-689.244 -0.5,-689.244 -0.5,-653.244 130.5,-653.244 130.5,-689.244"/>
<text text-anchor="middle" x="65" y="-666.244" font-family="Times,serif" font-size="20.00">root ca crt/key</text>
</g>
<!-- root_ca_bundle&#45;&gt;manifests -->
<g id="edge82" class="edge"><title>root_ca_bundle&#45;&gt;manifests</title>
<path fill="none" stroke="black" d="M67.3325,-689.323C73.9317,-775.073 105.274,-1140.52 166.5,-1234.24 231.153,-1333.21 274.395,-1347.87 387.5,-1382.24 506.992,-1418.56 563.762,-1450.27 668.5,-1382.24 701.955,-1360.52 678.287,-1329.87 705,-1300.24 778.996,-1218.18 817.405,-1216.02 920.5,-1176.24 1146.68,-1088.98 1268.79,-1217.27 1453.5,-1060.24 1530.35,-994.914 1555.07,-870.007 1562.73,-809.619"/>
<polygon fill="black" stroke="black" points="1566.23,-809.809 1563.93,-799.467 1559.28,-808.986 1566.23,-809.809"/>
</g>
<!-- root_ca_bundle&#45;&gt;aggregator_ca_bundle -->
<g id="edge12" class="edge"><title>root_ca_bundle&#45;&gt;aggregator_ca_bundle</title>
<path fill="none" stroke="black" d="M130.735,-671.244C138.951,-671.244 147.51,-671.244 156.132,-671.244"/>
<polygon fill="black" stroke="black" points="156.266,-674.744 166.266,-671.244 156.266,-667.744 156.266,-674.744"/>
</g>
<!-- root_ca_bundle&#45;&gt;etcd_ca_bundle -->
<g id="edge11" class="edge"><title>root_ca_bundle&#45;&gt;etcd_ca_bundle</title>
<path fill="none" stroke="black" d="M77.347,-653.067C94.9689,-625.395 130.634,-571.559 166.5,-530.244 185.863,-507.939 210.193,-485.011 228.897,-468.295"/>
<polygon fill="black" stroke="black" points="231.369,-470.781 236.537,-461.532 226.729,-465.54 231.369,-470.781"/>
</g>
<!-- root_ca_bundle&#45;&gt;ingress_ca_bundle -->
<g id="edge14" class="edge"><title>root_ca_bundle&#45;&gt;ingress_ca_bundle</title>
<path fill="none" stroke="black" d="M82.0396,-689.456C116.148,-728.183 195.969,-818.813 235.29,-863.459"/>
<polygon fill="black" stroke="black" points="232.905,-866.046 242.141,-871.238 238.158,-861.42 232.905,-866.046"/>
</g>
<!-- root_ca_bundle&#45;&gt;kube_ca_bundle -->
<g id="edge10" class="edge"><title>root_ca_bundle&#45;&gt;kube_ca_bundle</title>
<path fill="none" stroke="black" d="M96.423,-653.18C129.468,-633.56 182.371,-602.149 218.579,-580.65"/>
<polygon fill="black" stroke="black" points="220.59,-583.526 227.402,-575.411 217.017,-577.507 220.59,-583.526"/>
</g>
<!-- service_serving_ca_bundle -->
<g id="node27" class="node"><title>service_serving_ca_bundle</title>
<polygon fill="violet" stroke="violet" points="637.5,-1306.24 418.5,-1306.24 418.5,-1270.24 637.5,-1270.24 637.5,-1306.24"/>
<text text-anchor="middle" x="528" y="-1283.24" font-family="Times,serif" font-size="20.00">service serving ca crt/key</text>
</g>
<!-- root_ca_bundle&#45;&gt;service_serving_ca_bundle -->
<g id="edge13" class="edge"><title>root_ca_bundle&#45;&gt;service_serving_ca_bundle</title>
<path fill="none" stroke="black" d="M67.2517,-689.266C73.1989,-769.971 101.077,-1097.47 166.5,-1172.24 226.802,-1241.17 328.211,-1269.43 408.14,-1280.87"/>
<polygon fill="black" stroke="black" points="407.893,-1284.37 418.273,-1282.25 408.836,-1277.44 407.893,-1284.37"/>
</g>
<!-- root_ca_bundle&#45;&gt;mcc_bundle -->
<g id="edge15" class="edge"><title>root_ca_bundle&#45;&gt;mcc_bundle</title>
<path fill="none" stroke="black" d="M67.7549,-689.332C75.3441,-764.003 107.644,-1047.34 166.5,-1111.24 220.164,-1169.51 303.687,-1197.27 376.83,-1210.34"/>
<polygon fill="black" stroke="black" points="376.632,-1213.86 387.078,-1212.09 377.809,-1206.96 376.632,-1213.86"/>
</g>
<!-- root_ca_bundle&#45;&gt;secret_manifests -->
<g id="edge19" class="edge"><title>root_ca_bundle&#45;&gt;secret_manifests</title>
<path fill="none" stroke="black" d="M69.4664,-689.55C78.5209,-733.208 106.458,-845.095 166.5,-916.244 241.183,-1004.74 276.182,-1022.34 387.5,-1054.24 507.556,-1088.65 569.117,-1129.88 668.5,-1054.24 716.937,-1017.38 666.009,-968.984 705,-922.244 711.664,-914.255 720.163,-907.639 729.255,-902.192"/>
<polygon fill="black" stroke="black" points="731.035,-905.208 738.112,-897.323 727.663,-899.074 731.035,-905.208"/>
</g>
<!-- root_ca_bundle&#45;&gt;bootstrap_ignition -->
<g id="edge20" class="edge"><title>root_ca_bundle&#45;&gt;bootstrap_ignition</title>
<path fill="none" stroke="black" d="M66.5402,-689.327C69.6717,-783.105 88.1817,-1213.67 166.5,-1316.24 231.815,-1401.79 282.996,-1389.5 387.5,-1415.24 847.75,-1528.61 1061.11,-1714.16 1453.5,-1448.24 1539.76,-1389.78 1559.88,-1253.44 1564.58,-1194.37"/>
<polygon fill="black" stroke="black" points="1568.07,-1194.49 1565.28,-1184.27 1561.09,-1194 1568.07,-1194.49"/>
</g>
<!-- root_ca_bundle&#45;&gt;master_ignition -->
<g id="edge21" class="edge"><title>root_ca_bundle&#45;&gt;master_ignition</title>
<path fill="none" stroke="black" d="M66.3499,-653.188C68.4694,-564.232 82.5051,-173.735 166.5,-95.244 284.213,14.756 365.89,-57.244 527,-57.244 527,-57.244 527,-57.244 796,-57.244 1088.29,-57.244 1203.41,80.0479 1453.5,-71.244 1518.19,-110.379 1548.39,-201.139 1559.98,-247.259"/>
<polygon fill="black" stroke="black" points="1556.62,-248.27 1562.36,-257.179 1563.43,-246.639 1556.62,-248.27"/>
</g>
<!-- root_ca_bundle&#45;&gt;worker_ignition -->
<g id="edge22" class="edge"><title>root_ca_bundle&#45;&gt;worker_ignition</title>
<path fill="none" stroke="black" d="M67.264,-653.162C73.1774,-573.685 100.647,-256.226 166.5,-186.244 279.104,-66.5792 362.685,-104.244 527,-104.244 527,-104.244 527,-104.244 796,-104.244 1090.22,-104.244 1227.94,7.66682 1453.5,-181.244 1496.56,-217.31 1454.26,-258.909 1490,-302.244 1495.2,-308.553 1501.66,-313.994 1508.61,-318.65"/>
<polygon fill="black" stroke="black" points="1507.24,-321.916 1517.6,-324.134 1510.88,-315.939 1507.24,-321.916"/>
</g>
<!-- kubelet_kubeconfig -->
<g id="node37" class="node"><title>kubelet_kubeconfig</title>
<polygon fill="lightblue" stroke="lightblue" points="1272,-293.244 1102,-293.244 1102,-257.244 1272,-257.244 1272,-293.244"/>
<text text-anchor="middle" x="1187" y="-270.244" font-family="Times,serif" font-size="20.00">kubeconfig&#45;kubelet</text>
</g>
<!-- root_ca_bundle&#45;&gt;kubelet_kubeconfig -->
<g id="edge18" class="edge"><title>root_ca_bundle&#45;&gt;kubelet_kubeconfig</title>
<path fill="none" stroke="black" d="M67.4101,-653.072C72.0911,-605.975 91.4078,-479.253 166.5,-416.244 436.252,-189.899 894.86,-228.484 1091.69,-258.239"/>
<polygon fill="black" stroke="black" points="1091.31,-261.72 1101.72,-259.782 1092.37,-254.802 1091.31,-261.72"/>
</g>
<!-- root_ca_bundle&#45;&gt;kubeconfig -->
<g id="edge17" class="edge"><title>root_ca_bundle&#45;&gt;kubeconfig</title>
<path fill="none" stroke="black" d="M65.2999,-653.096C64.0568,-594.215 68.322,-406.464 166.5,-305.244 426.643,-37.0395 946.708,-143.809 1124.64,-190.656"/>
<polygon fill="black" stroke="black" points="1123.8,-194.053 1134.37,-193.245 1125.6,-187.289 1123.8,-194.053"/>
</g>
<!-- service_account_bundle -->
<g id="node26" class="node"><title>service_account_bundle</title>
<polygon fill="violet" stroke="violet" points="632,-803.244 424,-803.244 424,-767.244 632,-767.244 632,-803.244"/>
<text text-anchor="middle" x="528" y="-780.244" font-family="Times,serif" font-size="20.00">service account pub/key</text>
</g>
<!-- service_account_bundle&#45;&gt;manifests -->
<g id="edge83" class="edge"><title>service_account_bundle&#45;&gt;manifests</title>
<path fill="none" stroke="black" d="M632.223,-784.249C836.71,-782.277 1289.89,-777.907 1479.72,-776.076"/>
<polygon fill="black" stroke="black" points="1479.96,-779.574 1489.92,-775.978 1479.89,-772.574 1479.96,-779.574"/>
</g>
<!-- service_account_bundle&#45;&gt;secret_manifests -->
<g id="edge49" class="edge"><title>service_account_bundle&#45;&gt;secret_manifests</title>
<path fill="none" stroke="black" d="M591.533,-803.253C615.73,-810.552 643.555,-819.35 668.5,-828.244 693.214,-837.056 720.222,-847.873 742.831,-857.274"/>
<polygon fill="black" stroke="black" points="741.655,-860.576 752.232,-861.207 744.357,-854.119 741.655,-860.576"/>
</g>
<!-- service_serving_ca_bundle&#45;&gt;manifests -->
<g id="edge84" class="edge"><title>service_serving_ca_bundle&#45;&gt;manifests</title>
<path fill="none" stroke="black" d="M636.948,-1270.18C648.687,-1264.65 659.586,-1257.5 668.5,-1248.24 715.5,-1199.45 656.172,-1147.21 705,-1100.24 949.781,-864.8 1172.4,-1136.87 1453.5,-946.244 1503.39,-912.412 1536.56,-848.339 1553.26,-808.954"/>
<polygon fill="black" stroke="black" points="1556.58,-810.085 1557.15,-799.506 1550.11,-807.419 1556.58,-810.085"/>
</g>
<!-- service_serving_ca_bundle&#45;&gt;secret_manifests -->
<g id="edge50" class="edge"><title>service_serving_ca_bundle&#45;&gt;secret_manifests</title>
<path fill="none" stroke="black" d="M637.727,-1270.9C649.335,-1265.25 659.991,-1257.87 668.5,-1248.24 737.624,-1170.03 667.636,-1113.71 705,-1016.24 721.124,-974.185 751.494,-931.585 772.23,-905.302"/>
<polygon fill="black" stroke="black" points="775.069,-907.355 778.593,-897.363 769.608,-902.977 775.069,-907.355"/>
</g>
<!-- mcc_bundle&#45;&gt;manifests -->
<g id="edge85" class="edge"><title>mcc_bundle&#45;&gt;manifests</title>
<path fill="none" stroke="black" d="M637.508,-1203.22C649.079,-1197.68 659.784,-1190.51 668.5,-1181.24 719.949,-1126.53 649.953,-1067.34 705,-1016.24 828.171,-901.913 1306.5,-989.698 1453.5,-908.244 1495.51,-884.963 1528.7,-839.378 1547.84,-808.125"/>
<polygon fill="black" stroke="black" points="1550.97,-809.704 1553.09,-799.323 1544.96,-806.117 1550.97,-809.704"/>
</g>
<!-- mcc_bundle&#45;&gt;secret_manifests -->
<g id="edge51" class="edge"><title>mcc_bundle&#45;&gt;secret_manifests</title>
<path fill="none" stroke="black" d="M638.957,-1203.11C650.06,-1197.57 660.258,-1190.44 668.5,-1181.24 732.331,-1110.06 661.261,-1054.26 705,-969.244 718.342,-943.311 741.77,-920.078 761.24,-903.715"/>
<polygon fill="black" stroke="black" points="763.496,-906.392 769.026,-897.354 759.068,-900.971 763.496,-906.392"/>
</g>
<!-- operator_configs&#45;&gt;manifests -->
<g id="edge86" class="edge"><title>operator_configs&#45;&gt;manifests</title>
<path fill="none" stroke="black" d="M868.078,-1395.39C1029.77,-1397.28 1410.69,-1397.54 1453.5,-1359.24 1490.44,-1326.2 1480.88,-1187.95 1490,-1139.24 1512.79,-1017.53 1544.1,-873.846 1558.36,-809.455"/>
<polygon fill="black" stroke="black" points="1561.83,-809.977 1560.58,-799.456 1555,-808.46 1561.83,-809.977"/>
</g>
<!-- bootstrap_control_plane -->
<g id="node31" class="node"><title>bootstrap_control_plane</title>
<polygon fill="lightpink" stroke="lightpink" points="1326.5,-1284.24 1047.5,-1284.24 1047.5,-1248.24 1326.5,-1248.24 1326.5,-1284.24"/>
<text text-anchor="middle" x="1187" y="-1261.24" font-family="Times,serif" font-size="20.00">bootstrap control plane manifests</text>
</g>
<!-- operator_configs&#45;&gt;bootstrap_control_plane -->
<g id="edge52" class="edge"><title>operator_configs&#45;&gt;bootstrap_control_plane</title>
<path fill="none" stroke="black" d="M848.524,-1376.08C861.223,-1370.27 874.226,-1363.01 885,-1354.24 905.858,-1337.27 897.501,-1319.18 920.5,-1305.24 955.21,-1284.21 997.043,-1272.97 1037.13,-1267.31"/>
<polygon fill="black" stroke="black" points="1037.82,-1270.75 1047.28,-1265.98 1036.91,-1263.8 1037.82,-1270.75"/>
</g>
<!-- misc_manifests -->
<g id="node32" class="node"><title>misc_manifests</title>
<polygon fill="lightpink" stroke="lightpink" points="1453.5,-1350.24 920.5,-1350.24 920.5,-1314.24 1453.5,-1314.24 1453.5,-1350.24"/>
<text text-anchor="middle" x="1187" y="-1327.24" font-family="Times,serif" font-size="20.00">misc manifests (rbac, namespace, CRD, pod security policy, etc)</text>
</g>
<!-- operator_configs&#45;&gt;misc_manifests -->
<g id="edge55" class="edge"><title>operator_configs&#45;&gt;misc_manifests</title>
<path fill="none" stroke="black" d="M868.442,-1382.73C922.807,-1374.08 998.546,-1362.04 1062.42,-1351.89"/>
<polygon fill="black" stroke="black" points="1063.24,-1355.3 1072.57,-1350.28 1062.14,-1348.39 1063.24,-1355.3"/>
</g>
<!-- operator_configs&#45;&gt;bootstrap_ignition -->
<g id="edge57" class="edge"><title>operator_configs&#45;&gt;bootstrap_ignition</title>
<path fill="none" stroke="black" d="M848.003,-1412.29C966.215,-1449.85 1259.84,-1523.24 1453.5,-1401.24 1526.93,-1354.99 1553.48,-1246.08 1562.18,-1194.4"/>
<polygon fill="black" stroke="black" points="1565.67,-1194.71 1563.78,-1184.29 1558.76,-1193.62 1565.67,-1194.71"/>
</g>
<!-- operator_manifests&#45;&gt;manifests -->
<g id="edge87" class="edge"><title>operator_manifests&#45;&gt;manifests</title>
<path fill="none" stroke="black" d="M814.894,-1309.22C837.857,-1288.49 878.738,-1255.27 920.5,-1239.24 1031.85,-1196.51 1362.85,-1253.76 1453.5,-1176.24 1510.14,-1127.81 1548.5,-897.41 1561.3,-809.465"/>
<polygon fill="black" stroke="black" points="1564.78,-809.864 1562.74,-799.468 1557.85,-808.87 1564.78,-809.864"/>
</g>
<!-- operator_manifests&#45;&gt;bootstrap_control_plane -->
<g id="edge53" class="edge"><title>operator_manifests&#45;&gt;bootstrap_control_plane</title>
<path fill="none" stroke="black" d="M877.311,-1312.53C891.688,-1310.02 906.524,-1307.5 920.5,-1305.24 961.819,-1298.56 1006.84,-1291.76 1047.87,-1285.76"/>
<polygon fill="black" stroke="black" points="1048.54,-1289.2 1057.93,-1284.29 1047.53,-1282.27 1048.54,-1289.2"/>
</g>
<!-- operator_manifests&#45;&gt;misc_manifests -->
<g id="edge56" class="edge"><title>operator_manifests&#45;&gt;misc_manifests</title>
<path fill="none" stroke="black" d="M877.282,-1328.29C887.642,-1328.42 898.66,-1328.56 910.131,-1328.71"/>
<polygon fill="black" stroke="black" points="910.28,-1332.21 920.324,-1328.84 910.37,-1325.21 910.28,-1332.21"/>
</g>
<!-- operator_manifests&#45;&gt;bootstrap_ignition -->
<g id="edge58" class="edge"><title>operator_manifests&#45;&gt;bootstrap_ignition</title>
<path fill="none" stroke="black" d="M842.173,-1345.35C955.317,-1386.55 1251.85,-1475.11 1453.5,-1359.24 1515.76,-1323.47 1546.81,-1238.48 1559.23,-1194.18"/>
<polygon fill="black" stroke="black" points="1562.65,-1194.93 1561.86,-1184.36 1555.89,-1193.11 1562.65,-1194.93"/>
</g>
<!-- bootstrap_control_plane&#45;&gt;manifests -->
<g id="edge88" class="edge"><title>bootstrap_control_plane&#45;&gt;manifests</title>
<path fill="none" stroke="black" d="M1326.67,-1272.84C1372.02,-1268.02 1419.45,-1254.51 1453.5,-1223.24 1484.67,-1194.63 1540.9,-908.758 1559.69,-809.209"/>
<polygon fill="black" stroke="black" points="1563.13,-809.834 1561.54,-799.36 1556.25,-808.541 1563.13,-809.834"/>
</g>
<!-- bootstrap_control_plane&#45;&gt;bootstrap_ignition -->
<g id="edge59" class="edge"><title>bootstrap_control_plane&#45;&gt;bootstrap_ignition</title>
<path fill="none" stroke="black" d="M1326.69,-1252.02C1368.12,-1245.58 1413.21,-1236.36 1453.5,-1223.24 1479.37,-1214.82 1506.63,-1201.15 1527.83,-1189.3"/>
<polygon fill="black" stroke="black" points="1529.57,-1192.35 1536.53,-1184.36 1526.11,-1186.26 1529.57,-1192.35"/>
</g>
<!-- misc_manifests&#45;&gt;manifests -->
<g id="edge90" class="edge"><title>misc_manifests&#45;&gt;manifests</title>
<path fill="none" stroke="black" d="M1424.71,-1314.22C1435.04,-1308.37 1444.73,-1301.43 1453.5,-1293.24 1458.03,-1289.01 1534.84,-923.946 1558.87,-809.296"/>
<polygon fill="black" stroke="black" points="1562.34,-809.814 1560.96,-799.309 1555.49,-808.379 1562.34,-809.814"/>
</g>
<!-- misc_manifests&#45;&gt;bootstrap_ignition -->
<g id="edge61" class="edge"><title>misc_manifests&#45;&gt;bootstrap_ignition</title>
<path fill="none" stroke="black" d="M1402.79,-1314.21C1420.47,-1308.72 1437.62,-1301.83 1453.5,-1293.24 1496.7,-1269.87 1531.35,-1223.07 1550.27,-1193.27"/>
<polygon fill="black" stroke="black" points="1553.34,-1194.96 1555.62,-1184.61 1547.38,-1191.27 1553.34,-1194.96"/>
</g>
<!-- secret_manifests&#45;&gt;manifests -->
<g id="edge89" class="edge"><title>secret_manifests&#45;&gt;manifests</title>
<path fill="none" stroke="black" d="M885.005,-885.317C1013.36,-891.433 1256.63,-893.084 1453.5,-836.244 1477.49,-829.319 1502.09,-816.72 1522.15,-804.762"/>
<polygon fill="black" stroke="black" points="1524.03,-807.716 1530.74,-799.517 1520.38,-801.742 1524.03,-807.716"/>
</g>
<!-- secret_manifests&#45;&gt;bootstrap_control_plane -->
<g id="edge54" class="edge"><title>secret_manifests&#45;&gt;bootstrap_control_plane</title>
<path fill="none" stroke="black" d="M804.038,-897.374C821.299,-934.886 864.892,-1022.42 920.5,-1081.24 987.583,-1152.21 1085.97,-1212.1 1142.23,-1243.23"/>
<polygon fill="black" stroke="black" points="1140.77,-1246.42 1151.22,-1248.16 1144.13,-1240.28 1140.77,-1246.42"/>
</g>
<!-- secret_manifests&#45;&gt;bootstrap_ignition -->
<g id="edge60" class="edge"><title>secret_manifests&#45;&gt;bootstrap_ignition</title>
<path fill="none" stroke="black" d="M844.459,-897.306C979.75,-947.733 1361.19,-1089.9 1507.69,-1144.51"/>
<polygon fill="black" stroke="black" points="1506.82,-1147.92 1517.41,-1148.13 1509.26,-1141.36 1506.82,-1147.92"/>
</g>
<!-- bootstrap_ignition&#45;&gt;ignition_configs -->
<g id="edge94" class="edge"><title>bootstrap_ignition&#45;&gt;ignition_configs</title>
<path fill="none" stroke="black" d="M1572.75,-1148.14C1586.26,-1095.87 1625.18,-940.019 1644,-808.244 1651.59,-755.079 1648.1,-369.448 1680,-326.244 1684.86,-319.663 1690.78,-314.003 1697.36,-309.135"/>
<polygon fill="black" stroke="black" points="1699.62,-311.834 1706.01,-303.384 1695.74,-306.005 1699.62,-311.834"/>
</g>
<!-- bootstrap_ignition&#45;&gt;terraform_state -->
<g id="edge65" class="edge"><title>bootstrap_ignition&#45;&gt;terraform_state</title>
<path fill="none" stroke="black" d="M1573.17,-1148.12C1603.21,-1042.84 1755.25,-510.065 1792,-381.292"/>
<polygon fill="black" stroke="black" points="1795.44,-381.985 1794.82,-371.408 1788.71,-380.064 1795.44,-381.985"/>
</g>
<!-- master_ignition&#45;&gt;ignition_configs -->
<g id="edge95" class="edge"><title>master_ignition&#45;&gt;ignition_configs</title>
<path fill="none" stroke="black" d="M1617.2,-276.092C1632.87,-276.362 1651.01,-276.675 1669.65,-276.997"/>
<polygon fill="black" stroke="black" points="1669.68,-280.498 1679.74,-277.171 1669.8,-273.499 1669.68,-280.498"/>
</g>
<!-- master_ignition&#45;&gt;terraform_state -->
<g id="edge66" class="edge"><title>master_ignition&#45;&gt;terraform_state</title>
<path fill="none" stroke="black" d="M1617.2,-291.786C1656.68,-305.06 1711.83,-323.601 1751.21,-336.839"/>
<polygon fill="black" stroke="black" points="1750.26,-340.215 1760.86,-340.084 1752.49,-333.58 1750.26,-340.215"/>
</g>
<!-- worker_ignition&#45;&gt;ignition_configs -->
<g id="edge96" class="edge"><title>worker_ignition&#45;&gt;ignition_configs</title>
<path fill="none" stroke="black" d="M1618.63,-328.496C1643.06,-321.86 1673.25,-313.664 1701.93,-305.875"/>
<polygon fill="black" stroke="black" points="1702.86,-309.25 1711.59,-303.252 1701.02,-302.495 1702.86,-309.25"/>
</g>
<!-- worker_ignition&#45;&gt;terraform_state -->
<g id="edge67" class="edge"><title>worker_ignition&#45;&gt;terraform_state</title>
<path fill="none" stroke="black" d="M1618.63,-344.644C1657.91,-346.507 1712.06,-349.074 1750.94,-350.918"/>
<polygon fill="black" stroke="black" points="1750.82,-354.416 1760.98,-351.394 1751.15,-347.424 1750.82,-354.416"/>
</g>
<!-- kubelet_kubeconfig&#45;&gt;manifests -->
<g id="edge91" class="edge"><title>kubelet_kubeconfig&#45;&gt;manifests</title>
<path fill="none" stroke="black" d="M1272.15,-265.338C1330.16,-263.364 1405.23,-271.15 1453.5,-315.244 1517.05,-373.301 1551.91,-644.154 1562.49,-740.838"/>
<polygon fill="black" stroke="black" points="1559.03,-741.388 1563.58,-750.956 1565.99,-740.639 1559.03,-741.388"/>
</g>
<!-- kubelet_kubeconfig&#45;&gt;bootstrap_ignition -->
<g id="edge62" class="edge"><title>kubelet_kubeconfig&#45;&gt;bootstrap_ignition</title>
<path fill="none" stroke="black" d="M1272.29,-263.098C1331.73,-259.705 1408.5,-266.703 1453.5,-315.244 1490.84,-355.524 1482.25,-753.866 1490,-808.244 1507.71,-932.56 1543.37,-1078.3 1558.71,-1138.29"/>
<polygon fill="black" stroke="black" points="1555.37,-1139.33 1561.25,-1148.14 1562.15,-1137.59 1555.37,-1139.33"/>
</g>
<!-- kubelet_kubeconfig&#45;&gt;master_ignition -->
<g id="edge63" class="edge"><title>kubelet_kubeconfig&#45;&gt;master_ignition</title>
<path fill="none" stroke="black" d="M1272.36,-275.244C1343.57,-275.244 1443.73,-275.244 1506.72,-275.244"/>
<polygon fill="black" stroke="black" points="1506.89,-278.744 1516.89,-275.244 1506.89,-271.744 1506.89,-278.744"/>
</g>
<!-- kubelet_kubeconfig&#45;&gt;worker_ignition -->
<g id="edge64" class="edge"><title>kubelet_kubeconfig&#45;&gt;worker_ignition</title>
<path fill="none" stroke="black" d="M1272.02,-286.02C1324.41,-293.203 1393.11,-303.47 1453.5,-315.244 1470.32,-318.522 1488.42,-322.613 1505.08,-326.612"/>
<polygon fill="black" stroke="black" points="1504.7,-330.121 1515.24,-329.081 1506.35,-323.319 1504.7,-330.121"/>
</g>
<!-- kubeconfig&#45;&gt;manifests -->
<g id="edge92" class="edge"><title>kubeconfig&#45;&gt;manifests</title>
<path fill="none" stroke="black" d="M1239.54,-200.231C1299.09,-194.119 1396.21,-194.338 1453.5,-248.244 1471.86,-265.516 1539.04,-627.225 1559.83,-741.179"/>
<polygon fill="black" stroke="black" points="1556.4,-741.898 1561.64,-751.109 1563.29,-740.644 1556.4,-741.898"/>
</g>
<!-- kubeconfig&#45;&gt;cluster -->
<g id="edge93" class="edge"><title>kubeconfig&#45;&gt;cluster</title>
<path fill="none" stroke="black" d="M1239.51,-205.084C1360.4,-198.923 1671.02,-190.397 1922,-246.244 1932.22,-248.518 1942.77,-251.828 1952.9,-255.548"/>
<polygon fill="black" stroke="black" points="1951.88,-258.904 1962.47,-259.219 1954.39,-252.368 1951.88,-258.904"/>
</g>
<!-- terraform_state&#45;&gt;cluster -->
<g id="edge97" class="edge"><title>terraform_state&#45;&gt;cluster</title>
<path fill="none" stroke="black" d="M1841.19,-340.242C1871.15,-330.303 1913.1,-316.385 1948.05,-304.79"/>
<polygon fill="black" stroke="black" points="1949.32,-308.057 1957.71,-301.587 1947.12,-301.414 1949.32,-308.057"/>
</g>
</g>
</svg>
