<?xml version="1.0" encoding="UTF-8" standalone="no"?>
<!DOCTYPE svg PUBLIC "-//W3C//DTD SVG 1.1//EN"
 "http://www.w3.org/Graphics/SVG/1.1/DTD/svg11.dtd">
<!-- Generated by graphviz version 2.38.0 (20140413.2041)
 -->
<!-- Title: resource Pages: 1 -->
<svg width="1331pt" height="1296pt"
 viewBox="0.00 0.00 1331.01 1296.00" xmlns="http://www.w3.org/2000/svg" xmlns:xlink="http://www.w3.org/1999/xlink">
<g id="graph0" class="graph" transform="scale(0.71406 0.71406) rotate(0) translate(4 1810.97)">
<title>resource</title>
<polygon fill="white" stroke="none" points="-4,4 -4,-1810.97 1860,-1810.97 1860,4 -4,4"/>
<!-- install_cfg -->
<g id="node1" class="node"><title>install_cfg</title>
<polygon fill="white" stroke="yellowgreen" stroke-width="3" points="622,-1531.19 418,-1531.19 418,-1483.19 622,-1483.19 622,-1531.19"/>
<text text-anchor="middle" x="520" y="-1498.39" font-family="Times,serif" font-size="36.00">install config</text>
</g>
<!-- manifests -->
<g id="node2" class="node"><title>manifests</title>
<polygon fill="white" stroke="yellowgreen" stroke-width="3" points="1430,-782.192 1276,-782.192 1276,-734.192 1430,-734.192 1430,-782.192"/>
<text text-anchor="middle" x="1353" y="-749.392" font-family="Times,serif" font-size="36.00">manifests</text>
</g>
<!-- ignition_configs -->
<g id="node3" class="node"><title>ignition_configs</title>
<polygon fill="white" stroke="yellowgreen" stroke-width="3" points="1708,-491.192 1466,-491.192 1466,-443.192 1708,-443.192 1708,-491.192"/>
<text text-anchor="middle" x="1587" y="-458.392" font-family="Times,serif" font-size="36.00">ignition configs</text>
</g>
<!-- cluster -->
<g id="node4" class="node"><title>cluster</title>
<polygon fill="white" stroke="yellowgreen" stroke-width="3" points="1856,-1326.19 1744,-1326.19 1744,-1278.19 1856,-1278.19 1856,-1326.19"/>
<text text-anchor="middle" x="1800" y="-1293.39" font-family="Times,serif" font-size="36.00">cluster</text>
</g>
<!-- base_domain -->
<g id="node5" class="node"><title>base_domain</title>
<polygon fill="gainsboro" stroke="gainsboro" points="123,-1425.19 7,-1425.19 7,-1389.19 123,-1389.19 123,-1425.19"/>
<text text-anchor="middle" x="65" y="-1402.19" font-family="Times,serif" font-size="20.00">base domain</text>
</g>
<!-- install_config -->
<g id="node13" class="node"><title>install_config</title>
<polygon fill="lightcoral" stroke="lightcoral" points="333,-1384.19 167,-1384.19 167,-1348.19 333,-1348.19 333,-1384.19"/>
<text text-anchor="middle" x="250" y="-1361.19" font-family="Times,serif" font-size="20.00">install&#45;config.yaml</text>
</g>
<!-- base_domain&#45;&gt;install_config -->
<g id="edge8" class="edge"><title>base_domain&#45;&gt;install_config</title>
<path fill="none" stroke="black" d="M123.15,-1394.39C134.374,-1391.87 146.405,-1389.18 158.416,-1386.49"/>
<polygon fill="black" stroke="black" points="159.488,-1389.83 168.481,-1384.23 157.958,-1383 159.488,-1389.83"/>
</g>
<!-- cluster_name -->
<g id="node6" class="node"><title>cluster_name</title>
<polygon fill="gainsboro" stroke="gainsboro" points="124,-1344.19 6,-1344.19 6,-1308.19 124,-1308.19 124,-1344.19"/>
<text text-anchor="middle" x="65" y="-1321.19" font-family="Times,serif" font-size="20.00">cluster name</text>
</g>
<!-- cluster_name&#45;&gt;install_config -->
<g id="edge7" class="edge"><title>cluster_name&#45;&gt;install_config</title>
<path fill="none" stroke="black" d="M124.154,-1338.9C134.677,-1341.2 145.882,-1343.65 157.094,-1346.1"/>
<polygon fill="black" stroke="black" points="156.417,-1349.54 166.933,-1348.25 157.911,-1342.7 156.417,-1349.54"/>
</g>
<!-- license -->
<g id="node7" class="node"><title>license</title>
<polygon fill="gainsboro" stroke="gainsboro" points="100.5,-1263.19 29.5,-1263.19 29.5,-1227.19 100.5,-1227.19 100.5,-1263.19"/>
<text text-anchor="middle" x="65" y="-1240.19" font-family="Times,serif" font-size="20.00">license</text>
</g>
<!-- license&#45;&gt;install_config -->
<g id="edge6" class="edge"><title>license&#45;&gt;install_config</title>
<path fill="none" stroke="black" d="M93.4186,-1263.42C113.724,-1276.9 142.073,-1295.72 167,-1312.19 181.956,-1322.08 198.463,-1332.95 212.723,-1342.34"/>
<polygon fill="black" stroke="black" points="210.999,-1345.4 221.277,-1347.97 214.847,-1339.55 210.999,-1345.4"/>
</g>
<!-- pull_secret -->
<g id="node8" class="node"><title>pull_secret</title>
<polygon fill="gainsboro" stroke="gainsboro" points="114,-1183.19 16,-1183.19 16,-1147.19 114,-1147.19 114,-1183.19"/>
<text text-anchor="middle" x="65" y="-1160.19" font-family="Times,serif" font-size="20.00">pull secret</text>
</g>
<!-- pull_secret&#45;&gt;install_config -->
<g id="edge5" class="edge"><title>pull_secret&#45;&gt;install_config</title>
<path fill="none" stroke="black" d="M94.2505,-1183.43C106.717,-1192.63 120.725,-1204.69 130.5,-1218.19 156.783,-1254.49 138.84,-1277.33 167,-1312.19 176.659,-1324.15 189.69,-1334.39 202.518,-1342.63"/>
<polygon fill="black" stroke="black" points="200.965,-1345.78 211.322,-1348.01 204.617,-1339.81 200.965,-1345.78"/>
</g>
<!-- platform -->
<g id="node9" class="node"><title>platform</title>
<polygon fill="gainsboro" stroke="gainsboro" points="107.5,-1102.19 22.5,-1102.19 22.5,-1066.19 107.5,-1066.19 107.5,-1102.19"/>
<text text-anchor="middle" x="65" y="-1079.19" font-family="Times,serif" font-size="20.00">platform</text>
</g>
<!-- platform&#45;&gt;install_config -->
<g id="edge3" class="edge"><title>platform&#45;&gt;install_config</title>
<path fill="none" stroke="black" d="M95.6154,-1102.43C108.209,-1111.64 121.936,-1123.91 130.5,-1138.19 171.144,-1205.95 122.54,-1246.87 167,-1312.19 175.416,-1324.56 187.697,-1334.79 200.205,-1342.9"/>
<polygon fill="black" stroke="black" points="198.495,-1345.96 208.855,-1348.17 202.14,-1339.98 198.495,-1345.96"/>
</g>
<!-- email_address -->
<g id="node10" class="node"><title>email_address</title>
<polygon fill="gainsboro" stroke="gainsboro" points="127.5,-1667.19 2.5,-1667.19 2.5,-1631.19 127.5,-1631.19 127.5,-1667.19"/>
<text text-anchor="middle" x="65" y="-1644.19" font-family="Times,serif" font-size="20.00">email address</text>
</g>
<!-- email_address&#45;&gt;install_config -->
<g id="edge4" class="edge"><title>email_address&#45;&gt;install_config</title>
<path fill="none" stroke="black" d="M92.3074,-1631C104.93,-1621.37 119.631,-1608.75 130.5,-1595.19 182.555,-1530.24 221.506,-1438.84 238.928,-1393.67"/>
<polygon fill="black" stroke="black" points="242.228,-1394.83 242.507,-1384.24 235.684,-1392.35 242.228,-1394.83"/>
</g>
<!-- password -->
<g id="node11" class="node"><title>password</title>
<polygon fill="gainsboro" stroke="gainsboro" points="110.5,-1586.19 19.5,-1586.19 19.5,-1550.19 110.5,-1550.19 110.5,-1586.19"/>
<text text-anchor="middle" x="65" y="-1563.19" font-family="Times,serif" font-size="20.00">password</text>
</g>
<!-- password&#45;&gt;install_config -->
<g id="edge1" class="edge"><title>password&#45;&gt;install_config</title>
<path fill="none" stroke="black" d="M89.9665,-1550.01C102.557,-1540 117.938,-1527.03 130.5,-1514.19 169.05,-1474.79 207.874,-1423.6 230.117,-1392.91"/>
<polygon fill="black" stroke="black" points="233.204,-1394.62 236.203,-1384.45 227.522,-1390.53 233.204,-1394.62"/>
</g>
<!-- sshkey -->
<g id="node12" class="node"><title>sshkey</title>
<polygon fill="gainsboro" stroke="gainsboro" points="108.5,-1505.19 21.5,-1505.19 21.5,-1469.19 108.5,-1469.19 108.5,-1505.19"/>
<text text-anchor="middle" x="65" y="-1482.19" font-family="Times,serif" font-size="20.00">SSH key</text>
</g>
<!-- sshkey&#45;&gt;install_config -->
<g id="edge2" class="edge"><title>sshkey&#45;&gt;install_config</title>
<path fill="none" stroke="black" d="M93.3969,-1469.08C125.293,-1447.99 178.073,-1413.09 213.191,-1389.87"/>
<polygon fill="black" stroke="black" points="215.304,-1392.67 221.715,-1384.23 211.443,-1386.83 215.304,-1392.67"/>
</g>
<!-- install_config&#45;&gt;install_cfg -->
<g id="edge59" class="edge"><title>install_config&#45;&gt;install_cfg</title>
<path fill="none" stroke="black" d="M275.993,-1384.35C299.355,-1400.87 335.558,-1425.32 369,-1443.19 393.579,-1456.32 421.431,-1468.82 446.406,-1479.23"/>
<polygon fill="black" stroke="black" points="445.245,-1482.53 455.824,-1483.11 447.913,-1476.06 445.245,-1482.53"/>
</g>
<!-- apiserver_bundle -->
<g id="node16" class="node"><title>apiserver_bundle</title>
<polygon fill="violet" stroke="violet" points="594.5,-805.192 445.5,-805.192 445.5,-769.192 594.5,-769.192 594.5,-805.192"/>
<text text-anchor="middle" x="520" y="-782.192" font-family="Times,serif" font-size="20.00">apiserver crt/key</text>
</g>
<!-- install_config&#45;&gt;apiserver_bundle -->
<g id="edge26" class="edge"><title>install_config&#45;&gt;apiserver_bundle</title>
<path fill="none" stroke="black" d="M252.725,-1348.11C261.006,-1264.82 299.185,-918.848 369,-840.192 386.238,-820.771 411.047,-808.466 435.54,-800.671"/>
<polygon fill="black" stroke="black" points="436.661,-803.989 445.259,-797.798 434.677,-797.276 436.661,-803.989"/>
</g>
<!-- ingress_bundle -->
<g id="node21" class="node"><title>ingress_bundle</title>
<polygon fill="violet" stroke="violet" points="586,-1047.19 454,-1047.19 454,-1011.19 586,-1011.19 586,-1047.19"/>
<text text-anchor="middle" x="520" y="-1024.19" font-family="Times,serif" font-size="20.00">ingress crt/key</text>
</g>
<!-- install_config&#45;&gt;ingress_bundle -->
<g id="edge30" class="edge"><title>install_config&#45;&gt;ingress_bundle</title>
<path fill="none" stroke="black" d="M257.169,-1348.04C271.683,-1307.25 311.183,-1206.63 369,-1139.19 399.836,-1103.22 444.591,-1072.35 477.185,-1052.55"/>
<polygon fill="black" stroke="black" points="479.245,-1055.4 486.035,-1047.27 475.655,-1049.39 479.245,-1055.4"/>
</g>
<!-- openshift_apiserver_bundle -->
<g id="node24" class="node"><title>openshift_apiserver_bundle</title>
<polygon fill="violet" stroke="violet" points="1086.5,-1172.19 859.5,-1172.19 859.5,-1136.19 1086.5,-1136.19 1086.5,-1172.19"/>
<text text-anchor="middle" x="973" y="-1149.19" font-family="Times,serif" font-size="20.00">openshift apiserver crt/key</text>
</g>
<!-- install_config&#45;&gt;openshift_apiserver_bundle -->
<g id="edge32" class="edge"><title>install_config&#45;&gt;openshift_apiserver_bundle</title>
<path fill="none" stroke="black" d="M269.314,-1348.16C291.165,-1327.71 329.704,-1294.92 369,-1277.19 453.199,-1239.22 698.729,-1196.43 849.256,-1172.65"/>
<polygon fill="black" stroke="black" points="850.144,-1176.06 859.478,-1171.05 849.056,-1169.14 850.144,-1176.06"/>
</g>
<!-- mcc_bundle -->
<g id="node28" class="node"><title>mcc_bundle</title>
<polygon fill="violet" stroke="violet" points="660.5,-1184.19 379.5,-1184.19 379.5,-1148.19 660.5,-1148.19 660.5,-1184.19"/>
<text text-anchor="middle" x="520" y="-1161.19" font-family="Times,serif" font-size="20.00">machine config controller crt/key</text>
</g>
<!-- install_config&#45;&gt;mcc_bundle -->
<g id="edge15" class="edge"><title>install_config&#45;&gt;mcc_bundle</title>
<path fill="none" stroke="black" d="M261.327,-1347.95C279.401,-1317.56 319.588,-1256.44 369,-1221.19 389.145,-1206.82 413.465,-1195.79 436.604,-1187.51"/>
<polygon fill="black" stroke="black" points="437.771,-1190.81 446.086,-1184.25 435.492,-1184.19 437.771,-1190.81"/>
</g>
<!-- operator_manifests -->
<g id="node29" class="node"><title>operator_manifests</title>
<polygon fill="lightpink" stroke="lightpink" points="671,-1322.19 369,-1322.19 369,-1286.19 671,-1286.19 671,-1322.19"/>
<text text-anchor="middle" x="520" y="-1299.19" font-family="Times,serif" font-size="20.00">operator manifests and their configs</text>
</g>
<!-- install_config&#45;&gt;operator_manifests -->
<g id="edge9" class="edge"><title>install_config&#45;&gt;operator_manifests</title>
<path fill="none" stroke="black" d="M328.877,-1348.18C360.81,-1340.79 397.933,-1332.2 430.857,-1324.58"/>
<polygon fill="black" stroke="black" points="431.975,-1327.92 440.929,-1322.25 430.397,-1321.1 431.975,-1327.92"/>
</g>
<!-- kubeconfig_admin -->
<g id="node35" class="node"><title>kubeconfig_admin</title>
<polygon fill="lightblue" stroke="lightblue" points="1053.5,-1698.19 892.5,-1698.19 892.5,-1662.19 1053.5,-1662.19 1053.5,-1698.19"/>
<text text-anchor="middle" x="973" y="-1675.19" font-family="Times,serif" font-size="20.00">kubeconfig&#45;admin</text>
</g>
<!-- install_config&#45;&gt;kubeconfig_admin -->
<g id="edge38" class="edge"><title>install_config&#45;&gt;kubeconfig_admin</title>
<path fill="none" stroke="black" d="M333.151,-1382.77C448.347,-1406.69 646.609,-1450.61 671,-1474.19 711.291,-1513.15 667.358,-1555.08 706.5,-1595.19 752.497,-1642.33 824.613,-1663.37 882.083,-1672.74"/>
<polygon fill="black" stroke="black" points="881.852,-1676.25 892.267,-1674.31 882.915,-1669.33 881.852,-1676.25"/>
</g>
<!-- kubeconfig_kubelet -->
<g id="node36" class="node"><title>kubeconfig_kubelet</title>
<polygon fill="lightblue" stroke="lightblue" points="1058,-485.192 888,-485.192 888,-449.192 1058,-449.192 1058,-485.192"/>
<text text-anchor="middle" x="973" y="-462.192" font-family="Times,serif" font-size="20.00">kubeconfig&#45;kubelet</text>
</g>
<!-- install_config&#45;&gt;kubeconfig_kubelet -->
<g id="edge39" class="edge"><title>install_config&#45;&gt;kubeconfig_kubelet</title>
<path fill="none" stroke="black" d="M252.716,-1347.97C261.45,-1258.08 303.142,-862.159 369,-760.192 468.721,-605.794 537.815,-594.189 706.5,-521.192 760.844,-497.675 825.942,-484.229 878.077,-476.635"/>
<polygon fill="black" stroke="black" points="878.576,-480.1 887.99,-475.239 877.599,-473.168 878.576,-480.1"/>
</g>
<!-- terraform_state -->
<g id="node37" class="node"><title>terraform_state</title>
<polygon fill="gold" stroke="gold" points="1627,-1172.19 1547,-1172.19 1547,-1136.19 1627,-1136.19 1627,-1172.19"/>
<text text-anchor="middle" x="1587" y="-1149.19" font-family="Times,serif" font-size="20.00">*.tfstate</text>
</g>
<!-- install_config&#45;&gt;terraform_state -->
<g id="edge60" class="edge"><title>install_config&#45;&gt;terraform_state</title>
<path fill="none" stroke="black" d="M259.276,-1384.21C275.801,-1418.51 315.909,-1493.89 369,-1540.19 665.9,-1799.12 894.831,-1897.97 1239.5,-1707.19 1453.52,-1588.73 1553,-1276.74 1578.91,-1181.92"/>
<polygon fill="black" stroke="black" points="1582.31,-1182.76 1581.52,-1172.19 1575.55,-1180.95 1582.31,-1182.76"/>
</g>
<!-- admin_bundle -->
<g id="node14" class="node"><title>admin_bundle</title>
<polygon fill="violet" stroke="violet" points="583,-885.192 457,-885.192 457,-849.192 583,-849.192 583,-885.192"/>
<text text-anchor="middle" x="520" y="-862.192" font-family="Times,serif" font-size="20.00">admin crt/key</text>
</g>
<!-- admin_bundle&#45;&gt;manifests -->
<g id="edge61" class="edge"><title>admin_bundle&#45;&gt;manifests</title>
<path fill="none" stroke="black" d="M583.101,-857.975C613.042,-850.639 647.472,-837.535 671,-814.192 703.886,-781.565 668.573,-742.792 706.5,-716.192 885.271,-590.812 1164.85,-680.115 1288.98,-730.319"/>
<polygon fill="black" stroke="black" points="1287.78,-733.609 1298.36,-734.158 1290.43,-727.131 1287.78,-733.609"/>
</g>
<!-- admin_bundle&#45;&gt;kubeconfig_admin -->
<g id="edge36" class="edge"><title>admin_bundle&#45;&gt;kubeconfig_admin</title>
<path fill="none" stroke="black" d="M583.11,-873.542C614.598,-880.188 650.433,-893.716 671,-921.192 749.977,-1026.7 639.351,-1399.79 706.5,-1513.19 750.637,-1587.73 842.445,-1634.12 905.632,-1658.56"/>
<polygon fill="black" stroke="black" points="904.535,-1661.89 915.127,-1662.15 907.012,-1655.34 904.535,-1661.89"/>
</g>
<!-- aggregator_ca_bundle -->
<g id="node15" class="node"><title>aggregator_ca_bundle</title>
<polygon fill="violet" stroke="violet" points="612.5,-966.192 427.5,-966.192 427.5,-930.192 612.5,-930.192 612.5,-966.192"/>
<text text-anchor="middle" x="520" y="-943.192" font-family="Times,serif" font-size="20.00">aggregator ca crt/key</text>
</g>
<!-- aggregator_ca_bundle&#45;&gt;manifests -->
<g id="edge62" class="edge"><title>aggregator_ca_bundle&#45;&gt;manifests</title>
<path fill="none" stroke="black" d="M612.736,-930.31C634.204,-922.334 655.347,-910.816 671,-894.192 709.419,-853.388 662.031,-807.302 706.5,-773.192 791.629,-707.894 1110.36,-731.861 1265.75,-748.108"/>
<polygon fill="black" stroke="black" points="1265.43,-751.594 1275.74,-749.166 1266.17,-744.633 1265.43,-751.594"/>
</g>
<!-- apiserver_proxy_bundle -->
<g id="node17" class="node"><title>apiserver_proxy_bundle</title>
<polygon fill="violet" stroke="violet" points="1073,-954.192 873,-954.192 873,-918.192 1073,-918.192 1073,-954.192"/>
<text text-anchor="middle" x="973" y="-931.192" font-family="Times,serif" font-size="20.00">apiserver proxy crt/key</text>
</g>
<!-- aggregator_ca_bundle&#45;&gt;apiserver_proxy_bundle -->
<g id="edge33" class="edge"><title>aggregator_ca_bundle&#45;&gt;apiserver_proxy_bundle</title>
<path fill="none" stroke="black" d="M612.538,-945.756C684.859,-943.832 786.016,-941.14 862.603,-939.103"/>
<polygon fill="black" stroke="black" points="862.863,-942.597 872.766,-938.832 862.676,-935.6 862.863,-942.597"/>
</g>
<!-- clusterapi_apiserver_bundle -->
<g id="node18" class="node"><title>clusterapi_apiserver_bundle</title>
<polygon fill="violet" stroke="violet" points="1088.5,-874.192 857.5,-874.192 857.5,-838.192 1088.5,-838.192 1088.5,-874.192"/>
<text text-anchor="middle" x="973" y="-851.192" font-family="Times,serif" font-size="20.00">clusterapi apiserver crt/key</text>
</g>
<!-- aggregator_ca_bundle&#45;&gt;clusterapi_apiserver_bundle -->
<g id="edge34" class="edge"><title>aggregator_ca_bundle&#45;&gt;clusterapi_apiserver_bundle</title>
<path fill="none" stroke="black" d="M605.921,-930.148C637.488,-923.491 673.616,-915.931 706.5,-909.192 760.563,-898.113 820.883,-886.048 870.349,-876.232"/>
<polygon fill="black" stroke="black" points="871.284,-879.615 880.412,-874.236 869.922,-872.748 871.284,-879.615"/>
</g>
<!-- aggregator_ca_bundle&#45;&gt;openshift_apiserver_bundle -->
<g id="edge31" class="edge"><title>aggregator_ca_bundle&#45;&gt;openshift_apiserver_bundle</title>
<path fill="none" stroke="black" d="M594.897,-966.314C620.411,-974.702 648.271,-986.397 671,-1002.19 691.071,-1016.14 686.764,-1029.77 706.5,-1044.19 763.699,-1085.98 839.114,-1115.25 894.948,-1133.03"/>
<polygon fill="black" stroke="black" points="894.196,-1136.47 904.785,-1136.11 896.287,-1129.79 894.196,-1136.47"/>
</g>
<!-- bootstrap_ignition -->
<g id="node32" class="node"><title>bootstrap_ignition</title>
<polygon fill="sandybrown" stroke="sandybrown" points="1412.5,-1172.19 1293.5,-1172.19 1293.5,-1136.19 1412.5,-1136.19 1412.5,-1172.19"/>
<text text-anchor="middle" x="1353" y="-1149.19" font-family="Times,serif" font-size="20.00">bootstrap.ign</text>
</g>
<!-- aggregator_ca_bundle&#45;&gt;bootstrap_ignition -->
<g id="edge35" class="edge"><title>aggregator_ca_bundle&#45;&gt;bootstrap_ignition</title>
<path fill="none" stroke="black" d="M612.856,-963.571C634.986,-971.572 656.42,-983.728 671,-1002.19 714.928,-1057.82 653.661,-1271.94 706.5,-1319.19 794.79,-1398.15 1134.78,-1374.54 1239.5,-1319.19 1294.37,-1290.19 1327.51,-1221.07 1342.48,-1182.12"/>
<polygon fill="black" stroke="black" points="1345.87,-1183.04 1346.06,-1172.45 1339.31,-1180.61 1345.87,-1183.04"/>
</g>
<!-- apiserver_bundle&#45;&gt;manifests -->
<g id="edge63" class="edge"><title>apiserver_bundle&#45;&gt;manifests</title>
<path fill="none" stroke="black" d="M594.594,-772.383C621.105,-764.113 649.7,-751.439 671,-732.192 697.768,-708.004 675.916,-678.328 706.5,-659.192 907.321,-533.544 1017.87,-575.559 1239.5,-659.192 1274.93,-672.561 1306.44,-702.729 1327.03,-726.273"/>
<polygon fill="black" stroke="black" points="1324.44,-728.626 1333.58,-733.969 1329.77,-724.087 1324.44,-728.626"/>
</g>
<!-- bootstrap_control_plane -->
<g id="node30" class="node"><title>bootstrap_control_plane</title>
<polygon fill="lightpink" stroke="lightpink" points="1112.5,-566.192 833.5,-566.192 833.5,-530.192 1112.5,-530.192 1112.5,-566.192"/>
<text text-anchor="middle" x="973" y="-543.192" font-family="Times,serif" font-size="20.00">bootstrap control plane manifests</text>
</g>
<!-- apiserver_bundle&#45;&gt;bootstrap_control_plane -->
<g id="edge40" class="edge"><title>apiserver_bundle&#45;&gt;bootstrap_control_plane</title>
<path fill="none" stroke="black" d="M594.638,-774.954C621.95,-766.973 651.089,-753.825 671,-732.192 711.269,-688.438 663.123,-643.867 706.5,-603.192 737.971,-573.681 780.939,-558.252 823.137,-550.603"/>
<polygon fill="black" stroke="black" points="823.979,-554.011 833.265,-548.91 822.825,-547.107 823.979,-554.011"/>
</g>
<!-- apiserver_proxy_bundle&#45;&gt;manifests -->
<g id="edge64" class="edge"><title>apiserver_proxy_bundle&#45;&gt;manifests</title>
<path fill="none" stroke="black" d="M1073.2,-931.374C1125.49,-925.254 1189.05,-911.91 1239.5,-883.192 1278.82,-860.808 1311.76,-819.719 1331.64,-790.773"/>
<polygon fill="black" stroke="black" points="1334.71,-792.468 1337.38,-782.214 1328.9,-788.569 1334.71,-792.468"/>
</g>
<!-- apiserver_proxy_bundle&#45;&gt;bootstrap_ignition -->
<g id="edge41" class="edge"><title>apiserver_proxy_bundle&#45;&gt;bootstrap_ignition</title>
<path fill="none" stroke="black" d="M1073.23,-938.664C1126.29,-944.138 1190.58,-957.784 1239.5,-990.192 1290.5,-1023.98 1324.79,-1089.55 1341.07,-1126.73"/>
<polygon fill="black" stroke="black" points="1337.87,-1128.14 1345.01,-1135.97 1344.31,-1125.4 1337.87,-1128.14"/>
</g>
<!-- clusterapi_apiserver_bundle&#45;&gt;manifests -->
<g id="edge65" class="edge"><title>clusterapi_apiserver_bundle&#45;&gt;manifests</title>
<path fill="none" stroke="black" d="M1080.58,-838.17C1129.46,-828.873 1187.88,-816.296 1239.5,-801.192 1254.4,-796.832 1270.12,-791.385 1284.93,-785.848"/>
<polygon fill="black" stroke="black" points="1286.4,-789.03 1294.51,-782.206 1283.92,-782.487 1286.4,-789.03"/>
</g>
<!-- clusterapi_apiserver_bundle&#45;&gt;bootstrap_ignition -->
<g id="edge42" class="edge"><title>clusterapi_apiserver_bundle&#45;&gt;bootstrap_ignition</title>
<path fill="none" stroke="black" d="M1088.64,-856.253C1139.45,-861.644 1197.18,-875.754 1239.5,-909.192 1309.79,-964.726 1337.86,-1074.16 1347.55,-1125.86"/>
<polygon fill="black" stroke="black" points="1344.15,-1126.74 1349.35,-1135.98 1351.04,-1125.52 1344.15,-1126.74"/>
</g>
<!-- etcd_ca_bundle -->
<g id="node19" class="node"><title>etcd_ca_bundle</title>
<polygon fill="violet" stroke="violet" points="316.5,-360.192 183.5,-360.192 183.5,-324.192 316.5,-324.192 316.5,-360.192"/>
<text text-anchor="middle" x="250" y="-337.192" font-family="Times,serif" font-size="20.00">etcd ca crt/key</text>
</g>
<!-- etcd_ca_bundle&#45;&gt;manifests -->
<g id="edge66" class="edge"><title>etcd_ca_bundle&#45;&gt;manifests</title>
<path fill="none" stroke="black" d="M268.55,-323.868C289.97,-302.936 328.385,-269.822 369,-256.192 481.226,-218.529 1192.85,-210.002 1239.5,-250.192 1281.04,-285.977 1264.34,-440.622 1276,-494.192 1294.27,-578.12 1324.45,-674.616 1340.74,-724.461"/>
<polygon fill="black" stroke="black" points="1337.45,-725.671 1343.9,-734.079 1344.1,-723.486 1337.45,-725.671"/>
</g>
<!-- etcd_client_bundle -->
<g id="node20" class="node"><title>etcd_client_bundle</title>
<polygon fill="violet" stroke="violet" points="599,-360.192 441,-360.192 441,-324.192 599,-324.192 599,-360.192"/>
<text text-anchor="middle" x="520" y="-337.192" font-family="Times,serif" font-size="20.00">etcd client crt/key</text>
</g>
<!-- etcd_ca_bundle&#45;&gt;etcd_client_bundle -->
<g id="edge21" class="edge"><title>etcd_ca_bundle&#45;&gt;etcd_client_bundle</title>
<path fill="none" stroke="black" d="M316.56,-342.192C350.838,-342.192 393.284,-342.192 430.442,-342.192"/>
<polygon fill="black" stroke="black" points="430.771,-345.692 440.771,-342.192 430.771,-338.692 430.771,-345.692"/>
</g>
<!-- etcd_ca_bundle&#45;&gt;bootstrap_control_plane -->
<g id="edge23" class="edge"><title>etcd_ca_bundle&#45;&gt;bootstrap_control_plane</title>
<path fill="none" stroke="black" d="M265.182,-360.394C285.384,-384.911 324.917,-427.917 369,-449.192 513.073,-518.722 696.633,-540.691 823.176,-547.004"/>
<polygon fill="black" stroke="black" points="823.176,-550.507 833.329,-547.483 823.505,-543.515 823.176,-550.507"/>
</g>
<!-- master_ignition -->
<g id="node33" class="node"><title>master_ignition</title>
<polygon fill="sandybrown" stroke="sandybrown" points="1403,-485.192 1303,-485.192 1303,-449.192 1403,-449.192 1403,-485.192"/>
<text text-anchor="middle" x="1353" y="-462.192" font-family="Times,serif" font-size="20.00">master.ign</text>
</g>
<!-- etcd_ca_bundle&#45;&gt;master_ignition -->
<g id="edge22" class="edge"><title>etcd_ca_bundle&#45;&gt;master_ignition</title>
<path fill="none" stroke="black" d="M259.565,-324.151C275.762,-292.44 314.234,-227.656 369,-202.192 544.41,-120.632 1091.56,-77.5495 1239.5,-202.192 1312.62,-263.795 1224.72,-333.502 1276,-414.192 1283.36,-425.768 1294.24,-435.512 1305.49,-443.36"/>
<polygon fill="black" stroke="black" points="1303.83,-446.453 1314.12,-448.992 1307.66,-440.593 1303.83,-446.453"/>
</g>
<!-- etcd_client_bundle&#45;&gt;manifests -->
<g id="edge67" class="edge"><title>etcd_client_bundle&#45;&gt;manifests</title>
<path fill="none" stroke="black" d="M587.675,-324.156C725.884,-291.099 1046.76,-237.368 1239.5,-390.192 1246.3,-395.581 1316.15,-634.563 1342.24,-724.468"/>
<polygon fill="black" stroke="black" points="1338.91,-725.547 1345.05,-734.176 1345.63,-723.597 1338.91,-725.547"/>
</g>
<!-- etcd_client_bundle&#45;&gt;bootstrap_control_plane -->
<g id="edge43" class="edge"><title>etcd_client_bundle&#45;&gt;bootstrap_control_plane</title>
<path fill="none" stroke="black" d="M599.185,-355.779C624.797,-363.606 651.62,-375.902 671,-395.192 704.129,-428.167 671.161,-463.597 706.5,-494.192 738.764,-522.125 781.506,-537.041 823.247,-544.659"/>
<polygon fill="black" stroke="black" points="822.817,-548.136 833.26,-546.353 823.984,-541.234 822.817,-548.136"/>
</g>
<!-- ingress_bundle&#45;&gt;manifests -->
<g id="edge68" class="edge"><title>ingress_bundle&#45;&gt;manifests</title>
<path fill="none" stroke="black" d="M586.124,-1020.12C615.884,-1012.75 649.267,-999.385 671,-975.192 715.627,-925.513 656.335,-873.271 706.5,-829.192 727.259,-810.951 1094.96,-778.996 1265.91,-765.04"/>
<polygon fill="black" stroke="black" points="1266.21,-768.527 1275.89,-764.227 1265.64,-761.55 1266.21,-768.527"/>
</g>
<!-- ingress_bundle&#45;&gt;bootstrap_ignition -->
<g id="edge44" class="edge"><title>ingress_bundle&#45;&gt;bootstrap_ignition</title>
<path fill="none" stroke="black" d="M560.864,-1047.22C595.889,-1065.27 645.177,-1096.5 671,-1139.19 725.669,-1229.57 626.424,-1305.3 706.5,-1374.19 796.29,-1451.44 1138.46,-1436.01 1239.5,-1374.19 1308.88,-1331.75 1337.2,-1231.51 1347.22,-1182.36"/>
<polygon fill="black" stroke="black" points="1350.68,-1182.89 1349.14,-1172.41 1343.81,-1181.56 1350.68,-1182.89"/>
</g>
<!-- kube_ca_bundle -->
<g id="node22" class="node"><title>kube_ca_bundle</title>
<polygon fill="violet" stroke="violet" points="319,-691.192 181,-691.192 181,-655.192 319,-655.192 319,-691.192"/>
<text text-anchor="middle" x="250" y="-668.192" font-family="Times,serif" font-size="20.00">kube ca crt/key</text>
</g>
<!-- kube_ca_bundle&#45;&gt;manifests -->
<g id="edge69" class="edge"><title>kube_ca_bundle&#45;&gt;manifests</title>
<path fill="none" stroke="black" d="M255.792,-654.79C274.208,-584.723 340.798,-337.424 369,-315.192 475.589,-231.164 1188.65,-244.526 1239.5,-287.192 1275.28,-317.216 1265.47,-448.685 1276,-494.192 1295.37,-577.875 1325.1,-674.47 1341.02,-724.396"/>
<polygon fill="black" stroke="black" points="1337.73,-725.576 1344.11,-734.031 1344.39,-723.44 1337.73,-725.576"/>
</g>
<!-- kube_ca_bundle&#45;&gt;admin_bundle -->
<g id="edge24" class="edge"><title>kube_ca_bundle&#45;&gt;admin_bundle</title>
<path fill="none" stroke="black" d="M261.703,-691.459C280.036,-721.244 320.228,-780.335 369,-814.192 392.237,-830.322 420.889,-842.029 446.904,-850.27"/>
<polygon fill="black" stroke="black" points="446.143,-853.697 456.729,-853.261 448.181,-847 446.143,-853.697"/>
</g>
<!-- kube_ca_bundle&#45;&gt;apiserver_bundle -->
<g id="edge25" class="edge"><title>kube_ca_bundle&#45;&gt;apiserver_bundle</title>
<path fill="none" stroke="black" d="M293.465,-691.256C340.471,-711.25 416.261,-743.489 466.84,-765.004"/>
<polygon fill="black" stroke="black" points="465.718,-768.331 476.29,-769.024 468.458,-761.889 465.718,-768.331"/>
</g>
<!-- kube_ca_bundle&#45;&gt;ingress_bundle -->
<g id="edge28" class="edge"><title>kube_ca_bundle&#45;&gt;ingress_bundle</title>
<path fill="none" stroke="black" d="M252.901,-691.322C259.275,-743.056 284.496,-892.934 369,-975.192 389.402,-995.051 417.627,-1007.67 444.094,-1015.66"/>
<polygon fill="black" stroke="black" points="443.173,-1019.04 453.748,-1018.4 445.083,-1012.3 443.173,-1019.04"/>
</g>
<!-- kubelet_bundle -->
<g id="node23" class="node"><title>kubelet_bundle</title>
<polygon fill="violet" stroke="violet" points="587,-440.192 453,-440.192 453,-404.192 587,-404.192 587,-440.192"/>
<text text-anchor="middle" x="520" y="-417.192" font-family="Times,serif" font-size="20.00">kubelet crt/key</text>
</g>
<!-- kube_ca_bundle&#45;&gt;kubelet_bundle -->
<g id="edge27" class="edge"><title>kube_ca_bundle&#45;&gt;kubelet_bundle</title>
<path fill="none" stroke="black" d="M270.274,-655.141C317.29,-611.107 437.962,-498.089 492.059,-447.424"/>
<polygon fill="black" stroke="black" points="494.634,-449.807 499.541,-440.417 489.849,-444.698 494.634,-449.807"/>
</g>
<!-- kube_ca_bundle&#45;&gt;bootstrap_control_plane -->
<g id="edge29" class="edge"><title>kube_ca_bundle&#45;&gt;bootstrap_control_plane</title>
<path fill="none" stroke="black" d="M319.326,-679.203C406.547,-683.708 559.485,-680.731 671,-619.192 692.698,-607.218 684.667,-587.918 706.5,-576.192 741.79,-557.239 783.513,-547.891 823.302,-543.824"/>
<polygon fill="black" stroke="black" points="823.732,-547.3 833.371,-542.901 823.093,-540.329 823.732,-547.3"/>
</g>
<!-- kubelet_bundle&#45;&gt;manifests -->
<g id="edge70" class="edge"><title>kubelet_bundle&#45;&gt;manifests</title>
<path fill="none" stroke="black" d="M587.167,-414.651C744.787,-398.107 1136.94,-365.745 1239.5,-440.192 1263.45,-457.58 1319.74,-645.836 1342.35,-724.234"/>
<polygon fill="black" stroke="black" points="1339.06,-725.459 1345.18,-734.103 1345.79,-723.526 1339.06,-725.459"/>
</g>
<!-- kubelet_bundle&#45;&gt;kubeconfig_kubelet -->
<g id="edge37" class="edge"><title>kubelet_bundle&#45;&gt;kubeconfig_kubelet</title>
<path fill="none" stroke="black" d="M587.062,-428.783C663.668,-436.427 790.535,-449.086 877.543,-457.767"/>
<polygon fill="black" stroke="black" points="877.386,-461.269 887.684,-458.779 878.081,-454.303 877.386,-461.269"/>
</g>
<!-- openshift_apiserver_bundle&#45;&gt;manifests -->
<g id="edge71" class="edge"><title>openshift_apiserver_bundle&#45;&gt;manifests</title>
<path fill="none" stroke="black" d="M1086.78,-1156.13C1138.88,-1151.31 1198.2,-1136.92 1239.5,-1100.19 1330.83,-1018.98 1348.28,-862.297 1351.42,-792.82"/>
<polygon fill="black" stroke="black" points="1354.93,-792.568 1351.81,-782.443 1347.94,-792.304 1354.93,-792.568"/>
</g>
<!-- openshift_apiserver_bundle&#45;&gt;bootstrap_ignition -->
<g id="edge45" class="edge"><title>openshift_apiserver_bundle&#45;&gt;bootstrap_ignition</title>
<path fill="none" stroke="black" d="M1086.64,-1154.19C1150.42,-1154.19 1228.14,-1154.19 1282.94,-1154.19"/>
<polygon fill="black" stroke="black" points="1283.24,-1157.69 1293.24,-1154.19 1283.24,-1150.69 1283.24,-1157.69"/>
</g>
<!-- root_ca_bundle -->
<g id="node25" class="node"><title>root_ca_bundle</title>
<polygon fill="violet" stroke="violet" points="130.5,-623.192 -0.5,-623.192 -0.5,-587.192 130.5,-587.192 130.5,-623.192"/>
<text text-anchor="middle" x="65" y="-600.192" font-family="Times,serif" font-size="20.00">root ca crt/key</text>
</g>
<!-- root_ca_bundle&#45;&gt;manifests -->
<g id="edge72" class="edge"><title>root_ca_bundle&#45;&gt;manifests</title>
<path fill="none" stroke="black" d="M67.4231,-587.055C72.2434,-537.309 92.1179,-396.982 167,-315.192 233.492,-242.566 272.854,-245.446 369,-224.192 489.677,-197.515 1206.07,-190.921 1239.5,-220.192 1285.71,-260.658 1263.41,-434.068 1276,-494.192 1293.6,-578.264 1324.05,-674.701 1340.56,-724.499"/>
<polygon fill="black" stroke="black" points="1337.28,-725.729 1343.76,-734.108 1343.92,-723.514 1337.28,-725.729"/>
</g>
<!-- root_ca_bundle&#45;&gt;aggregator_ca_bundle -->
<g id="edge12" class="edge"><title>root_ca_bundle&#45;&gt;aggregator_ca_bundle</title>
<path fill="none" stroke="black" d="M80.3973,-623.477C120.741,-673.593 240.383,-814.688 369,-894.192 390.934,-907.75 416.769,-918.592 440.761,-926.898"/>
<polygon fill="black" stroke="black" points="439.964,-930.323 450.558,-930.188 442.192,-923.687 439.964,-930.323"/>
</g>
<!-- root_ca_bundle&#45;&gt;etcd_ca_bundle -->
<g id="edge11" class="edge"><title>root_ca_bundle&#45;&gt;etcd_ca_bundle</title>
<path fill="none" stroke="black" d="M78.5783,-587.115C110.247,-541.603 193.386,-422.118 230.568,-368.682"/>
<polygon fill="black" stroke="black" points="233.495,-370.603 236.334,-360.395 227.749,-366.605 233.495,-370.603"/>
</g>
<!-- root_ca_bundle&#45;&gt;kube_ca_bundle -->
<g id="edge10" class="edge"><title>root_ca_bundle&#45;&gt;kube_ca_bundle</title>
<path fill="none" stroke="black" d="M114.56,-623.236C138.023,-631.955 166.359,-642.484 190.954,-651.623"/>
<polygon fill="black" stroke="black" points="189.938,-654.979 200.531,-655.181 192.376,-648.417 189.938,-654.979"/>
</g>
<!-- service_serving_ca_bundle -->
<g id="node27" class="node"><title>service_serving_ca_bundle</title>
<polygon fill="violet" stroke="violet" points="1082.5,-1035.19 863.5,-1035.19 863.5,-999.192 1082.5,-999.192 1082.5,-1035.19"/>
<text text-anchor="middle" x="973" y="-1012.19" font-family="Times,serif" font-size="20.00">service serving ca crt/key</text>
</g>
<!-- root_ca_bundle&#45;&gt;service_serving_ca_bundle -->
<g id="edge13" class="edge"><title>root_ca_bundle&#45;&gt;service_serving_ca_bundle</title>
<path fill="none" stroke="black" d="M70.8591,-623.212C91.5818,-695.873 180.269,-967.655 369,-1056.19 490.516,-1113.2 539.775,-1084.4 671,-1056.19 687.92,-1052.56 689.753,-1044.56 706.5,-1040.19 753.633,-1027.91 806.9,-1021.84 853.285,-1018.95"/>
<polygon fill="black" stroke="black" points="853.599,-1022.44 863.379,-1018.36 853.193,-1015.45 853.599,-1022.44"/>
</g>
<!-- root_ca_bundle&#45;&gt;mcc_bundle -->
<g id="edge14" class="edge"><title>root_ca_bundle&#45;&gt;mcc_bundle</title>
<path fill="none" stroke="black" d="M66.9298,-623.403C71.5159,-705.677 94.5006,-1041.68 167,-1111.19 219.872,-1161.89 299.154,-1177.45 369.098,-1179.53"/>
<polygon fill="black" stroke="black" points="369.275,-1183.04 379.345,-1179.75 369.42,-1176.04 369.275,-1183.04"/>
</g>
<!-- root_ca_bundle&#45;&gt;bootstrap_control_plane -->
<g id="edge18" class="edge"><title>root_ca_bundle&#45;&gt;bootstrap_control_plane</title>
<path fill="none" stroke="black" d="M130.794,-601.115C274.473,-592.076 622.907,-570.155 823.369,-557.543"/>
<polygon fill="black" stroke="black" points="823.633,-561.033 833.393,-556.912 823.193,-554.047 823.633,-561.033"/>
</g>
<!-- root_ca_bundle&#45;&gt;master_ignition -->
<g id="edge19" class="edge"><title>root_ca_bundle&#45;&gt;master_ignition</title>
<path fill="none" stroke="black" d="M67.1862,-586.978C72.6566,-509.12 98.1845,-205.545 167,-146.192 347.532,9.51467 1060.84,37.6589 1239.5,-120.192 1288.84,-163.782 1242,-357.816 1276,-414.192 1283.02,-425.827 1293.68,-435.555 1304.81,-443.366"/>
<polygon fill="black" stroke="black" points="1303.09,-446.418 1313.37,-448.966 1306.92,-440.561 1303.09,-446.418"/>
</g>
<!-- worker_ignition -->
<g id="node34" class="node"><title>worker_ignition</title>
<polygon fill="sandybrown" stroke="sandybrown" points="1404.5,-405.192 1301.5,-405.192 1301.5,-369.192 1404.5,-369.192 1404.5,-405.192"/>
<text text-anchor="middle" x="1353" y="-382.192" font-family="Times,serif" font-size="20.00">worker.ign</text>
</g>
<!-- root_ca_bundle&#45;&gt;worker_ignition -->
<g id="edge20" class="edge"><title>root_ca_bundle&#45;&gt;worker_ignition</title>
<path fill="none" stroke="black" d="M66.8381,-587.079C71.1375,-502.064 93.4514,-143.48 167,-65.1919 230.4,2.29345 277.164,-26.0207 369,-14.1919 496.941,2.28734 1217.5,5.19012 1239.5,-11.1919 1296.79,-53.8463 1335.69,-278.788 1347.9,-358.861"/>
<polygon fill="black" stroke="black" points="1344.5,-359.794 1349.45,-369.165 1351.43,-358.756 1344.5,-359.794"/>
</g>
<!-- root_ca_bundle&#45;&gt;kubeconfig_admin -->
<g id="edge16" class="edge"><title>root_ca_bundle&#45;&gt;kubeconfig_admin</title>
<path fill="none" stroke="black" d="M67.6872,-623.331C75.7825,-707.754 112.508,-1062.1 167,-1157.19 225.913,-1260 262.16,-1279.95 369,-1331.19 492.086,-1390.23 575.165,-1289.98 671,-1387.19 736.837,-1453.98 645.015,-1524.38 706.5,-1595.19 750.219,-1645.54 823.783,-1666.32 882.404,-1674.77"/>
<polygon fill="black" stroke="black" points="882.042,-1678.25 892.419,-1676.11 882.974,-1671.31 882.042,-1678.25"/>
</g>
<!-- root_ca_bundle&#45;&gt;kubeconfig_kubelet -->
<g id="edge17" class="edge"><title>root_ca_bundle&#45;&gt;kubeconfig_kubelet</title>
<path fill="none" stroke="black" d="M130.567,-591.908C142.654,-589.563 155.197,-587.224 167,-585.192 423.162,-541.083 727.01,-499.415 877.622,-479.47"/>
<polygon fill="black" stroke="black" points="878.304,-482.911 887.759,-478.13 877.387,-475.971 878.304,-482.911"/>
</g>
<!-- service_account_bundle -->
<g id="node26" class="node"><title>service_account_bundle</title>
<polygon fill="violet" stroke="violet" points="1077,-1310.19 869,-1310.19 869,-1274.19 1077,-1274.19 1077,-1310.19"/>
<text text-anchor="middle" x="973" y="-1287.19" font-family="Times,serif" font-size="20.00">service account pub/key</text>
</g>
<!-- service_account_bundle&#45;&gt;manifests -->
<g id="edge73" class="edge"><title>service_account_bundle&#45;&gt;manifests</title>
<path fill="none" stroke="black" d="M1077.32,-1296.04C1132.29,-1292.49 1197.09,-1278.49 1239.5,-1237.19 1255.82,-1221.29 1323.1,-899.072 1345.05,-792.258"/>
<polygon fill="black" stroke="black" points="1348.5,-792.822 1347.08,-782.323 1341.65,-791.416 1348.5,-792.822"/>
</g>
<!-- service_account_bundle&#45;&gt;bootstrap_ignition -->
<g id="edge46" class="edge"><title>service_account_bundle&#45;&gt;bootstrap_ignition</title>
<path fill="none" stroke="black" d="M1077.1,-1281.37C1127.64,-1273.46 1188.46,-1259.98 1239.5,-1237.19 1271.73,-1222.8 1303.64,-1197.98 1325.2,-1179.22"/>
<polygon fill="black" stroke="black" points="1327.78,-1181.61 1332.94,-1172.36 1323.13,-1176.37 1327.78,-1181.61"/>
</g>
<!-- service_serving_ca_bundle&#45;&gt;manifests -->
<g id="edge74" class="edge"><title>service_serving_ca_bundle&#45;&gt;manifests</title>
<path fill="none" stroke="black" d="M1082.66,-1015.8C1134.4,-1010.27 1194.62,-996.245 1239.5,-963.192 1297.55,-920.444 1329.19,-838.367 1343.14,-792.089"/>
<polygon fill="black" stroke="black" points="1346.57,-792.815 1346,-782.236 1339.85,-790.862 1346.57,-792.815"/>
</g>
<!-- service_serving_ca_bundle&#45;&gt;bootstrap_ignition -->
<g id="edge47" class="edge"><title>service_serving_ca_bundle&#45;&gt;bootstrap_ignition</title>
<path fill="none" stroke="black" d="M1023.81,-1035.24C1093.07,-1060.35 1218.29,-1105.73 1292.42,-1132.6"/>
<polygon fill="black" stroke="black" points="1291.49,-1135.98 1302.08,-1136.1 1293.88,-1129.4 1291.49,-1135.98"/>
</g>
<!-- mcc_bundle&#45;&gt;manifests -->
<g id="edge75" class="edge"><title>mcc_bundle&#45;&gt;manifests</title>
<path fill="none" stroke="black" d="M602.084,-1148.18C634.484,-1141.23 672.185,-1133.47 706.5,-1127.19 942.334,-1084.07 1052.37,-1194.06 1239.5,-1044.19 1318.67,-980.793 1342.29,-853.86 1349.21,-792.699"/>
<polygon fill="black" stroke="black" points="1352.73,-792.731 1350.28,-782.422 1345.76,-792.004 1352.73,-792.731"/>
</g>
<!-- mcc_bundle&#45;&gt;bootstrap_ignition -->
<g id="edge48" class="edge"><title>mcc_bundle&#45;&gt;bootstrap_ignition</title>
<path fill="none" stroke="black" d="M560.535,-1184.3C595.588,-1202.55 645.118,-1234.16 671,-1277.19 725.672,-1368.09 626.113,-1443.99 706.5,-1513.19 796.266,-1590.46 1144.04,-1583.31 1239.5,-1513.19 1267.21,-1492.84 1325.44,-1263.13 1345.24,-1182.2"/>
<polygon fill="black" stroke="black" points="1348.7,-1182.78 1347.67,-1172.23 1341.9,-1181.12 1348.7,-1182.78"/>
</g>
<!-- operator_manifests&#45;&gt;manifests -->
<g id="edge76" class="edge"><title>operator_manifests&#45;&gt;manifests</title>
<path fill="none" stroke="black" d="M602.549,-1286.11C634.846,-1279.19 672.353,-1271.47 706.5,-1265.19 824.431,-1243.52 1150.44,-1261.47 1239.5,-1181.19 1298.07,-1128.4 1335.61,-883.208 1347.73,-792.259"/>
<polygon fill="black" stroke="black" points="1351.22,-792.574 1349.05,-782.203 1344.28,-791.663 1351.22,-792.574"/>
</g>
<!-- operator_manifests&#45;&gt;bootstrap_control_plane -->
<g id="edge49" class="edge"><title>operator_manifests&#45;&gt;bootstrap_control_plane</title>
<path fill="none" stroke="black" d="M561.75,-1286.04C597.121,-1267.95 646.407,-1236.6 671,-1193.19 751.126,-1051.77 639.164,-977.134 706.5,-829.192 758.971,-713.911 878.363,-615.89 937.496,-572.33"/>
<polygon fill="black" stroke="black" points="939.747,-575.02 945.768,-566.302 935.625,-569.362 939.747,-575.02"/>
</g>
<!-- misc_manifests -->
<g id="node31" class="node"><title>misc_manifests</title>
<polygon fill="lightpink" stroke="lightpink" points="1239.5,-1504.19 706.5,-1504.19 706.5,-1468.19 1239.5,-1468.19 1239.5,-1504.19"/>
<text text-anchor="middle" x="973" y="-1481.19" font-family="Times,serif" font-size="20.00">misc manifests (rbac, namespace, CRD, pod security policy, etc)</text>
</g>
<!-- operator_manifests&#45;&gt;misc_manifests -->
<g id="edge50" class="edge"><title>operator_manifests&#45;&gt;misc_manifests</title>
<path fill="none" stroke="black" d="M606.211,-1322.27C629.228,-1330.32 652.778,-1341.82 671,-1358.19 697.839,-1382.3 678.026,-1409.04 706.5,-1431.19 725.111,-1445.67 746.604,-1456.59 769.139,-1464.79"/>
<polygon fill="black" stroke="black" points="768.261,-1468.19 778.855,-1468.14 770.542,-1461.57 768.261,-1468.19"/>
</g>
<!-- operator_manifests&#45;&gt;bootstrap_ignition -->
<g id="edge51" class="edge"><title>operator_manifests&#45;&gt;bootstrap_ignition</title>
<path fill="none" stroke="black" d="M617.486,-1322.3C637.684,-1330.26 657.056,-1341.71 671,-1358.19 728.181,-1425.78 638.551,-1497.44 706.5,-1554.19 797.41,-1630.12 1145.09,-1625.71 1239.5,-1554.19 1247.2,-1548.36 1320.82,-1272.08 1344.62,-1182.15"/>
<polygon fill="black" stroke="black" points="1348.03,-1182.94 1347.2,-1172.38 1341.26,-1181.15 1348.03,-1182.94"/>
</g>
<!-- bootstrap_control_plane&#45;&gt;manifests -->
<g id="edge77" class="edge"><title>bootstrap_control_plane&#45;&gt;manifests</title>
<path fill="none" stroke="black" d="M1112.72,-557.358C1155.94,-565.167 1202.04,-578.988 1239.5,-603.192 1285.65,-633.007 1319.09,-688.907 1337.01,-724.798"/>
<polygon fill="black" stroke="black" points="1333.91,-726.445 1341.43,-733.908 1340.21,-723.384 1333.91,-726.445"/>
</g>
<!-- bootstrap_control_plane&#45;&gt;bootstrap_ignition -->
<g id="edge52" class="edge"><title>bootstrap_control_plane&#45;&gt;bootstrap_ignition</title>
<path fill="none" stroke="black" d="M996.943,-566.482C1047.61,-608.003 1170.07,-714.703 1239.5,-829.192 1300.42,-929.642 1334.15,-1067.66 1346.5,-1126.17"/>
<polygon fill="black" stroke="black" points="1343.11,-1127.05 1348.56,-1136.14 1349.97,-1125.64 1343.11,-1127.05"/>
</g>
<!-- misc_manifests&#45;&gt;manifests -->
<g id="edge78" class="edge"><title>misc_manifests&#45;&gt;manifests</title>
<path fill="none" stroke="black" d="M1026.37,-1468.1C1087.67,-1444.07 1187.41,-1395.56 1239.5,-1319.19 1288.44,-1247.43 1259.13,-1212.4 1276,-1127.19 1300.43,-1003.81 1331.04,-857.586 1344.76,-792.45"/>
<polygon fill="black" stroke="black" points="1348.25,-792.85 1346.89,-782.343 1341.41,-791.406 1348.25,-792.85"/>
</g>
<!-- misc_manifests&#45;&gt;bootstrap_ignition -->
<g id="edge53" class="edge"><title>misc_manifests&#45;&gt;bootstrap_ignition</title>
<path fill="none" stroke="black" d="M1171.89,-1468.13C1196.44,-1459.54 1219.79,-1447.61 1239.5,-1431.19 1317.42,-1366.27 1341.93,-1239.07 1349.17,-1182.49"/>
<polygon fill="black" stroke="black" points="1352.66,-1182.81 1350.37,-1172.47 1345.71,-1181.98 1352.66,-1182.81"/>
</g>
<!-- bootstrap_ignition&#45;&gt;ignition_configs -->
<g id="edge82" class="edge"><title>bootstrap_ignition&#45;&gt;ignition_configs</title>
<path fill="none" stroke="black" d="M1360.09,-1136.17C1391.24,-1043.92 1533,-624.133 1574.53,-501.146"/>
<polygon fill="black" stroke="black" points="1577.91,-502.085 1577.79,-491.491 1571.28,-499.846 1577.91,-502.085"/>
</g>
<!-- bootstrap_ignition&#45;&gt;terraform_state -->
<g id="edge56" class="edge"><title>bootstrap_ignition&#45;&gt;terraform_state</title>
<path fill="none" stroke="black" d="M1412.54,-1154.19C1450.78,-1154.19 1500.17,-1154.19 1536.46,-1154.19"/>
<polygon fill="black" stroke="black" points="1536.8,-1157.69 1546.8,-1154.19 1536.8,-1150.69 1536.8,-1157.69"/>
</g>
<!-- master_ignition&#45;&gt;ignition_configs -->
<g id="edge83" class="edge"><title>master_ignition&#45;&gt;ignition_configs</title>
<path fill="none" stroke="black" d="M1403.2,-467.192C1418.87,-467.192 1437.01,-467.192 1455.65,-467.192"/>
<polygon fill="black" stroke="black" points="1455.74,-470.692 1465.74,-467.192 1455.74,-463.692 1455.74,-470.692"/>
</g>
<!-- master_ignition&#45;&gt;terraform_state -->
<g id="edge57" class="edge"><title>master_ignition&#45;&gt;terraform_state</title>
<path fill="none" stroke="black" d="M1360.09,-485.214C1391.77,-579.036 1537.86,-1011.63 1576.57,-1126.26"/>
<polygon fill="black" stroke="black" points="1573.35,-1127.69 1579.87,-1136.04 1579.99,-1125.45 1573.35,-1127.69"/>
</g>
<!-- worker_ignition&#45;&gt;ignition_configs -->
<g id="edge84" class="edge"><title>worker_ignition&#45;&gt;ignition_configs</title>
<path fill="none" stroke="black" d="M1404.63,-404.649C1434.36,-414.901 1472.59,-428.086 1506.29,-439.705"/>
<polygon fill="black" stroke="black" points="1505.53,-443.145 1516.12,-443.096 1507.81,-436.527 1505.53,-443.145"/>
</g>
<!-- worker_ignition&#45;&gt;terraform_state -->
<g id="edge58" class="edge"><title>worker_ignition&#45;&gt;terraform_state</title>
<path fill="none" stroke="black" d="M1391.16,-405.363C1405.32,-414.051 1420.36,-425.741 1430,-440.192 1508.2,-557.376 1568.12,-1008.52 1582.63,-1126.06"/>
<polygon fill="black" stroke="black" points="1579.16,-1126.57 1583.85,-1136.07 1586.11,-1125.72 1579.16,-1126.57"/>
</g>
<!-- kubeconfig_admin&#45;&gt;manifests -->
<g id="edge80" class="edge"><title>kubeconfig_admin&#45;&gt;manifests</title>
<path fill="none" stroke="black" d="M1029.55,-1662.18C1092.19,-1638.67 1191.54,-1591.1 1239.5,-1513.19 1284.67,-1439.82 1263.24,-1212.4 1276,-1127.19 1294.63,-1002.81 1328.16,-857.085 1343.69,-792.263"/>
<polygon fill="black" stroke="black" points="1347.17,-792.748 1346.11,-782.206 1340.36,-791.11 1347.17,-792.748"/>
</g>
<!-- kubeconfig_admin&#45;&gt;cluster -->
<g id="edge81" class="edge"><title>kubeconfig_admin&#45;&gt;cluster</title>
<path fill="none" stroke="black" d="M1041.16,-1662.17C1095.53,-1646.76 1173.64,-1622.74 1239.5,-1595.19 1435,-1513.43 1654.2,-1388.12 1749.89,-1331.62"/>
<polygon fill="black" stroke="black" points="1751.94,-1334.48 1758.76,-1326.37 1748.37,-1328.46 1751.94,-1334.48"/>
</g>
<!-- kubeconfig_kubelet&#45;&gt;manifests -->
<g id="edge79" class="edge"><title>kubeconfig_kubelet&#45;&gt;manifests</title>
<path fill="none" stroke="black" d="M1058.03,-465.499C1114.7,-468.525 1188.2,-481.037 1239.5,-521.192 1305.23,-572.645 1334.51,-671.903 1345.84,-724.142"/>
<polygon fill="black" stroke="black" points="1342.41,-724.854 1347.87,-733.934 1349.26,-723.432 1342.41,-724.854"/>
</g>
<!-- kubeconfig_kubelet&#45;&gt;bootstrap_ignition -->
<g id="edge54" class="edge"><title>kubeconfig_kubelet&#45;&gt;bootstrap_ignition</title>
<path fill="none" stroke="black" d="M1058.22,-460.769C1117.43,-461.182 1193.94,-472.509 1239.5,-521.192 1280.87,-565.399 1265.73,-731.523 1276,-791.192 1297.63,-916.9 1331.29,-1065.43 1345.42,-1126.18"/>
<polygon fill="black" stroke="black" points="1342.06,-1127.21 1347.74,-1136.15 1348.88,-1125.62 1342.06,-1127.21"/>
</g>
<!-- kubeconfig_kubelet&#45;&gt;master_ignition -->
<g id="edge55" class="edge"><title>kubeconfig_kubelet&#45;&gt;master_ignition</title>
<path fill="none" stroke="black" d="M1058.36,-467.192C1129.57,-467.192 1229.73,-467.192 1292.72,-467.192"/>
<polygon fill="black" stroke="black" points="1292.89,-470.692 1302.89,-467.192 1292.89,-463.692 1292.89,-470.692"/>
</g>
<!-- terraform_state&#45;&gt;cluster -->
<g id="edge85" class="edge"><title>terraform_state&#45;&gt;cluster</title>
<path fill="none" stroke="black" d="M1613.87,-1172.34C1649.36,-1197.23 1713.59,-1242.29 1756.28,-1272.23"/>
<polygon fill="black" stroke="black" points="1754.32,-1275.12 1764.51,-1278 1758.33,-1269.39 1754.32,-1275.12"/>
</g>
</g>
</svg>
