<?xml version="1.0" encoding="UTF-8" standalone="no"?>
<!DOCTYPE svg PUBLIC "-//W3C//DTD SVG 1.1//EN"
 "http://www.w3.org/Graphics/SVG/1.1/DTD/svg11.dtd">
<!-- Generated by graphviz version 2.38.0 (20140413.2041)
 -->
<!-- Title: resource Pages: 1 -->
<svg width="1382pt" height="1296pt"
 viewBox="0.00 0.00 1382.46 1296.00" xmlns="http://www.w3.org/2000/svg" xmlns:xlink="http://www.w3.org/1999/xlink">
<g id="graph0" class="graph" transform="scale(0.741663 0.741663) rotate(0) translate(4 1743.42)">
<title>resource</title>
<polygon fill="white" stroke="none" points="-4,4 -4,-1743.42 1860,-1743.42 1860,4 -4,4"/>
<!-- install_cfg -->
<g id="node1" class="node"><title>install_cfg</title>
<polygon fill="white" stroke="yellowgreen" stroke-width="3" points="622,-440.488 418,-440.488 418,-392.488 622,-392.488 622,-440.488"/>
<text text-anchor="middle" x="520" y="-407.688" font-family="Times,serif" font-size="36.00">install config</text>
</g>
<!-- manifests -->
<g id="node2" class="node"><title>manifests</title>
<polygon fill="white" stroke="yellowgreen" stroke-width="3" points="1430,-959.488 1276,-959.488 1276,-911.488 1430,-911.488 1430,-959.488"/>
<text text-anchor="middle" x="1353" y="-926.688" font-family="Times,serif" font-size="36.00">manifests</text>
</g>
<!-- ignition_configs -->
<g id="node3" class="node"><title>ignition_configs</title>
<polygon fill="white" stroke="yellowgreen" stroke-width="3" points="1708,-1418.49 1466,-1418.49 1466,-1370.49 1708,-1370.49 1708,-1418.49"/>
<text text-anchor="middle" x="1587" y="-1385.69" font-family="Times,serif" font-size="36.00">ignition configs</text>
</g>
<!-- cluster -->
<g id="node4" class="node"><title>cluster</title>
<polygon fill="white" stroke="yellowgreen" stroke-width="3" points="1856,-1430.49 1744,-1430.49 1744,-1382.49 1856,-1382.49 1856,-1430.49"/>
<text text-anchor="middle" x="1800" y="-1397.69" font-family="Times,serif" font-size="36.00">cluster</text>
</g>
<!-- base_domain -->
<g id="node5" class="node"><title>base_domain</title>
<polygon fill="gainsboro" stroke="gainsboro" points="123,-686.488 7,-686.488 7,-650.488 123,-650.488 123,-686.488"/>
<text text-anchor="middle" x="65" y="-663.488" font-family="Times,serif" font-size="20.00">base domain</text>
</g>
<!-- install_config -->
<g id="node12" class="node"><title>install_config</title>
<polygon fill="lightcoral" stroke="lightcoral" points="333,-464.488 167,-464.488 167,-428.488 333,-428.488 333,-464.488"/>
<text text-anchor="middle" x="250" y="-441.488" font-family="Times,serif" font-size="20.00">install&#45;config.yaml</text>
</g>
<!-- base_domain&#45;&gt;install_config -->
<g id="edge7" class="edge"><title>base_domain&#45;&gt;install_config</title>
<path fill="none" stroke="black" d="M99.467,-650.264C110.731,-642.678 122.466,-632.946 130.5,-621.488 163.972,-573.751 131.389,-541.651 167,-495.488 174.913,-485.23 185.632,-476.67 196.708,-469.727"/>
<polygon fill="black" stroke="black" points="198.762,-472.579 205.62,-464.503 195.223,-466.54 198.762,-472.579"/>
</g>
<!-- cluster_name -->
<g id="node6" class="node"><title>cluster_name</title>
<polygon fill="gainsboro" stroke="gainsboro" points="124,-612.488 6,-612.488 6,-576.488 124,-576.488 124,-612.488"/>
<text text-anchor="middle" x="65" y="-589.488" font-family="Times,serif" font-size="20.00">cluster name</text>
</g>
<!-- cluster_name&#45;&gt;install_config -->
<g id="edge6" class="edge"><title>cluster_name&#45;&gt;install_config</title>
<path fill="none" stroke="black" d="M94.9083,-576.45C106.652,-568.381 119.916,-558.261 130.5,-547.488 150.289,-527.346 146.315,-514.708 167,-495.488 177.461,-485.768 190.161,-477.043 202.41,-469.744"/>
<polygon fill="black" stroke="black" points="204.285,-472.704 211.212,-464.687 200.797,-466.634 204.285,-472.704"/>
</g>
<!-- license -->
<g id="node7" class="node"><title>license</title>
<polygon fill="gainsboro" stroke="gainsboro" points="100.5,-538.488 29.5,-538.488 29.5,-502.488 100.5,-502.488 100.5,-538.488"/>
<text text-anchor="middle" x="65" y="-515.488" font-family="Times,serif" font-size="20.00">license</text>
</g>
<!-- license&#45;&gt;install_config -->
<g id="edge5" class="edge"><title>license&#45;&gt;install_config</title>
<path fill="none" stroke="black" d="M100.852,-506.395C127.334,-495.686 164.252,-480.757 194.61,-468.482"/>
<polygon fill="black" stroke="black" points="196.255,-471.592 204.214,-464.598 193.631,-465.102 196.255,-471.592"/>
</g>
<!-- pull_secret -->
<g id="node8" class="node"><title>pull_secret</title>
<polygon fill="gainsboro" stroke="gainsboro" points="114,-464.488 16,-464.488 16,-428.488 114,-428.488 114,-464.488"/>
<text text-anchor="middle" x="65" y="-441.488" font-family="Times,serif" font-size="20.00">pull secret</text>
</g>
<!-- pull_secret&#45;&gt;install_config -->
<g id="edge4" class="edge"><title>pull_secret&#45;&gt;install_config</title>
<path fill="none" stroke="black" d="M114.081,-446.488C127.246,-446.488 141.971,-446.488 156.723,-446.488"/>
<polygon fill="black" stroke="black" points="156.922,-449.988 166.922,-446.488 156.922,-442.988 156.922,-449.988"/>
</g>
<!-- platform -->
<g id="node9" class="node"><title>platform</title>
<polygon fill="gainsboro" stroke="gainsboro" points="107.5,-390.488 22.5,-390.488 22.5,-354.488 107.5,-354.488 107.5,-390.488"/>
<text text-anchor="middle" x="65" y="-367.488" font-family="Times,serif" font-size="20.00">platform</text>
</g>
<!-- platform&#45;&gt;install_config -->
<g id="edge2" class="edge"><title>platform&#45;&gt;install_config</title>
<path fill="none" stroke="black" d="M107.526,-389.279C133.373,-399.731 166.894,-413.286 194.819,-424.579"/>
<polygon fill="black" stroke="black" points="193.859,-427.965 204.442,-428.47 196.483,-421.476 193.859,-427.965"/>
</g>
<!-- email_address -->
<g id="node10" class="node"><title>email_address</title>
<polygon fill="gainsboro" stroke="gainsboro" points="127.5,-316.488 2.5,-316.488 2.5,-280.488 127.5,-280.488 127.5,-316.488"/>
<text text-anchor="middle" x="65" y="-293.488" font-family="Times,serif" font-size="20.00">email address</text>
</g>
<!-- email_address&#45;&gt;install_config -->
<g id="edge3" class="edge"><title>email_address&#45;&gt;install_config</title>
<path fill="none" stroke="black" d="M91.76,-316.576C103.702,-325.134 117.989,-335.621 130.5,-345.488 162.155,-370.453 197.146,-400.609 220.842,-421.434"/>
<polygon fill="black" stroke="black" points="218.608,-424.131 228.424,-428.118 223.237,-418.88 218.608,-424.131"/>
</g>
<!-- password -->
<g id="node11" class="node"><title>password</title>
<polygon fill="gainsboro" stroke="gainsboro" points="110.5,-242.488 19.5,-242.488 19.5,-206.488 110.5,-206.488 110.5,-242.488"/>
<text text-anchor="middle" x="65" y="-219.488" font-family="Times,serif" font-size="20.00">password</text>
</g>
<!-- password&#45;&gt;install_config -->
<g id="edge1" class="edge"><title>password&#45;&gt;install_config</title>
<path fill="none" stroke="black" d="M95.3221,-242.66C106.999,-250.679 120.103,-260.726 130.5,-271.488 175.316,-317.877 214.46,-383.075 234.589,-419.377"/>
<polygon fill="black" stroke="black" points="231.648,-421.292 239.521,-428.382 237.788,-417.93 231.648,-421.292"/>
</g>
<!-- install_config&#45;&gt;install_cfg -->
<g id="edge59" class="edge"><title>install_config&#45;&gt;install_cfg</title>
<path fill="none" stroke="black" d="M333.23,-437.283C356.626,-434.664 382.509,-431.766 407.34,-428.987"/>
<polygon fill="black" stroke="black" points="407.985,-432.437 417.534,-427.846 407.206,-425.48 407.985,-432.437"/>
</g>
<!-- apiserver_bundle -->
<g id="node15" class="node"><title>apiserver_bundle</title>
<polygon fill="violet" stroke="violet" points="594.5,-864.488 445.5,-864.488 445.5,-828.488 594.5,-828.488 594.5,-864.488"/>
<text text-anchor="middle" x="520" y="-841.488" font-family="Times,serif" font-size="20.00">apiserver crt/key</text>
</g>
<!-- install_config&#45;&gt;apiserver_bundle -->
<g id="edge25" class="edge"><title>install_config&#45;&gt;apiserver_bundle</title>
<path fill="none" stroke="black" d="M251.554,-464.861C254.308,-522.731 270.758,-703.091 369,-799.488 386.976,-817.126 411.485,-828.156 435.48,-835.049"/>
<polygon fill="black" stroke="black" points="434.787,-838.486 445.35,-837.669 436.583,-831.72 434.787,-838.486"/>
</g>
<!-- ingress_bundle -->
<g id="node20" class="node"><title>ingress_bundle</title>
<polygon fill="violet" stroke="violet" points="586,-790.488 454,-790.488 454,-754.488 586,-754.488 586,-790.488"/>
<text text-anchor="middle" x="520" y="-767.488" font-family="Times,serif" font-size="20.00">ingress crt/key</text>
</g>
<!-- install_config&#45;&gt;ingress_bundle -->
<g id="edge29" class="edge"><title>install_config&#45;&gt;ingress_bundle</title>
<path fill="none" stroke="black" d="M253.401,-464.837C260.862,-514.394 288.204,-652.134 369,-725.488 389.604,-744.194 417.593,-755.455 443.816,-762.234"/>
<polygon fill="black" stroke="black" points="443.219,-765.69 453.76,-764.619 444.852,-758.883 443.219,-765.69"/>
</g>
<!-- openshift_apiserver_bundle -->
<g id="node23" class="node"><title>openshift_apiserver_bundle</title>
<polygon fill="violet" stroke="violet" points="1086.5,-308.488 859.5,-308.488 859.5,-272.488 1086.5,-272.488 1086.5,-308.488"/>
<text text-anchor="middle" x="973" y="-285.488" font-family="Times,serif" font-size="20.00">openshift apiserver crt/key</text>
</g>
<!-- install_config&#45;&gt;openshift_apiserver_bundle -->
<g id="edge31" class="edge"><title>install_config&#45;&gt;openshift_apiserver_bundle</title>
<path fill="none" stroke="black" d="M278.406,-428.404C301.585,-413.975 336.173,-394.429 369,-383.488 529.787,-329.899 725.141,-306.968 849.043,-297.306"/>
<polygon fill="black" stroke="black" points="849.616,-300.772 859.321,-296.522 849.084,-293.793 849.616,-300.772"/>
</g>
<!-- mcc_bundle -->
<g id="node27" class="node"><title>mcc_bundle</title>
<polygon fill="violet" stroke="violet" points="660.5,-516.488 379.5,-516.488 379.5,-480.488 660.5,-480.488 660.5,-516.488"/>
<text text-anchor="middle" x="520" y="-493.488" font-family="Times,serif" font-size="20.00">machine config controller crt/key</text>
</g>
<!-- install_config&#45;&gt;mcc_bundle -->
<g id="edge14" class="edge"><title>install_config&#45;&gt;mcc_bundle</title>
<path fill="none" stroke="black" d="M333.23,-462.443C359.404,-467.521 388.693,-473.204 416.136,-478.529"/>
<polygon fill="black" stroke="black" points="415.671,-482.004 426.154,-480.473 417.004,-475.132 415.671,-482.004"/>
</g>
<!-- operator_manifests -->
<g id="node28" class="node"><title>operator_manifests</title>
<polygon fill="lightpink" stroke="lightpink" points="671,-716.488 369,-716.488 369,-680.488 671,-680.488 671,-716.488"/>
<text text-anchor="middle" x="520" y="-693.488" font-family="Times,serif" font-size="20.00">operator manifests and their configs</text>
</g>
<!-- install_config&#45;&gt;operator_manifests -->
<g id="edge8" class="edge"><title>install_config&#45;&gt;operator_manifests</title>
<path fill="none" stroke="black" d="M256.368,-464.545C269.13,-504.362 305.096,-600.224 369,-651.488 382.346,-662.194 398.152,-670.475 414.412,-676.877"/>
<polygon fill="black" stroke="black" points="413.43,-680.245 424.023,-680.433 415.859,-673.68 413.43,-680.245"/>
</g>
<!-- terraform_state -->
<g id="node36" class="node"><title>terraform_state</title>
<polygon fill="gold" stroke="gold" points="1627,-1330.49 1547,-1330.49 1547,-1294.49 1627,-1294.49 1627,-1330.49"/>
<text text-anchor="middle" x="1587" y="-1307.49" font-family="Times,serif" font-size="20.00">*.tfstate</text>
</g>
<!-- install_config&#45;&gt;terraform_state -->
<g id="edge60" class="edge"><title>install_config&#45;&gt;terraform_state</title>
<path fill="none" stroke="black" d="M264.482,-428.472C314.199,-363.846 495.369,-143.983 706.5,-77.4877 932.448,-6.32572 1041.39,52.387 1239.5,-77.4877 1454.87,-218.678 1563.91,-1112.83 1582.96,-1284.14"/>
<polygon fill="black" stroke="black" points="1579.49,-1284.59 1584.06,-1294.15 1586.44,-1283.82 1579.49,-1284.59"/>
</g>
<!-- admin_bundle -->
<g id="node13" class="node"><title>admin_bundle</title>
<polygon fill="violet" stroke="violet" points="583,-1272.49 457,-1272.49 457,-1236.49 583,-1236.49 583,-1272.49"/>
<text text-anchor="middle" x="520" y="-1249.49" font-family="Times,serif" font-size="20.00">admin crt/key</text>
</g>
<!-- admin_bundle&#45;&gt;manifests -->
<g id="edge61" class="edge"><title>admin_bundle&#45;&gt;manifests</title>
<path fill="none" stroke="black" d="M583.068,-1258.33C737.75,-1266.68 1135.41,-1280.12 1239.5,-1205.49 1317.56,-1149.52 1341.68,-1028.86 1348.96,-969.662"/>
<polygon fill="black" stroke="black" points="1352.44,-970.023 1350.1,-959.69 1345.49,-969.23 1352.44,-970.023"/>
</g>
<!-- kubeconfig -->
<g id="node35" class="node"><title>kubeconfig</title>
<polygon fill="lightblue" stroke="lightblue" points="1025.5,-1524.49 920.5,-1524.49 920.5,-1488.49 1025.5,-1488.49 1025.5,-1524.49"/>
<text text-anchor="middle" x="973" y="-1501.49" font-family="Times,serif" font-size="20.00">kubeconfig</text>
</g>
<!-- admin_bundle&#45;&gt;kubeconfig -->
<g id="edge35" class="edge"><title>admin_bundle&#45;&gt;kubeconfig</title>
<path fill="none" stroke="black" d="M531.502,-1272.65C556.199,-1313.54 622.288,-1412.91 706.5,-1459.49 769.934,-1494.58 853.778,-1504.41 910.126,-1506.71"/>
<polygon fill="black" stroke="black" points="910.204,-1510.21 920.317,-1507.05 910.441,-1503.21 910.204,-1510.21"/>
</g>
<!-- aggregator_ca_bundle -->
<g id="node14" class="node"><title>aggregator_ca_bundle</title>
<polygon fill="violet" stroke="violet" points="612.5,-642.488 427.5,-642.488 427.5,-606.488 612.5,-606.488 612.5,-642.488"/>
<text text-anchor="middle" x="520" y="-619.488" font-family="Times,serif" font-size="20.00">aggregator ca crt/key</text>
</g>
<!-- aggregator_ca_bundle&#45;&gt;manifests -->
<g id="edge62" class="edge"><title>aggregator_ca_bundle&#45;&gt;manifests</title>
<path fill="none" stroke="black" d="M612.673,-638.794C633.891,-645.759 654.932,-656.11 671,-671.488 704.468,-703.518 669.858,-741.144 706.5,-769.488 800.598,-842.276 1132.23,-768.05 1239.5,-819.488 1277.85,-837.876 1310.23,-875.163 1330.26,-902.518"/>
<polygon fill="black" stroke="black" points="1327.67,-904.907 1336.32,-911.014 1333.36,-900.841 1327.67,-904.907"/>
</g>
<!-- apiserver_proxy_bundle -->
<g id="node16" class="node"><title>apiserver_proxy_bundle</title>
<polygon fill="violet" stroke="violet" points="1073,-686.488 873,-686.488 873,-650.488 1073,-650.488 1073,-686.488"/>
<text text-anchor="middle" x="973" y="-663.488" font-family="Times,serif" font-size="20.00">apiserver proxy crt/key</text>
</g>
<!-- aggregator_ca_bundle&#45;&gt;apiserver_proxy_bundle -->
<g id="edge32" class="edge"><title>aggregator_ca_bundle&#45;&gt;apiserver_proxy_bundle</title>
<path fill="none" stroke="black" d="M612.538,-633.418C684.859,-640.474 786.016,-650.343 862.603,-657.815"/>
<polygon fill="black" stroke="black" points="862.473,-661.319 872.766,-658.806 863.153,-654.352 862.473,-661.319"/>
</g>
<!-- clusterapi_apiserver_bundle -->
<g id="node17" class="node"><title>clusterapi_apiserver_bundle</title>
<polygon fill="violet" stroke="violet" points="1088.5,-382.488 857.5,-382.488 857.5,-346.488 1088.5,-346.488 1088.5,-382.488"/>
<text text-anchor="middle" x="973" y="-359.488" font-family="Times,serif" font-size="20.00">clusterapi apiserver crt/key</text>
</g>
<!-- aggregator_ca_bundle&#45;&gt;clusterapi_apiserver_bundle -->
<g id="edge33" class="edge"><title>aggregator_ca_bundle&#45;&gt;clusterapi_apiserver_bundle</title>
<path fill="none" stroke="black" d="M612.631,-610.833C634.36,-603.562 655.653,-592.451 671,-575.488 720.449,-520.828 653.522,-464.735 706.5,-413.488 743.455,-377.74 797.487,-363.631 847.176,-359.18"/>
<polygon fill="black" stroke="black" points="847.676,-362.652 857.377,-358.394 847.137,-355.673 847.676,-362.652"/>
</g>
<!-- aggregator_ca_bundle&#45;&gt;openshift_apiserver_bundle -->
<g id="edge30" class="edge"><title>aggregator_ca_bundle&#45;&gt;openshift_apiserver_bundle</title>
<path fill="none" stroke="black" d="M612.644,-611.787C634.639,-604.518 656.059,-593.17 671,-575.488 740.026,-493.797 631.91,-414.131 706.5,-337.488 743.076,-299.906 798.485,-286.216 849.24,-282.704"/>
<polygon fill="black" stroke="black" points="849.536,-286.193 859.322,-282.134 849.14,-279.204 849.536,-286.193"/>
</g>
<!-- bootstrap_ignition -->
<g id="node31" class="node"><title>bootstrap_ignition</title>
<polygon fill="sandybrown" stroke="sandybrown" points="1412.5,-560.488 1293.5,-560.488 1293.5,-524.488 1412.5,-524.488 1412.5,-560.488"/>
<text text-anchor="middle" x="1353" y="-537.488" font-family="Times,serif" font-size="20.00">bootstrap.ign</text>
</g>
<!-- aggregator_ca_bundle&#45;&gt;bootstrap_ignition -->
<g id="edge34" class="edge"><title>aggregator_ca_bundle&#45;&gt;bootstrap_ignition</title>
<path fill="none" stroke="black" d="M612.671,-612.261C634.801,-604.998 656.282,-593.533 671,-575.488 715.104,-521.412 654.443,-309.957 706.5,-263.488 794.86,-184.611 1141.33,-197.221 1239.5,-263.488 1324.87,-321.116 1345.47,-455.545 1350.43,-514.234"/>
<polygon fill="black" stroke="black" points="1346.95,-514.566 1351.19,-524.275 1353.93,-514.041 1346.95,-514.566"/>
</g>
<!-- apiserver_bundle&#45;&gt;manifests -->
<g id="edge63" class="edge"><title>apiserver_bundle&#45;&gt;manifests</title>
<path fill="none" stroke="black" d="M593.695,-864.604C618.962,-872.348 646.971,-882.616 671,-895.488 688.713,-904.976 687.577,-916.726 706.5,-923.488 896.616,-991.426 1138.76,-969.702 1265.6,-950.856"/>
<polygon fill="black" stroke="black" points="1266.28,-954.292 1275.65,-949.333 1265.23,-947.371 1266.28,-954.292"/>
</g>
<!-- bootstrap_control_plane -->
<g id="node29" class="node"><title>bootstrap_control_plane</title>
<polygon fill="lightpink" stroke="lightpink" points="1112.5,-1042.49 833.5,-1042.49 833.5,-1006.49 1112.5,-1006.49 1112.5,-1042.49"/>
<text text-anchor="middle" x="973" y="-1019.49" font-family="Times,serif" font-size="20.00">bootstrap control plane manifests</text>
</g>
<!-- apiserver_bundle&#45;&gt;bootstrap_control_plane -->
<g id="edge36" class="edge"><title>apiserver_bundle&#45;&gt;bootstrap_control_plane</title>
<path fill="none" stroke="black" d="M594.866,-857.706C621.408,-864.838 649.955,-876.485 671,-895.488 699.871,-921.557 675.958,-951.398 706.5,-975.488 739.549,-1001.55 782.082,-1015.36 823.378,-1022.31"/>
<polygon fill="black" stroke="black" points="822.861,-1025.77 833.28,-1023.85 823.937,-1018.85 822.861,-1025.77"/>
</g>
<!-- apiserver_proxy_bundle&#45;&gt;manifests -->
<g id="edge64" class="edge"><title>apiserver_proxy_bundle&#45;&gt;manifests</title>
<path fill="none" stroke="black" d="M1073.17,-665.412C1127.02,-668.489 1192.07,-680.423 1239.5,-715.488 1301.81,-761.56 1332.2,-852.161 1344.69,-901.504"/>
<polygon fill="black" stroke="black" points="1341.33,-902.485 1347.09,-911.376 1348.13,-900.832 1341.33,-902.485"/>
</g>
<!-- apiserver_proxy_bundle&#45;&gt;bootstrap_ignition -->
<g id="edge37" class="edge"><title>apiserver_proxy_bundle&#45;&gt;bootstrap_ignition</title>
<path fill="none" stroke="black" d="M1028.16,-650.435C1096.93,-627.512 1215.4,-588.022 1288.39,-563.69"/>
<polygon fill="black" stroke="black" points="1289.56,-566.99 1297.94,-560.507 1287.35,-560.349 1289.56,-566.99"/>
</g>
<!-- clusterapi_apiserver_bundle&#45;&gt;manifests -->
<g id="edge65" class="edge"><title>clusterapi_apiserver_bundle&#45;&gt;manifests</title>
<path fill="none" stroke="black" d="M1032.18,-382.509C1092.9,-404.31 1186.5,-446.874 1239.5,-515.488 1331.83,-635.022 1348.56,-824.277 1351.46,-901.242"/>
<polygon fill="black" stroke="black" points="1347.96,-901.456 1351.78,-911.338 1354.96,-901.231 1347.96,-901.456"/>
</g>
<!-- clusterapi_apiserver_bundle&#45;&gt;bootstrap_ignition -->
<g id="edge38" class="edge"><title>clusterapi_apiserver_bundle&#45;&gt;bootstrap_ignition</title>
<path fill="none" stroke="black" d="M1088.55,-368.922C1137.62,-374.919 1193.99,-387.55 1239.5,-413.488 1282.55,-438.025 1317.25,-485.329 1336.21,-515.33"/>
<polygon fill="black" stroke="black" points="1333.35,-517.366 1341.58,-524.04 1339.31,-513.692 1333.35,-517.366"/>
</g>
<!-- etcd_ca_bundle -->
<g id="node18" class="node"><title>etcd_ca_bundle</title>
<polygon fill="violet" stroke="violet" points="316.5,-1209.49 183.5,-1209.49 183.5,-1173.49 316.5,-1173.49 316.5,-1209.49"/>
<text text-anchor="middle" x="250" y="-1186.49" font-family="Times,serif" font-size="20.00">etcd ca crt/key</text>
</g>
<!-- etcd_ca_bundle&#45;&gt;manifests -->
<g id="edge66" class="edge"><title>etcd_ca_bundle&#45;&gt;manifests</title>
<path fill="none" stroke="black" d="M316.52,-1191.46C524.64,-1190.89 1161.59,-1185.13 1239.5,-1136.49 1300.02,-1098.71 1330.83,-1015.96 1343.94,-969.276"/>
<polygon fill="black" stroke="black" points="1347.32,-970.18 1346.55,-959.614 1340.56,-968.358 1347.32,-970.18"/>
</g>
<!-- etcd_client_bundle -->
<g id="node19" class="node"><title>etcd_client_bundle</title>
<polygon fill="violet" stroke="violet" points="599,-1094.49 441,-1094.49 441,-1058.49 599,-1058.49 599,-1094.49"/>
<text text-anchor="middle" x="520" y="-1071.49" font-family="Times,serif" font-size="20.00">etcd client crt/key</text>
</g>
<!-- etcd_ca_bundle&#45;&gt;etcd_client_bundle -->
<g id="edge20" class="edge"><title>etcd_ca_bundle&#45;&gt;etcd_client_bundle</title>
<path fill="none" stroke="black" d="M293.17,-1173.39C340.254,-1153.19 416.483,-1120.48 467.167,-1098.73"/>
<polygon fill="black" stroke="black" points="468.824,-1101.83 476.634,-1094.67 466.064,-1095.39 468.824,-1101.83"/>
</g>
<!-- etcd_ca_bundle&#45;&gt;bootstrap_control_plane -->
<g id="edge22" class="edge"><title>etcd_ca_bundle&#45;&gt;bootstrap_control_plane</title>
<path fill="none" stroke="black" d="M295.074,-1173.4C308.689,-1166.08 322.777,-1156.47 333,-1144.49 362.304,-1110.14 332.383,-1075.91 369,-1049.49 438.946,-999.023 668.319,-1003.13 823.133,-1012.48"/>
<polygon fill="black" stroke="black" points="823.023,-1015.98 833.22,-1013.11 823.455,-1009 823.023,-1015.98"/>
</g>
<!-- master_ignition -->
<g id="node32" class="node"><title>master_ignition</title>
<polygon fill="sandybrown" stroke="sandybrown" points="1403,-1450.49 1303,-1450.49 1303,-1414.49 1403,-1414.49 1403,-1450.49"/>
<text text-anchor="middle" x="1353" y="-1427.49" font-family="Times,serif" font-size="20.00">master.ign</text>
</g>
<!-- etcd_ca_bundle&#45;&gt;master_ignition -->
<g id="edge21" class="edge"><title>etcd_ca_bundle&#45;&gt;master_ignition</title>
<path fill="none" stroke="black" d="M261.374,-1209.68C279.813,-1240.8 320.908,-1304.9 369,-1346.49 498.708,-1458.66 540.472,-1490.57 706.5,-1533.49 935.849,-1592.78 1018.28,-1618.22 1239.5,-1533.49 1278.48,-1518.56 1312.44,-1483.2 1332.58,-1458.56"/>
<polygon fill="black" stroke="black" points="1335.38,-1460.66 1338.87,-1450.66 1329.9,-1456.3 1335.38,-1460.66"/>
</g>
<!-- etcd_client_bundle&#45;&gt;manifests -->
<g id="edge67" class="edge"><title>etcd_client_bundle&#45;&gt;manifests</title>
<path fill="none" stroke="black" d="M599.119,-1092.01C735.778,-1115.29 1024.17,-1147.07 1239.5,-1051.49 1278.77,-1034.06 1311.32,-995.963 1331.13,-968.169"/>
<polygon fill="black" stroke="black" points="1334.04,-970.12 1336.87,-959.909 1328.29,-966.128 1334.04,-970.12"/>
</g>
<!-- etcd_client_bundle&#45;&gt;bootstrap_control_plane -->
<g id="edge39" class="edge"><title>etcd_client_bundle&#45;&gt;bootstrap_control_plane</title>
<path fill="none" stroke="black" d="M599.043,-1067.49C660.69,-1060.38 748.52,-1050.25 823.463,-1041.61"/>
<polygon fill="black" stroke="black" points="823.942,-1045.08 833.475,-1040.46 823.14,-1038.13 823.942,-1045.08"/>
</g>
<!-- ingress_bundle&#45;&gt;manifests -->
<g id="edge68" class="edge"><title>ingress_bundle&#45;&gt;manifests</title>
<path fill="none" stroke="black" d="M586.304,-783.006C614.378,-789.919 646.333,-801.209 671,-819.488 693.483,-836.148 682.42,-857.232 706.5,-871.488 808.907,-932.113 1121.11,-911.399 1239.5,-923.488 1248.02,-924.357 1256.9,-925.279 1265.77,-926.21"/>
<polygon fill="black" stroke="black" points="1265.45,-929.695 1275.76,-927.262 1266.18,-922.734 1265.45,-929.695"/>
</g>
<!-- ingress_bundle&#45;&gt;bootstrap_ignition -->
<g id="edge43" class="edge"><title>ingress_bundle&#45;&gt;bootstrap_ignition</title>
<path fill="none" stroke="black" d="M586.317,-767.394C616.308,-761.636 649.832,-749.755 671,-725.488 733.224,-654.156 634.204,-576.588 706.5,-515.488 796.964,-439.033 1121.88,-501.57 1239.5,-515.488 1253.84,-517.185 1269,-520.059 1283.39,-523.314"/>
<polygon fill="black" stroke="black" points="1282.68,-526.741 1293.21,-525.62 1284.28,-519.926 1282.68,-526.741"/>
</g>
<!-- kube_ca_bundle -->
<g id="node21" class="node"><title>kube_ca_bundle</title>
<polygon fill="violet" stroke="violet" points="319,-1135.49 181,-1135.49 181,-1099.49 319,-1099.49 319,-1135.49"/>
<text text-anchor="middle" x="250" y="-1112.49" font-family="Times,serif" font-size="20.00">kube ca crt/key</text>
</g>
<!-- kube_ca_bundle&#45;&gt;manifests -->
<g id="edge69" class="edge"><title>kube_ca_bundle&#45;&gt;manifests</title>
<path fill="none" stroke="black" d="M319.189,-1123.97C515.896,-1141.45 1080.46,-1182.73 1239.5,-1097.49 1290.69,-1070.05 1323.44,-1007.85 1339.7,-968.998"/>
<polygon fill="black" stroke="black" points="1342.98,-970.242 1343.49,-959.66 1336.49,-967.615 1342.98,-970.242"/>
</g>
<!-- kube_ca_bundle&#45;&gt;admin_bundle -->
<g id="edge23" class="edge"><title>kube_ca_bundle&#45;&gt;admin_bundle</title>
<path fill="none" stroke="black" d="M286.312,-1135.54C334.717,-1160.28 421.674,-1204.74 474.483,-1231.73"/>
<polygon fill="black" stroke="black" points="473.113,-1234.96 483.61,-1236.4 476.299,-1228.73 473.113,-1234.96"/>
</g>
<!-- kube_ca_bundle&#45;&gt;apiserver_bundle -->
<g id="edge24" class="edge"><title>kube_ca_bundle&#45;&gt;apiserver_bundle</title>
<path fill="none" stroke="black" d="M260.65,-1099.23C278.719,-1066.21 320.263,-995.539 369,-947.488 400.946,-915.991 443.963,-888.188 475.74,-869.768"/>
<polygon fill="black" stroke="black" points="477.852,-872.592 484.8,-864.593 474.38,-866.514 477.852,-872.592"/>
</g>
<!-- kube_ca_bundle&#45;&gt;ingress_bundle -->
<g id="edge27" class="edge"><title>kube_ca_bundle&#45;&gt;ingress_bundle</title>
<path fill="none" stroke="black" d="M252.812,-1099.42C258.95,-1047.89 283.6,-898.839 369,-819.488 389.475,-800.463 417.575,-789.138 443.922,-782.397"/>
<polygon fill="black" stroke="black" points="444.989,-785.741 453.914,-780.031 443.377,-778.929 444.989,-785.741"/>
</g>
<!-- kubelet_bundle -->
<g id="node22" class="node"><title>kubelet_bundle</title>
<polygon fill="violet" stroke="violet" points="1040,-1376.49 906,-1376.49 906,-1340.49 1040,-1340.49 1040,-1376.49"/>
<text text-anchor="middle" x="973" y="-1353.49" font-family="Times,serif" font-size="20.00">kubelet crt/key</text>
</g>
<!-- kube_ca_bundle&#45;&gt;kubelet_bundle -->
<g id="edge26" class="edge"><title>kube_ca_bundle&#45;&gt;kubelet_bundle</title>
<path fill="none" stroke="black" d="M296.381,-1135.66C309.754,-1142.9 323.368,-1152.44 333,-1164.49 366.973,-1206.98 327.376,-1246.45 369,-1281.49 519.546,-1408.2 770.664,-1391.18 895.998,-1372.58"/>
<polygon fill="black" stroke="black" points="896.542,-1376.04 905.899,-1371.07 895.486,-1369.12 896.542,-1376.04"/>
</g>
<!-- kube_ca_bundle&#45;&gt;bootstrap_control_plane -->
<g id="edge28" class="edge"><title>kube_ca_bundle&#45;&gt;bootstrap_control_plane</title>
<path fill="none" stroke="black" d="M262.364,-1099.12C280.766,-1071.36 320.017,-1019.78 369,-999.488 550.066,-924.488 788.455,-972.433 903.737,-1003.7"/>
<polygon fill="black" stroke="black" points="902.928,-1007.11 913.498,-1006.39 904.786,-1000.36 902.928,-1007.11"/>
</g>
<!-- kubelet_bundle&#45;&gt;manifests -->
<g id="edge70" class="edge"><title>kubelet_bundle&#45;&gt;manifests</title>
<path fill="none" stroke="black" d="M1040.1,-1364.26C1099.47,-1365.7 1185.39,-1357.97 1239.5,-1309.49 1339.86,-1219.57 1352.2,-1043.88 1352.7,-969.769"/>
<polygon fill="black" stroke="black" points="1356.2,-969.593 1352.69,-959.594 1349.2,-969.595 1356.2,-969.593"/>
</g>
<!-- kubelet_bundle&#45;&gt;bootstrap_ignition -->
<g id="edge40" class="edge"><title>kubelet_bundle&#45;&gt;bootstrap_ignition</title>
<path fill="none" stroke="black" d="M995.931,-1340.25C1047.25,-1296.3 1175.64,-1178.7 1239.5,-1051.49 1250.59,-1029.4 1324.72,-674.16 1346.18,-570.608"/>
<polygon fill="black" stroke="black" points="1349.66,-571.087 1348.26,-560.585 1342.8,-569.667 1349.66,-571.087"/>
</g>
<!-- kubelet_bundle&#45;&gt;master_ignition -->
<g id="edge41" class="edge"><title>kubelet_bundle&#45;&gt;master_ignition</title>
<path fill="none" stroke="black" d="M1040.22,-1369.07C1094.06,-1377.95 1171.91,-1391.41 1239.5,-1405.49 1256.92,-1409.12 1275.76,-1413.47 1292.95,-1417.61"/>
<polygon fill="black" stroke="black" points="1292.32,-1421.06 1302.86,-1420.01 1293.97,-1414.25 1292.32,-1421.06"/>
</g>
<!-- worker_ignition -->
<g id="node33" class="node"><title>worker_ignition</title>
<polygon fill="sandybrown" stroke="sandybrown" points="1404.5,-1376.49 1301.5,-1376.49 1301.5,-1340.49 1404.5,-1340.49 1404.5,-1376.49"/>
<text text-anchor="middle" x="1353" y="-1353.49" font-family="Times,serif" font-size="20.00">worker.ign</text>
</g>
<!-- kubelet_bundle&#45;&gt;worker_ignition -->
<g id="edge42" class="edge"><title>kubelet_bundle&#45;&gt;worker_ignition</title>
<path fill="none" stroke="black" d="M1040.28,-1358.49C1111.07,-1358.49 1222.33,-1358.49 1291.02,-1358.49"/>
<polygon fill="black" stroke="black" points="1291.25,-1361.99 1301.25,-1358.49 1291.25,-1354.99 1291.25,-1361.99"/>
</g>
<!-- openshift_apiserver_bundle&#45;&gt;manifests -->
<g id="edge71" class="edge"><title>openshift_apiserver_bundle&#45;&gt;manifests</title>
<path fill="none" stroke="black" d="M1086.54,-282.267C1139.87,-284.663 1200.33,-297.556 1239.5,-337.488 1276.05,-374.743 1266.64,-518.145 1276,-569.488 1298.34,-691.954 1329.87,-836.384 1344.28,-901.103"/>
<polygon fill="black" stroke="black" points="1340.93,-902.156 1346.52,-911.154 1347.76,-900.631 1340.93,-902.156"/>
</g>
<!-- openshift_apiserver_bundle&#45;&gt;bootstrap_ignition -->
<g id="edge44" class="edge"><title>openshift_apiserver_bundle&#45;&gt;bootstrap_ignition</title>
<path fill="none" stroke="black" d="M1086.76,-288.979C1137.48,-293.394 1195.66,-306.051 1239.5,-337.488 1300.87,-381.491 1332.45,-469.779 1345.13,-514.765"/>
<polygon fill="black" stroke="black" points="1341.76,-515.712 1347.76,-524.448 1348.52,-513.88 1341.76,-515.712"/>
</g>
<!-- root_ca_bundle -->
<g id="node24" class="node"><title>root_ca_bundle</title>
<polygon fill="violet" stroke="violet" points="130.5,-1209.49 -0.5,-1209.49 -0.5,-1173.49 130.5,-1173.49 130.5,-1209.49"/>
<text text-anchor="middle" x="65" y="-1186.49" font-family="Times,serif" font-size="20.00">root ca crt/key</text>
</g>
<!-- root_ca_bundle&#45;&gt;manifests -->
<g id="edge72" class="edge"><title>root_ca_bundle&#45;&gt;manifests</title>
<path fill="none" stroke="black" d="M111.526,-1209.52C170.011,-1231.64 275.188,-1267.85 369,-1281.49 560.57,-1309.34 1084.44,-1364.38 1239.5,-1248.49 1329.1,-1181.52 1347.51,-1036.68 1351.17,-970.163"/>
<polygon fill="black" stroke="black" points="1354.69,-969.962 1351.66,-959.809 1347.69,-969.635 1354.69,-969.962"/>
</g>
<!-- root_ca_bundle&#45;&gt;aggregator_ca_bundle -->
<g id="edge11" class="edge"><title>root_ca_bundle&#45;&gt;aggregator_ca_bundle</title>
<path fill="none" stroke="black" d="M69.4962,-1173.41C79.3128,-1125.47 110.19,-992.156 167,-895.488 234.922,-779.911 256.16,-743.865 369,-671.488 385.801,-660.711 405.247,-652.256 424.454,-645.675"/>
<polygon fill="black" stroke="black" points="425.741,-648.936 434.155,-642.498 423.562,-642.284 425.741,-648.936"/>
</g>
<!-- root_ca_bundle&#45;&gt;etcd_ca_bundle -->
<g id="edge10" class="edge"><title>root_ca_bundle&#45;&gt;etcd_ca_bundle</title>
<path fill="none" stroke="black" d="M130.519,-1191.49C144.265,-1191.49 158.903,-1191.49 173.031,-1191.49"/>
<polygon fill="black" stroke="black" points="173.21,-1194.99 183.21,-1191.49 173.209,-1187.99 173.21,-1194.99"/>
</g>
<!-- root_ca_bundle&#45;&gt;kube_ca_bundle -->
<g id="edge9" class="edge"><title>root_ca_bundle&#45;&gt;kube_ca_bundle</title>
<path fill="none" stroke="black" d="M110.767,-1173.39C136.118,-1163.13 168.011,-1150.24 194.773,-1139.42"/>
<polygon fill="black" stroke="black" points="196.42,-1142.52 204.379,-1135.53 193.796,-1136.04 196.42,-1142.52"/>
</g>
<!-- service_serving_ca_bundle -->
<g id="node26" class="node"><title>service_serving_ca_bundle</title>
<polygon fill="violet" stroke="violet" points="1082.5,-182.488 863.5,-182.488 863.5,-146.488 1082.5,-146.488 1082.5,-182.488"/>
<text text-anchor="middle" x="973" y="-159.488" font-family="Times,serif" font-size="20.00">service serving ca crt/key</text>
</g>
<!-- root_ca_bundle&#45;&gt;service_serving_ca_bundle -->
<g id="edge12" class="edge"><title>root_ca_bundle&#45;&gt;service_serving_ca_bundle</title>
<path fill="none" stroke="black" d="M67.4856,-1173.39C74.3963,-1093.05 105.687,-769.312 167,-691.488 228.281,-613.705 275.475,-630.024 369,-597.488 499.323,-552.15 579.64,-628.895 671,-525.488 765.743,-418.251 607.501,-308.809 706.5,-205.488 743.633,-166.733 801.031,-154.536 852.973,-152.851"/>
<polygon fill="black" stroke="black" points="853.351,-156.344 863.28,-152.649 853.214,-149.346 853.351,-156.344"/>
</g>
<!-- root_ca_bundle&#45;&gt;mcc_bundle -->
<g id="edge13" class="edge"><title>root_ca_bundle&#45;&gt;mcc_bundle</title>
<path fill="none" stroke="black" d="M68.2369,-1173.28C80.8973,-1070.86 143.821,-570.271 167,-547.488 219.216,-496.164 298.656,-481.893 368.862,-481.351"/>
<polygon fill="black" stroke="black" points="369.143,-484.851 379.149,-481.368 369.155,-477.852 369.143,-484.851"/>
</g>
<!-- root_ca_bundle&#45;&gt;bootstrap_control_plane -->
<g id="edge17" class="edge"><title>root_ca_bundle&#45;&gt;bootstrap_control_plane</title>
<path fill="none" stroke="black" d="M80.5364,-1173.26C120.33,-1125.13 236.922,-995.56 369,-955.488 497.441,-916.519 537.629,-940.397 671,-955.488 713.061,-960.247 817.759,-985.388 891.817,-1003.96"/>
<polygon fill="black" stroke="black" points="891.047,-1007.37 901.599,-1006.42 892.754,-1000.58 891.047,-1007.37"/>
</g>
<!-- root_ca_bundle&#45;&gt;master_ignition -->
<g id="edge18" class="edge"><title>root_ca_bundle&#45;&gt;master_ignition</title>
<path fill="none" stroke="black" d="M65.2229,-1209.85C63.9234,-1266.7 68.4706,-1440.85 167,-1521.49 536.331,-1823.75 809.846,-1782.25 1239.5,-1574.49 1288.59,-1550.75 1322.79,-1494.03 1339.75,-1459.89"/>
<polygon fill="black" stroke="black" points="1343.09,-1461.03 1344.27,-1450.5 1336.78,-1457.99 1343.09,-1461.03"/>
</g>
<!-- root_ca_bundle&#45;&gt;worker_ignition -->
<g id="edge19" class="edge"><title>root_ca_bundle&#45;&gt;worker_ignition</title>
<path fill="none" stroke="black" d="M67.1704,-1209.61C71.3449,-1259.26 89.7218,-1398.83 167,-1475.49 234.458,-1542.4 275.303,-1529.71 369,-1545.49 528.663,-1572.37 1198.3,-1565.27 1239.5,-1533.49 1286.34,-1497.36 1240.32,-1452.68 1276,-1405.49 1282.95,-1396.3 1292.26,-1388.49 1301.98,-1382.03"/>
<polygon fill="black" stroke="black" points="1303.92,-1384.94 1310.57,-1376.69 1300.23,-1378.99 1303.92,-1384.94"/>
</g>
<!-- kubelet_kubeconfig -->
<g id="node34" class="node"><title>kubelet_kubeconfig</title>
<polygon fill="lightblue" stroke="lightblue" points="1058,-1450.49 888,-1450.49 888,-1414.49 1058,-1414.49 1058,-1450.49"/>
<text text-anchor="middle" x="973" y="-1427.49" font-family="Times,serif" font-size="20.00">kubeconfig&#45;kubelet</text>
</g>
<!-- root_ca_bundle&#45;&gt;kubelet_kubeconfig -->
<g id="edge16" class="edge"><title>root_ca_bundle&#45;&gt;kubelet_kubeconfig</title>
<path fill="none" stroke="black" d="M69.4289,-1209.75C77.9356,-1249.36 104.047,-1342.81 167,-1383.49 281.972,-1457.78 690.921,-1447.17 877.711,-1438.01"/>
<polygon fill="black" stroke="black" points="877.979,-1441.5 887.792,-1437.51 877.63,-1434.51 877.979,-1441.5"/>
</g>
<!-- root_ca_bundle&#45;&gt;kubeconfig -->
<g id="edge15" class="edge"><title>root_ca_bundle&#45;&gt;kubeconfig</title>
<path fill="none" stroke="black" d="M68.205,-1209.53C74.584,-1253.32 97.2851,-1365.62 167,-1419.49 391.857,-1593.23 763.546,-1546.83 909.972,-1519.62"/>
<polygon fill="black" stroke="black" points="910.946,-1523 920.12,-1517.7 909.643,-1516.12 910.946,-1523"/>
</g>
<!-- service_account_bundle -->
<g id="node25" class="node"><title>service_account_bundle</title>
<polygon fill="violet" stroke="violet" points="1077,-560.488 869,-560.488 869,-524.488 1077,-524.488 1077,-560.488"/>
<text text-anchor="middle" x="973" y="-537.488" font-family="Times,serif" font-size="20.00">service account pub/key</text>
</g>
<!-- service_account_bundle&#45;&gt;manifests -->
<g id="edge73" class="edge"><title>service_account_bundle&#45;&gt;manifests</title>
<path fill="none" stroke="black" d="M1077.1,-537.564C1131.32,-540.379 1195.49,-552.992 1239.5,-591.488 1332.4,-672.739 1348.97,-831.815 1351.65,-901.462"/>
<polygon fill="black" stroke="black" points="1348.15,-901.572 1351.96,-911.458 1355.15,-901.354 1348.15,-901.572"/>
</g>
<!-- service_account_bundle&#45;&gt;bootstrap_ignition -->
<g id="edge45" class="edge"><title>service_account_bundle&#45;&gt;bootstrap_ignition</title>
<path fill="none" stroke="black" d="M1077.29,-542.488C1142.76,-542.488 1225.64,-542.488 1283.16,-542.488"/>
<polygon fill="black" stroke="black" points="1283.24,-545.988 1293.24,-542.488 1283.24,-538.988 1283.24,-545.988"/>
</g>
<!-- service_serving_ca_bundle&#45;&gt;manifests -->
<g id="edge74" class="edge"><title>service_serving_ca_bundle&#45;&gt;manifests</title>
<path fill="none" stroke="black" d="M1082.56,-177.982C1138.07,-190.709 1201.72,-215.438 1239.5,-263.488 1281.83,-317.322 1264.97,-501.899 1276,-569.488 1296.05,-692.35 1328.72,-836.582 1343.84,-901.178"/>
<polygon fill="black" stroke="black" points="1340.51,-902.274 1346.2,-911.208 1347.32,-900.673 1340.51,-902.274"/>
</g>
<!-- service_serving_ca_bundle&#45;&gt;bootstrap_ignition -->
<g id="edge46" class="edge"><title>service_serving_ca_bundle&#45;&gt;bootstrap_ignition</title>
<path fill="none" stroke="black" d="M1082.79,-160.149C1135.66,-163.625 1196.83,-176.666 1239.5,-213.488 1331.31,-292.705 1348.31,-450.176 1351.37,-514.315"/>
<polygon fill="black" stroke="black" points="1347.88,-514.623 1351.77,-524.477 1354.87,-514.346 1347.88,-514.623"/>
</g>
<!-- mcc_bundle&#45;&gt;manifests -->
<g id="edge75" class="edge"><title>mcc_bundle&#45;&gt;manifests</title>
<path fill="none" stroke="black" d="M560.298,-516.592C597.264,-532.879 654.544,-556.226 706.5,-569.488 822.307,-599.047 1145.8,-567.286 1239.5,-641.488 1321.51,-706.436 1343.78,-838.641 1349.79,-901.203"/>
<polygon fill="black" stroke="black" points="1346.32,-901.68 1350.68,-911.336 1353.29,-901.068 1346.32,-901.68"/>
</g>
<!-- mcc_bundle&#45;&gt;bootstrap_ignition -->
<g id="edge47" class="edge"><title>mcc_bundle&#45;&gt;bootstrap_ignition</title>
<path fill="none" stroke="black" d="M628.105,-480.405C644.535,-473.238 659.745,-463.287 671,-449.488 715.104,-395.412 654.443,-183.957 706.5,-137.488 794.86,-58.611 1145.2,-65.8138 1239.5,-137.488 1300.86,-184.129 1337.56,-429.557 1348.51,-513.953"/>
<polygon fill="black" stroke="black" points="1345.07,-514.615 1349.81,-524.092 1352.01,-513.73 1345.07,-514.615"/>
</g>
<!-- operator_manifests&#45;&gt;manifests -->
<g id="edge76" class="edge"><title>operator_manifests&#45;&gt;manifests</title>
<path fill="none" stroke="black" d="M619.056,-716.494C637.781,-723.282 656.145,-732.627 671,-745.488 698.578,-769.364 676.609,-798.58 706.5,-819.488 804.018,-887.699 1126.07,-835.496 1239.5,-871.488 1264.13,-879.302 1289.33,-893.008 1309.62,-905.737"/>
<polygon fill="black" stroke="black" points="1307.98,-908.844 1318.29,-911.301 1311.76,-902.953 1307.98,-908.844"/>
</g>
<!-- operator_manifests&#45;&gt;bootstrap_control_plane -->
<g id="edge48" class="edge"><title>operator_manifests&#45;&gt;bootstrap_control_plane</title>
<path fill="none" stroke="black" d="M625.876,-716.532C642.644,-723.329 658.545,-732.666 671,-745.488 711.538,-787.22 670.768,-825.573 706.5,-871.488 757.595,-937.144 845.341,-979.68 905.892,-1002.84"/>
<polygon fill="black" stroke="black" points="904.775,-1006.16 915.367,-1006.39 907.232,-999.605 904.775,-1006.16"/>
</g>
<!-- misc_manifests -->
<g id="node30" class="node"><title>misc_manifests</title>
<polygon fill="lightpink" stroke="lightpink" points="1239.5,-760.488 706.5,-760.488 706.5,-724.488 1239.5,-724.488 1239.5,-760.488"/>
<text text-anchor="middle" x="973" y="-737.488" font-family="Times,serif" font-size="20.00">misc manifests (rbac, namespace, CRD, pod security policy, etc)</text>
</g>
<!-- operator_manifests&#45;&gt;misc_manifests -->
<g id="edge49" class="edge"><title>operator_manifests&#45;&gt;misc_manifests</title>
<path fill="none" stroke="black" d="M671.176,-713.139C705.139,-716.452 741.676,-720.017 777.18,-723.481"/>
<polygon fill="black" stroke="black" points="776.87,-726.967 787.163,-724.455 777.55,-720 776.87,-726.967"/>
</g>
<!-- operator_manifests&#45;&gt;bootstrap_ignition -->
<g id="edge50" class="edge"><title>operator_manifests&#45;&gt;bootstrap_ignition</title>
<path fill="none" stroke="black" d="M629.095,-680.35C644.905,-673.539 659.653,-664.222 671,-651.488 726.989,-588.655 641.652,-519.129 706.5,-465.488 797.767,-389.993 1126.35,-430.473 1239.5,-465.488 1272.38,-475.662 1304.21,-499.124 1325.57,-517.495"/>
<polygon fill="black" stroke="black" points="1323.41,-520.256 1333.22,-524.247 1328.04,-515.007 1323.41,-520.256"/>
</g>
<!-- bootstrap_control_plane&#45;&gt;manifests -->
<g id="edge77" class="edge"><title>bootstrap_control_plane&#45;&gt;manifests</title>
<path fill="none" stroke="black" d="M1094.18,-1006.48C1140.02,-998.521 1192.53,-988.086 1239.5,-975.488 1252.87,-971.901 1266.92,-967.463 1280.39,-962.862"/>
<polygon fill="black" stroke="black" points="1281.78,-966.085 1290.08,-959.493 1279.48,-959.473 1281.78,-966.085"/>
</g>
<!-- bootstrap_control_plane&#45;&gt;bootstrap_ignition -->
<g id="edge51" class="edge"><title>bootstrap_control_plane&#45;&gt;bootstrap_ignition</title>
<path fill="none" stroke="black" d="M997.941,-1006.27C1047.95,-967.289 1165.04,-871.01 1239.5,-769.488 1287.53,-704.01 1324.79,-614.914 1341.84,-570.319"/>
<polygon fill="black" stroke="black" points="1345.2,-571.332 1345.45,-560.74 1338.65,-568.863 1345.2,-571.332"/>
</g>
<!-- misc_manifests&#45;&gt;manifests -->
<g id="edge78" class="edge"><title>misc_manifests&#45;&gt;manifests</title>
<path fill="none" stroke="black" d="M1165.85,-760.561C1191.72,-767.879 1217.05,-777.879 1239.5,-791.488 1283.51,-818.174 1316.93,-868.875 1335.5,-902.431"/>
<polygon fill="black" stroke="black" points="1332.51,-904.266 1340.34,-911.407 1338.67,-900.944 1332.51,-904.266"/>
</g>
<!-- misc_manifests&#45;&gt;bootstrap_ignition -->
<g id="edge52" class="edge"><title>misc_manifests&#45;&gt;bootstrap_ignition</title>
<path fill="none" stroke="black" d="M1173.42,-724.476C1196.71,-717.44 1219.32,-708.026 1239.5,-695.488 1288.39,-665.108 1322.92,-605.005 1339.94,-569.85"/>
<polygon fill="black" stroke="black" points="1343.18,-571.18 1344.27,-560.642 1336.85,-568.2 1343.18,-571.18"/>
</g>
<!-- bootstrap_ignition&#45;&gt;ignition_configs -->
<g id="edge82" class="edge"><title>bootstrap_ignition&#45;&gt;ignition_configs</title>
<path fill="none" stroke="black" d="M1358.7,-560.699C1372.07,-613.287 1410.65,-770.071 1430,-902.488 1444.09,-998.903 1410.05,-1259.71 1466,-1339.49 1473.27,-1349.85 1482.99,-1358.3 1493.76,-1365.19"/>
<polygon fill="black" stroke="black" points="1492.2,-1368.33 1502.6,-1370.38 1495.75,-1362.29 1492.2,-1368.33"/>
</g>
<!-- bootstrap_ignition&#45;&gt;terraform_state -->
<g id="edge56" class="edge"><title>bootstrap_ignition&#45;&gt;terraform_state</title>
<path fill="none" stroke="black" d="M1359.51,-560.762C1390.21,-662.667 1540.24,-1160.6 1577.57,-1284.52"/>
<polygon fill="black" stroke="black" points="1574.31,-1285.82 1580.55,-1294.38 1581.01,-1283.8 1574.31,-1285.82"/>
</g>
<!-- master_ignition&#45;&gt;ignition_configs -->
<g id="edge83" class="edge"><title>master_ignition&#45;&gt;ignition_configs</title>
<path fill="none" stroke="black" d="M1403.2,-1424.43C1418.87,-1421.86 1437.01,-1418.89 1455.65,-1415.84"/>
<polygon fill="black" stroke="black" points="1456.44,-1419.26 1465.74,-1414.19 1455.31,-1412.35 1456.44,-1419.26"/>
</g>
<!-- master_ignition&#45;&gt;terraform_state -->
<g id="edge57" class="edge"><title>master_ignition&#45;&gt;terraform_state</title>
<path fill="none" stroke="black" d="M1383.74,-1414.42C1397.83,-1405.77 1414.86,-1395.21 1430,-1385.49 1446.18,-1375.1 1449.01,-1370.5 1466,-1361.49 1488.68,-1349.45 1514.99,-1338.41 1537.18,-1329.87"/>
<polygon fill="black" stroke="black" points="1538.63,-1333.06 1546.73,-1326.24 1536.14,-1326.52 1538.63,-1333.06"/>
</g>
<!-- worker_ignition&#45;&gt;ignition_configs -->
<g id="edge84" class="edge"><title>worker_ignition&#45;&gt;ignition_configs</title>
<path fill="none" stroke="black" d="M1404.63,-1366.34C1419.93,-1368.72 1437.48,-1371.44 1455.5,-1374.24"/>
<polygon fill="black" stroke="black" points="1455.14,-1377.72 1465.56,-1375.8 1456.21,-1370.81 1455.14,-1377.72"/>
</g>
<!-- worker_ignition&#45;&gt;terraform_state -->
<g id="edge58" class="edge"><title>worker_ignition&#45;&gt;terraform_state</title>
<path fill="none" stroke="black" d="M1404.63,-1348.45C1443.91,-1340.66 1498.06,-1329.92 1536.94,-1322.22"/>
<polygon fill="black" stroke="black" points="1537.85,-1325.6 1546.98,-1320.22 1536.49,-1318.74 1537.85,-1325.6"/>
</g>
<!-- kubelet_kubeconfig&#45;&gt;manifests -->
<g id="edge79" class="edge"><title>kubelet_kubeconfig&#45;&gt;manifests</title>
<path fill="none" stroke="black" d="M1058.3,-1439.81C1116.39,-1440.08 1191.49,-1430.26 1239.5,-1385.49 1301.03,-1328.11 1337.06,-1064.61 1348.23,-969.69"/>
<polygon fill="black" stroke="black" points="1351.74,-969.824 1349.41,-959.488 1344.79,-969.02 1351.74,-969.824"/>
</g>
<!-- kubelet_kubeconfig&#45;&gt;bootstrap_ignition -->
<g id="edge53" class="edge"><title>kubelet_kubeconfig&#45;&gt;bootstrap_ignition</title>
<path fill="none" stroke="black" d="M1058.21,-1442.14C1117.82,-1443.88 1194.82,-1434.86 1239.5,-1385.49 1275.61,-1345.58 1268.4,-955.768 1276,-902.488 1293.83,-777.51 1329.43,-630.941 1344.73,-570.605"/>
<polygon fill="black" stroke="black" points="1348.18,-571.247 1347.26,-560.693 1341.4,-569.517 1348.18,-571.247"/>
</g>
<!-- kubelet_kubeconfig&#45;&gt;master_ignition -->
<g id="edge54" class="edge"><title>kubelet_kubeconfig&#45;&gt;master_ignition</title>
<path fill="none" stroke="black" d="M1058.36,-1432.49C1129.57,-1432.49 1229.73,-1432.49 1292.72,-1432.49"/>
<polygon fill="black" stroke="black" points="1292.89,-1435.99 1302.89,-1432.49 1292.89,-1428.99 1292.89,-1435.99"/>
</g>
<!-- kubelet_kubeconfig&#45;&gt;worker_ignition -->
<g id="edge55" class="edge"><title>kubelet_kubeconfig&#45;&gt;worker_ignition</title>
<path fill="none" stroke="black" d="M1058.25,-1418.91C1110.57,-1410.15 1179.12,-1398.06 1239.5,-1385.49 1256.51,-1381.94 1274.88,-1377.71 1291.73,-1373.66"/>
<polygon fill="black" stroke="black" points="1292.57,-1377.06 1301.46,-1371.3 1290.92,-1370.26 1292.57,-1377.06"/>
</g>
<!-- kubeconfig&#45;&gt;manifests -->
<g id="edge80" class="edge"><title>kubeconfig&#45;&gt;manifests</title>
<path fill="none" stroke="black" d="M1025.68,-1512.94C1085.38,-1517.29 1182.64,-1514.32 1239.5,-1459.49 1257.52,-1442.11 1324.79,-1083.4 1345.73,-969.725"/>
<polygon fill="black" stroke="black" points="1349.19,-970.281 1347.56,-959.813 1342.31,-969.015 1349.19,-970.281"/>
</g>
<!-- kubeconfig&#45;&gt;cluster -->
<g id="edge81" class="edge"><title>kubeconfig&#45;&gt;cluster</title>
<path fill="none" stroke="black" d="M1025.93,-1503.17C1146.43,-1494.99 1454.13,-1471.25 1708,-1427.49 1716.47,-1426.03 1725.34,-1424.27 1734.08,-1422.4"/>
<polygon fill="black" stroke="black" points="1734.84,-1425.82 1743.86,-1420.26 1733.34,-1418.98 1734.84,-1425.82"/>
</g>
<!-- terraform_state&#45;&gt;cluster -->
<g id="edge85" class="edge"><title>terraform_state&#45;&gt;cluster</title>
<path fill="none" stroke="black" d="M1627.21,-1327.68C1650.8,-1337.02 1681.33,-1349.47 1708,-1361.49 1719.41,-1366.63 1731.49,-1372.38 1743,-1378.01"/>
<polygon fill="black" stroke="black" points="1741.56,-1381.2 1752.08,-1382.48 1744.65,-1374.92 1741.56,-1381.2"/>
</g>
</g>
</svg>
