<?xml version="1.0" encoding="UTF-8" standalone="no"?>
<!DOCTYPE svg PUBLIC "-//W3C//DTD SVG 1.1//EN"
 "http://www.w3.org/Graphics/SVG/1.1/DTD/svg11.dtd">
<!-- Generated by graphviz version 2.40.1 (20161225.0304)
 -->
<!-- Title: resource Pages: 1 -->
<svg width="1577pt" height="1296pt"
 viewBox="0.00 0.00 1577.02 1296.00" xmlns="http://www.w3.org/2000/svg" xmlns:xlink="http://www.w3.org/1999/xlink">
<g id="graph0" class="graph" transform="scale(.6131 .6131) rotate(0) translate(4 2109.6771)">
<title>resource</title>
<polygon fill="#ffffff" stroke="transparent" points="-4,4 -4,-2109.6771 2568,-2109.6771 2568,4 -4,4"/>
<!-- install_cfg -->
<g id="node1" class="node">
<title>install_cfg</title>
<polygon fill="#ffffff" stroke="#9acd32" stroke-width="3" points="783,-168.2249 531,-168.2249 531,-120.2249 783,-120.2249 783,-168.2249"/>
<text text-anchor="middle" x="657" y="-135.4249" font-family="Times,serif" font-size="36.00" fill="#000000">install config</text>
</g>
<!-- manifests -->
<g id="node2" class="node">
<title>manifests</title>
<polygon fill="#ffffff" stroke="#9acd32" stroke-width="3" points="2050,-1225.2249 1856,-1225.2249 1856,-1177.2249 2050,-1177.2249 2050,-1225.2249"/>
<text text-anchor="middle" x="1953" y="-1192.4249" font-family="Times,serif" font-size="36.00" fill="#000000">manifests</text>
</g>
<!-- ignition_configs -->
<g id="node3" class="node">
<title>ignition_configs</title>
<polygon fill="#ffffff" stroke="#9acd32" stroke-width="3" points="2384.5,-1836.2249 2085.5,-1836.2249 2085.5,-1788.2249 2384.5,-1788.2249 2384.5,-1836.2249"/>
<text text-anchor="middle" x="2235" y="-1803.4249" font-family="Times,serif" font-size="36.00" fill="#000000">ignition configs</text>
</g>
<!-- cluster -->
<g id="node4" class="node">
<title>cluster</title>
<polygon fill="#ffffff" stroke="#9acd32" stroke-width="3" points="2563.5,-547.2249 2420.5,-547.2249 2420.5,-499.2249 2563.5,-499.2249 2563.5,-547.2249"/>
<text text-anchor="middle" x="2492" y="-514.4249" font-family="Times,serif" font-size="36.00" fill="#000000">cluster</text>
</g>
<!-- base_domain -->
<g id="node5" class="node">
<title>base_domain</title>
<polygon fill="#dcdcdc" stroke="#dcdcdc" points="156,-459.2249 10,-459.2249 10,-423.2249 156,-423.2249 156,-459.2249"/>
<text text-anchor="middle" x="83" y="-436.2249" font-family="Times,serif" font-size="20.00" fill="#000000">base domain</text>
</g>
<!-- install_config -->
<g id="node12" class="node">
<title>install_config</title>
<polygon fill="#f08080" stroke="#f08080" points="425,-294.2249 219,-294.2249 219,-258.2249 425,-258.2249 425,-294.2249"/>
<text text-anchor="middle" x="322" y="-271.2249" font-family="Times,serif" font-size="20.00" fill="#000000">install&#45;config.yaml</text>
</g>
<!-- base_domain&#45;&gt;install_config -->
<g id="edge7" class="edge">
<title>base_domain&#45;&gt;install_config</title>
<path fill="none" stroke="#000000" d="M116.9711,-423.1002C133.1006,-413.4824 151.976,-400.6685 166.5,-386.2249 186.9526,-365.8855 180.6351,-351.0378 202.5,-332.2249 218.7686,-318.2271 239.1311,-306.9754 258.4135,-298.3342"/>
<polygon fill="#000000" stroke="#000000" points="259.972,-301.4738 267.7699,-294.3014 257.2012,-295.0455 259.972,-301.4738"/>
</g>
<!-- cluster_name -->
<g id="node6" class="node">
<title>cluster_name</title>
<polygon fill="#dcdcdc" stroke="#dcdcdc" points="158.5,-377.2249 7.5,-377.2249 7.5,-341.2249 158.5,-341.2249 158.5,-377.2249"/>
<text text-anchor="middle" x="83" y="-354.2249" font-family="Times,serif" font-size="20.00" fill="#000000">cluster name</text>
</g>
<!-- cluster_name&#45;&gt;install_config -->
<g id="edge6" class="edge">
<title>cluster_name&#45;&gt;install_config</title>
<path fill="none" stroke="#000000" d="M134.8594,-341.2151C171.6893,-328.4248 221.3004,-311.1959 260.1882,-297.6909"/>
<polygon fill="#000000" stroke="#000000" points="261.5313,-300.9296 269.8296,-294.3426 259.2348,-294.317 261.5313,-300.9296"/>
</g>
<!-- license -->
<g id="node7" class="node">
<title>license</title>
<polygon fill="#dcdcdc" stroke="#dcdcdc" points="127.5,-294.2249 38.5,-294.2249 38.5,-258.2249 127.5,-258.2249 127.5,-294.2249"/>
<text text-anchor="middle" x="83" y="-271.2249" font-family="Times,serif" font-size="20.00" fill="#000000">license</text>
</g>
<!-- license&#45;&gt;install_config -->
<g id="edge5" class="edge">
<title>license&#45;&gt;install_config</title>
<path fill="none" stroke="#000000" d="M127.6737,-276.2249C150.6972,-276.2249 179.9214,-276.2249 208.6684,-276.2249"/>
<polygon fill="#000000" stroke="#000000" points="208.8057,-279.725 218.8056,-276.2249 208.8056,-272.725 208.8057,-279.725"/>
</g>
<!-- pull_secret -->
<g id="node8" class="node">
<title>pull_secret</title>
<polygon fill="#dcdcdc" stroke="#dcdcdc" points="146,-211.2249 20,-211.2249 20,-175.2249 146,-175.2249 146,-211.2249"/>
<text text-anchor="middle" x="83" y="-188.2249" font-family="Times,serif" font-size="20.00" fill="#000000">pull secret</text>
</g>
<!-- pull_secret&#45;&gt;install_config -->
<g id="edge4" class="edge">
<title>pull_secret&#45;&gt;install_config</title>
<path fill="none" stroke="#000000" d="M134.8594,-211.2346C171.6893,-224.0249 221.3004,-241.2539 260.1882,-254.7589"/>
<polygon fill="#000000" stroke="#000000" points="259.2348,-258.1328 269.8296,-258.1071 261.5313,-251.5202 259.2348,-258.1328"/>
</g>
<!-- platform -->
<g id="node9" class="node">
<title>platform</title>
<polygon fill="#dcdcdc" stroke="#dcdcdc" points="135.5,-128.2249 30.5,-128.2249 30.5,-92.2249 135.5,-92.2249 135.5,-128.2249"/>
<text text-anchor="middle" x="83" y="-105.2249" font-family="Times,serif" font-size="20.00" fill="#000000">platform</text>
</g>
<!-- platform&#45;&gt;install_config -->
<g id="edge2" class="edge">
<title>platform&#45;&gt;install_config</title>
<path fill="none" stroke="#000000" d="M110.5701,-128.4657C126.8996,-139.3315 147.9571,-153.4513 166.5,-166.2249 208.8164,-195.3754 257.054,-229.6662 288.4333,-252.1167"/>
<polygon fill="#000000" stroke="#000000" points="286.6497,-255.1443 296.8179,-258.1208 290.7252,-249.453 286.6497,-255.1443"/>
</g>
<!-- email_address -->
<g id="node10" class="node">
<title>email_address</title>
<polygon fill="#dcdcdc" stroke="#dcdcdc" points="163.5,-45.2249 2.5,-45.2249 2.5,-9.2249 163.5,-9.2249 163.5,-45.2249"/>
<text text-anchor="middle" x="83" y="-22.2249" font-family="Times,serif" font-size="20.00" fill="#000000">email address</text>
</g>
<!-- email_address&#45;&gt;install_config -->
<g id="edge3" class="edge">
<title>email_address&#45;&gt;install_config</title>
<path fill="none" stroke="#000000" d="M114.7774,-45.3681C131.0986,-55.4471 150.7985,-68.8397 166.5,-83.2249 223.6294,-135.5649 277.3237,-209.76 304.1511,-249.1709"/>
<polygon fill="#000000" stroke="#000000" points="301.5792,-251.6169 310.0732,-257.9495 307.3822,-247.7021 301.5792,-251.6169"/>
</g>
<!-- password -->
<g id="node11" class="node">
<title>password</title>
<polygon fill="#dcdcdc" stroke="#dcdcdc" points="140,-542.2249 26,-542.2249 26,-506.2249 140,-506.2249 140,-542.2249"/>
<text text-anchor="middle" x="83" y="-519.2249" font-family="Times,serif" font-size="20.00" fill="#000000">password</text>
</g>
<!-- password&#45;&gt;install_config -->
<g id="edge1" class="edge">
<title>password&#45;&gt;install_config</title>
<path fill="none" stroke="#000000" d="M121.7643,-506.1115C137.7495,-496.8509 155.1506,-484.1425 166.5,-468.2249 202.7996,-417.3144 162.427,-380.2216 202.5,-332.2249 214.5799,-317.7564 231.2363,-306.8039 248.2805,-298.6018"/>
<polygon fill="#000000" stroke="#000000" points="250.0872,-301.6265 257.7627,-294.3232 247.2082,-295.2459 250.0872,-301.6265"/>
</g>
<!-- install_config&#45;&gt;install_cfg -->
<g id="edge66" class="edge">
<title>install_config&#45;&gt;install_cfg</title>
<path fill="none" stroke="#000000" d="M363.0253,-258.1627C394.2469,-244.5752 438.3684,-225.7127 477.5,-210.2249 510.6545,-197.1027 547.5804,-183.3755 579.2791,-171.8601"/>
<polygon fill="#000000" stroke="#000000" points="580.7291,-175.0575 588.9389,-168.3605 578.3447,-168.4761 580.7291,-175.0575"/>
</g>
<!-- apiserver_bundle -->
<g id="node15" class="node">
<title>apiserver_bundle</title>
<polygon fill="#ee82ee" stroke="#ee82ee" points="752.5,-834.2249 561.5,-834.2249 561.5,-798.2249 752.5,-798.2249 752.5,-834.2249"/>
<text text-anchor="middle" x="657" y="-811.2249" font-family="Times,serif" font-size="20.00" fill="#000000">apiserver crt/key</text>
</g>
<!-- install_config&#45;&gt;apiserver_bundle -->
<g id="edge27" class="edge">
<title>install_config&#45;&gt;apiserver_bundle</title>
<path fill="none" stroke="#000000" d="M325.496,-294.2885C341.1939,-373.6822 407.465,-690.7796 477.5,-760.2249 497.5258,-780.0821 524.4774,-792.9145 551.3998,-801.202"/>
<polygon fill="#000000" stroke="#000000" points="550.7264,-804.6502 561.3044,-804.0542 552.6635,-797.9236 550.7264,-804.6502"/>
</g>
<!-- ingress_bundle -->
<g id="node20" class="node">
<title>ingress_bundle</title>
<polygon fill="#ee82ee" stroke="#ee82ee" points="742,-916.2249 572,-916.2249 572,-880.2249 742,-880.2249 742,-916.2249"/>
<text text-anchor="middle" x="657" y="-893.2249" font-family="Times,serif" font-size="20.00" fill="#000000">ingress crt/key</text>
</g>
<!-- install_config&#45;&gt;ingress_bundle -->
<g id="edge31" class="edge">
<title>install_config&#45;&gt;ingress_bundle</title>
<path fill="none" stroke="#000000" d="M324.596,-294.35C337.48,-381.9323 397.1593,-760.4657 477.5,-843.2249 499.8293,-866.2264 531.4968,-879.6721 562.031,-887.5094"/>
<polygon fill="#000000" stroke="#000000" points="561.3523,-890.9456 571.8916,-889.8619 562.9768,-884.1367 561.3523,-890.9456"/>
</g>
<!-- openshift_apiserver_bundle -->
<g id="node23" class="node">
<title>openshift_apiserver_bundle</title>
<polygon fill="#ee82ee" stroke="#ee82ee" points="803.5,-1116.2249 510.5,-1116.2249 510.5,-1080.2249 803.5,-1080.2249 803.5,-1116.2249"/>
<text text-anchor="middle" x="657" y="-1093.2249" font-family="Times,serif" font-size="20.00" fill="#000000">openshift apiserver crt/key</text>
</g>
<!-- install_config&#45;&gt;openshift_apiserver_bundle -->
<g id="edge33" class="edge">
<title>install_config&#45;&gt;openshift_apiserver_bundle</title>
<path fill="none" stroke="#000000" d="M322.6788,-294.3475C326.3856,-374.2061 349.0873,-700.6877 477.5,-925.2249 513.9085,-988.8873 580.761,-1044.0671 621.8044,-1074.102"/>
<polygon fill="#000000" stroke="#000000" points="619.9931,-1077.111 630.1506,-1080.1235 624.0887,-1071.4342 619.9931,-1077.111"/>
</g>
<!-- mcc_bundle -->
<g id="node27" class="node">
<title>mcc_bundle</title>
<polygon fill="#ee82ee" stroke="#ee82ee" points="836.5,-610.2249 477.5,-610.2249 477.5,-574.2249 836.5,-574.2249 836.5,-610.2249"/>
<text text-anchor="middle" x="657" y="-587.2249" font-family="Times,serif" font-size="20.00" fill="#000000">machine config controller crt/key</text>
</g>
<!-- install_config&#45;&gt;mcc_bundle -->
<g id="edge15" class="edge">
<title>install_config&#45;&gt;mcc_bundle</title>
<path fill="none" stroke="#000000" d="M327.7777,-294.3394C343.6985,-341.3491 392.7338,-468.2359 477.5,-535.2249 497.6556,-551.1535 522.3475,-562.6738 546.8925,-570.9914"/>
<polygon fill="#000000" stroke="#000000" points="546.0567,-574.3994 556.6483,-574.1373 548.2051,-567.7371 546.0567,-574.3994"/>
</g>
<!-- operator_configs -->
<g id="node28" class="node">
<title>operator_configs</title>
<polygon fill="#ffb6c1" stroke="#ffb6c1" points="1081.5,-614.2249 896.5,-614.2249 896.5,-578.2249 1081.5,-578.2249 1081.5,-614.2249"/>
<text text-anchor="middle" x="989" y="-591.2249" font-family="Times,serif" font-size="20.00" fill="#000000">operator configs</text>
</g>
<!-- install_config&#45;&gt;operator_configs -->
<g id="edge9" class="edge">
<title>install_config&#45;&gt;operator_configs</title>
<path fill="none" stroke="#000000" d="M339.0666,-294.3391C366.1148,-322.1519 421.5228,-375.5748 477.5,-408.2249 618.4237,-490.422 801.5749,-547.1843 906.1268,-575.4826"/>
<polygon fill="#000000" stroke="#000000" points="905.4298,-578.9194 915.9953,-578.1322 907.245,-572.1588 905.4298,-578.9194"/>
</g>
<!-- operator_manifests -->
<g id="node29" class="node">
<title>operator_manifests</title>
<polygon fill="#ffb6c1" stroke="#ffb6c1" points="1095,-531.2249 883,-531.2249 883,-495.2249 1095,-495.2249 1095,-531.2249"/>
<text text-anchor="middle" x="989" y="-508.2249" font-family="Times,serif" font-size="20.00" fill="#000000">operator manifests</text>
</g>
<!-- install_config&#45;&gt;operator_manifests -->
<g id="edge8" class="edge">
<title>install_config&#45;&gt;operator_manifests</title>
<path fill="none" stroke="#000000" d="M372.6809,-294.2329C493.5414,-337.1774 798.2931,-445.4625 928.4981,-491.7272"/>
<polygon fill="#000000" stroke="#000000" points="927.345,-495.0318 937.9397,-495.082 929.6887,-488.4358 927.345,-495.0318"/>
</g>
<!-- terraform_state -->
<g id="node38" class="node">
<title>terraform_state</title>
<polygon fill="#ffd700" stroke="#ffd700" points="2285.5,-711.2249 2184.5,-711.2249 2184.5,-675.2249 2285.5,-675.2249 2285.5,-711.2249"/>
<text text-anchor="middle" x="2235" y="-688.2249" font-family="Times,serif" font-size="20.00" fill="#000000">*.tfstate</text>
</g>
<!-- install_config&#45;&gt;terraform_state -->
<g id="edge67" class="edge">
<title>install_config&#45;&gt;terraform_state</title>
<path fill="none" stroke="#000000" d="M425.2137,-263.1702C556.1255,-247.7668 788.9317,-224.2249 989,-224.2249 989,-224.2249 989,-224.2249 1481,-224.2249 1632.9305,-224.2249 1684.078,-200.3421 1820,-268.2249 2013.7154,-364.9711 2168.8349,-588.9117 2218.3594,-666.3234"/>
<polygon fill="#000000" stroke="#000000" points="2215.5612,-668.4465 2223.871,-675.0191 2221.4736,-664.699 2215.5612,-668.4465"/>
</g>
<!-- admin_bundle -->
<g id="node13" class="node">
<title>admin_bundle</title>
<polygon fill="#ee82ee" stroke="#ee82ee" points="1068,-1306.2249 910,-1306.2249 910,-1270.2249 1068,-1270.2249 1068,-1306.2249"/>
<text text-anchor="middle" x="989" y="-1283.2249" font-family="Times,serif" font-size="20.00" fill="#000000">admin crt/key</text>
</g>
<!-- admin_bundle&#45;&gt;manifests -->
<g id="edge68" class="edge">
<title>admin_bundle&#45;&gt;manifests</title>
<path fill="none" stroke="#000000" d="M1068.281,-1290.8177C1217.0414,-1294.1883 1547.5888,-1294.5838 1820,-1244.2249 1839.9035,-1240.5454 1860.9559,-1234.699 1880.2956,-1228.4882"/>
<polygon fill="#000000" stroke="#000000" points="1881.5312,-1231.7664 1889.9375,-1225.3178 1879.3446,-1225.1166 1881.5312,-1231.7664"/>
</g>
<!-- kubeconfig -->
<g id="node37" class="node">
<title>kubeconfig</title>
<polygon fill="#add8e6" stroke="#add8e6" points="1545,-370.2249 1417,-370.2249 1417,-334.2249 1545,-334.2249 1545,-370.2249"/>
<text text-anchor="middle" x="1481" y="-347.2249" font-family="Times,serif" font-size="20.00" fill="#000000">kubeconfig</text>
</g>
<!-- admin_bundle&#45;&gt;kubeconfig -->
<g id="edge37" class="edge">
<title>admin_bundle&#45;&gt;kubeconfig</title>
<path fill="none" stroke="#000000" d="M1017.1806,-1270.1021C1045.1857,-1250.3171 1086.6058,-1215.8379 1105.5,-1174.2249 1165.2193,-1042.6975 1063.1339,-646.2454 1142,-525.2249 1201.8504,-433.3841 1326.5025,-387.923 1406.8287,-367.2995"/>
<polygon fill="#000000" stroke="#000000" points="1408.0298,-370.6071 1416.8835,-364.7879 1406.3334,-363.8157 1408.0298,-370.6071"/>
</g>
<!-- aggregator_ca_bundle -->
<g id="node14" class="node">
<title>aggregator_ca_bundle</title>
<polygon fill="#ee82ee" stroke="#ee82ee" points="441.5,-1363.2249 202.5,-1363.2249 202.5,-1327.2249 441.5,-1327.2249 441.5,-1363.2249"/>
<text text-anchor="middle" x="322" y="-1340.2249" font-family="Times,serif" font-size="20.00" fill="#000000">aggregator ca crt/key</text>
</g>
<!-- aggregator_ca_bundle&#45;&gt;manifests -->
<g id="edge69" class="edge">
<title>aggregator_ca_bundle&#45;&gt;manifests</title>
<path fill="none" stroke="#000000" d="M330.7439,-1363.3794C350.568,-1402.2207 403.0582,-1492.8789 477.5,-1530.2249 610.858,-1597.128 1697.9658,-1588.062 1820,-1502.2249 1910.079,-1438.8646 1939.9112,-1300.2545 1949.1527,-1235.6472"/>
<polygon fill="#000000" stroke="#000000" points="1952.6436,-1235.949 1950.5116,-1225.5709 1945.7064,-1235.0134 1952.6436,-1235.949"/>
</g>
<!-- apiserver_proxy_bundle -->
<g id="node16" class="node">
<title>apiserver_proxy_bundle</title>
<polygon fill="#ee82ee" stroke="#ee82ee" points="784.5,-1481.2249 529.5,-1481.2249 529.5,-1445.2249 784.5,-1445.2249 784.5,-1481.2249"/>
<text text-anchor="middle" x="657" y="-1458.2249" font-family="Times,serif" font-size="20.00" fill="#000000">apiserver proxy crt/key</text>
</g>
<!-- aggregator_ca_bundle&#45;&gt;apiserver_proxy_bundle -->
<g id="edge34" class="edge">
<title>aggregator_ca_bundle&#45;&gt;apiserver_proxy_bundle</title>
<path fill="none" stroke="#000000" d="M364.8961,-1363.3613C395.9357,-1376.2306 439.016,-1393.5725 477.5,-1407.2249 512.7823,-1419.7414 552.4751,-1432.2817 585.5466,-1442.3128"/>
<polygon fill="#000000" stroke="#000000" points="584.5513,-1445.6683 595.1361,-1445.2075 586.5743,-1438.9669 584.5513,-1445.6683"/>
</g>
<!-- clusterapi_apiserver_bundle -->
<g id="node17" class="node">
<title>clusterapi_apiserver_bundle</title>
<polygon fill="#ee82ee" stroke="#ee82ee" points="807.5,-1398.2249 506.5,-1398.2249 506.5,-1362.2249 807.5,-1362.2249 807.5,-1398.2249"/>
<text text-anchor="middle" x="657" y="-1375.2249" font-family="Times,serif" font-size="20.00" fill="#000000">clusterapi apiserver crt/key</text>
</g>
<!-- aggregator_ca_bundle&#45;&gt;clusterapi_apiserver_bundle -->
<g id="edge35" class="edge">
<title>aggregator_ca_bundle&#45;&gt;clusterapi_apiserver_bundle</title>
<path fill="none" stroke="#000000" d="M441.5239,-1357.7125C459.3631,-1359.5762 477.9952,-1361.5229 496.5128,-1363.4576"/>
<polygon fill="#000000" stroke="#000000" points="496.171,-1366.9408 506.4806,-1364.499 496.8985,-1359.9787 496.171,-1366.9408"/>
</g>
<!-- aggregator_ca_bundle&#45;&gt;openshift_apiserver_bundle -->
<g id="edge32" class="edge">
<title>aggregator_ca_bundle&#45;&gt;openshift_apiserver_bundle</title>
<path fill="none" stroke="#000000" d="M341.3833,-1327.0709C370.0956,-1300.5508 426.0852,-1250.2421 477.5,-1212.2249 523.4724,-1178.2319 579.5172,-1143.6449 616.6213,-1121.6242"/>
<polygon fill="#000000" stroke="#000000" points="618.7981,-1124.4034 625.6288,-1116.3044 615.2384,-1118.3761 618.7981,-1124.4034"/>
</g>
<!-- secret_manifests -->
<g id="node32" class="node">
<title>secret_manifests</title>
<polygon fill="#ffb6c1" stroke="#ffb6c1" points="1105.5,-1165.2249 872.5,-1165.2249 872.5,-1129.2249 1105.5,-1129.2249 1105.5,-1165.2249"/>
<text text-anchor="middle" x="989" y="-1142.2249" font-family="Times,serif" font-size="20.00" fill="#000000">manifests for secrets</text>
</g>
<!-- aggregator_ca_bundle&#45;&gt;secret_manifests -->
<g id="edge36" class="edge">
<title>aggregator_ca_bundle&#45;&gt;secret_manifests</title>
<path fill="none" stroke="#000000" d="M441.6174,-1343.8372C549.0145,-1338.7076 708.9336,-1321.2895 836.5,-1266.2249 887.7931,-1244.084 936.8212,-1200.4663 964.8674,-1172.6348"/>
<polygon fill="#000000" stroke="#000000" points="967.6498,-1174.7996 972.2059,-1165.2344 962.6793,-1169.8706 967.6498,-1174.7996"/>
</g>
<!-- apiserver_bundle&#45;&gt;manifests -->
<g id="edge70" class="edge">
<title>apiserver_bundle&#45;&gt;manifests</title>
<path fill="none" stroke="#000000" d="M752.8123,-828.28C782.7467,-836.2408 813.8312,-849.4216 836.5,-871.2249 871.4507,-904.8412 835.135,-943.3144 872.5,-974.2249 954.5118,-1042.0697 1720.4182,-1077.6441 1820,-1115.2249 1854.9009,-1128.396 1890.1621,-1151.7591 1915.6004,-1170.813"/>
<polygon fill="#000000" stroke="#000000" points="1913.7607,-1173.8115 1923.836,-1177.0887 1918.0034,-1168.2438 1913.7607,-1173.8115"/>
</g>
<!-- apiserver_bundle&#45;&gt;secret_manifests -->
<g id="edge38" class="edge">
<title>apiserver_bundle&#45;&gt;secret_manifests</title>
<path fill="none" stroke="#000000" d="M752.9317,-826.4269C783.4142,-834.2283 814.8041,-847.7826 836.5,-871.2249 886.3037,-925.0374 836.9663,-968.0879 872.5,-1032.2249 892.97,-1069.1724 928.9388,-1101.9805 955.5106,-1123.0022"/>
<polygon fill="#000000" stroke="#000000" points="953.38,-1125.779 963.4278,-1129.1393 957.6686,-1120.2466 953.38,-1125.779"/>
</g>
<!-- apiserver_proxy_bundle&#45;&gt;manifests -->
<g id="edge71" class="edge">
<title>apiserver_proxy_bundle&#45;&gt;manifests</title>
<path fill="none" stroke="#000000" d="M784.627,-1468.8312C1048.8727,-1478.2696 1645.7684,-1487.7143 1820,-1390.2249 1881.6863,-1355.709 1921.4581,-1279.1893 1940.2633,-1234.8254"/>
<polygon fill="#000000" stroke="#000000" points="1943.5966,-1235.9228 1944.1707,-1225.3436 1937.1245,-1233.2558 1943.5966,-1235.9228"/>
</g>
<!-- apiserver_proxy_bundle&#45;&gt;secret_manifests -->
<g id="edge39" class="edge">
<title>apiserver_proxy_bundle&#45;&gt;secret_manifests</title>
<path fill="none" stroke="#000000" d="M775.536,-1445.0624C798.2581,-1436.7535 820.0561,-1424.6977 836.5,-1407.2249 882.3029,-1358.556 839.3504,-1319.2565 872.5,-1261.2249 893.1447,-1225.0842 928.5232,-1192.8411 954.8904,-1171.9469"/>
<polygon fill="#000000" stroke="#000000" points="957.3508,-1174.4677 963.1044,-1165.5712 953.0587,-1168.938 957.3508,-1174.4677"/>
</g>
<!-- clusterapi_apiserver_bundle&#45;&gt;manifests -->
<g id="edge72" class="edge">
<title>clusterapi_apiserver_bundle&#45;&gt;manifests</title>
<path fill="none" stroke="#000000" d="M763.7007,-1398.2314C974.9653,-1428.9919 1457.4194,-1474.6571 1820,-1323.2249 1865.4566,-1304.2399 1905.2428,-1262.5598 1929.1788,-1233.2207"/>
<polygon fill="#000000" stroke="#000000" points="1931.997,-1235.3005 1935.5013,-1225.302 1926.5267,-1230.9329 1931.997,-1235.3005"/>
</g>
<!-- clusterapi_apiserver_bundle&#45;&gt;secret_manifests -->
<g id="edge40" class="edge">
<title>clusterapi_apiserver_bundle&#45;&gt;secret_manifests</title>
<path fill="none" stroke="#000000" d="M757.9874,-1362.2067C785.5116,-1353.7321 813.929,-1341.3322 836.5,-1323.2249 861.3544,-1303.2858 852.9346,-1286.3745 872.5,-1261.2249 898.684,-1227.5675 934.4089,-1194.0337 959.3697,-1172.1402"/>
<polygon fill="#000000" stroke="#000000" points="961.8129,-1174.6541 967.0699,-1165.4555 957.224,-1169.368 961.8129,-1174.6541"/>
</g>
<!-- etcd_ca_bundle -->
<g id="node18" class="node">
<title>etcd_ca_bundle</title>
<polygon fill="#ee82ee" stroke="#ee82ee" points="406.5,-1738.2249 237.5,-1738.2249 237.5,-1702.2249 406.5,-1702.2249 406.5,-1738.2249"/>
<text text-anchor="middle" x="322" y="-1715.2249" font-family="Times,serif" font-size="20.00" fill="#000000">etcd ca crt/key</text>
</g>
<!-- etcd_ca_bundle&#45;&gt;manifests -->
<g id="edge73" class="edge">
<title>etcd_ca_bundle&#45;&gt;manifests</title>
<path fill="none" stroke="#000000" d="M406.8001,-1737.6654C429.6506,-1741.6198 454.4321,-1745.2371 477.5,-1747.2249 636.4664,-1760.9233 676.9579,-1749.3004 836.5,-1747.2249 1055.5742,-1744.375 1651.4051,-1818.1441 1820,-1678.2249 1889.6548,-1620.4174 1934.7081,-1334.9649 1948.5031,-1235.4875"/>
<polygon fill="#000000" stroke="#000000" points="1951.9988,-1235.7562 1949.8862,-1225.3742 1945.0634,-1234.8076 1951.9988,-1235.7562"/>
</g>
<!-- etcd_client_bundle -->
<g id="node19" class="node">
<title>etcd_client_bundle</title>
<polygon fill="#ee82ee" stroke="#ee82ee" points="758.5,-1738.2249 555.5,-1738.2249 555.5,-1702.2249 758.5,-1702.2249 758.5,-1738.2249"/>
<text text-anchor="middle" x="657" y="-1715.2249" font-family="Times,serif" font-size="20.00" fill="#000000">etcd client crt/key</text>
</g>
<!-- etcd_ca_bundle&#45;&gt;etcd_client_bundle -->
<g id="edge22" class="edge">
<title>etcd_ca_bundle&#45;&gt;etcd_client_bundle</title>
<path fill="none" stroke="#000000" d="M406.5346,-1720.2249C448.6117,-1720.2249 500.0335,-1720.2249 545.312,-1720.2249"/>
<polygon fill="#000000" stroke="#000000" points="545.4732,-1723.725 555.4732,-1720.2249 545.4731,-1716.725 545.4732,-1723.725"/>
</g>
<!-- etcd_ca_bundle&#45;&gt;secret_manifests -->
<g id="edge23" class="edge">
<title>etcd_ca_bundle&#45;&gt;secret_manifests</title>
<path fill="none" stroke="#000000" d="M406.7082,-1707.7002C523.2655,-1685.7032 730.6627,-1628.5349 836.5,-1490.2249 899.1106,-1408.4042 825.2819,-1352.7955 872.5,-1261.2249 891.5992,-1224.1856 927.2767,-1192.0356 954.1386,-1171.4068"/>
<polygon fill="#000000" stroke="#000000" points="956.268,-1174.1847 962.164,-1165.3819 952.0654,-1168.5867 956.268,-1174.1847"/>
</g>
<!-- master_ignition -->
<g id="node34" class="node">
<title>master_ignition</title>
<polygon fill="#f4a460" stroke="#f4a460" points="2015.5,-1913.2249 1890.5,-1913.2249 1890.5,-1877.2249 2015.5,-1877.2249 2015.5,-1913.2249"/>
<text text-anchor="middle" x="1953" y="-1890.2249" font-family="Times,serif" font-size="20.00" fill="#000000">master.ign</text>
</g>
<!-- etcd_ca_bundle&#45;&gt;master_ignition -->
<g id="edge24" class="edge">
<title>etcd_ca_bundle&#45;&gt;master_ignition</title>
<path fill="none" stroke="#000000" d="M350.5254,-1738.3081C380.9821,-1756.9675 431.1425,-1785.8648 477.5,-1804.2249 761.5502,-1916.7238 839.0398,-1940.7837 1142,-1980.2249 1440.8118,-2019.126 1530.7658,-2064.7551 1820,-1980.2249 1860.1107,-1968.5023 1899.6288,-1940.584 1925.0272,-1919.9248"/>
<polygon fill="#000000" stroke="#000000" points="1927.3037,-1922.5838 1932.7601,-1913.5021 1922.8312,-1917.199 1927.3037,-1922.5838"/>
</g>
<!-- etcd_client_bundle&#45;&gt;manifests -->
<g id="edge74" class="edge">
<title>etcd_client_bundle&#45;&gt;manifests</title>
<path fill="none" stroke="#000000" d="M758.6836,-1723.9643C1011.1516,-1731.1545 1657.9288,-1736.1112 1820,-1606.2249 1879.6559,-1558.4157 1929.6469,-1323.9938 1946.7184,-1235.3047"/>
<polygon fill="#000000" stroke="#000000" points="1950.2036,-1235.7118 1948.6355,-1225.2337 1943.3271,-1234.4028 1950.2036,-1235.7118"/>
</g>
<!-- etcd_client_bundle&#45;&gt;secret_manifests -->
<g id="edge41" class="edge">
<title>etcd_client_bundle&#45;&gt;secret_manifests</title>
<path fill="none" stroke="#000000" d="M758.5246,-1710.0251C787.9164,-1702.0043 817.235,-1688.1097 836.5,-1664.2249 892.948,-1594.2405 833.9859,-1342.4706 872.5,-1261.2249 890.296,-1223.684 925.9958,-1191.7085 953.2113,-1171.2616"/>
<polygon fill="#000000" stroke="#000000" points="955.3589,-1174.027 961.3559,-1165.2928 951.2211,-1168.3809 955.3589,-1174.027"/>
</g>
<!-- ingress_bundle&#45;&gt;manifests -->
<g id="edge75" class="edge">
<title>ingress_bundle&#45;&gt;manifests</title>
<path fill="none" stroke="#000000" d="M702.8972,-916.3272C740.9058,-932.599 795.1819,-958.8831 836.5,-991.2249 855.5955,-1006.1719 851.1419,-1020.7409 872.5,-1032.2249 1246.3589,-1233.2437 1407.4305,-1052.3978 1820,-1152.2249 1842.2964,-1157.6198 1865.9908,-1165.5833 1887.1085,-1173.5292"/>
<polygon fill="#000000" stroke="#000000" points="1886.0253,-1176.8622 1896.6157,-1177.1696 1888.5284,-1170.3251 1886.0253,-1176.8622"/>
</g>
<!-- ingress_bundle&#45;&gt;secret_manifests -->
<g id="edge45" class="edge">
<title>ingress_bundle&#45;&gt;secret_manifests</title>
<path fill="none" stroke="#000000" d="M742.2495,-907.5184C775.7031,-915.2795 811.8967,-929.4404 836.5,-955.2249 879.3679,-1000.1508 833.0601,-1042.2614 872.5,-1090.2249 884.8002,-1105.1833 901.9853,-1116.5245 919.3846,-1124.9906"/>
<polygon fill="#000000" stroke="#000000" points="917.9293,-1128.1736 928.4782,-1129.1596 920.8466,-1121.8104 917.9293,-1128.1736"/>
</g>
<!-- kube_ca_bundle -->
<g id="node21" class="node">
<title>kube_ca_bundle</title>
<polygon fill="#ee82ee" stroke="#ee82ee" points="409,-1186.2249 235,-1186.2249 235,-1150.2249 409,-1150.2249 409,-1186.2249"/>
<text text-anchor="middle" x="322" y="-1163.2249" font-family="Times,serif" font-size="20.00" fill="#000000">kube ca crt/key</text>
</g>
<!-- kube_ca_bundle&#45;&gt;manifests -->
<g id="edge76" class="edge">
<title>kube_ca_bundle&#45;&gt;manifests</title>
<path fill="none" stroke="#000000" d="M341.4977,-1186.5777C368.3596,-1213.0232 416.2824,-1264.5917 441.5,-1318.2249 474.732,-1388.903 416.8808,-1440.9799 477.5,-1490.2249 627.5928,-1612.1553 1746.0415,-1492.061 1820,-1445.2249 1895.8179,-1397.2112 1931.6746,-1290.1497 1945.6136,-1235.1989"/>
<polygon fill="#000000" stroke="#000000" points="1949.07,-1235.7981 1948.0404,-1225.2534 1942.2695,-1234.1387 1949.07,-1235.7981"/>
</g>
<!-- kube_ca_bundle&#45;&gt;admin_bundle -->
<g id="edge25" class="edge">
<title>kube_ca_bundle&#45;&gt;admin_bundle</title>
<path fill="none" stroke="#000000" d="M409.0459,-1165.2387C512.9422,-1164.0342 690.9097,-1169.4966 836.5,-1212.2249 853.8595,-1217.3196 856.3727,-1223.0262 872.5,-1231.2249 895.3173,-1242.8246 920.8423,-1255.362 942.1711,-1265.7171"/>
<polygon fill="#000000" stroke="#000000" points="940.8164,-1268.9498 951.3418,-1270.1606 943.8688,-1262.6504 940.8164,-1268.9498"/>
</g>
<!-- kube_ca_bundle&#45;&gt;apiserver_bundle -->
<g id="edge26" class="edge">
<title>kube_ca_bundle&#45;&gt;apiserver_bundle</title>
<path fill="none" stroke="#000000" d="M326.2417,-1150.0969C339.2783,-1098.4245 383.6844,-949.1124 477.5,-871.2249 498.606,-853.7023 525.2357,-841.7566 551.4759,-833.6147"/>
<polygon fill="#000000" stroke="#000000" points="552.5063,-836.96 561.1148,-830.7839 550.5337,-830.2437 552.5063,-836.96"/>
</g>
<!-- kube_ca_bundle&#45;&gt;ingress_bundle -->
<g id="edge30" class="edge">
<title>kube_ca_bundle&#45;&gt;ingress_bundle</title>
<path fill="none" stroke="#000000" d="M338.1234,-1149.7553C365.1859,-1119.3313 422.2283,-1057.6281 477.5,-1013.2249 521.7867,-977.6466 577.496,-943.3904 615.0095,-921.6611"/>
<polygon fill="#000000" stroke="#000000" points="617.2121,-924.4321 624.1368,-916.4134 613.723,-918.3636 617.2121,-924.4321"/>
</g>
<!-- kubelet_bundle -->
<g id="node22" class="node">
<title>kubelet_bundle</title>
<polygon fill="#ee82ee" stroke="#ee82ee" points="1566.5,-1830.2249 1395.5,-1830.2249 1395.5,-1794.2249 1566.5,-1794.2249 1566.5,-1830.2249"/>
<text text-anchor="middle" x="1481" y="-1807.2249" font-family="Times,serif" font-size="20.00" fill="#000000">kubelet crt/key</text>
</g>
<!-- kube_ca_bundle&#45;&gt;kubelet_bundle -->
<g id="edge28" class="edge">
<title>kube_ca_bundle&#45;&gt;kubelet_bundle</title>
<path fill="none" stroke="#000000" d="M342.8993,-1186.6155C370.9429,-1212.7164 419.7384,-1263.457 441.5,-1318.2249 476.8265,-1407.132 409.2114,-1680.2241 477.5,-1747.2249 603.8378,-1871.1802 1159.5511,-1839.5586 1385.2341,-1821.0443"/>
<polygon fill="#000000" stroke="#000000" points="1385.727,-1824.5155 1395.4033,-1820.2005 1385.1481,-1817.5395 1385.727,-1824.5155"/>
</g>
<!-- kube_ca_bundle&#45;&gt;secret_manifests -->
<g id="edge29" class="edge">
<title>kube_ca_bundle&#45;&gt;secret_manifests</title>
<path fill="none" stroke="#000000" d="M342.7739,-1149.8406C370.9597,-1126.2524 423.969,-1086.5522 477.5,-1071.2249 630.8916,-1027.3047 681.6249,-1032.8626 836.5,-1071.2249 854.061,-1075.5747 856.3727,-1082.0262 872.5,-1090.2249 895.3173,-1101.8246 920.8423,-1114.362 942.1711,-1124.7171"/>
<polygon fill="#000000" stroke="#000000" points="940.8164,-1127.9498 951.3418,-1129.1606 943.8688,-1121.6504 940.8164,-1127.9498"/>
</g>
<!-- kubelet_bundle&#45;&gt;manifests -->
<g id="edge77" class="edge">
<title>kubelet_bundle&#45;&gt;manifests</title>
<path fill="none" stroke="#000000" d="M1566.8023,-1822.4114C1643.0354,-1826.4185 1752.5443,-1819.0226 1820,-1756.2249 1897.553,-1684.0271 1938.3543,-1345.0792 1949.6815,-1235.4933"/>
<polygon fill="#000000" stroke="#000000" points="1953.1856,-1235.6299 1950.7153,-1225.327 1946.2215,-1234.9216 1953.1856,-1235.6299"/>
</g>
<!-- bootstrap_ignition -->
<g id="node33" class="node">
<title>bootstrap_ignition</title>
<polygon fill="#f4a460" stroke="#f4a460" points="2030,-711.2249 1876,-711.2249 1876,-675.2249 2030,-675.2249 2030,-711.2249"/>
<text text-anchor="middle" x="1953" y="-688.2249" font-family="Times,serif" font-size="20.00" fill="#000000">bootstrap.ign</text>
</g>
<!-- kubelet_bundle&#45;&gt;bootstrap_ignition -->
<g id="edge42" class="edge">
<title>kubelet_bundle&#45;&gt;bootstrap_ignition</title>
<path fill="none" stroke="#000000" d="M1488.6052,-1794.1948C1543.1381,-1664.9103 1874.3987,-879.57 1941.2477,-721.0868"/>
<polygon fill="#000000" stroke="#000000" points="1944.6012,-722.1421 1945.2628,-711.5679 1938.1514,-719.4215 1944.6012,-722.1421"/>
</g>
<!-- kubelet_bundle&#45;&gt;master_ignition -->
<g id="edge43" class="edge">
<title>kubelet_bundle&#45;&gt;master_ignition</title>
<path fill="none" stroke="#000000" d="M1566.8353,-1825.5152C1635.457,-1836.3544 1734.0535,-1852.4076 1820,-1868.2249 1839.5352,-1871.8201 1860.6276,-1875.9755 1880.1329,-1879.9322"/>
<polygon fill="#000000" stroke="#000000" points="1879.674,-1883.4106 1890.1717,-1881.9792 1881.0726,-1876.5517 1879.674,-1883.4106"/>
</g>
<!-- worker_ignition -->
<g id="node35" class="node">
<title>worker_ignition</title>
<polygon fill="#f4a460" stroke="#f4a460" points="2016,-1830.2249 1890,-1830.2249 1890,-1794.2249 2016,-1794.2249 2016,-1830.2249"/>
<text text-anchor="middle" x="1953" y="-1807.2249" font-family="Times,serif" font-size="20.00" fill="#000000">worker.ign</text>
</g>
<!-- kubelet_bundle&#45;&gt;worker_ignition -->
<g id="edge44" class="edge">
<title>kubelet_bundle&#45;&gt;worker_ignition</title>
<path fill="none" stroke="#000000" d="M1566.7493,-1812.2249C1656.2663,-1812.2249 1795.1554,-1812.2249 1879.7222,-1812.2249"/>
<polygon fill="#000000" stroke="#000000" points="1879.759,-1815.725 1889.759,-1812.2249 1879.759,-1808.725 1879.759,-1815.725"/>
</g>
<!-- openshift_apiserver_bundle&#45;&gt;manifests -->
<g id="edge78" class="edge">
<title>openshift_apiserver_bundle&#45;&gt;manifests</title>
<path fill="none" stroke="#000000" d="M708.8863,-1116.2972C744.7569,-1128.8251 793.5631,-1145.9379 836.5,-1161.2249 852.5258,-1166.9306 855.8252,-1170.8583 872.5,-1174.2249 1223.0077,-1244.9918 1650.4018,-1225.3643 1845.999,-1210.7061"/>
<polygon fill="#000000" stroke="#000000" points="1846.2838,-1214.1946 1855.9896,-1209.9465 1845.7531,-1207.2148 1846.2838,-1214.1946"/>
</g>
<!-- openshift_apiserver_bundle&#45;&gt;secret_manifests -->
<g id="edge46" class="edge">
<title>openshift_apiserver_bundle&#45;&gt;secret_manifests</title>
<path fill="none" stroke="#000000" d="M779.2101,-1116.2619C806.2981,-1120.2598 835.0614,-1124.505 862.3234,-1128.5286"/>
<polygon fill="#000000" stroke="#000000" points="861.8896,-1132.0024 872.2935,-1130.0001 862.9117,-1125.0775 861.8896,-1132.0024"/>
</g>
<!-- root_ca_bundle -->
<g id="node24" class="node">
<title>root_ca_bundle</title>
<polygon fill="#ee82ee" stroke="#ee82ee" points="166.5,-1222.2249 -.5,-1222.2249 -.5,-1186.2249 166.5,-1186.2249 166.5,-1222.2249"/>
<text text-anchor="middle" x="83" y="-1199.2249" font-family="Times,serif" font-size="20.00" fill="#000000">root ca crt/key</text>
</g>
<!-- root_ca_bundle&#45;&gt;manifests -->
<g id="edge79" class="edge">
<title>root_ca_bundle&#45;&gt;manifests</title>
<path fill="none" stroke="#000000" d="M90.2029,-1185.9962C121.7092,-1109.1609 255.8129,-810.8586 477.5,-706.2249 621.7909,-638.1212 682.474,-664.5841 836.5,-706.2249 854.3813,-711.0591 856.2502,-718.3336 872.5,-727.2249 990.5517,-791.8182 1014.0487,-823.548 1142,-865.2249 1432.0632,-959.7057 1568.32,-799.8286 1820,-972.2249 1889.3418,-1019.7227 1927.4721,-1116.1628 1943.6066,-1167.4229"/>
<polygon fill="#000000" stroke="#000000" points="1940.2764,-1168.5017 1946.543,-1177.0446 1946.9716,-1166.4585 1940.2764,-1168.5017"/>
</g>
<!-- root_ca_bundle&#45;&gt;aggregator_ca_bundle -->
<g id="edge12" class="edge">
<title>root_ca_bundle&#45;&gt;aggregator_ca_bundle</title>
<path fill="none" stroke="#000000" d="M113.7558,-1222.3695C156.8683,-1247.8041 235.2854,-1294.0669 282.6161,-1321.99"/>
<polygon fill="#000000" stroke="#000000" points="280.9709,-1325.0831 291.3623,-1327.1499 284.5278,-1319.0541 280.9709,-1325.0831"/>
</g>
<!-- root_ca_bundle&#45;&gt;etcd_ca_bundle -->
<g id="edge11" class="edge">
<title>root_ca_bundle&#45;&gt;etcd_ca_bundle</title>
<path fill="none" stroke="#000000" d="M91.366,-1222.287C126.9987,-1299.2178 266.2494,-1599.8595 309.2685,-1692.7376"/>
<polygon fill="#000000" stroke="#000000" points="306.1992,-1694.4389 313.578,-1702.0419 312.551,-1691.4969 306.1992,-1694.4389"/>
</g>
<!-- root_ca_bundle&#45;&gt;kube_ca_bundle -->
<g id="edge10" class="edge">
<title>root_ca_bundle&#45;&gt;kube_ca_bundle</title>
<path fill="none" stroke="#000000" d="M166.5906,-1191.6338C185.3898,-1188.8021 205.4961,-1185.7736 224.7978,-1182.8662"/>
<polygon fill="#000000" stroke="#000000" points="225.4397,-1186.3091 234.8068,-1181.3586 224.397,-1179.3872 225.4397,-1186.3091"/>
</g>
<!-- service_serving_ca_bundle -->
<g id="node26" class="node">
<title>service_serving_ca_bundle</title>
<polygon fill="#ee82ee" stroke="#ee82ee" points="797.5,-1257.2249 516.5,-1257.2249 516.5,-1221.2249 797.5,-1221.2249 797.5,-1257.2249"/>
<text text-anchor="middle" x="657" y="-1234.2249" font-family="Times,serif" font-size="20.00" fill="#000000">service serving ca crt/key</text>
</g>
<!-- root_ca_bundle&#45;&gt;service_serving_ca_bundle -->
<g id="edge13" class="edge">
<title>root_ca_bundle&#45;&gt;service_serving_ca_bundle</title>
<path fill="none" stroke="#000000" d="M166.7717,-1209.3329C255.6354,-1214.7514 397.8862,-1223.4253 506.32,-1230.0371"/>
<polygon fill="#000000" stroke="#000000" points="506.1794,-1233.5349 516.3739,-1230.6501 506.6055,-1226.5479 506.1794,-1233.5349"/>
</g>
<!-- root_ca_bundle&#45;&gt;mcc_bundle -->
<g id="edge14" class="edge">
<title>root_ca_bundle&#45;&gt;mcc_bundle</title>
<path fill="none" stroke="#000000" d="M84.1469,-1186.2101C90.0717,-1099.1958 120.1744,-723.5227 202.5,-648.2249 294.475,-564.1014 444.259,-562.0124 546.5494,-573.03"/>
<polygon fill="#000000" stroke="#000000" points="546.2753,-576.5212 556.6063,-574.1717 547.0649,-569.5659 546.2753,-576.5212"/>
</g>
<!-- root_ca_bundle&#45;&gt;secret_manifests -->
<g id="edge18" class="edge">
<title>root_ca_bundle&#45;&gt;secret_manifests</title>
<path fill="none" stroke="#000000" d="M112.7363,-1186.0928C176.619,-1148.4026 332.9163,-1062.8885 477.5,-1036.2249 634.4097,-1007.2882 695.8239,-960.9373 836.5,-1036.2249 861.9314,-1049.8353 850.7939,-1071.229 872.5,-1090.2249 888.809,-1104.4976 909.3227,-1116.0953 928.5738,-1125.0119"/>
<polygon fill="#000000" stroke="#000000" points="927.3408,-1128.2943 937.8991,-1129.1738 930.1937,-1121.9021 927.3408,-1128.2943"/>
</g>
<!-- root_ca_bundle&#45;&gt;bootstrap_ignition -->
<g id="edge19" class="edge">
<title>root_ca_bundle&#45;&gt;bootstrap_ignition</title>
<path fill="none" stroke="#000000" d="M84.6876,-1186.1451C95.0097,-1077.2199 150.8872,-511.1843 202.5,-455.2249 324.7414,-322.689 1672.4224,-221.6412 1820,-325.2249 1849.3944,-345.8566 1920.972,-583.4824 1944.991,-665.5514"/>
<polygon fill="#000000" stroke="#000000" points="1941.6448,-666.5789 1947.8049,-675.1989 1948.3648,-664.6188 1941.6448,-666.5789"/>
</g>
<!-- root_ca_bundle&#45;&gt;master_ignition -->
<g id="edge20" class="edge">
<title>root_ca_bundle&#45;&gt;master_ignition</title>
<path fill="none" stroke="#000000" d="M83.8056,-1222.3825C88.4969,-1320.5594 115.1804,-1787.5072 202.5,-1896.2249 339.1759,-2066.3939 438.7392,-2082.2249 657,-2082.2249 657,-2082.2249 657,-2082.2249 989,-2082.2249 1359.4614,-2082.2249 1480.2678,-2164.9533 1820,-2017.2249 1868.1209,-1996.3001 1910.1995,-1950.543 1933.5481,-1921.3976"/>
<polygon fill="#000000" stroke="#000000" points="1936.4874,-1923.3212 1939.9028,-1913.292 1930.9785,-1919.0023 1936.4874,-1923.3212"/>
</g>
<!-- root_ca_bundle&#45;&gt;worker_ignition -->
<g id="edge21" class="edge">
<title>root_ca_bundle&#45;&gt;worker_ignition</title>
<path fill="none" stroke="#000000" d="M84.1803,-1222.2296C90.4574,-1312.7717 122.6839,-1717.5955 202.5,-1809.2249 342.8719,-1970.3728 443.2877,-1966.2249 657,-1966.2249 657,-1966.2249 657,-1966.2249 989,-1966.2249 1173.9253,-1966.2249 1659.3207,-2013.7648 1820,-1922.2249 1845.0625,-1907.9466 1834.9576,-1887.9535 1856,-1868.2249 1869.8841,-1855.2076 1887.3304,-1843.9584 1903.5857,-1835.028"/>
<polygon fill="#000000" stroke="#000000" points="1905.2764,-1838.093 1912.4636,-1830.3087 1901.9908,-1831.9121 1905.2764,-1838.093"/>
</g>
<!-- kubelet_kubeconfig -->
<g id="node36" class="node">
<title>kubelet_kubeconfig</title>
<polygon fill="#add8e6" stroke="#add8e6" points="1587,-1913.2249 1375,-1913.2249 1375,-1877.2249 1587,-1877.2249 1587,-1913.2249"/>
<text text-anchor="middle" x="1481" y="-1890.2249" font-family="Times,serif" font-size="20.00" fill="#000000">kubeconfig&#45;kubelet</text>
</g>
<!-- root_ca_bundle&#45;&gt;kubelet_kubeconfig -->
<g id="edge17" class="edge">
<title>root_ca_bundle&#45;&gt;kubelet_kubeconfig</title>
<path fill="none" stroke="#000000" d="M84.3874,-1222.2541C91.329,-1307.6791 125.0732,-1670.7402 202.5,-1747.2249 364.7238,-1907.4749 1080.9511,-1906.2739 1364.6767,-1899.2013"/>
<polygon fill="#000000" stroke="#000000" points="1365.0884,-1902.6919 1374.9954,-1898.9367 1364.9089,-1895.6942 1365.0884,-1902.6919"/>
</g>
<!-- root_ca_bundle&#45;&gt;kubeconfig -->
<g id="edge16" class="edge">
<title>root_ca_bundle&#45;&gt;kubeconfig</title>
<path fill="none" stroke="#000000" d="M83.6902,-1186.185C87.6832,-1091.7155 110.944,-654.8963 202.5,-564.2249 374.3831,-394.0025 1159.5862,-360.1667 1406.4728,-353.6968"/>
<polygon fill="#000000" stroke="#000000" points="1406.8671,-357.188 1416.7747,-353.4346 1406.6889,-350.1903 1406.8671,-357.188"/>
</g>
<!-- service_account_bundle -->
<g id="node25" class="node">
<title>service_account_bundle</title>
<polygon fill="#ee82ee" stroke="#ee82ee" points="789,-751.2249 525,-751.2249 525,-715.2249 789,-715.2249 789,-751.2249"/>
<text text-anchor="middle" x="657" y="-728.2249" font-family="Times,serif" font-size="20.00" fill="#000000">service account pub/key</text>
</g>
<!-- service_account_bundle&#45;&gt;manifests -->
<g id="edge80" class="edge">
<title>service_account_bundle&#45;&gt;manifests</title>
<path fill="none" stroke="#000000" d="M772.4327,-751.3101C796.028,-759.6008 818.9698,-771.6686 836.5,-789.2249 874.6421,-827.4238 831.9618,-869.579 872.5,-905.2249 1031.969,-1045.4483 1634.966,-925.0357 1820,-1029.2249 1876.4851,-1061.0306 1917.0381,-1127.566 1937.6154,-1167.9227"/>
<polygon fill="#000000" stroke="#000000" points="1934.5895,-1169.6982 1942.1772,-1177.0927 1940.8568,-1166.5804 1934.5895,-1169.6982"/>
</g>
<!-- service_account_bundle&#45;&gt;secret_manifests -->
<g id="edge47" class="edge">
<title>service_account_bundle&#45;&gt;secret_manifests</title>
<path fill="none" stroke="#000000" d="M777.5908,-751.2903C799.7624,-759.6244 820.8208,-771.7148 836.5,-789.2249 892.3781,-851.6278 840.4659,-896.8278 872.5,-974.2249 896.0169,-1031.0438 939.6006,-1088.6098 966.2784,-1120.9275"/>
<polygon fill="#000000" stroke="#000000" points="963.9002,-1123.5399 972.9989,-1128.968 969.2712,-1119.0506 963.9002,-1123.5399"/>
</g>
<!-- service_serving_ca_bundle&#45;&gt;manifests -->
<g id="edge81" class="edge">
<title>service_serving_ca_bundle&#45;&gt;manifests</title>
<path fill="none" stroke="#000000" d="M695.6447,-1257.3634C737.9661,-1276.1449 808.3711,-1304.2481 872.5,-1315.2249 1088.9213,-1352.2692 1610.7758,-1344.6953 1820,-1281.2249 1854.5179,-1270.7535 1889.3037,-1249.358 1914.6386,-1231.3265"/>
<polygon fill="#000000" stroke="#000000" points="1916.8187,-1234.0689 1922.854,-1225.3611 1912.7057,-1228.4046 1916.8187,-1234.0689"/>
</g>
<!-- service_serving_ca_bundle&#45;&gt;secret_manifests -->
<g id="edge48" class="edge">
<title>service_serving_ca_bundle&#45;&gt;secret_manifests</title>
<path fill="none" stroke="#000000" d="M722.1964,-1221.1584C777.3575,-1205.8728 856.4185,-1183.9643 914.1552,-1167.965"/>
<polygon fill="#000000" stroke="#000000" points="915.2506,-1171.2934 923.9527,-1165.25 913.3812,-1164.5477 915.2506,-1171.2934"/>
</g>
<!-- mcc_bundle&#45;&gt;manifests -->
<g id="edge82" class="edge">
<title>mcc_bundle&#45;&gt;manifests</title>
<path fill="none" stroke="#000000" d="M720.2353,-610.27C754.8572,-620.57 798.3547,-634.1984 836.5,-648.2249 974.9935,-699.1505 1001.3489,-733.6026 1142,-778.2249 1435.8091,-871.4372 1577.9412,-733.3849 1820,-924.2249 1899.2369,-986.6955 1933.9897,-1108.0651 1946.7375,-1167.1977"/>
<polygon fill="#000000" stroke="#000000" points="1943.3434,-1168.0683 1948.8005,-1177.1496 1950.1977,-1166.6473 1943.3434,-1168.0683"/>
</g>
<!-- mcc_bundle&#45;&gt;secret_manifests -->
<g id="edge49" class="edge">
<title>mcc_bundle&#45;&gt;secret_manifests</title>
<path fill="none" stroke="#000000" d="M703.6636,-610.3395C744.5764,-628.5669 802.6596,-660.5415 836.5,-706.2249 872.1858,-754.3995 853.9665,-779.2093 872.5,-836.2249 906.9942,-942.3414 955.9135,-1065.7487 977.7352,-1119.6603"/>
<polygon fill="#000000" stroke="#000000" points="974.6012,-1121.2455 981.6056,-1129.1948 981.0872,-1118.6126 974.6012,-1121.2455"/>
</g>
<!-- operator_configs&#45;&gt;manifests -->
<g id="edge83" class="edge">
<title>operator_configs&#45;&gt;manifests</title>
<path fill="none" stroke="#000000" d="M1004.779,-614.2499C1030.4363,-642.2204 1084.1802,-695.4322 1142,-720.2249 1421.2699,-839.9737 1585.0254,-615.5635 1820,-808.2249 1877.3387,-855.2383 1928.4721,-1080.8151 1946.296,-1167.3391"/>
<polygon fill="#000000" stroke="#000000" points="1942.8752,-1168.081 1948.3027,-1177.1801 1949.734,-1166.6824 1942.8752,-1168.081"/>
</g>
<!-- bootstrap_control_plane -->
<g id="node30" class="node">
<title>bootstrap_control_plane</title>
<polygon fill="#ffb6c1" stroke="#ffb6c1" points="1663,-711.2249 1299,-711.2249 1299,-675.2249 1663,-675.2249 1663,-711.2249"/>
<text text-anchor="middle" x="1481" y="-688.2249" font-family="Times,serif" font-size="20.00" fill="#000000">bootstrap control plane manifests</text>
</g>
<!-- operator_configs&#45;&gt;bootstrap_control_plane -->
<g id="edge50" class="edge">
<title>operator_configs&#45;&gt;bootstrap_control_plane</title>
<path fill="none" stroke="#000000" d="M1052.7158,-614.2396C1080.0687,-621.6199 1112.4699,-629.8953 1142,-636.2249 1209.4392,-650.6801 1285.0756,-663.7003 1347.7645,-673.6353"/>
<polygon fill="#000000" stroke="#000000" points="1347.2883,-677.1034 1357.7113,-675.2031 1348.3782,-670.1888 1347.2883,-677.1034"/>
</g>
<!-- misc_manifests -->
<g id="node31" class="node">
<title>misc_manifests</title>
<polygon fill="#ffb6c1" stroke="#ffb6c1" points="1820,-570.2249 1142,-570.2249 1142,-534.2249 1820,-534.2249 1820,-570.2249"/>
<text text-anchor="middle" x="1481" y="-547.2249" font-family="Times,serif" font-size="20.00" fill="#000000">misc manifests (rbac, namespace, CRD, pod security policy, etc)</text>
</g>
<!-- operator_configs&#45;&gt;misc_manifests -->
<g id="edge53" class="edge">
<title>operator_configs&#45;&gt;misc_manifests</title>
<path fill="none" stroke="#000000" d="M1081.5414,-587.9488C1134.6937,-583.1954 1203.76,-577.0187 1269.4775,-571.1415"/>
<polygon fill="#000000" stroke="#000000" points="1269.9208,-574.6159 1279.5692,-570.239 1269.2972,-567.6438 1269.9208,-574.6159"/>
</g>
<!-- operator_configs&#45;&gt;bootstrap_ignition -->
<g id="edge55" class="edge">
<title>operator_configs&#45;&gt;bootstrap_ignition</title>
<path fill="none" stroke="#000000" d="M1025.8152,-578.1221C1067.1101,-557.9796 1129.9186,-527.8915 1142,-525.2249 1436.2509,-460.2772 1548.7412,-393.9983 1820,-525.2249 1880.5076,-554.4966 1921.8578,-626.1401 1940.9506,-665.7602"/>
<polygon fill="#000000" stroke="#000000" points="1937.9127,-667.5259 1945.3233,-675.0978 1944.2521,-664.5573 1937.9127,-667.5259"/>
</g>
<!-- operator_manifests&#45;&gt;manifests -->
<g id="edge84" class="edge">
<title>operator_manifests&#45;&gt;manifests</title>
<path fill="none" stroke="#000000" d="M1023.2395,-531.2992C1053.6048,-546.5161 1099.5918,-567.6049 1142,-579.2249 1288.502,-619.3668 1706.5414,-565.223 1820,-666.2249 1896.1879,-734.0481 1937.7081,-1059.8254 1949.4726,-1166.9791"/>
<polygon fill="#000000" stroke="#000000" points="1945.9947,-1167.3729 1950.5491,-1176.9388 1952.9541,-1166.6206 1945.9947,-1167.3729"/>
</g>
<!-- operator_manifests&#45;&gt;bootstrap_control_plane -->
<g id="edge51" class="edge">
<title>operator_manifests&#45;&gt;bootstrap_control_plane</title>
<path fill="none" stroke="#000000" d="M1043.7687,-531.2416C1064.888,-540.185 1088.0957,-552.6821 1105.5,-569.2249 1130.0785,-592.5867 1114.3873,-616.542 1142,-636.2249 1184.4593,-666.4907 1237.4224,-682.737 1288.7743,-691.008"/>
<polygon fill="#000000" stroke="#000000" points="1288.2681,-694.4712 1298.6797,-692.5094 1289.3171,-687.5502 1288.2681,-694.4712"/>
</g>
<!-- operator_manifests&#45;&gt;misc_manifests -->
<g id="edge54" class="edge">
<title>operator_manifests&#45;&gt;misc_manifests</title>
<path fill="none" stroke="#000000" d="M1095.1509,-521.6393C1138.9395,-525.1103 1191.5806,-529.2831 1243.7003,-533.4145"/>
<polygon fill="#000000" stroke="#000000" points="1243.5232,-536.9114 1253.7685,-534.2126 1244.0764,-529.9333 1243.5232,-536.9114"/>
</g>
<!-- operator_manifests&#45;&gt;bootstrap_ignition -->
<g id="edge56" class="edge">
<title>operator_manifests&#45;&gt;bootstrap_ignition</title>
<path fill="none" stroke="#000000" d="M1019.3465,-495.1507C1049.3222,-478.427 1097.0734,-454.759 1142,-445.2249 1289.3845,-413.9478 1690.7154,-367.8561 1820,-445.2249 1830.6169,-451.5785 1907.73,-603.2032 1939.4389,-666.1832"/>
<polygon fill="#000000" stroke="#000000" points="1936.3285,-667.7885 1943.9481,-675.1499 1942.5822,-664.6435 1936.3285,-667.7885"/>
</g>
<!-- bootstrap_control_plane&#45;&gt;manifests -->
<g id="edge85" class="edge">
<title>bootstrap_control_plane&#45;&gt;manifests</title>
<path fill="none" stroke="#000000" d="M1663.3497,-687.1544C1719.3174,-694.1072 1777.3285,-711.4832 1820,-749.2249 1884.0774,-805.8995 1932.2309,-1071.6904 1947.7071,-1167.0575"/>
<polygon fill="#000000" stroke="#000000" points="1944.2693,-1167.7247 1949.3089,-1177.0442 1951.181,-1166.6161 1944.2693,-1167.7247"/>
</g>
<!-- bootstrap_control_plane&#45;&gt;bootstrap_ignition -->
<g id="edge57" class="edge">
<title>bootstrap_control_plane&#45;&gt;bootstrap_ignition</title>
<path fill="none" stroke="#000000" d="M1663.1499,-693.2249C1732.811,-693.2249 1809.0846,-693.2249 1865.897,-693.2249"/>
<polygon fill="#000000" stroke="#000000" points="1865.9142,-696.725 1875.9142,-693.2249 1865.9141,-689.725 1865.9142,-696.725"/>
</g>
<!-- misc_manifests&#45;&gt;manifests -->
<g id="edge87" class="edge">
<title>misc_manifests&#45;&gt;manifests</title>
<path fill="none" stroke="#000000" d="M1762.3398,-570.2856C1783.4616,-579.8417 1803.0883,-592.2494 1820,-608.2249 1840.8908,-627.9592 1922.5753,-1043.7205 1946.427,-1167.04"/>
<polygon fill="#000000" stroke="#000000" points="1943.0294,-1167.9055 1948.3622,-1177.0604 1949.9024,-1166.5781 1943.0294,-1167.9055"/>
</g>
<!-- misc_manifests&#45;&gt;bootstrap_ignition -->
<g id="edge59" class="edge">
<title>misc_manifests&#45;&gt;bootstrap_ignition</title>
<path fill="none" stroke="#000000" d="M1673.7538,-570.2441C1722.5096,-578.5239 1774.0502,-590.6036 1820,-608.2249 1858.1594,-622.8586 1896.9971,-649.2907 1922.7716,-668.8075"/>
<polygon fill="#000000" stroke="#000000" points="1920.9324,-671.8085 1930.9918,-675.1341 1925.2018,-666.2612 1920.9324,-671.8085"/>
</g>
<!-- secret_manifests&#45;&gt;manifests -->
<g id="edge86" class="edge">
<title>secret_manifests&#45;&gt;manifests</title>
<path fill="none" stroke="#000000" d="M1105.7609,-1153.7654C1294.3091,-1164.3273 1663.0842,-1184.9848 1845.5197,-1195.2042"/>
<polygon fill="#000000" stroke="#000000" points="1845.4843,-1198.7076 1855.6645,-1195.7725 1845.8759,-1191.7186 1845.4843,-1198.7076"/>
</g>
<!-- secret_manifests&#45;&gt;bootstrap_control_plane -->
<g id="edge52" class="edge">
<title>secret_manifests&#45;&gt;bootstrap_control_plane</title>
<path fill="none" stroke="#000000" d="M994.6155,-1129.0974C1010.4271,-1080.6554 1059.6155,-946.4366 1142,-866.2249 1219.9297,-790.3506 1337.8025,-740.5236 1412.0307,-714.6174"/>
<polygon fill="#000000" stroke="#000000" points="1413.439,-717.8344 1421.7572,-711.2725 1411.1626,-711.2148 1413.439,-717.8344"/>
</g>
<!-- secret_manifests&#45;&gt;bootstrap_ignition -->
<g id="edge58" class="edge">
<title>secret_manifests&#45;&gt;bootstrap_ignition</title>
<path fill="none" stroke="#000000" d="M1027.3848,-1129.1474C1179.2274,-1057.6365 1737.7657,-794.5904 1905.232,-715.7214"/>
<polygon fill="#000000" stroke="#000000" points="1907.2124,-718.6575 1914.7681,-711.2304 1904.2299,-712.3247 1907.2124,-718.6575"/>
</g>
<!-- bootstrap_ignition&#45;&gt;ignition_configs -->
<g id="edge91" class="edge">
<title>bootstrap_ignition&#45;&gt;ignition_configs</title>
<path fill="none" stroke="#000000" d="M1957.5438,-711.2549C1989.7224,-838.9423 2183.1744,-1606.5765 2226.4266,-1778.205"/>
<polygon fill="#000000" stroke="#000000" points="2223.049,-1779.1251 2228.8866,-1787.9666 2229.8368,-1777.4144 2223.049,-1779.1251"/>
</g>
<!-- bootstrap_ignition&#45;&gt;terraform_state -->
<g id="edge63" class="edge">
<title>bootstrap_ignition&#45;&gt;terraform_state</title>
<path fill="none" stroke="#000000" d="M2030.0577,-693.2249C2075.4047,-693.2249 2131.9464,-693.2249 2174.1469,-693.2249"/>
<polygon fill="#000000" stroke="#000000" points="2174.2788,-696.725 2184.2787,-693.2249 2174.2787,-689.725 2174.2788,-696.725"/>
</g>
<!-- master_ignition&#45;&gt;ignition_configs -->
<g id="edge92" class="edge">
<title>master_ignition&#45;&gt;ignition_configs</title>
<path fill="none" stroke="#000000" d="M2014.1898,-1877.2151C2051.986,-1866.0907 2101.1904,-1851.6086 2143.5559,-1839.1393"/>
<polygon fill="#000000" stroke="#000000" points="2144.7181,-1842.4457 2153.323,-1836.2646 2142.7416,-1835.7306 2144.7181,-1842.4457"/>
</g>
<!-- master_ignition&#45;&gt;terraform_state -->
<g id="edge64" class="edge">
<title>master_ignition&#45;&gt;terraform_state</title>
<path fill="none" stroke="#000000" d="M2002.5873,-1877.1775C2020.1847,-1868.3567 2038.4654,-1855.9541 2050,-1839.2249 2181.1283,-1649.0425 2225.7611,-880.4758 2233.6574,-721.9225"/>
<polygon fill="#000000" stroke="#000000" points="2237.1706,-721.7362 2234.1631,-711.5772 2230.1789,-721.3944 2237.1706,-721.7362"/>
</g>
<!-- worker_ignition&#45;&gt;ignition_configs -->
<g id="edge93" class="edge">
<title>worker_ignition&#45;&gt;ignition_configs</title>
<path fill="none" stroke="#000000" d="M2016.2863,-1812.2249C2034.0793,-1812.2249 2054.2733,-1812.2249 2075.0259,-1812.2249"/>
<polygon fill="#000000" stroke="#000000" points="2075.2504,-1815.725 2085.2503,-1812.2249 2075.2503,-1808.725 2075.2504,-1815.725"/>
</g>
<!-- worker_ignition&#45;&gt;terraform_state -->
<g id="edge65" class="edge">
<title>worker_ignition&#45;&gt;terraform_state</title>
<path fill="none" stroke="#000000" d="M1957.5438,-1794.1948C1990.0923,-1665.0393 2187.6442,-881.1369 2227.8585,-721.5631"/>
<polygon fill="#000000" stroke="#000000" points="2231.3275,-722.12 2230.3774,-711.5679 2224.5397,-720.4094 2231.3275,-722.12"/>
</g>
<!-- kubelet_kubeconfig&#45;&gt;manifests -->
<g id="edge88" class="edge">
<title>kubelet_kubeconfig&#45;&gt;manifests</title>
<path fill="none" stroke="#000000" d="M1587.2238,-1906.7009C1661.936,-1908.5962 1759.0805,-1897.6492 1820,-1839.2249 1908.582,-1754.2709 1942.5441,-1355.0944 1950.8437,-1235.2976"/>
<polygon fill="#000000" stroke="#000000" points="1954.3417,-1235.4443 1951.5259,-1225.2306 1947.3577,-1234.971 1954.3417,-1235.4443"/>
</g>
<!-- kubelet_kubeconfig&#45;&gt;bootstrap_ignition -->
<g id="edge60" class="edge">
<title>kubelet_kubeconfig&#45;&gt;bootstrap_ignition</title>
<path fill="none" stroke="#000000" d="M1587.1777,-1909.2491C1663.6379,-1912.832 1762.9935,-1902.8814 1820,-1839.2249 1869.8093,-1783.6051 1846.5048,-1242.2814 1856,-1168.2249 1877.9858,-996.7505 1927.1349,-794.6576 1945.7057,-721.4649"/>
<polygon fill="#000000" stroke="#000000" points="1949.1366,-722.1751 1948.2169,-711.6202 1942.3537,-720.4448 1949.1366,-722.1751"/>
</g>
<!-- kubelet_kubeconfig&#45;&gt;master_ignition -->
<g id="edge61" class="edge">
<title>kubelet_kubeconfig&#45;&gt;master_ignition</title>
<path fill="none" stroke="#000000" d="M1587.2201,-1895.2249C1676.4577,-1895.2249 1801.6243,-1895.2249 1879.9675,-1895.2249"/>
<polygon fill="#000000" stroke="#000000" points="1880.2292,-1898.725 1890.2292,-1895.2249 1880.2291,-1891.725 1880.2292,-1898.725"/>
</g>
<!-- kubelet_kubeconfig&#45;&gt;worker_ignition -->
<g id="edge62" class="edge">
<title>kubelet_kubeconfig&#45;&gt;worker_ignition</title>
<path fill="none" stroke="#000000" d="M1587.2925,-1878.689C1654.1859,-1868.0293 1742.2668,-1853.5306 1820,-1839.2249 1839.4365,-1835.6479 1860.4145,-1831.5163 1879.8373,-1827.5775"/>
<polygon fill="#000000" stroke="#000000" points="1880.7366,-1830.9663 1889.836,-1825.5394 1879.3384,-1824.1073 1880.7366,-1830.9663"/>
</g>
<!-- kubeconfig&#45;&gt;manifests -->
<g id="edge89" class="edge">
<title>kubeconfig&#45;&gt;manifests</title>
<path fill="none" stroke="#000000" d="M1545.2798,-366.6355C1623.1389,-387.6133 1752.2593,-434.3828 1820,-525.2249 1872.684,-595.8755 1839.2884,-633.6926 1856,-720.2249 1888.4261,-888.1266 1929.6411,-1088.4624 1945.9242,-1167.1311"/>
<polygon fill="#000000" stroke="#000000" points="1942.5081,-1167.8953 1947.9636,-1176.9776 1949.3626,-1166.4756 1942.5081,-1167.8953"/>
</g>
<!-- kubeconfig&#45;&gt;cluster -->
<g id="edge90" class="edge">
<title>kubeconfig&#45;&gt;cluster</title>
<path fill="none" stroke="#000000" d="M1545.1818,-359.9819C1613.4592,-368.4563 1724.5623,-382.8829 1820,-398.2249 2033.6043,-432.5625 2283.7868,-481.3887 2410.1146,-506.6522"/>
<polygon fill="#000000" stroke="#000000" points="2409.6097,-510.1205 2420.1023,-508.6521 2410.9841,-503.2567 2409.6097,-510.1205"/>
</g>
<!-- terraform_state&#45;&gt;cluster -->
<g id="edge94" class="edge">
<title>terraform_state&#45;&gt;cluster</title>
<path fill="none" stroke="#000000" d="M2262.5035,-675.0319C2306.6617,-645.8222 2393.8057,-588.1783 2447.0852,-552.9351"/>
<polygon fill="#000000" stroke="#000000" points="2449.2458,-555.7023 2455.6553,-547.2661 2445.3839,-549.864 2449.2458,-555.7023"/>
</g>
</g>
</svg>
