<?xml version="1.0" encoding="UTF-8" standalone="no"?>
<!DOCTYPE svg PUBLIC "-//W3C//DTD SVG 1.1//EN"
 "http://www.w3.org/Graphics/SVG/1.1/DTD/svg11.dtd">
<!-- Generated by graphviz version 2.30.1 (20170916.1124)
 -->
<!-- Title: resource Pages: 1 -->
<svg width="1337pt" height="1296pt"
 viewBox="0.00 0.00 1337.33 1296.00" xmlns="http://www.w3.org/2000/svg" xmlns:xlink="http://www.w3.org/1999/xlink">
<g id="graph0" class="graph" transform="scale(0.716683 0.716683) rotate(0) translate(4 1804.33)">
<title>resource</title>
<polygon fill="white" stroke="white" points="-4,5 -4,-1804.33 1863,-1804.33 1863,5 -4,5"/>
<!-- install_cfg -->
<g id="node1" class="node"><title>install_cfg</title>
<polygon fill="white" stroke="yellowgreen" stroke-width="3" points="623,-380.668 419,-380.668 419,-332.668 623,-332.668 623,-380.668"/>
<text text-anchor="middle" x="521" y="-347.868" font-family="Times,serif" font-size="36.00">install config</text>
</g>
<!-- manifests -->
<g id="node2" class="node"><title>manifests</title>
<polygon fill="white" stroke="yellowgreen" stroke-width="3" points="1432,-963.668 1278,-963.668 1278,-915.668 1432,-915.668 1432,-963.668"/>
<text text-anchor="middle" x="1355" y="-930.868" font-family="Times,serif" font-size="36.00">manifests</text>
</g>
<!-- ignition_configs -->
<g id="node3" class="node"><title>ignition_configs</title>
<polygon fill="white" stroke="yellowgreen" stroke-width="3" points="1710,-1375.67 1468,-1375.67 1468,-1327.67 1710,-1327.67 1710,-1375.67"/>
<text text-anchor="middle" x="1589" y="-1342.87" font-family="Times,serif" font-size="36.00">ignition configs</text>
</g>
<!-- cluster -->
<g id="node4" class="node"><title>cluster</title>
<polygon fill="white" stroke="yellowgreen" stroke-width="3" points="1858,-1268.67 1746,-1268.67 1746,-1220.67 1858,-1220.67 1858,-1268.67"/>
<text text-anchor="middle" x="1802" y="-1235.87" font-family="Times,serif" font-size="36.00">cluster</text>
</g>
<!-- base_domain -->
<g id="node5" class="node"><title>base_domain</title>
<polygon fill="gainsboro" stroke="gainsboro" points="124,-813.668 8,-813.668 8,-777.668 124,-777.668 124,-813.668"/>
<text text-anchor="middle" x="66" y="-790.668" font-family="Times,serif" font-size="20.00">base domain</text>
</g>
<!-- install_config -->
<g id="node12" class="node"><title>install_config</title>
<polygon fill="lightcoral" stroke="lightcoral" points="334,-582.668 168,-582.668 168,-546.668 334,-546.668 334,-582.668"/>
<text text-anchor="middle" x="251" y="-559.668" font-family="Times,serif" font-size="20.00">install&#45;config.yaml</text>
</g>
<!-- base_domain&#45;&gt;install_config -->
<g id="edge7" class="edge"><title>base_domain&#45;&gt;install_config</title>
<path fill="none" stroke="black" d="M98.4312,-777.636C110.487,-769.304 123.399,-758.413 132,-745.668 165.296,-696.327 132.505,-664.451 168,-616.668 176.493,-605.234 188.313,-595.683 200.337,-588.018"/>
<polygon fill="black" stroke="black" points="202.31,-590.916 209.085,-582.77 198.709,-584.913 202.31,-590.916"/>
</g>
<!-- cluster_name -->
<g id="node6" class="node"><title>cluster_name</title>
<polygon fill="gainsboro" stroke="gainsboro" points="125,-736.668 7,-736.668 7,-700.668 125,-700.668 125,-736.668"/>
<text text-anchor="middle" x="66" y="-713.668" font-family="Times,serif" font-size="20.00">cluster name</text>
</g>
<!-- cluster_name&#45;&gt;install_config -->
<g id="edge6" class="edge"><title>cluster_name&#45;&gt;install_config</title>
<path fill="none" stroke="black" d="M94.4864,-700.438C106.702,-691.63 120.815,-680.429 132,-668.668 151.372,-648.3 147.726,-636.139 168,-616.668 179.163,-605.947 192.866,-596.228 205.851,-588.17"/>
<polygon fill="black" stroke="black" points="207.915,-591.014 214.687,-582.866 204.311,-585.013 207.915,-591.014"/>
</g>
<!-- pull_secret -->
<g id="node7" class="node"><title>pull_secret</title>
<polygon fill="gainsboro" stroke="gainsboro" points="115,-659.668 17,-659.668 17,-623.668 115,-623.668 115,-659.668"/>
<text text-anchor="middle" x="66" y="-636.668" font-family="Times,serif" font-size="20.00">pull secret</text>
</g>
<!-- pull_secret&#45;&gt;install_config -->
<g id="edge5" class="edge"><title>pull_secret&#45;&gt;install_config</title>
<path fill="none" stroke="black" d="M109.905,-623.615C136.082,-612.601 169.734,-598.441 197.495,-586.76"/>
<polygon fill="black" stroke="black" points="199.187,-589.846 207.047,-582.741 196.472,-583.393 199.187,-589.846"/>
</g>
<!-- platform -->
<g id="node8" class="node"><title>platform</title>
<polygon fill="gainsboro" stroke="gainsboro" points="108.5,-582.668 23.5,-582.668 23.5,-546.668 108.5,-546.668 108.5,-582.668"/>
<text text-anchor="middle" x="66" y="-559.668" font-family="Times,serif" font-size="20.00">platform</text>
</g>
<!-- platform&#45;&gt;install_config -->
<g id="edge3" class="edge"><title>platform&#45;&gt;install_config</title>
<path fill="none" stroke="black" d="M108.526,-564.668C123.247,-564.668 140.458,-564.668 157.707,-564.668"/>
<polygon fill="black" stroke="black" points="157.849,-568.168 167.849,-564.668 157.849,-561.168 157.849,-568.168"/>
</g>
<!-- email_address -->
<g id="node9" class="node"><title>email_address</title>
<polygon fill="gainsboro" stroke="gainsboro" points="128.5,-505.668 3.5,-505.668 3.5,-469.668 128.5,-469.668 128.5,-505.668"/>
<text text-anchor="middle" x="66" y="-482.668" font-family="Times,serif" font-size="20.00">email address</text>
</g>
<!-- email_address&#45;&gt;install_config -->
<g id="edge4" class="edge"><title>email_address&#45;&gt;install_config</title>
<path fill="none" stroke="black" d="M109.905,-505.721C136.082,-516.735 169.734,-530.895 197.495,-542.576"/>
<polygon fill="black" stroke="black" points="196.472,-545.942 207.047,-546.595 199.187,-539.49 196.472,-545.942"/>
</g>
<!-- password -->
<g id="node10" class="node"><title>password</title>
<polygon fill="gainsboro" stroke="gainsboro" points="111.5,-428.668 20.5,-428.668 20.5,-392.668 111.5,-392.668 111.5,-428.668"/>
<text text-anchor="middle" x="66" y="-405.668" font-family="Times,serif" font-size="20.00">password</text>
</g>
<!-- password&#45;&gt;install_config -->
<g id="edge1" class="edge"><title>password&#45;&gt;install_config</title>
<path fill="none" stroke="black" d="M91.378,-428.811C103.707,-438.14 118.813,-449.805 132,-460.668 163.813,-486.874 199.132,-518.331 222.764,-539.737"/>
<polygon fill="black" stroke="black" points="220.553,-542.457 230.308,-546.589 225.259,-537.275 220.553,-542.457"/>
</g>
<!-- sshkey -->
<g id="node11" class="node"><title>sshkey</title>
<polygon fill="gainsboro" stroke="gainsboro" points="109.5,-351.668 22.5,-351.668 22.5,-315.668 109.5,-315.668 109.5,-351.668"/>
<text text-anchor="middle" x="66" y="-328.668" font-family="Times,serif" font-size="20.00">SSH key</text>
</g>
<!-- sshkey&#45;&gt;install_config -->
<g id="edge2" class="edge"><title>sshkey&#45;&gt;install_config</title>
<path fill="none" stroke="black" d="M94.6383,-351.755C106.884,-360.534 120.979,-371.753 132,-383.668 177.009,-432.331 216.105,-500.054 236.006,-537.338"/>
<polygon fill="black" stroke="black" points="233.112,-539.354 240.871,-546.568 239.304,-536.09 233.112,-539.354"/>
</g>
<!-- operator_manifests -->
<g id="node28" class="node"><title>operator_manifests</title>
<polygon fill="lightpink" stroke="lightpink" points="672,-613.668 370,-613.668 370,-577.668 672,-577.668 672,-613.668"/>
<text text-anchor="middle" x="521" y="-590.668" font-family="Times,serif" font-size="20.00">operator manifests and their configs</text>
</g>
<!-- install_config&#45;&gt;operator_manifests -->
<g id="edge8" class="edge"><title>install_config&#45;&gt;operator_manifests</title>
<path fill="none" stroke="black" d="M334.23,-574.18C342.414,-575.126 350.902,-576.108 359.543,-577.108"/>
<polygon fill="black" stroke="black" points="359.412,-580.616 369.748,-578.288 360.217,-573.662 359.412,-580.616"/>
</g>
<!-- mcc_bundle -->
<g id="node27" class="node"><title>mcc_bundle</title>
<polygon fill="violet" stroke="violet" points="661.5,-536.668 380.5,-536.668 380.5,-500.668 661.5,-500.668 661.5,-536.668"/>
<text text-anchor="middle" x="521" y="-513.668" font-family="Times,serif" font-size="20.00">machine config controller crt/key</text>
</g>
<!-- install_config&#45;&gt;mcc_bundle -->
<g id="edge14" class="edge"><title>install_config&#45;&gt;mcc_bundle</title>
<path fill="none" stroke="black" d="M334.23,-550.554C356.445,-546.741 380.902,-542.543 404.572,-538.48"/>
<polygon fill="black" stroke="black" points="405.395,-541.89 414.659,-536.749 404.211,-534.991 405.395,-541.89"/>
</g>
<!-- apiserver_bundle -->
<g id="node15" class="node"><title>apiserver_bundle</title>
<polygon fill="violet" stroke="violet" points="595.5,-822.668 446.5,-822.668 446.5,-786.668 595.5,-786.668 595.5,-822.668"/>
<text text-anchor="middle" x="521" y="-799.668" font-family="Times,serif" font-size="20.00">apiserver crt/key</text>
</g>
<!-- install_config&#45;&gt;apiserver_bundle -->
<g id="edge25" class="edge"><title>install_config&#45;&gt;apiserver_bundle</title>
<path fill="none" stroke="black" d="M265.654,-582.948C286.447,-610.127 328.075,-662.027 370,-699.668 405.026,-731.114 449.719,-761.313 481.176,-781.185"/>
<polygon fill="black" stroke="black" points="479.346,-784.169 489.679,-786.509 483.061,-778.236 479.346,-784.169"/>
</g>
<!-- ingress_bundle -->
<g id="node20" class="node"><title>ingress_bundle</title>
<polygon fill="violet" stroke="violet" points="587,-690.668 455,-690.668 455,-654.668 587,-654.668 587,-690.668"/>
<text text-anchor="middle" x="521" y="-667.668" font-family="Times,serif" font-size="20.00">ingress crt/key</text>
</g>
<!-- install_config&#45;&gt;ingress_bundle -->
<g id="edge29" class="edge"><title>install_config&#45;&gt;ingress_bundle</title>
<path fill="none" stroke="black" d="M285.778,-582.788C309.075,-594.907 340.961,-610.755 370,-622.668 395.785,-633.246 424.711,-643.298 450.231,-651.577"/>
<polygon fill="black" stroke="black" points="449.24,-654.935 459.831,-654.661 451.38,-648.27 449.24,-654.935"/>
</g>
<!-- openshift_apiserver_bundle -->
<g id="node23" class="node"><title>openshift_apiserver_bundle</title>
<polygon fill="violet" stroke="violet" points="1088.5,-100.668 861.5,-100.668 861.5,-64.6679 1088.5,-64.6679 1088.5,-100.668"/>
<text text-anchor="middle" x="975" y="-77.6679" font-family="Times,serif" font-size="20.00">openshift apiserver crt/key</text>
</g>
<!-- install_config&#45;&gt;openshift_apiserver_bundle -->
<g id="edge31" class="edge"><title>install_config&#45;&gt;openshift_apiserver_bundle</title>
<path fill="none" stroke="black" d="M256.869,-546.523C269.249,-503.275 305.598,-392.602 370,-323.668 488.396,-196.939 544.923,-187.69 708,-128.668 753.47,-112.211 805.497,-101.548 851.409,-94.6808"/>
<polygon fill="black" stroke="black" points="852.018,-98.1292 861.412,-93.2297 851.013,-91.2017 852.018,-98.1292"/>
</g>
<!-- kubeconfig_admin -->
<g id="node34" class="node"><title>kubeconfig_admin</title>
<polygon fill="lightblue" stroke="lightblue" points="1055.5,-1421.67 894.5,-1421.67 894.5,-1385.67 1055.5,-1385.67 1055.5,-1421.67"/>
<text text-anchor="middle" x="975" y="-1398.67" font-family="Times,serif" font-size="20.00">kubeconfig&#45;admin</text>
</g>
<!-- install_config&#45;&gt;kubeconfig_admin -->
<g id="edge37" class="edge"><title>install_config&#45;&gt;kubeconfig_admin</title>
<path fill="none" stroke="black" d="M256.547,-582.673C270.265,-637.618 311.666,-808.139 334,-951.668 346.328,-1030.89 314.823,-1252.5 370,-1310.67 404.897,-1347.46 724.518,-1381.16 884.145,-1395.88"/>
<polygon fill="black" stroke="black" points="884.146,-1399.39 894.423,-1396.82 884.784,-1392.42 884.146,-1399.39"/>
</g>
<!-- kubeconfig_kubelet -->
<g id="node35" class="node"><title>kubeconfig_kubelet</title>
<polygon fill="lightblue" stroke="lightblue" points="1060,-1235.67 890,-1235.67 890,-1199.67 1060,-1199.67 1060,-1235.67"/>
<text text-anchor="middle" x="975" y="-1212.67" font-family="Times,serif" font-size="20.00">kubeconfig&#45;kubelet</text>
</g>
<!-- install_config&#45;&gt;kubeconfig_kubelet -->
<g id="edge38" class="edge"><title>install_config&#45;&gt;kubeconfig_kubelet</title>
<path fill="none" stroke="black" d="M256.246,-582.749C267.768,-628.707 303.33,-751.989 370,-831.668 527.488,-1019.88 800.763,-1147.18 917.979,-1195.72"/>
<polygon fill="black" stroke="black" points="916.909,-1199.07 927.489,-1199.63 919.569,-1192.59 916.909,-1199.07"/>
</g>
<!-- install_config&#45;&gt;install_cfg -->
<g id="edge58" class="edge"><title>install_config&#45;&gt;install_cfg</title>
<path fill="none" stroke="black" d="M261.951,-546.378C279.751,-515.236 319.91,-451.698 370,-414.668 386.497,-402.472 405.881,-392.5 425.135,-384.478"/>
<polygon fill="black" stroke="black" points="426.586,-387.667 434.564,-380.696 423.98,-381.171 426.586,-387.667"/>
</g>
<!-- terraform_state -->
<g id="node36" class="node"><title>terraform_state</title>
<polygon fill="gold" stroke="gold" points="1629,-1230.67 1549,-1230.67 1549,-1194.67 1629,-1194.67 1629,-1230.67"/>
<text text-anchor="middle" x="1589" y="-1207.67" font-family="Times,serif" font-size="20.00">*.tfstate</text>
</g>
<!-- install_config&#45;&gt;terraform_state -->
<g id="edge59" class="edge"><title>install_config&#45;&gt;terraform_state</title>
<path fill="none" stroke="black" d="M254.602,-546.27C265.424,-472.3 309.161,-197.743 370,-138.668 509.651,-3.06673 1077.91,49.0381 1242,-55.6679 1445.66,-185.618 1563.04,-1019.22 1584.44,-1184.29"/>
<polygon fill="black" stroke="black" points="1581.01,-1185.12 1585.76,-1194.59 1587.96,-1184.23 1581.01,-1185.12"/>
</g>
<!-- admin_bundle -->
<g id="node13" class="node"><title>admin_bundle</title>
<polygon fill="violet" stroke="violet" points="584,-1432.67 458,-1432.67 458,-1396.67 584,-1396.67 584,-1432.67"/>
<text text-anchor="middle" x="521" y="-1409.67" font-family="Times,serif" font-size="20.00">admin crt/key</text>
</g>
<!-- admin_bundle&#45;&gt;kubeconfig_admin -->
<g id="edge35" class="edge"><title>admin_bundle&#45;&gt;kubeconfig_admin</title>
<path fill="none" stroke="black" d="M584.374,-1413.15C662.143,-1411.26 795.628,-1408.01 884.347,-1405.85"/>
<polygon fill="black" stroke="black" points="884.488,-1409.35 894.4,-1405.61 884.317,-1402.35 884.488,-1409.35"/>
</g>
<!-- admin_bundle&#45;&gt;manifests -->
<g id="edge60" class="edge"><title>admin_bundle&#45;&gt;manifests</title>
<path fill="none" stroke="black" d="M584.324,-1401.4C620.397,-1393.86 666.696,-1384.4 708,-1376.67 944.64,-1332.34 1059.93,-1443.2 1242,-1285.67 1335.78,-1204.52 1351.59,-1044.21 1353.86,-973.986"/>
<polygon fill="black" stroke="black" points="1357.36,-973.99 1354.12,-963.905 1350.37,-973.815 1357.36,-973.99"/>
</g>
<!-- aggregator_ca_bundle -->
<g id="node14" class="node"><title>aggregator_ca_bundle</title>
<polygon fill="violet" stroke="violet" points="613.5,-459.668 428.5,-459.668 428.5,-423.668 613.5,-423.668 613.5,-459.668"/>
<text text-anchor="middle" x="521" y="-436.668" font-family="Times,serif" font-size="20.00">aggregator ca crt/key</text>
</g>
<!-- aggregator_ca_bundle&#45;&gt;openshift_apiserver_bundle -->
<g id="edge30" class="edge"><title>aggregator_ca_bundle&#45;&gt;openshift_apiserver_bundle</title>
<path fill="none" stroke="black" d="M613.833,-427.135C635.826,-419.426 657.199,-407.65 672,-389.668 744.739,-301.297 629.231,-217.71 708,-134.668 744.431,-96.261 800.212,-81.568 851.301,-77.1637"/>
<polygon fill="black" stroke="black" points="851.733,-80.6414 861.449,-76.416 851.219,-73.6603 851.733,-80.6414"/>
</g>
<!-- apiserver_proxy_bundle -->
<g id="node16" class="node"><title>apiserver_proxy_bundle</title>
<polygon fill="violet" stroke="violet" points="1075,-231.668 875,-231.668 875,-195.668 1075,-195.668 1075,-231.668"/>
<text text-anchor="middle" x="975" y="-208.668" font-family="Times,serif" font-size="20.00">apiserver proxy crt/key</text>
</g>
<!-- aggregator_ca_bundle&#45;&gt;apiserver_proxy_bundle -->
<g id="edge32" class="edge"><title>aggregator_ca_bundle&#45;&gt;apiserver_proxy_bundle</title>
<path fill="none" stroke="black" d="M613.724,-425.104C635.192,-417.413 656.338,-406.153 672,-389.668 711.528,-348.065 665.647,-304.391 708,-265.668 749.923,-227.338 811.458,-213.595 864.786,-209.773"/>
<polygon fill="black" stroke="black" points="865.218,-213.254 874.987,-209.154 864.794,-206.267 865.218,-213.254"/>
</g>
<!-- clusterapi_apiserver_bundle -->
<g id="node17" class="node"><title>clusterapi_apiserver_bundle</title>
<polygon fill="violet" stroke="violet" points="1090.5,-548.668 859.5,-548.668 859.5,-512.668 1090.5,-512.668 1090.5,-548.668"/>
<text text-anchor="middle" x="975" y="-525.668" font-family="Times,serif" font-size="20.00">clusterapi apiserver crt/key</text>
</g>
<!-- aggregator_ca_bundle&#45;&gt;clusterapi_apiserver_bundle -->
<g id="edge33" class="edge"><title>aggregator_ca_bundle&#45;&gt;clusterapi_apiserver_bundle</title>
<path fill="none" stroke="black" d="M606.182,-459.708C638.049,-466.434 674.669,-474.042 708,-480.668 759.74,-490.954 817.256,-501.834 865.532,-510.809"/>
<polygon fill="black" stroke="black" points="864.902,-514.252 875.373,-512.636 866.18,-507.37 864.902,-514.252"/>
</g>
<!-- bootstrap_ignition -->
<g id="node31" class="node"><title>bootstrap_ignition</title>
<polygon fill="sandybrown" stroke="sandybrown" points="1414.5,-509.668 1295.5,-509.668 1295.5,-473.668 1414.5,-473.668 1414.5,-509.668"/>
<text text-anchor="middle" x="1355" y="-486.668" font-family="Times,serif" font-size="20.00">bootstrap.ign</text>
</g>
<!-- aggregator_ca_bundle&#45;&gt;bootstrap_ignition -->
<g id="edge34" class="edge"><title>aggregator_ca_bundle&#45;&gt;bootstrap_ignition</title>
<path fill="none" stroke="black" d="M613.799,-426.643C635.658,-418.934 656.974,-407.281 672,-389.668 731.47,-319.959 637.778,-245.532 708,-186.668 798.941,-110.435 1144.7,-118.743 1242,-186.668 1334.29,-251.09 1350.75,-400.36 1353.53,-463.089"/>
<polygon fill="black" stroke="black" points="1350.04,-463.544 1353.89,-473.414 1357.04,-463.297 1350.04,-463.544"/>
</g>
<!-- aggregator_ca_bundle&#45;&gt;manifests -->
<g id="edge61" class="edge"><title>aggregator_ca_bundle&#45;&gt;manifests</title>
<path fill="none" stroke="black" d="M613.694,-456.423C635.291,-463.835 656.506,-474.964 672,-491.668 716.57,-539.718 659.324,-590.782 708,-634.668 886.093,-795.234 1048.06,-570.65 1242,-711.668 1307.07,-758.983 1336.28,-854.648 1347.69,-905.724"/>
<polygon fill="black" stroke="black" points="1344.29,-906.567 1349.8,-915.616 1351.14,-905.105 1344.29,-906.567"/>
</g>
<!-- bootstrap_control_plane -->
<g id="node29" class="node"><title>bootstrap_control_plane</title>
<polygon fill="lightpink" stroke="lightpink" points="1114.5,-1050.67 835.5,-1050.67 835.5,-1014.67 1114.5,-1014.67 1114.5,-1050.67"/>
<text text-anchor="middle" x="975" y="-1027.67" font-family="Times,serif" font-size="20.00">bootstrap control plane manifests</text>
</g>
<!-- apiserver_bundle&#45;&gt;bootstrap_control_plane -->
<g id="edge39" class="edge"><title>apiserver_bundle&#45;&gt;bootstrap_control_plane</title>
<path fill="none" stroke="black" d="M595.806,-815.05C622.976,-822.316 651.972,-834.669 672,-855.668 711.902,-897.504 665.374,-941.611 708,-980.668 739.798,-1009.8 782.922,-1024.74 825.187,-1031.91"/>
<polygon fill="black" stroke="black" points="824.91,-1035.41 835.329,-1033.49 825.986,-1028.5 824.91,-1035.41"/>
</g>
<!-- apiserver_bundle&#45;&gt;manifests -->
<g id="edge62" class="edge"><title>apiserver_bundle&#45;&gt;manifests</title>
<path fill="none" stroke="black" d="M595.762,-817.648C622.139,-825.219 650.601,-837.101 672,-855.668 698.724,-878.854 678.04,-907.85 708,-926.668 881.472,-1035.63 1136.18,-995.749 1267.95,-963.934"/>
<polygon fill="black" stroke="black" points="1269.12,-967.252 1278,-961.467 1267.45,-960.454 1269.12,-967.252"/>
</g>
<!-- apiserver_proxy_bundle&#45;&gt;bootstrap_ignition -->
<g id="edge40" class="edge"><title>apiserver_proxy_bundle&#45;&gt;bootstrap_ignition</title>
<path fill="none" stroke="black" d="M1075.01,-212.402C1129.18,-216.436 1194.68,-229.556 1242,-265.668 1307.84,-315.911 1337.52,-415.263 1348.54,-463.743"/>
<polygon fill="black" stroke="black" points="1345.13,-464.524 1350.67,-473.553 1351.97,-463.038 1345.13,-464.524"/>
</g>
<!-- apiserver_proxy_bundle&#45;&gt;manifests -->
<g id="edge63" class="edge"><title>apiserver_proxy_bundle&#45;&gt;manifests</title>
<path fill="none" stroke="black" d="M1011.78,-231.761C1069.86,-263.09 1183.99,-333.16 1242,-426.668 1292.77,-508.498 1336.02,-804.664 1349.59,-905.655"/>
<polygon fill="black" stroke="black" points="1346.13,-906.175 1350.91,-915.626 1353.06,-905.251 1346.13,-906.175"/>
</g>
<!-- clusterapi_apiserver_bundle&#45;&gt;bootstrap_ignition -->
<g id="edge41" class="edge"><title>clusterapi_apiserver_bundle&#45;&gt;bootstrap_ignition</title>
<path fill="none" stroke="black" d="M1090.7,-518.834C1154.17,-512.285 1230.94,-504.364 1285.17,-498.77"/>
<polygon fill="black" stroke="black" points="1285.77,-502.226 1295.36,-497.718 1285.05,-495.263 1285.77,-502.226"/>
</g>
<!-- clusterapi_apiserver_bundle&#45;&gt;manifests -->
<g id="edge64" class="edge"><title>clusterapi_apiserver_bundle&#45;&gt;manifests</title>
<path fill="none" stroke="black" d="M1090.78,-526.639C1142.59,-530.715 1201.19,-544.359 1242,-580.668 1338.27,-666.321 1352.67,-833.29 1354.22,-905.279"/>
<polygon fill="black" stroke="black" points="1350.72,-905.641 1354.36,-915.59 1357.72,-905.542 1350.72,-905.641"/>
</g>
<!-- etcd_ca_bundle -->
<g id="node18" class="node"><title>etcd_ca_bundle</title>
<polygon fill="violet" stroke="violet" points="317.5,-1301.67 184.5,-1301.67 184.5,-1265.67 317.5,-1265.67 317.5,-1301.67"/>
<text text-anchor="middle" x="251" y="-1278.67" font-family="Times,serif" font-size="20.00">etcd ca crt/key</text>
</g>
<!-- etcd_client_bundle -->
<g id="node19" class="node"><title>etcd_client_bundle</title>
<polygon fill="violet" stroke="violet" points="600,-1301.67 442,-1301.67 442,-1265.67 600,-1265.67 600,-1301.67"/>
<text text-anchor="middle" x="521" y="-1278.67" font-family="Times,serif" font-size="20.00">etcd client crt/key</text>
</g>
<!-- etcd_ca_bundle&#45;&gt;etcd_client_bundle -->
<g id="edge20" class="edge"><title>etcd_ca_bundle&#45;&gt;etcd_client_bundle</title>
<path fill="none" stroke="black" d="M317.56,-1283.67C351.838,-1283.67 394.284,-1283.67 431.442,-1283.67"/>
<polygon fill="black" stroke="black" points="431.771,-1287.17 441.771,-1283.67 431.771,-1280.17 431.771,-1287.17"/>
</g>
<!-- master_ignition -->
<g id="node32" class="node"><title>master_ignition</title>
<polygon fill="sandybrown" stroke="sandybrown" points="1405,-1365.67 1305,-1365.67 1305,-1329.67 1405,-1329.67 1405,-1365.67"/>
<text text-anchor="middle" x="1355" y="-1342.67" font-family="Times,serif" font-size="20.00">master.ign</text>
</g>
<!-- etcd_ca_bundle&#45;&gt;master_ignition -->
<g id="edge21" class="edge"><title>etcd_ca_bundle&#45;&gt;master_ignition</title>
<path fill="none" stroke="black" d="M253.584,-1301.75C259.046,-1351.66 281.934,-1491.48 370,-1548.67 532.518,-1654.2 1089.92,-1668.75 1242,-1548.67 1296.15,-1505.91 1238.39,-1454.16 1278,-1397.67 1285.3,-1387.26 1295.52,-1378.45 1306.1,-1371.27"/>
<polygon fill="black" stroke="black" points="1308.06,-1374.18 1314.62,-1365.86 1304.3,-1368.27 1308.06,-1374.18"/>
</g>
<!-- etcd_ca_bundle&#45;&gt;bootstrap_control_plane -->
<g id="edge22" class="edge"><title>etcd_ca_bundle&#45;&gt;bootstrap_control_plane</title>
<path fill="none" stroke="black" d="M259.752,-1265.59C275.254,-1231.85 313.509,-1159.61 370,-1125.67 508.462,-1042.47 695.868,-1025.34 825.025,-1025.12"/>
<polygon fill="black" stroke="black" points="825.382,-1028.62 835.388,-1025.14 825.394,-1021.62 825.382,-1028.62"/>
</g>
<!-- etcd_ca_bundle&#45;&gt;manifests -->
<g id="edge65" class="edge"><title>etcd_ca_bundle&#45;&gt;manifests</title>
<path fill="none" stroke="black" d="M258.963,-1301.74C273.475,-1336.52 310.624,-1411.9 370,-1441.67 489.79,-1501.72 1123.87,-1526.77 1242,-1430.67 1260.13,-1415.92 1326.14,-1083.1 1347.37,-973.974"/>
<polygon fill="black" stroke="black" points="1350.87,-974.321 1349.34,-963.837 1344,-972.986 1350.87,-974.321"/>
</g>
<!-- etcd_client_bundle&#45;&gt;bootstrap_control_plane -->
<g id="edge42" class="edge"><title>etcd_client_bundle&#45;&gt;bootstrap_control_plane</title>
<path fill="none" stroke="black" d="M554.507,-1265.62C634.956,-1220.94 843.275,-1105.26 932.473,-1055.73"/>
<polygon fill="black" stroke="black" points="934.441,-1058.64 941.485,-1050.72 931.043,-1052.52 934.441,-1058.64"/>
</g>
<!-- etcd_client_bundle&#45;&gt;manifests -->
<g id="edge66" class="edge"><title>etcd_client_bundle&#45;&gt;manifests</title>
<path fill="none" stroke="black" d="M600.155,-1289.87C765.181,-1301.33 1142.21,-1318.42 1242,-1244.67 1329.66,-1179.88 1348.8,-1039.11 1352.91,-973.989"/>
<polygon fill="black" stroke="black" points="1356.42,-974.019 1353.47,-963.842 1349.43,-973.635 1356.42,-974.019"/>
</g>
<!-- ingress_bundle&#45;&gt;bootstrap_ignition -->
<g id="edge43" class="edge"><title>ingress_bundle&#45;&gt;bootstrap_ignition</title>
<path fill="none" stroke="black" d="M587.251,-666.06C617.226,-659.652 650.755,-647.119 672,-622.668 730.09,-555.811 639.951,-483.357 708,-426.668 799.175,-350.714 1127.41,-395.826 1242,-426.668 1271.57,-434.628 1301.39,-452.523 1322.81,-467.525"/>
<polygon fill="black" stroke="black" points="1321.01,-470.536 1331.17,-473.528 1325.09,-464.851 1321.01,-470.536"/>
</g>
<!-- ingress_bundle&#45;&gt;manifests -->
<g id="edge67" class="edge"><title>ingress_bundle&#45;&gt;manifests</title>
<path fill="none" stroke="black" d="M559.82,-690.816C593.452,-708.685 641.844,-738.904 672,-777.668 699.724,-813.306 672.183,-845.175 708,-872.668 802.612,-945.293 1123.43,-913.792 1242,-926.668 1250.32,-927.572 1258.99,-928.536 1267.65,-929.516"/>
<polygon fill="black" stroke="black" points="1267.47,-933.018 1277.8,-930.671 1268.26,-926.063 1267.47,-933.018"/>
</g>
<!-- kube_ca_bundle -->
<g id="node21" class="node"><title>kube_ca_bundle</title>
<polygon fill="violet" stroke="violet" points="320,-996.668 182,-996.668 182,-960.668 320,-960.668 320,-996.668"/>
<text text-anchor="middle" x="251" y="-973.668" font-family="Times,serif" font-size="20.00">kube ca crt/key</text>
</g>
<!-- kube_ca_bundle&#45;&gt;admin_bundle -->
<g id="edge23" class="edge"><title>kube_ca_bundle&#45;&gt;admin_bundle</title>
<path fill="none" stroke="black" d="M257.334,-996.869C279.468,-1072.29 363.246,-1356.71 370,-1363.67 390.554,-1384.86 420.237,-1397.24 447.782,-1404.48"/>
<polygon fill="black" stroke="black" points="447.268,-1407.96 457.812,-1406.92 448.924,-1401.16 447.268,-1407.96"/>
</g>
<!-- kube_ca_bundle&#45;&gt;apiserver_bundle -->
<g id="edge24" class="edge"><title>kube_ca_bundle&#45;&gt;apiserver_bundle</title>
<path fill="none" stroke="black" d="M279.922,-960.539C328.689,-928.878 429.339,-863.53 483.538,-828.341"/>
<polygon fill="black" stroke="black" points="485.659,-831.137 492.141,-822.756 481.847,-825.266 485.659,-831.137"/>
</g>
<!-- kubelet_bundle -->
<g id="node22" class="node"><title>kubelet_bundle</title>
<polygon fill="violet" stroke="violet" points="588,-1170.67 454,-1170.67 454,-1134.67 588,-1134.67 588,-1170.67"/>
<text text-anchor="middle" x="521" y="-1147.67" font-family="Times,serif" font-size="20.00">kubelet crt/key</text>
</g>
<!-- kube_ca_bundle&#45;&gt;kubelet_bundle -->
<g id="edge26" class="edge"><title>kube_ca_bundle&#45;&gt;kubelet_bundle</title>
<path fill="none" stroke="black" d="M265.202,-996.998C285.113,-1023.41 325.285,-1072.14 370,-1100.67 392.462,-1115 419.348,-1125.92 444.115,-1133.97"/>
<polygon fill="black" stroke="black" points="443.262,-1137.37 453.851,-1137.02 445.356,-1130.69 443.262,-1137.37"/>
</g>
<!-- kube_ca_bundle&#45;&gt;ingress_bundle -->
<g id="edge27" class="edge"><title>kube_ca_bundle&#45;&gt;ingress_bundle</title>
<path fill="none" stroke="black" d="M259.419,-960.609C275.406,-923.251 316.065,-836.092 370,-777.668 401.14,-743.935 444.885,-714.846 477.101,-695.896"/>
<polygon fill="black" stroke="black" points="478.961,-698.863 485.862,-690.825 475.454,-692.805 478.961,-698.863"/>
</g>
<!-- kube_ca_bundle&#45;&gt;bootstrap_control_plane -->
<g id="edge28" class="edge"><title>kube_ca_bundle&#45;&gt;bootstrap_control_plane</title>
<path fill="none" stroke="black" d="M320.203,-969.188C336.487,-967.31 353.834,-965.624 370,-964.668 503.988,-956.747 540.702,-936.805 672,-964.668 689.128,-968.303 691.302,-975.399 708,-980.668 750.672,-994.132 798.345,-1004.77 841.416,-1012.82"/>
<polygon fill="black" stroke="black" points="840.924,-1016.29 851.392,-1014.65 842.19,-1009.4 840.924,-1016.29"/>
</g>
<!-- kube_ca_bundle&#45;&gt;manifests -->
<g id="edge68" class="edge"><title>kube_ca_bundle&#45;&gt;manifests</title>
<path fill="none" stroke="black" d="M320.253,-994.667C408.981,-1014.57 569.034,-1047.42 708,-1059.67 944.417,-1080.5 1024.33,-1154.26 1242,-1059.67 1282.62,-1042.02 1315.2,-1001.57 1334.53,-972.508"/>
<polygon fill="black" stroke="black" points="1337.61,-974.191 1340.1,-963.893 1331.73,-970.392 1337.61,-974.191"/>
</g>
<!-- kubelet_bundle&#45;&gt;kubeconfig_kubelet -->
<g id="edge36" class="edge"><title>kubelet_bundle&#45;&gt;kubeconfig_kubelet</title>
<path fill="none" stroke="black" d="M588.209,-1162.19C665.181,-1173.26 792.782,-1191.61 880,-1204.15"/>
<polygon fill="black" stroke="black" points="879.503,-1207.61 889.899,-1205.57 880.499,-1200.69 879.503,-1207.61"/>
</g>
<!-- kubelet_bundle&#45;&gt;manifests -->
<g id="edge69" class="edge"><title>kubelet_bundle&#45;&gt;manifests</title>
<path fill="none" stroke="black" d="M588.243,-1156.34C744.694,-1163.86 1132.19,-1175.31 1242,-1111.67 1294.98,-1080.97 1327.3,-1013.99 1342.82,-973.264"/>
<polygon fill="black" stroke="black" points="1346.15,-974.354 1346.32,-963.761 1339.58,-971.935 1346.15,-974.354"/>
</g>
<!-- openshift_apiserver_bundle&#45;&gt;bootstrap_ignition -->
<g id="edge44" class="edge"><title>openshift_apiserver_bundle&#45;&gt;bootstrap_ignition</title>
<path fill="none" stroke="black" d="M1088.82,-79.4592C1141.13,-83.7619 1200.71,-97.7218 1242,-134.668 1340.13,-222.473 1353.08,-395.072 1354.22,-463.118"/>
<polygon fill="black" stroke="black" points="1350.72,-463.51 1354.31,-473.478 1357.72,-463.447 1350.72,-463.51"/>
</g>
<!-- openshift_apiserver_bundle&#45;&gt;manifests -->
<g id="edge70" class="edge"><title>openshift_apiserver_bundle&#45;&gt;manifests</title>
<path fill="none" stroke="black" d="M1088.81,-99.0014C1143.62,-112.963 1205.39,-138.819 1242,-186.668 1287.09,-245.608 1267.4,-445.218 1278,-518.668 1298.83,-663.055 1332.44,-833.712 1346.95,-905.331"/>
<polygon fill="black" stroke="black" points="1343.61,-906.458 1349.03,-915.56 1350.47,-905.064 1343.61,-906.458"/>
</g>
<!-- root_ca_bundle -->
<g id="node24" class="node"><title>root_ca_bundle</title>
<polygon fill="violet" stroke="violet" points="131.5,-1235.67 0.5,-1235.67 0.5,-1199.67 131.5,-1199.67 131.5,-1235.67"/>
<text text-anchor="middle" x="66" y="-1212.67" font-family="Times,serif" font-size="20.00">root ca crt/key</text>
</g>
<!-- root_ca_bundle&#45;&gt;kube_ca_bundle -->
<g id="edge9" class="edge"><title>root_ca_bundle&#45;&gt;kube_ca_bundle</title>
<path fill="none" stroke="black" d="M81.0558,-1199.31C113.269,-1157.24 192.523,-1053.73 229.889,-1004.93"/>
<polygon fill="black" stroke="black" points="232.846,-1006.83 236.147,-996.76 227.288,-1002.57 232.846,-1006.83"/>
</g>
<!-- root_ca_bundle&#45;&gt;etcd_ca_bundle -->
<g id="edge10" class="edge"><title>root_ca_bundle&#45;&gt;etcd_ca_bundle</title>
<path fill="none" stroke="black" d="M117.006,-1235.7C139.7,-1243.89 166.716,-1253.63 190.451,-1262.19"/>
<polygon fill="black" stroke="black" points="189.461,-1265.55 200.055,-1265.65 191.835,-1258.97 189.461,-1265.55"/>
</g>
<!-- root_ca_bundle&#45;&gt;aggregator_ca_bundle -->
<g id="edge11" class="edge"><title>root_ca_bundle&#45;&gt;aggregator_ca_bundle</title>
<path fill="none" stroke="black" d="M69.9175,-1199.63C85.4945,-1103.51 158.508,-655.531 168,-644.668 218.957,-586.347 278.246,-645.422 334,-591.668 368.006,-558.882 336.203,-524.669 370,-491.668 383.631,-478.358 400.895,-468.59 418.821,-461.422"/>
<polygon fill="black" stroke="black" points="420.096,-464.682 428.24,-457.905 417.648,-458.124 420.096,-464.682"/>
</g>
<!-- service_serving_ca_bundle -->
<g id="node26" class="node"><title>service_serving_ca_bundle</title>
<polygon fill="violet" stroke="violet" points="1084.5,-756.668 865.5,-756.668 865.5,-720.668 1084.5,-720.668 1084.5,-756.668"/>
<text text-anchor="middle" x="975" y="-733.668" font-family="Times,serif" font-size="20.00">service serving ca crt/key</text>
</g>
<!-- root_ca_bundle&#45;&gt;service_serving_ca_bundle -->
<g id="edge12" class="edge"><title>root_ca_bundle&#45;&gt;service_serving_ca_bundle</title>
<path fill="none" stroke="black" d="M69.288,-1199.62C76.2597,-1150.64 101.005,-1012.83 168,-922.668 233.912,-833.962 265.944,-814.89 370,-777.668 530.591,-720.222 730.348,-719.943 855.049,-727.433"/>
<polygon fill="black" stroke="black" points="855.186,-730.948 865.386,-728.082 855.625,-723.962 855.186,-730.948"/>
</g>
<!-- root_ca_bundle&#45;&gt;mcc_bundle -->
<g id="edge13" class="edge"><title>root_ca_bundle&#45;&gt;mcc_bundle</title>
<path fill="none" stroke="black" d="M69.7557,-1199.44C82.6647,-1114.89 137.795,-763.435 168,-724.668 218.336,-660.064 276.284,-702.773 334,-644.668 360.34,-618.151 342.026,-593.455 370,-568.668 383.695,-556.533 400.427,-547.328 417.687,-540.349"/>
<polygon fill="black" stroke="black" points="419.206,-543.516 427.314,-536.697 416.723,-536.971 419.206,-543.516"/>
</g>
<!-- root_ca_bundle&#45;&gt;kubeconfig_admin -->
<g id="edge15" class="edge"><title>root_ca_bundle&#45;&gt;kubeconfig_admin</title>
<path fill="none" stroke="black" d="M82.6716,-1235.93C123.893,-1282.28 241.09,-1403.53 370,-1441.67 555.027,-1496.41 785.42,-1453.06 900.871,-1424.18"/>
<polygon fill="black" stroke="black" points="901.837,-1427.54 910.669,-1421.69 900.115,-1420.76 901.837,-1427.54"/>
</g>
<!-- root_ca_bundle&#45;&gt;kubeconfig_kubelet -->
<g id="edge16" class="edge"><title>root_ca_bundle&#45;&gt;kubeconfig_kubelet</title>
<path fill="none" stroke="black" d="M131.502,-1217.67C289.191,-1217.67 694.789,-1217.67 879.655,-1217.67"/>
<polygon fill="black" stroke="black" points="879.9,-1221.17 889.9,-1217.67 879.9,-1214.17 879.9,-1221.17"/>
</g>
<!-- root_ca_bundle&#45;&gt;bootstrap_control_plane -->
<g id="edge17" class="edge"><title>root_ca_bundle&#45;&gt;bootstrap_control_plane</title>
<path fill="none" stroke="black" d="M67.4936,-1199.41C69.9387,-1149.62 84.3053,-1011.27 168,-951.668 241.163,-899.568 280.193,-947.001 370,-945.668 504.207,-943.675 545.795,-899.975 672,-945.668 691.583,-952.758 689.273,-966.554 708,-975.668 744.213,-993.291 785.815,-1005.5 825.198,-1013.94"/>
<polygon fill="black" stroke="black" points="824.656,-1017.4 835.158,-1016.01 826.078,-1010.55 824.656,-1017.4"/>
</g>
<!-- root_ca_bundle&#45;&gt;master_ignition -->
<g id="edge18" class="edge"><title>root_ca_bundle&#45;&gt;master_ignition</title>
<path fill="none" stroke="black" d="M68.9173,-1236.08C76.6495,-1306.38 108.04,-1556.23 168,-1602.67 356.695,-1748.8 1059.35,-1758.29 1242,-1604.67 1313.46,-1544.56 1226.78,-1475.75 1278,-1397.67 1284.9,-1387.14 1294.87,-1378.33 1305.33,-1371.17"/>
<polygon fill="black" stroke="black" points="1307.22,-1374.12 1313.78,-1365.79 1303.46,-1368.21 1307.22,-1374.12"/>
</g>
<!-- worker_ignition -->
<g id="node33" class="node"><title>worker_ignition</title>
<polygon fill="sandybrown" stroke="sandybrown" points="1406.5,-1442.67 1303.5,-1442.67 1303.5,-1406.67 1406.5,-1406.67 1406.5,-1442.67"/>
<text text-anchor="middle" x="1355" y="-1419.67" font-family="Times,serif" font-size="20.00">worker.ign</text>
</g>
<!-- root_ca_bundle&#45;&gt;worker_ignition -->
<g id="edge19" class="edge"><title>root_ca_bundle&#45;&gt;worker_ignition</title>
<path fill="none" stroke="black" d="M68.8299,-1235.74C76.6638,-1309.67 109.66,-1588.18 168,-1650.67 232.088,-1719.31 277.128,-1698.74 370,-1712.67 753.65,-1770.22 923.626,-1895.34 1242,-1673.67 1317.15,-1621.34 1342.66,-1506.19 1350.65,-1452.83"/>
<polygon fill="black" stroke="black" points="1354.15,-1453.11 1352.07,-1442.72 1347.22,-1452.14 1354.15,-1453.11"/>
</g>
<!-- root_ca_bundle&#45;&gt;manifests -->
<g id="edge71" class="edge"><title>root_ca_bundle&#45;&gt;manifests</title>
<path fill="none" stroke="black" d="M73.6266,-1235.85C86.775,-1269.68 119.175,-1342.82 168,-1386.67 241.532,-1452.71 273.455,-1458.51 370,-1479.67 516.107,-1511.69 1173.82,-1532.39 1242,-1476.67 1246.99,-1472.59 1323.62,-1091.46 1347.17,-973.839"/>
<polygon fill="black" stroke="black" points="1350.62,-974.42 1349.15,-963.928 1343.76,-973.046 1350.62,-974.42"/>
</g>
<!-- service_account_bundle -->
<g id="node25" class="node"><title>service_account_bundle</title>
<polygon fill="violet" stroke="violet" points="1079,-471.668 871,-471.668 871,-435.668 1079,-435.668 1079,-471.668"/>
<text text-anchor="middle" x="975" y="-448.668" font-family="Times,serif" font-size="20.00">service account pub/key</text>
</g>
<!-- service_account_bundle&#45;&gt;bootstrap_ignition -->
<g id="edge45" class="edge"><title>service_account_bundle&#45;&gt;bootstrap_ignition</title>
<path fill="none" stroke="black" d="M1079.29,-464.052C1144.76,-470.633 1227.64,-478.965 1285.16,-484.747"/>
<polygon fill="black" stroke="black" points="1284.94,-488.242 1295.24,-485.76 1285.64,-481.278 1284.94,-488.242"/>
</g>
<!-- service_account_bundle&#45;&gt;manifests -->
<g id="edge72" class="edge"><title>service_account_bundle&#45;&gt;manifests</title>
<path fill="none" stroke="black" d="M1079.01,-447.961C1133.93,-450.505 1198.87,-463.279 1242,-503.668 1301.39,-559.283 1338.26,-812.877 1349.96,-905.592"/>
<polygon fill="black" stroke="black" points="1346.49,-906.082 1351.2,-915.574 1353.44,-905.219 1346.49,-906.082"/>
</g>
<!-- service_serving_ca_bundle&#45;&gt;bootstrap_ignition -->
<g id="edge46" class="edge"><title>service_serving_ca_bundle&#45;&gt;bootstrap_ignition</title>
<path fill="none" stroke="black" d="M1052.18,-720.587C1108.51,-704.574 1185.01,-677.06 1242,-634.668 1284.83,-602.807 1319.99,-550.55 1338.9,-518.806"/>
<polygon fill="black" stroke="black" points="1341.99,-520.445 1344.01,-510.044 1335.95,-516.916 1341.99,-520.445"/>
</g>
<!-- service_serving_ca_bundle&#45;&gt;manifests -->
<g id="edge73" class="edge"><title>service_serving_ca_bundle&#45;&gt;manifests</title>
<path fill="none" stroke="black" d="M1084.51,-742.124C1135.52,-748.01 1195.24,-761.378 1242,-790.668 1286.75,-818.699 1319.95,-871.524 1338.15,-906.152"/>
<polygon fill="black" stroke="black" points="1335.21,-908.093 1342.88,-915.401 1341.44,-904.904 1335.21,-908.093"/>
</g>
<!-- mcc_bundle&#45;&gt;bootstrap_ignition -->
<g id="edge47" class="edge"><title>mcc_bundle&#45;&gt;bootstrap_ignition</title>
<path fill="none" stroke="black" d="M623.128,-500.558C641.405,-493.257 658.814,-483.02 672,-468.668 718.091,-418.498 654.468,-361.807 708,-319.668 801.244,-246.27 1137.68,-263.109 1242,-319.668 1298.75,-350.434 1331.26,-423.782 1345.43,-464.044"/>
<polygon fill="black" stroke="black" points="1342.11,-465.172 1348.64,-473.521 1348.75,-462.927 1342.11,-465.172"/>
</g>
<!-- mcc_bundle&#45;&gt;manifests -->
<g id="edge74" class="edge"><title>mcc_bundle&#45;&gt;manifests</title>
<path fill="none" stroke="black" d="M624.923,-536.674C642.722,-543.991 659.494,-554.261 672,-568.668 730.347,-635.881 642.542,-705.358 708,-765.668 795.7,-846.471 1135.22,-765.571 1242,-818.668 1281.6,-838.362 1314.2,-878.363 1333.82,-906.983"/>
<polygon fill="black" stroke="black" points="1331.02,-909.094 1339.49,-915.464 1336.84,-905.205 1331.02,-909.094"/>
</g>
<!-- operator_manifests&#45;&gt;bootstrap_control_plane -->
<g id="edge48" class="edge"><title>operator_manifests&#45;&gt;bootstrap_control_plane</title>
<path fill="none" stroke="black" d="M625.961,-613.761C643.449,-621.077 659.841,-631.325 672,-645.668 738.053,-723.588 650.89,-787.974 708,-872.668 755.404,-942.967 845.012,-987.291 907.043,-1011.01"/>
<polygon fill="black" stroke="black" points="906.159,-1014.42 916.751,-1014.65 908.611,-1007.86 906.159,-1014.42"/>
</g>
<!-- misc_manifests -->
<g id="node30" class="node"><title>misc_manifests</title>
<polygon fill="lightpink" stroke="lightpink" points="1241.5,-625.668 708.5,-625.668 708.5,-589.668 1241.5,-589.668 1241.5,-625.668"/>
<text text-anchor="middle" x="975" y="-602.668" font-family="Times,serif" font-size="20.00">misc manifests (rbac, namespace, CRD, pod security policy, etc)</text>
</g>
<!-- operator_manifests&#45;&gt;misc_manifests -->
<g id="edge49" class="edge"><title>operator_manifests&#45;&gt;misc_manifests</title>
<path fill="none" stroke="black" d="M672.195,-599.655C680.781,-599.883 689.532,-600.116 698.39,-600.351"/>
<polygon fill="black" stroke="black" points="698.344,-603.851 708.434,-600.617 698.53,-596.853 698.344,-603.851"/>
</g>
<!-- operator_manifests&#45;&gt;bootstrap_ignition -->
<g id="edge50" class="edge"><title>operator_manifests&#45;&gt;bootstrap_ignition</title>
<path fill="none" stroke="black" d="M624.247,-577.562C642.213,-570.256 659.219,-560.016 672,-545.668 723.948,-487.349 647.381,-422.913 708,-373.668 800.105,-298.845 1132.97,-326.83 1242,-373.668 1284.85,-392.077 1319.02,-435.833 1337.88,-464.578"/>
<polygon fill="black" stroke="black" points="1335.13,-466.778 1343.46,-473.332 1341.04,-463.017 1335.13,-466.778"/>
</g>
<!-- operator_manifests&#45;&gt;manifests -->
<g id="edge75" class="edge"><title>operator_manifests&#45;&gt;manifests</title>
<path fill="none" stroke="black" d="M624.26,-613.762C642.225,-621.069 659.227,-631.312 672,-645.668 724.204,-704.342 649.645,-766.107 708,-818.668 796.623,-898.491 1128.78,-835.155 1242,-872.668 1267.41,-881.086 1293.21,-896 1313.64,-909.624"/>
<polygon fill="black" stroke="black" points="1311.82,-912.616 1322.05,-915.361 1315.76,-906.834 1311.82,-912.616"/>
</g>
<!-- bootstrap_control_plane&#45;&gt;bootstrap_ignition -->
<g id="edge51" class="edge"><title>bootstrap_control_plane&#45;&gt;bootstrap_ignition</title>
<path fill="none" stroke="black" d="M999.745,-1014.39C1050.42,-974.306 1170.38,-873.624 1242,-765.668 1296.36,-683.74 1332.02,-571.234 1346.57,-519.613"/>
<polygon fill="black" stroke="black" points="1349.98,-520.412 1349.28,-509.841 1343.24,-518.544 1349.98,-520.412"/>
</g>
<!-- bootstrap_control_plane&#45;&gt;manifests -->
<g id="edge76" class="edge"><title>bootstrap_control_plane&#45;&gt;manifests</title>
<path fill="none" stroke="black" d="M1089.2,-1014.61C1136.78,-1005.97 1192.48,-994.478 1242,-980.668 1255.86,-976.804 1270.44,-972.017 1284.33,-967.094"/>
<polygon fill="black" stroke="black" points="1285.61,-970.356 1293.83,-963.674 1283.23,-963.771 1285.61,-970.356"/>
</g>
<!-- misc_manifests&#45;&gt;bootstrap_ignition -->
<g id="edge52" class="edge"><title>misc_manifests&#45;&gt;bootstrap_ignition</title>
<path fill="none" stroke="black" d="M1121.72,-589.66C1161.49,-582.235 1204.06,-571.913 1242,-557.668 1270.04,-547.14 1299.11,-529.79 1320.6,-515.52"/>
<polygon fill="black" stroke="black" points="1322.71,-518.323 1329.03,-509.824 1318.79,-512.523 1322.71,-518.323"/>
</g>
<!-- misc_manifests&#45;&gt;manifests -->
<g id="edge77" class="edge"><title>misc_manifests&#45;&gt;manifests</title>
<path fill="none" stroke="black" d="M1183.66,-625.743C1204.79,-633.74 1224.78,-644.442 1242,-658.668 1318.77,-722.091 1343.26,-845.721 1350.8,-905.575"/>
<polygon fill="black" stroke="black" points="1347.34,-906.116 1351.98,-915.64 1354.29,-905.3 1347.34,-906.116"/>
</g>
<!-- bootstrap_ignition&#45;&gt;terraform_state -->
<g id="edge55" class="edge"><title>bootstrap_ignition&#45;&gt;terraform_state</title>
<path fill="none" stroke="black" d="M1361.85,-509.851C1393.16,-607.16 1540.92,-1066.37 1579.02,-1184.76"/>
<polygon fill="black" stroke="black" points="1575.77,-1186.09 1582.16,-1194.53 1582.43,-1183.94 1575.77,-1186.09"/>
</g>
<!-- bootstrap_ignition&#45;&gt;ignition_configs -->
<g id="edge81" class="edge"><title>bootstrap_ignition&#45;&gt;ignition_configs</title>
<path fill="none" stroke="black" d="M1359.81,-509.793C1371.84,-567.507 1409.55,-752.276 1432,-906.668 1453.42,-1053.98 1401.41,-1106.53 1468,-1239.67 1484.68,-1273.02 1515.66,-1301.53 1541.96,-1321.44"/>
<polygon fill="black" stroke="black" points="1540.18,-1324.48 1550.31,-1327.6 1544.34,-1318.85 1540.18,-1324.48"/>
</g>
<!-- master_ignition&#45;&gt;terraform_state -->
<g id="edge56" class="edge"><title>master_ignition&#45;&gt;terraform_state</title>
<path fill="none" stroke="black" d="M1387.29,-1329.46C1428.92,-1305.24 1502.54,-1262.39 1548.12,-1235.88"/>
<polygon fill="black" stroke="black" points="1549.95,-1238.86 1556.84,-1230.8 1546.43,-1232.81 1549.95,-1238.86"/>
</g>
<!-- master_ignition&#45;&gt;ignition_configs -->
<g id="edge82" class="edge"><title>master_ignition&#45;&gt;ignition_configs</title>
<path fill="none" stroke="black" d="M1405.2,-1348.52C1420.87,-1348.79 1439.01,-1349.1 1457.65,-1349.42"/>
<polygon fill="black" stroke="black" points="1457.68,-1352.92 1467.74,-1349.59 1457.8,-1345.92 1457.68,-1352.92"/>
</g>
<!-- worker_ignition&#45;&gt;terraform_state -->
<g id="edge57" class="edge"><title>worker_ignition&#45;&gt;terraform_state</title>
<path fill="none" stroke="black" d="M1390.04,-1406.48C1404.03,-1397.99 1419.78,-1387.02 1432,-1374.67 1452.81,-1353.64 1448.73,-1341.12 1468,-1318.67 1494.63,-1287.64 1530.27,-1257.28 1555.78,-1237.06"/>
<polygon fill="black" stroke="black" points="1557.97,-1239.78 1563.68,-1230.86 1553.65,-1234.28 1557.97,-1239.78"/>
</g>
<!-- worker_ignition&#45;&gt;ignition_configs -->
<g id="edge83" class="edge"><title>worker_ignition&#45;&gt;ignition_configs</title>
<path fill="none" stroke="black" d="M1406.63,-1408.74C1434.42,-1399.99 1469.64,-1388.91 1501.64,-1378.84"/>
<polygon fill="black" stroke="black" points="1502.96,-1382.09 1511.45,-1375.75 1500.86,-1375.42 1502.96,-1382.09"/>
</g>
<!-- kubeconfig_admin&#45;&gt;manifests -->
<g id="edge79" class="edge"><title>kubeconfig_admin&#45;&gt;manifests</title>
<path fill="none" stroke="black" d="M1055.7,-1409.02C1114.42,-1408.5 1192.39,-1397.82 1242,-1351.67 1270.35,-1325.3 1327.02,-1067.58 1346.91,-973.673"/>
<polygon fill="black" stroke="black" points="1350.34,-974.331 1348.98,-963.824 1343.49,-972.886 1350.34,-974.331"/>
</g>
<!-- kubeconfig_admin&#45;&gt;cluster -->
<g id="edge80" class="edge"><title>kubeconfig_admin&#45;&gt;cluster</title>
<path fill="none" stroke="black" d="M1055.76,-1393.85C1109.88,-1385.31 1182.17,-1370.18 1242,-1344.67 1259.69,-1337.12 1260.05,-1327.55 1278,-1320.67 1434.75,-1260.56 1634.59,-1247.55 1735.86,-1245.02"/>
<polygon fill="black" stroke="black" points="1736.02,-1248.52 1745.94,-1244.79 1735.86,-1241.52 1736.02,-1248.52"/>
</g>
<!-- kubeconfig_kubelet&#45;&gt;bootstrap_ignition -->
<g id="edge53" class="edge"><title>kubeconfig_kubelet&#45;&gt;bootstrap_ignition</title>
<path fill="none" stroke="black" d="M1033,-1199.62C1094.58,-1177.05 1190.73,-1132.29 1242,-1059.67 1250.01,-1048.32 1327.74,-632.822 1348.77,-519.8"/>
<polygon fill="black" stroke="black" points="1352.24,-520.302 1350.63,-509.83 1345.36,-519.022 1352.24,-520.302"/>
</g>
<!-- kubeconfig_kubelet&#45;&gt;master_ignition -->
<g id="edge54" class="edge"><title>kubeconfig_kubelet&#45;&gt;master_ignition</title>
<path fill="none" stroke="black" d="M1028.56,-1235.74C1098.64,-1259.85 1222.33,-1302.38 1295.36,-1327.5"/>
<polygon fill="black" stroke="black" points="1294.29,-1330.83 1304.89,-1330.78 1296.57,-1324.21 1294.29,-1330.83"/>
</g>
<!-- kubeconfig_kubelet&#45;&gt;manifests -->
<g id="edge78" class="edge"><title>kubeconfig_kubelet&#45;&gt;manifests</title>
<path fill="none" stroke="black" d="M1060.24,-1220.23C1116.85,-1217.78 1190.29,-1206.06 1242,-1166.67 1305.61,-1118.21 1335.38,-1023.95 1347.28,-973.486"/>
<polygon fill="black" stroke="black" points="1350.7,-974.234 1349.49,-963.709 1343.87,-972.691 1350.7,-974.234"/>
</g>
<!-- terraform_state&#45;&gt;cluster -->
<g id="edge84" class="edge"><title>terraform_state&#45;&gt;cluster</title>
<path fill="none" stroke="black" d="M1629.19,-1218.61C1659.02,-1223.14 1700.75,-1229.46 1735.61,-1234.75"/>
<polygon fill="black" stroke="black" points="1735.3,-1238.24 1745.71,-1236.28 1736.35,-1231.32 1735.3,-1238.24"/>
</g>
</g>
</svg>
